<?xml version="1.0" standalone="no"?>
<!DOCTYPE svg PUBLIC "-//W3C//DTD SVG 1.1//EN" "http://www.w3.org/Graphics/SVG/1.1/DTD/svg11.dtd" >
<svg>
<metadata>
Created by FontForge 20120731 at Sun Oct 18 18:19:28 2015
 By ,,,
(c) Copyright PJ Lloyd 1995
</metadata>
<defs>
<font id="BirminghamTitling" horiz-adv-x="152" >
  <font-face 
    font-family="BirminghamTitling"
    font-weight="400"
    font-stretch="normal"
    units-per-em="1000"
    panose-1="2 11 5 0 0 0 0 0 0 0"
    ascent="800"
    descent="-200"
    x-height="795"
    cap-height="1000"
    bbox="-1 -173 1156 1112"
    underline-thickness="0"
    underline-position="0"
    unicode-range="U+0020-00A3"
  />
<missing-glyph horiz-adv-x="502" 
d="M-1 0h500v500h-500v-500zM9 10v480h480v-480h-480z" />
    <glyph glyph-name=".notdef" horiz-adv-x="502" 
d="M-1 0h500v500h-500v-500zM9 10v480h480v-480h-480z" />
    <glyph glyph-name="space" unicode=" " horiz-adv-x="450" 
 />
    <glyph glyph-name="exclam" unicode="!" 
d="M86 204q-53 0 -53 -53q0 -52 53 -52t53 52q0 53 -53 53zM107 232q0 64 3 119.5t9 114.5q16 156 19 214q0 133 -11 192t-34 62q-32 0 -49 -57q-12 -40 -12 -111q0 -38 3 -86q0 -29 5 -94l1 -17l9 -108q2 -25 5 -70q4 -42 5 -59q5 -70 5 -105q10 4 10 12q0 6 12 6t12 -2
l-1 -1q0 -2 -1 -2q0 -3 10 -8z" />
    <glyph glyph-name="quotedbl" unicode="&#x22;" horiz-adv-x="208" 
d="M15 933v-32q0 -19 1 -38v-20q2 -35 8 -55q7 -25 21 -25t21 25q7 27 8 55v18q1 23 1 41q-1 18 -1 31q-14 -7 -30 -7t-29 7zM119 933v-32q0 -18 1 -38v-20q2 -31 9 -55q7 -25 22 -25q14 0 21 25q7 27 8 55v59q-1 18 -1 31q-14 -7 -30 -7t-30 7z" />
    <glyph glyph-name="numbersign" unicode="#" horiz-adv-x="561" 
d="M399 792q-7 -72 -20 -196h-35h-36h-40h-40q7 61 13 98q3 22 7 49t7 49q-12 -5 -19 -5t-17 5q-2 -22 -5 -49t-5 -49t-5 -49t-5 -49q-41 0 -61 1q-41 0 -61 1q0 -12 -1 -16q-1 -6 -8 -16q43 0 64 1q42 0 63 1q-2 -21 -6 -61q-3 -21 -7 -61q-2 -15 -6 -47l-6 -48
q-41 0 -62 1t-62 1q0 -7 -1 -12v-4q-1 -4 -5 -12l-2 -4q6 0 33 1q17 0 32 1h64q-3 -25 -7 -55q-4 -31 -7 -56l-15 -111q12 5 17 5t15 -5l12 111l1 10q8 74 12 102h38h37h39q13 -1 39 -1l-15 -111q-3 -25 -7 -56t-7 -56q10 5 17 5t15 -5q3 25 6 56t6 56t6 55t6 55l126 -3
q0 2 -1 5v3q0 2 1 6q1 2 1 4q2 8 9 18q-15 -1 -33 -1q-27 -1 -33 -1q-22 -1 -66 -1q1 16 5 48q1 10 3 23t3 23q4 40 7 60q2 12 4 32q3 20 4 29q14 -1 32 -1q17 0 31 -1q21 -1 64 -1q0 8 1 14v4q2 9 8 18q-15 -1 -33 -1t-33 -1q-22 -1 -66 -1q8 64 13 97q6 37 13 98
q-12 -5 -18 -5q-10 0 -18 5zM351 352q-13 -1 -37 -1h-36h-40h-40l6 48q1 18 5 47q2 12 4 32q3 20 4 29q2 15 7 53l1 8h38h38h37q13 -1 38 -1q-3 -20 -7 -60q-4 -39 -7 -61q-4 -29 -5 -47q-4 -32 -6 -47z" />
    <glyph glyph-name="dollar" unicode="$" horiz-adv-x="672" 
d="M332 928q-3 -22 -7 -66q-2 -15 -4 -33t-4 -33h-7h-8q-86 0 -142 -39q-55 -40 -60 -77l-1 -1h1v-3q-4 -21 -4 -31q0 -60 53 -102q55 -43 133 -51v-1q-3 -13 -4 -26q-7 -55 -21 -163q-5 -36 -11 -81t-11 -81h-3q-26 6 -35 9q-11 4 -32 16q-45 24 -71 61q-8 12 -13 36
q-1 3 -1 4q-3 18 -3 23q0 2 1 4v2q5 28 17 34q12 5 37 5l6 -3q3 -3 5 -4t6 -4l2 -1q5 -4 10 -18q0 -14 -5 -19l-1 -3q0 -3 8 -3q14 0 37 17q23 15 26 31q4 7 6 17v3v3v3v4q0 73 -81 80q-1 0 -7 1h-8q-41 0 -69 -20q-32 -24 -32 -67v-2v-2v-2v-3v-3v-3v-2q0 -16 8 -56
q6 -35 23 -61q12 -21 36 -38q29 -22 45 -30q32 -19 78 -31q1 0 3 -1q2 0 4 -1q-2 -13 -4 -28q-3 -15 -5 -28t-4 -29t-4 -29q15 7 26 7t25 -7q1 11 3 26t3 26q1 17 5 51q38 -5 65 -5q52 0 108 10q60 9 99 33q57 32 84 84q26 51 27 93q0 120 -102 207q-94 77 -220 85
q3 25 11 77q1 11 5 35q3 27 5 42q47 -3 76 -19q36 -19 51 -44l22 -54q12 -3 22 -3t19 3q-22 42 -33 79q-9 26 -10 40q-4 21 -5 39q-13 3 -23 3t-18 -3q0 -6 3 -12q3 -7 3 -10l-6 21q2 -4 2 -11q0 -14 -15 -14q-24 0 -49 5q-11 2 -35 6q2 15 5 34t5 34t5 34q2 19 4 34
q-14 -7 -25 -7q-12 0 -25 7zM323 491q95 -3 183 -53q87 -52 95 -94q2 -7 2 -23q0 -32 -12 -74q-18 -56 -67 -86q-34 -22 -86 -29q-59 -8 -96 -8q-24 0 -56 5q-2 0 -3 1h-3q12 112 19 168q4 30 11 88q6 53 9 79q0 1 1 7q0 3 1 6q0 1 1 7q0 3 1 6zM314 766q-1 -12 -4 -37
q-2 -26 -4 -40q-2 -17 -5 -38t-5 -38q-37 5 -64 26q-35 24 -35 64h3q3 26 45 45q29 14 69 18z" />
    <glyph glyph-name="percent" unicode="%" horiz-adv-x="568" 
d="M497 795q-76 -116 -114 -173q-53 -82 -116 -173q-22 -32 -90 -132l-28 -41q-22 -32 -90 -132l-28 -41q17 6 27 6q11 0 18 -6q38 57 114 173q38 57 116 173q24 35 47 70q47 69 71 103q39 57 119 173q-15 -7 -27 -7t-19 7zM183 797q-61 0 -103 -45t-42 -108t42 -108
t103 -45q60 0 103 45q42 45 42 108t-42 108q-43 45 -103 45zM183 763q14 0 41 -33q26 -34 26 -81q0 -48 -26 -86q-27 -37 -41 -37q-15 0 -39 36t-24 84q0 49 24 83t39 34zM384 404q-60 0 -102 -45q-43 -44 -43 -108q0 -65 43 -108q43 -44 102 -44t103 44q42 44 42 108
q0 63 -42 108q-43 45 -103 45zM384 369q15 0 43 -36q29 -37 29 -85t-29 -82q-28 -34 -43 -34q-14 0 -40 35q-25 34 -25 84q0 49 25 83q26 35 40 35z" />
    <glyph glyph-name="ampersand" unicode="&#x26;" horiz-adv-x="685" 
d="M494 227q-46 63 -79 110q-18 25 -40 55t-40 55q-1 1 -2 3t-2 3q-4 4 -5 7h1l-79 108q-1 0 -1 1q-10 14 -18 27q-8 14 -8 31v12q-1 10 -1 12q0 51 28 77q33 33 83 38q52 0 91 -21q44 -24 56 -73h-1q1 -1 1 -6q0 -2 1 -5v-4q1 -4 1 -6q0 -12 -6 -26q-9 -22 -24 -30
q-16 -16 -32 -22q12 -3 27 -3q48 0 71 29v-1q23 32 23 68q0 29 -15 59q-34 66 -168 70q-96 0 -161 -49q-67 -49 -67 -119q0 -40 29 -81q24 -34 58 -77l-45 -22q-56 -24 -90 -67t-34 -96q0 -77 68 -130q68 -54 164 -54h8q7 -1 8 -1q35 0 68 18q8 5 16 9q42 23 60 33
q7 -16 7 -22q0 -12 -9 -12h-7v-1h-1h1q0 -5 5 -12q5 -8 13 -12q12 0 18 1q11 0 17 1q22 1 51 1q40 0 52 -1q5 0 23 -1q9 0 22 -1q0 7 -4 12q-7 7 -14 12q-3 1 -12 1h7q-40 0 -94 76l40 22q65 35 87 54q21 18 40 46zM419 188q-56 -55 -122 -55q-34 0 -66 14q-102 41 -104 162
q0 60 52 102l53 37v-1q21 -29 47 -64q26 -36 47 -65t47 -65q25 -36 46 -65zM513 201l54 -74q-18 24 -27 37q-9 12 -14 18q-4 6 -13 19z" />
    <glyph glyph-name="quotesingle" unicode="'" horiz-adv-x="117" 
d="M9 933v-32q0 -19 1 -38v-20q2 -35 8 -55q7 -25 21 -25t21 25q7 27 8 55v18q1 23 1 41q-1 18 -1 31q-16 -8 -30 -8q-13 0 -29 8z" />
    <glyph glyph-name="parenleft" unicode="(" horiz-adv-x="167" 
d="M116 0q-28 69 -45 169q-17 98 -17 214q0 148 27 268t69 182q-59 -29 -98 -149q-40 -121 -40 -281q0 -136 29 -244q29 -109 75 -159z" />
    <glyph glyph-name="parenright" unicode=")" horiz-adv-x="179" 
d="M58 0q45 50 75 159q29 108 29 244q0 160 -40 281q-40 120 -99 149q43 -62 70 -182q26 -120 26 -268q0 -115 -16 -214q-17 -99 -45 -169z" />
    <glyph glyph-name="asterisk" unicode="*" 
d="M86 817q29 -45 41 -45q4 0 9 7q2 3 2 10q0 21 -35 56q38 32 38 51q0 5 -3 9q-2 5 -9 5q-15 0 -43 -41q0 6 1 15v11q0 39 -14 39q-16 0 -16 -34v-9q1 -8 1 -13q-26 32 -38 32q-5 0 -8 -6q-2 -2 -2 -8q0 -20 37 -51q-33 -34 -33 -57q0 -1 1 -4v-4q3 -8 8 -8q10 0 34 35v-11
q-1 -8 -1 -9q0 -40 16 -40q15 3 15 45v11q-1 8 -1 14z" />
    <glyph glyph-name="plus" unicode="+" horiz-adv-x="630" 
d="M199 450v-2q-49 0 -74 1q-17 1 -36 1q-30 1 -37 1q0 -8 -1 -15v-5q-3 -8 -9 -19q51 0 76 1q51 0 77 1v-1v-1l35 1v1h11h11l27 1v-1h15h14q-1 -9 -1 -19q0 -11 -1 -20t-1 -19q0 -11 -1 -20h-2l-2 -44h1q-4 -64 -6 -97q-4 -63 -7 -97q10 7 23 12q5 2 22 2q0 45 1 68
q0 23 2 65v3h-1l4 93q0 24 1 37q0 24 1 36h36q11 -1 35 -1h76v-1q19 -1 56 -1q5 0 28 -1q14 0 27 -1q0 8 1 17q1 4 1 5q1 8 10 22q-18 -1 -40 -1t-40 -1t-39 -1q-33 -1 -40 -1v1h-36v-1q-13 -1 -37 -1h-36v4q2 17 3 51h-1l2 34q1 8 1 14q1 10 1 13l4 43h-2q1 21 3 47t3 47
q1 31 5 88v6q-10 -9 -20 -12q-4 -2 -11 -2h-3q-3 1 -5 1l-3 -90q-1 -20 -2 -45t-2 -45h-1l-2 -44l1 1h1q-1 -13 -1 -28q-1 -15 -2 -28t-1 -27q-1 -23 -1 -28h-38h-38v1v1h-35z" />
    <glyph glyph-name="comma" unicode="," horiz-adv-x="138" 
d="M93 107q-1 -19 -13 -36q-12 -20 -17 -32q33 13 45 49q10 32 10 55v7q-1 5 -1 6q-1 1 -1 3v3q0 1 -1 3q0 2 -1 4q-14 35 -50 35q-53 0 -53 -53q0 -52 53 -52q16 0 29 8z" />
    <glyph glyph-name="hyphen" unicode="-" horiz-adv-x="630" 
d="M199 450v-2q-49 0 -74 1q-17 1 -36 1q-30 1 -37 1q0 -8 -1 -15v-5q-1 -7 -10 -19q51 0 77 1q51 0 77 1v-2l35 1v1h11h11l27 1v-1h22h20h46q15 -1 45 -1h76v-1q19 -1 56 -1q5 0 28 -1q14 0 27 -1q0 8 1 17q1 4 1 5q1 6 9 21l1 1h-3q-49 -2 -77 -2q-18 -1 -39 -1
q-33 -1 -40 -1v1h-36v-1q-15 -1 -43 -1h-43h-48h-48v1v1h-35z" />
    <glyph glyph-name="period" unicode="." horiz-adv-x="135" 
d="M64 204q-53 0 -53 -53q0 -52 53 -52t53 52q0 53 -53 53z" />
    <glyph glyph-name="slash" unicode="/" horiz-adv-x="242" 
d="M177 692q-17 -73 -39 -172q-20 -86 -41 -174q-18 -75 -42 -172q-17 -68 -43 -173q13 4 23 4q7 0 20 -4q20 86 41 173q17 73 41 172q22 90 43 174q22 86 45 172q-15 -4 -25 -4q-12 0 -23 4z" />
    <glyph glyph-name="zero" unicode="0" horiz-adv-x="572" 
d="M299 796q-107 0 -184 -102q-76 -103 -76 -245q0 -145 76 -245q77 -102 184 -102q108 0 183 102q77 103 77 245q0 141 -77 245q-76 102 -183 102zM287 754q56 -4 110 -78q53 -74 56 -198q0 -131 -46 -230q-45 -99 -107 -99q-58 4 -106 71q-47 65 -50 191q0 69 10 126.5
t30 110.5q40 106 103 106z" />
    <glyph glyph-name="one" unicode="1" horiz-adv-x="239" 
d="M29 123h-8q-1 0 -1 -1h-1h1q-4 -5 -4 -10q0 -6 5 -11q12 0 18 1q12 0 19 1h12h13q8 0 13 1h13h13h13h13q4 -1 13 -1q7 -1 21 -1q7 -1 22 -1q5 7 5 12q0 4 -5 12q-4 0 -6 1h-6h4h3q-38 0 -38 73v-36v-36v77v78v77v78v63v63v63v63q2 59 38 73v1q5 12 5 15q0 5 -5 10
q-4 -2 -15 -6l-8 -4q-7 -4 -23 -10q-20 -9 -45 -19q-6 -2 -13 -5q-23 -8 -33 -12q-16 -6 -23 -8q-3 -1 -10 -3q-9 -3 -13 -5q-4 -8 -4 -12q0 -5 4 -10q2 0 3 1v-1v1q2 0 3 1h3q2 0 5 1h3q21 0 25 -40v-61v-59v-61v-60v-60v-61v-60v-60q-4 -45 -29 -52z" />
    <glyph glyph-name="two" unicode="2" horiz-adv-x="553" 
d="M167 774h-3q-2 -1 -3 -1q-13 0 -28 12v1q-7 6 -17 10q-1 0 -4 1h-5h-5q-4 -1 -6 -1q-1 -39 -9 -64q-7 -25 -26 -59q9 -9 18 -10q3 -2 11 -2q1 0 5 1h4q6 13 10 20q18 24 50 47q31 22 63 28l-17 -3q52 11 104 11q80 0 114 -30q34 -31 34 -60h-1q-4 -54 -69 -59l-1 1
q-165 0 -257 -144q-92 -143 -94 -355v-4q0 -3 2 -13q21 2 62 4q40 3 59 4q60 3 121 3q98 0 216 -9v-1q10 -2 15 -2q6 0 9 1h2h3l-1 1h2q-5 38 -5 57q0 18 5 56q-7 3 -15 3q-7 0 -15 -3q-2 -8 -3 -25q-13 -49 -68 -55q-92 5 -148 5q-27 0 -79 -2q-14 0 -41 -2q-26 -1 -38 -2
q-44 0 -44 38q0 1 1 6v6q28 130 95 219q64 86 194 94v1q54 2 111 45q57 44 57 122v3v3h-1q0 40 -64 82t-158 42q-44 0 -90 -8q-11 -1 -29 -7l-12 -3q-8 -2 -11 -3z" />
    <glyph glyph-name="three" unicode="3" horiz-adv-x="401" 
d="M189 498q-3 -7 -3 -13q0 -5 3 -10q2 -6 2 -10q1 1 2 1q52 0 68 -55q17 -57 17 -148q0 -89 -80 -166q-82 -77 -129 -83h11q30 0 81 25q54 25 101 64q48 37 85 89q36 50 36 101q0 97 -50 153q-51 55 -107 63q8 22 30 59q7 12 20 35q18 31 27 45q26 41 45 78q19 35 19 54v2
v2q0 8 -1 13q-56 -6 -83 -8q-42 -3 -84 -3q-67 0 -149 8l1 1q-9 3 -10 3q-4 0 -7 -1h-3v-1q0 -1 -1 -1q4 -29 4 -56q0 -28 -4 -56q8 -3 16 -3q5 0 12 3q0 1 1 7q0 3 1 6q0 8 1 12q8 48 46 56q17 -2 47 -4t47 -2q33 0 43 1q9 1 15 1q20 2 27 3q18 -2 26 -3q6 0 6 -25
q-1 -8 -18 -40q-10 -17 -27 -46q-1 -2 -12 -21q-25 -41 -42 -70q-19 -34 -27 -51q-1 -1 -1 -2q0 -2 -1 -3q-1 -2 -1 -4z" />
    <glyph glyph-name="four" unicode="4" horiz-adv-x="457" 
d="M243 300q-6 -21 -30 -21l3 -1q-41 0 -62 -1t-62 -1q-21 2 -24 12q0 17 17 44l-38 -58h-1q16 24 45 66l22 33q36 55 65 104q76 126 153 281q4 4 4 17q0 3 -1 6l-1 2l-1 2q-1 4 -1 6q-26 -52 -76 -147q-38 -72 -77 -136q-21 -35 -62 -99l-14 -21q-15 -23 -45 -66
q-20 -29 -32 -47v-2h-1q-2 -8 -2 -14q0 -7 2 -13h1v-1v-2q1 1 1 2q1 0 1 1q31 1 95 3q32 1 96 1q19 -1 25 -24v-6v-7v-34v-35q-4 -27 -29 -31q-1 -1 -8 -1h-1h1q-5 -5 -5 -6q0 -3 5 -5q20 0 37 1h13h13q20 0 25 1h14h12q20 0 26 -1q24 0 43 -1q5 7 5 10t-4 10l-1 1h-5h-6h3
h4q-39 0 -39 56v-29v-28v1v53v54q2 14 20 19q12 -1 39 -1q13 -1 34 -1q2 10 2 13t-1 10l-1 4q-21 0 -36 1t-40 1h11q-23 0 -28 23v33v34v50v49v50v49q2 49 38 108q0 1 1 2q4 12 4 19q0 3 -4 3q-17 -31 -46 -79q-1 -1 -7 -11q-11 -17 -16 -27l-9 -15q-9 -13 -14 -22
q-11 -15 -23 -34q-10 -17 -23 -35q-11 -16 -27 -39q-10 -14 -19 -27q-3 -9 -3 -11l1 -1l2 1q1 0 3 3l1 2q0 -1 -1 -1q1 0 1 1l3 3q1 1 1 2t1 2q19 25 27 25q6 0 6 -9v-34v-36v-26v-27z" />
    <glyph glyph-name="five" unicode="5" horiz-adv-x="332" 
d="M204 469q-16 7 -43 22l-6 3q-19 11 -24 27h1q-16 45 -19 122q-3 65 -5 92q0 25 6 25q7 1 26 3q18 -2 25 -4q7 -1 25 -1q24 0 28 2q1 1 21 3q4 1 7 1q38 -8 47 -56q0 -5 1 -17q0 -2 1 -8q8 -3 13 -3q8 0 15 3q-4 25 -4 56q0 29 4 56q-1 0 -2 1q1 0 1 1h-4q-2 1 -5 1
q-2 0 -11 -3v-1q-39 -5 -55 -6q-24 -2 -55 -2q-41 0 -83 3q-31 2 -83 8v-2q-2 -8 -2 -11v-2v-2q0 -25 5 -93q5 -71 20 -144l9 -45q1 -8 6 -19l1 1q53 0 96 -73t43 -167q0 -90 -66 -155q-67 -65 -115 -71h11q31 0 77 21q45 20 90 56q44 35 76 82t32 97q0 151 -105 199z" />
    <glyph glyph-name="six" unicode="6" horiz-adv-x="408" 
d="M293 794q-1 1 -7 1q-114 0 -188 -140q-39 -79 -47 -108q-10 -31 -24 -130q0 -19 2 -60v-8v-4v-5q0 -99 54 -168q52 -70 130 -70q75 0 129 70q54 71 54 168t-54 169q-55 70 -129 70q-25 0 -35 -7q-2 -2 -9 -7q-11 -8 -21 -15q0 2 7 22q24 80 55 130q30 51 65 59q6 0 10 1
q3 0 7 -1h3zM214 548q26 -11 36 -26q12 -22 17 -31q12 -26 19 -58q6 -30 8 -79q0 -29 -0.5 -45t-1.5 -37q-5 -41 -19 -76q-25 -63 -54 -63h-3q-2 1 -4 1q-39 10 -56 51q-11 28 -21 55q-6 14 -8.5 36t-2.5 59q2 41 6 76q5 38 17 74q11 33 29 44q19 12 38 19z" />
    <glyph glyph-name="seven" unicode="7" horiz-adv-x="381" 
d="M248 419q51 139 84 235q34 99 34 126v2v2q0 8 -1 13q-56 -6 -83 -8q-42 -3 -84 -3q-67 0 -149 8l1 1q-9 3 -10 3q-4 0 -7 -1h-3v-1q0 -1 -1 -1q4 -29 4 -56q0 -28 -4 -56q8 -3 16 -3q5 0 12 3q0 1 1 7q0 3 1 6q0 8 1 12q8 48 46 56q17 -2 47 -4t47 -2q33 0 43 1q9 1 15 1
q20 2 27 3q18 -2 26 -3q6 0 6 -25q-2 -12 -34 -98q-14 -37 -38 -102q-12 -31 -36 -94q-28 -74 -69 -180l-8 -20q-5 -12 -24 -60q-18 -44 -20 -49q-1 -1 -1 -2q0 -2 -1 -3t-1 -3q-3 -7 -3 -14q0 -4 3 -9l7 -4q3 0 5 2l-1 2h-7v-1q27 0 57 11q37 12 51 47q13 51 13 88v9
q-1 7 -1 8q0 50 39 156z" />
    <glyph glyph-name="eight" unicode="8" horiz-adv-x="520" 
d="M273 796q-61 0 -104 -31q-43 -33 -43 -76q0 -44 43 -74q10 -8 23 -14q-49 -20 -87 -61q-69 -76 -69 -182q0 -107 69 -182t167 -75q96 0 166 75q70 76 70 182t-70 182q-39 41 -85 60q20 11 25 15q43 30 43 74q0 45 -43 76t-105 31zM261 582q52 -3 98 -55q46 -53 49 -147
q0 -97 -40 -171q-40 -73 -95 -73q-51 3 -93 52q-42 48 -45 142q0 98 36 176q34 76 90 76zM273 767q24 0 40 -22t16 -53q0 -30 -16 -52t-40 -22t-40 22q-17 23 -17 52q0 30 17 53q16 22 40 22z" />
    <glyph glyph-name="nine" unicode="9" horiz-adv-x="406" 
d="M123 6h4h3q53 0 99 55q48 57 84 128q38 78 54 134q16 63 29 156q0 18 -2 63v6v4v4q0 99 -54 169t-129 70q-76 0 -130 -70t-54 -169q0 -97 54 -168q54 -70 130 -70q25 0 39 7q13 7 34 21q-1 -2 -1 -5q-1 -3 -2 -5l-3 -12q-1 -8 -10 -53q-2 -14 -7 -39q-9 -49 -30 -90
q-26 -46 -47 -70q-25 -28 -42 -33h-11h-10zM209 349q-28 9 -39 26q-2 3 -5 8q-10 15 -14 23q-12 23 -20 58q-7 35 -9 78q0 28 1 48t2 35q5 41 20 76q27 63 59 63h4l3 -1q45 -12 61 -52q4 -9 15 -36q4 -8 8 -18q5 -15 8 -37.5t3 -58.5q-1 -41 -6 -76q-4 -29 -19 -73
q-10 -31 -31 -45q-19 -13 -41 -18z" />
    <glyph glyph-name="colon" unicode=":" 
d="M65 600q-53 0 -53 -54q0 -52 53 -52t53 52q0 54 -53 54zM65 206q-53 0 -53 -53q0 -52 53 -52t53 52q0 53 -53 53z" />
    <glyph glyph-name="semicolon" unicode=";" horiz-adv-x="145" 
d="M93 107q-1 -19 -13 -36q-12 -20 -17 -32q33 13 45 49q10 32 10 55v7q-1 5 -1 6q-1 1 -1 3v3q0 1 -1 3q0 2 -1 4q-14 35 -50 35q-53 0 -53 -53q0 -52 53 -52q16 0 29 8zM64 600q-53 0 -53 -54q0 -52 53 -52t53 52q0 54 -53 54z" />
    <glyph glyph-name="equal" unicode="=" horiz-adv-x="630" 
d="M199 367v-1q-49 0 -74 1q-49 0 -73 1q0 -7 -1 -14v-5q-1 -8 -10 -20q25 1 77 1q51 0 77 1v-1l35 1h11h11l27 1h22h20h46q15 -1 45 -1v-1h76q13 -1 28 -1t28 -1q18 -1 55 -1q0 8 1 17q1 4 1 5q1 4 9 20l1 1q-18 -1 -40 -1t-40 -1t-39 -1q-33 -1 -40 -1v1h-36v-1
q-15 -1 -43 -1h-43h-96v2h-35zM199 528v-2q-49 0 -74 1q-17 1 -36 1q-30 1 -37 1q0 -8 -1 -15v-5q-1 -7 -10 -19q51 0 77 1q25 1 77 1v-1l35 1v1h11h11l27 1v-1h22h20h46q15 -1 45 -1h76v-2q37 0 56 -1q5 0 28 -1q14 0 27 -1q0 8 1 17q1 4 1 5q1 6 9 21l1 1q-18 -1 -40 -1
t-40 -1t-39 -1q-33 -1 -40 -1v1h-36v-1q-15 -1 -43 -1h-43h-48h-48v1v1h-35z" />
    <glyph glyph-name="question" unicode="?" horiz-adv-x="401" 
d="M215 232q-3 3 -6 45q-1 19 -1 92q2 54 11 91q9 41 31 44q53 0 91 47q37 46 40 106q0 114 -55 194q-56 80 -132 80q-49 0 -108 -53q-60 -52 -60 -104q0 -53 53 -53q52 0 52 53q0 36 -33 49v4l-1 3q0 12 13 25q46 49 80 49q19 0 33 -13q42 -39 59 -114q9 -45 9 -88
q0 -34 -4 -59q-10 -67 -43 -67l-3 1h-4q-25 0 -57 -33q-23 -23 -23 -67q0 -17 5 -44q1 -38 7 -106q4 -45 4 -87q10 5 10 12q0 6 12 6t12 -2l-1 -1q0 -2 -1 -2q0 -3 10 -8zM194 204q-53 0 -53 -53q0 -52 53 -52q52 0 52 52q0 53 -52 53z" />
    <glyph glyph-name="at" unicode="@" horiz-adv-x="582" 
d="M495 213h-1q-54 0 -78 -29q-53 -56 -116 -56q-92 0 -142 114q-51 113 -51 274q0 159 51 273q50 114 142 114q94 0 146 -114q52 -113 52 -273q0 -5 1 -19l1 -25q0 -3 1 -18v-18v-18q-1 -15 -1 -18q-1 -37 -11 -67t-32 -30q-31 0 -47 64q-14 52 -21 77q-14 43 -23 76
q-5 14 -12 37q-4 11 -12 36q-3 8 -6 18q-4 12 -5 18l-12 36q-3 6 -3 16q0 6 3 10q4 10 12 10v7q0 3 -1 4t-1 3q-1 -1 -7 -1l-7 -1q-3 -1 -14 -1q-14 -1 -19 -1h-3h-5q-8 0 -11 1q-9 0 -11 1q-6 1 -11 1v-6t4 -7h1q8 -5 8 -13q-1 -6 -3 -20v-1v-1q-4 -12 -5 -18t-5 -18
q-1 -4 -2 -9t-2 -9l-2 -6q-2 -9 -3 -12q-1 -4 -1 -5q-3 -9 -4 -14l-2 -10l-2 -7q-4 -12 -5 -18q-4 -12 -5 -18q-3 -13 -5 -22q-4 -16 -6 -23q-7 -23 -12 -44q-3 -13 -5 -22q-4 -16 -6 -23l-12 -44l11 41q-8 -24 -16 -32q-10 -10 -15 -10h2h-2l-3 -7q-1 -2 -1 -7q3 0 11 1h10
q1 1 7 1q5 0 8 -1h9q9 -1 11 -1q1 5 2 6l1 4q0 1 1 2v1q-1 0 -2 1q-2 2 -8 9q-4 3 -4 13q0 1 1 5v4q0 2 4 18l1 3q2 8 3 11q2 9 3 11v-1v1q0 3 3 7l2 6q1 3 4 6q3 0 7 1q10 0 15 1h18h8h9q5 0 8 1h8h6q1 -1 6 -1h7h7q20 0 27 -1h9q1 0 6 -5q0 -3 3 -14q3 -9 6 -16l8 -32
q12 -50 36 -80q22 -31 53 -31q30 0 54 31q25 31 35 80q16 67 16 146q0 172 -76 294q-76 123 -186 123q-107 0 -184 -123q-77 -124 -77 -294q0 -173 77 -295t184 -122q97 0 120 47q23 48 75 67zM342 460v-4q-1 -1 -1 -2q0 -3 -6 -3q-15 -1 -26 -1h-7h-7h-6h-6q-22 0 -33 1
t-34 1q-5 0 -5 6q1 1 1 4q1 3 1 4q1 2 1 4t1 4q1 1 3 7q1 2 1 5q0 2 1 4q0 3 1 6l1 2q1 2 1 4t1 4t1 4t1 4t1 4t1 4q6 22 9 34q2 7 5 17q2 10 4 17l1 3q2 10 3 14q4 12 5 17l1 3q2 10 3 14q4 12 5 18q0 5 6 5q7 0 8 -6q1 -4 6 -17q1 -5 5 -18q2 -8 6 -17q4 -12 5 -17
q4 -12 10 -29q0 -3 1 -5q2 -10 6 -17q4 -12 5 -18q1 -1 3 -6q0 -1 2 -6q1 -6 5 -18l7 -21z" />
    <glyph glyph-name="A" unicode="A" horiz-adv-x="875" 
d="M600 266q9 -31 24 -75q15 -49 25 -76q8 -32 8 -50q0 -25 -14 -30h-8v-1h-2h2q0 -7 1 -14v-4q3 -11 11 -16q17 1 38 1q25 1 57 1q44 0 56 -1h26q2 0 12 -1q7 0 12 -1v17q-1 3 -5 8q-6 8 -7 10h-6q-2 1 -6 1h7q-44 0 -78 109l34 -107q-20 62 -59 185l-14 44q-19 55 -50 154
q-6 17 -25 77q-18 54 -49 151l-12 36q-25 82 -59 187q-7 30 -7 42q0 15 6 27q12 24 31 24v1q2 7 2 18q-3 9 -9 18q-11 -3 -34 -6q-22 -3 -36 -3q-13 0 -32 -1h-18h-18q-18 1 -32 1t-29 3l-6 1q-17 3 -24 4v-4q-1 -3 -1 -4t1 -5q1 -3 1 -4q3 -10 11 -19h2q23 -9 23 -33
q-1 -10 -5 -32q-2 -14 -3 -19q-1 -1 -1 -2q0 -2 -1 -3q-8 -31 -24 -94t-25 -95q-4 -15 -24 -93q-21 -77 -25 -93l-60 -231l-60 -228v-1l27 106q-14 -56 -41 -82q-28 -27 -37 -27h4l-5 -1q-4 -9 -7 -18q-1 -2 -2 -11l-1 -6h6q11 1 21 1q22 2 26 3q5 1 20 1q10 0 19 -1
q3 -1 26 -3q13 -1 20 -1q5 -1 6 -1q6 8 7 17l3 18q-1 0 -3 1q-5 8 -21 25q-12 15 -12 35q0 10 3 23q2 5 6 22q6 21 9 32l1 5q8 35 13 50v-1v2q2 5 7 17q2 6 5 13q0 2 1 4q4 12 11 14q2 1 7 2q7 1 10 2q8 0 44 1q24 0 43 1q29 1 86 1h69q16 -1 35 -1q27 -1 34 -1q12 -2 24 -2
q6 0 14 -14zM577 342q0 -16 -1 -19q-2 -6 -15 -7l-1 1q-21 -1 -68 -1h-68q-90 0 -174 3q-14 0 -14 10q0 1 1 4v3q1 2 5 17q11 38 17 64q4 13 13 50q6 21 9 33q30 118 47 177q26 104 46 179q6 15 17 15q13 -2 20 -18q7 -22 21 -65q25 -76 36 -114q13 -39 29 -88
q16 -50 29 -89q7 -23 25 -75l1 -3q4 -14 16 -48q6 -20 9 -29z" />
    <glyph glyph-name="B" unicode="B" horiz-adv-x="670" 
d="M516 674q-9 10 -9 24q0 9 3 16q26 34 26 80q0 19 -4 35q-10 78 -37 115q-29 37 -73 56q-5 3 -16 3q-8 0 -17 -3l-289 -5q-3 0 -7 1q-26 2 -41 4q-5 -9 -5 -18q0 -10 5 -20h2h2h-1h1q5 0 6 -1q31 -4 35 -81v-190v-190v-191v-190q-4 -72 -31 -81h-2l-2 -1h-5l-1 -1h-1h1
q-4 -8 -4 -17q0 -10 5 -18q27 3 40 3v1v-1h-1h4h128q9 0 13 -1h2q6 0 11 -1h6v2l155 -3q6 -1 7 -1q9 -1 14 -1q73 0 144 73q71 74 71 227q0 122 -44 222q-44 103 -91 153zM405 698q45 0 93 -120t48 -255q0 -138 -37 -211q-36 -72 -82 -72h-7l-2 -1q-3 -1 -5 -1l-165 2
q-30 0 -30 32v594q0 32 30 32h143h5h9zM371 964q28 0 56 -33q28 -32 28 -80q0 -49 -14 -78q-15 -33 -43 -33h-2h-2h-3h-3h-144q-26 0 -26 29v166q0 29 26 29h117h2h2h2h4z" />
    <glyph glyph-name="C" unicode="C" horiz-adv-x="585" 
d="M466 155q0 -3 1 -7v-6q0 -41 -43 -59h-6q-6 -1 -7 -1q-65 0 -139 64q-81 71 -122 228q-24 95 -24 180q0 71 17 140q36 152 83 207q26 31 105 51q11 4 33 4q54 0 83 -56q7 -27 7 -41q0 -3 -1 -25q-1 -19 -1 -26l1 7q0 -5 -1 -7q8 -8 15 -8t18 8q0 32 1 68q1 18 1 28
q3 30 12 90l1 7q-11 8 -16 8q-6 0 -17 -8v-13v-12l-1 22q0 -30 -23 -30q-26 2 -56 16q-30 16 -63 16q-115 0 -199 -147q-86 -148 -86 -353q0 -206 98 -352q98 -147 216 -147q121 0 208 160q0 3 3 9q4 10 4 29q0 14 -3 24q-9 26 -28 33q-4 2 -13 2q-15 0 -27 -9
q-20 -12 -30 -41q-5 -17 -5 -29q0 -8 4 -22v-2zM429 83l26 7q-1 -2 -4 -2q-7 -3 -19 -5h-3z" />
    <glyph glyph-name="D" unicode="D" horiz-adv-x="624" 
d="M311 1000l-165 -8l-2 2h-2q-28 0 -50 1q-22 0 -51 5q-4 -11 -4 -18q0 -8 4 -20h2h1q6 0 7 -1q32 -4 36 -81v-190v-190v-191v-190q-4 -72 -32 -81h-2l-2 -1h-4l-2 -1h-1h1q-4 -8 -4 -17t6 -18q26 3 40 3v1q26 1 56 1q32 0 58 -1q11 -1 45 -3q14 0 33 -1h12h62q93 0 174 84
t81 291q0 121 -37 263q-35 136 -95 232q-41 63 -85 94q-49 35 -83 35h3zM290 964q31 0 88 -43q52 -41 90 -124q31 -68 49 -152q19 -89 19 -183q2 -13 2 -42q0 -65 -20 -128q-25 -86 -50 -135q-40 -72 -85 -95q-45 -22 -90 -22h-2h-53q-23 0 -23 27v869q0 28 23 28h47h2h3z
" />
    <glyph glyph-name="E" unicode="E" horiz-adv-x="580" 
d="M520 155q-10 -44 -52 -76q-46 -35 -82 -38h1v-1v-1q1 0 1 1h-1q0 1 2 1l-43 -1h-113q-9 0 -21 3h-2q-8 3 -8 52v-55v229v230v79v89q3 12 3 23q0 6 21 6q23 0 39 -2q35 -10 73 -38q41 -28 59 -58q4 -8 5 -11q0 -2 1 -3l1 -1q0 -1 1 -2l-1 2q0 -2 5 -8h5q4 -1 6 -1h4
q4 1 6 1q7 1 19 15q-11 22 -31 53q-18 29 -26 55q-10 40 -11 62q-1 14 -2 32q-1 17 -2 31h-7q-7 1 -12 1q-7 -3 -20 -16q0 -4 1 -5v-5q-3 -40 -45 -49q-39 -7 -68 -7q-15 0 -18.5 0.5t-3.5 2.5q0 3 -1 9q-1 7 -1 10q0 61 1 93v85q0 12 11 16q9 4 54 4h66h2h22h-25
q43 0 86 -4q47 -6 51 -47v-3q-1 0 -1 -2q2 -2 5 -3l2 -1h8l3 16q6 33 9 43q7 33 14 55l-6 3q-1 1 -2 1h-6q-1 -1 -2 -1t-2 -1q-2 0 -2 -2q-54 -11 -118 -15q-36 -1 -81 -3q-45 -1 -81 -3l-15 -1h-2q1 0 1 1q-22 -1 -50 -1t-51 1q-15 0 -51 3q-3 -4 -3 -18q0 -7 3 -18h3h2
l-1 -1h1h5q31 -6 37 -81v-191v-190v-191v-190q-6 -72 -32 -81h-5h-4v-1h-1h1q-4 -8 -4 -18t4 -17q13 0 21 1q6 0 20 2q17 0 38 1h18q17 0 39 -1h18h5h5v-2l35 -1h2h310q4 5 4 18q0 14 -4 21q-3 11 -6 29q0 1 -2 16q-3 15 -3 16v14q-1 8 -1 15q0 21 5 66l1 6q-8 4 -16 4
q-7 0 -15 -4q-1 -12 -1 -16q-1 -23 -1 -31z" />
    <glyph glyph-name="F" unicode="F" horiz-adv-x="527" 
d="M222 742q-15 0 -18.5 0.5t-3.5 2.5q0 3 -1 9q-1 7 -1 10q0 61 1 93v85q0 12 11 16q9 4 54 4h66h2h22h-25q43 0 86 -4q47 -6 51 -47v-3q-1 0 -1 -2q2 -2 5 -3l2 -1h8l3 16q6 33 9 43q7 33 14 55l-6 3q-1 1 -2 1h-6q-1 -1 -2 -1t-2 -1q-2 0 -2 -2q-54 -11 -118 -15
q-36 -1 -81 -3q-45 -1 -81 -3l-15 -1h-2q1 0 1 1q-22 -1 -50 -1t-51 1q-15 0 -51 3q-3 -4 -3 -18q0 -7 3 -18h3h2l-1 -1h1h5q31 -6 37 -81v-191v-190v-191v-190q-6 -72 -32 -81h-5h-4v-1h-1h1q-4 -8 -4 -18t4 -17q13 0 21 1q6 0 20 2q17 0 38 1h18q17 0 39 -1h18q7 0 21 -2
h2h13q10 -1 11 -1q6 9 6 17t-6 18q-6 0 -12 1h8q-43 0 -43 109v-106v229v230v79v89q3 12 3 23q0 6 21 6q23 0 39 -2q35 -10 73 -38q41 -28 59 -58q4 -8 5 -11q0 -2 1 -3l1 -1q0 -1 1 -2l-1 2q0 -2 5 -8h5q4 -1 6 -1h4q4 1 6 1q7 1 19 15q-11 22 -31 53q-18 29 -26 55
q-10 40 -11 62q-1 14 -2 32q-1 17 -2 31h-7q-7 1 -12 1q-7 -3 -20 -16q0 -4 1 -5v-5q-3 -40 -45 -49q-39 -7 -68 -7z" />
    <glyph glyph-name="G" unicode="G" horiz-adv-x="647" 
d="M579 420q7 22 34 28h3h2q11 8 11 18q0 7 -11 18q-54 -6 -97 -6q-44 0 -98 6q-10 -10 -10 -18q0 -9 10 -18h2h3q33 -7 40 -40v-210v-9q-1 -7 -1 -9q0 -1 1 -9v-9v1q-1 -3 -2 -10q0 -7 -2 -16q-2 -17 -9 -29q-12 -16 -22 -26q-16 -16 -21 -17l-10 -4q-23 -10 -32 -12
q-6 -2 -20 -2q-4 0 -11 1q-8 1 -13 1q-9 2 -12 4q-5 1 -13 5q-49 19 -76 69q-29 53 -36 89q0 12 -3 25q-3 14 -3 27v79v114v114v80v3q3 29 17 100q16 75 36 113q3 7 4 9q7 14 21 28q16 29 79 44q14 4 43 4q30 0 53 -6q51 -12 70 -50q8 -30 8 -41q-1 -9 -3 -51l1 7
q0 -5 -1 -7q8 -8 15 -8t18 8q0 32 1 48q0 16 2 48q2 31 11 92l1 5q-11 8 -15 8q-5 0 -18 -8v-13v-12l-1 22q0 -30 -23 -30q-26 2 -55 16q-32 16 -63 16q-114 0 -228 -147q-113 -148 -113 -353q0 -206 98 -352q98 -147 216 -147q36 0 79 19h-1q2 1 4 3q16 7 27 17
q27 17 63 36q38 18 67 24h4h4q8 7 8 15q0 7 -8 15h-3h-3q-17 3 -19 25v221v44zM587 448h-8h3h5zM579 143v-13v13z" />
    <glyph glyph-name="H" unicode="H" horiz-adv-x="585" 
d="M225 698h149q24 -1 29 -32v-83v-83v-191v-190q-4 -72 -32 -81h-2l-2 -1h-4v-1h-2h2q-5 -7 -5 -17q0 -12 5 -18q27 3 40 3v1q26 1 56 1q32 0 58 -1q1 0 16 -2l8 -1h11q7 -1 13 -1q4 8 4 17q0 10 -4 19h-7h-6h7q-42 0 -42 109v-106v229v231v186v189q3 86 41 86q0 1 1 1
q6 12 6 18q0 8 -6 18q-34 -3 -50 -3q-11 -1 -51 -1q-27 0 -50 1q-21 0 -50 5q-4 -9 -4 -18t4 -20h2h1q5 0 6 -1q32 -4 36 -81v-56v-55q-4 -24 -31 -29h-150q-22 6 -24 34v50v51q2 86 41 86q0 1 1 1q5 10 5 18q0 9 -5 18q-6 0 -23 -1q-14 -1 -27 -2q-18 0 -25 -1h-26
q-28 0 -50 1q-22 0 -51 5q-4 -11 -4 -18q0 -8 4 -20h2h1q6 0 7 -1q32 -4 36 -81v-190v-190v-191v-190q-4 -72 -32 -81h-3q-3 -1 -5 -1l-2 -1h-1h1q-4 -8 -4 -17t6 -18q11 1 40 3v1q26 1 56 1q32 0 58 -1q7 -1 23 -3h11q7 -1 13 -1q5 12 5 17q0 4 -5 19h-7h-6h7
q-41 0 -41 111v-108v229v231v99v99v-36q0 30 27 36zM198 766v-26v12v14zM387 740h16h-16z" />
    <glyph glyph-name="I" unicode="I" horiz-adv-x="252" 
d="M30 38h-2l-2 -1h-4l-2 -1h-1h1q-4 -8 -4 -17t6 -18q26 3 40 3v1q26 1 56 1q32 0 58 -1q2 0 18 -1q8 -1 29 -3q5 12 5 17q0 4 -5 19h-7h-6h7q-41 0 -41 109v-106v229v231v186v189q2 86 41 86v1q6 12 6 18q0 9 -6 18q-33 -3 -49 -3q-11 -1 -51 -1q-28 0 -50 1q-22 0 -51 5
q-4 -11 -4 -18q0 -8 4 -20h2h1q6 0 7 -1q32 -4 36 -81v-190v-190v-191v-190q-4 -72 -32 -81z" />
    <glyph glyph-name="J" unicode="J" horiz-adv-x="472" 
d="M92 20l2 1q5 4 7 7q2 0 2 1q17 18 17 44q0 61 -55 61q-53 0 -53 -61v-2h-1q0 -88 56 -142q57 -54 141 -54q81 0 140 74q57 74 57 161h-1v197v193v186v189q3 86 42 86q0 1 1 1q4 11 4 18q0 9 -4 18q-34 -3 -51 -3q-11 -1 -50 -1q-28 0 -50 1l-6 1q-27 2 -44 4
q-6 -10 -6 -18q0 -9 6 -20h1h2q4 0 5 -1q31 -4 37 -81v-190v-190v-196v-198q0 -74 -32 -135q-33 -60 -79 -60q-60 0 -95 59q-6 16 -6 23q0 14 13 27z" />
    <glyph glyph-name="K" unicode="K" horiz-adv-x="716" 
d="M397 834q-2 6 -2 18q0 26 17 48l-3 -5l12 19l-5 -9q12 15 36 35q25 22 44 26h2h3q0 2 2 7q1 6 1 9q0 1 -1 6q-2 6 -2 9q-31 -6 -52 -6h-16q-22 0 -52 6q-9 -9 -9 -15t8 -16h1q6 0 6 -10q0 -9 -2 -16q-9 -29 -16 -44l-124 -182q-17 -19 -26 -19q-12 0 -12 23v-11v83v85
q2 86 41 86v1q6 12 6 18q0 9 -6 18q-33 -3 -49 -3q-11 -1 -51 -1q-28 0 -50 1q-22 0 -51 5q-4 -11 -4 -18q0 -8 4 -20h2h1q6 0 7 -1q32 -4 36 -81v-190v-190v-191v-190q-4 -72 -32 -81h-2l-2 -1h-4l-2 -1h-1h1q-4 -8 -4 -17t6 -18q26 3 40 3v1q26 1 56 1q32 0 58 -1
q2 0 18 -1q8 -1 29 -3q5 12 5 17q0 4 -5 19h-7h-6h7q-41 0 -41 109v-106v229v231v18v18q0 30 13 60q14 38 28 60q24 30 44 30q22 0 38 -28l167 -548q3 -10 3 -41q-1 -23 -10 -29h-3h-2q-5 -15 -5 -22q0 -11 5 -19q50 7 101 7t101 -7q5 8 5 19q0 10 -5 20v2h-2h-2
q-16 2 -36 24q-18 18 -28 43l10 -34l-14 48l1 -5l-209 684l-19 63zM249 658q0 1 2 2q1 1 1 2l1 2l-5 -5l17 23zM307 744l8 13z" />
    <glyph glyph-name="L" unicode="L" horiz-adv-x="582" 
d="M201 174v329v187v187q3 87 43 87q0 1 1 1q4 9 4 18t-4 18q-18 -2 -25 -3h-14q-10 -1 -12 -1q-23 -1 -50 -1q-18 0 -26 1q-1 0 -11 1h-14q-25 0 -51 3q-4 -8 -4 -17q0 -10 4 -18q2 -1 5 -1h-1h1h2h3q32 -6 36 -82v-191v-190v-180v-191h1v-7v-8q-6 -71 -32 -80q-4 0 -5 -1
h-4q-1 -1 -2 -1h2q-1 -3 -2 -5q-4 -8 -4 -12q0 -5 5 -15l1 -2q9 1 16 1q20 1 25 1q24 2 56 2q31 0 57 -2q8 0 10 -1l34 -1h2h1h310q3 4 3 17q0 14 -3 20h-1q-1 9 -4 26l-1 5q0 1 -2 16q-3 15 -3 16v13q-1 8 -1 14q0 22 5 67l1 6q-7 5 -16 5q-7 0 -15 -5v-3q-2 -32 -2 -45
q-10 -41 -52 -74q-46 -35 -82 -38l142 9v3q0 -2 1 -3v-1l-183 -11h-113q-4 1 -13 2q-8 2 -10 2q-8 3 -8 51v-54v65v71h-1z" />
    <glyph glyph-name="M" unicode="M" horiz-adv-x="1178" 
d="M183 84q-7 -14 -19 -26q-13 -15 -25 -18h-6h-5q-6 -12 -6 -20t6 -19q29 6 58 6q26 0 57 -6q7 10 7 19q0 8 -7 18v2h-5q-22 0 -22 43l81 325h-34zM391 791q12 41 22 44q9 0 33 -39l130 -332l-2 -12q6 -3 16 -3q12 0 16 3l93 372q9 30 17 30q5 0 9 -12l8 -22v-2v-1v1
l101 -318q28 -84 61 -191q21 -64 61 -190q7 -28 7 -41q0 -32 -22 -40q-1 0 -3 -1h-2h-4v-1h-1h1q0 -7 1 -14v-3q2 -9 11 -18h8q9 1 16 1q15 2 24 3q26 1 56 1q45 0 58 -1q1 0 16 -1q23 -2 33 -3q0 1 1 5v4v4l-1 4q-1 7 -12 19h-7h-5h6q-41 0 -77 109l35 -106v1
q-26 76 -74 228q-6 19 -36 116q-31 96 -37 115q-13 40 -40 124q-18 55 -20 62l-60 189q-10 38 -10 54q0 32 25 32v1q0 9 -1 16v2q-5 10 -10 18q-33 -3 -50 -3q-11 -1 -50 -1h-20q-6 1 -20 1l9 -36l-56 -223q-9 -31 -20 -42q-3 -5 -9 -5q-9 0 -14 12l-73 173q-10 37 -10 55
q0 31 23 31q0 1 1 1q0 8 -1 15v4q-1 5 -11 18q-24 -3 -48 -3q-23 -1 -51 -1h-17q-11 0 -17 1h-13q-4 1 -12 1q-5 1 -13 2q-11 2 -13 2q-8 -8 -14 -18v-4q-1 -3 -1 -4t1 -5t1 -5q9 -2 21 -3l-21 1q40 0 40 -46q0 -50 -7 -93l-103 -415h33zM381 874l19 84h2z" />
    <glyph glyph-name="N" unicode="N" horiz-adv-x="769" 
d="M692 929v57q0 35 18 50q8 6 14 6q4 0 11 -3l4 -1q16 -7 26 -16q8 -14 14 -26q3 -5 3 -14q0 -11 -6 -23q4 2 14 12q13 13 17 37q3 10 3 26q0 26 -12 44q-19 29 -55 34q-36 0 -63 -28q-28 -34 -28 -76v-4v-4v-675q-6 -29 -26 -29q-22 2 -55 54l-79 150q-33 62 -97 186
q-23 47 -64 126q-11 21 -32 63q-22 44 -22 66q0 20 18 20q0 1 1 1q-2 14 -5 18q-3 6 -13 18q-33 -3 -49 -3q-12 -1 -50 -1q-28 0 -51 1q-25 0 -48 1q-39 2 -49 4q0 -13 5 -18q5 -9 14 -20h1h2h-1h1q5 0 6 -1h2h3q29 -8 29 -39q0 -18 2 -65v-6l1 5v-782q-5 -25 -31 -32h-2h-3
v-1q-4 -9 -4 -19t4 -21q35 5 54 5q17 0 52 -5q5 12 5 21q0 7 -5 20h-3h-3q-23 3 -29 34v759q0 10 8 36l1 3q12 12 20 12q5 0 12 -5q14 -12 30 -40q49 -95 150 -290q10 -19 27 -51q29 -59 73 -142q17 -33 25 -49q33 -64 99 -190q17 -38 27 -76q5 -20 5 -27q0 -15 -7 -15
q4 0 10 1h7q8 2 16 2v1h28h28l44 -4h1h-1q-1 1 -1 2l-1 1q-20 27 -27 73q-8 44 -13 93v380v379z" />
    <glyph glyph-name="O" unicode="O" horiz-adv-x="633" 
d="M327 1000q-117 0 -201 -147t-84 -353t84 -352q84 -147 201 -147q118 0 202 147q84 143 84 352t-84 353q-84 147 -202 147zM214 914q11 5 33 5q58 0 126 -58q85 -72 131 -245q28 -106 28 -216q0 -49 -9 -123q-25 -168 -97 -189q-12 -5 -35 -5q-56 0 -116 51
q-79 70 -122 240q-32 121 -32 252q0 54 5 93q15 174 88 195z" />
    <glyph glyph-name="P" unicode="P" horiz-adv-x="535" 
d="M256 648q28 9 82 27q50 17 88 28q12 3 37 14q21 10 32 28q12 18 15 43q2 29 4 41q0 74 -35 121q-36 50 -106 50l-290 -5q-3 0 -7 1q-26 2 -41 4q-4 -11 -4 -18q0 -8 4 -20h2h1q6 0 7 -1q32 -4 36 -81v-190v-190v-124v-128v-69q-1 -23 -1 -63q-4 -71 -34 -80h-4h-5
q0 -1 -1 -1h-1h1q-3 -12 -3 -18q0 -9 4 -17q19 2 43 2q12 0 23 1q29 1 39 1h60v-2q18 0 27 -1q7 -1 24 -1q6 9 6 17q0 6 -6 18q-7 0 -13 1h7q-45 0 -45 109v-107v117v127l-1 1v311q0 15 11 27q10 13 22 19q14 5 22 8zM244 676h-2q-10 -2 -14 -4q-27 0 -27 26v237q0 29 27 29
h116h2h1h5h2q28 0 56 -33q29 -34 29 -80q0 -39 -21 -84q-20 -45 -66 -59z" />
    <glyph glyph-name="Q" unicode="Q" horiz-adv-x="633" 
d="M462 60q69 64 109 181q42 117 42 259q0 209 -84 353q-84 147 -202 147q-117 0 -201 -147t-84 -353t84 -352q84 -147 201 -147q58 0 116 42q25 -39 25 -68q0 -17 -7 -30q-8 -21 -40 -21q-31 3 -68 38q0 -9 30 -36q45 -42 96 -78q29 -21 46 -21q16 0 24 13q8 11 8 28
q0 27 -20 73q-33 75 -75 119zM404 83h-6q-4 -1 -8 -1q-63 0 -126 63q-70 69 -111 229q-32 121 -32 252q0 54 5 93q15 174 88 195q11 5 33 5q58 0 126 -58q85 -72 131 -245q28 -112 28 -216q0 -38 -8 -113v-3q-22 -164 -92 -194q0 1 -2 1q-27 29 -39 63q-7 18 -7 34
q0 14 6 27q10 25 34 25q30 0 75 -42q0 8 -30 36q-46 43 -88 66q-22 11 -36 11q-17 0 -28 -15q-9 -14 -9 -31q0 -25 18 -67q29 -70 74 -112z" />
    <glyph glyph-name="R" unicode="R" horiz-adv-x="532" 
d="M389 667q6 26 30 34q10 1 21 6l8 5q12 7 19 12q14 10 21 20q20 32 21 68q0 75 -46 130q-49 58 -118 58l-262 -5q-3 0 -7 1q-26 2 -41 4q-4 -11 -4 -18q0 -8 4 -20h2h1q6 0 7 -1q32 -4 36 -81v-190v-190v-124v-128v-69q-1 -23 -1 -63q-4 -71 -34 -80h-4h-5q0 -1 -1 -1h-1
h1q-3 -12 -3 -18q0 -9 4 -17q19 2 43 2q12 0 23 1q29 1 39 1h60v-2q18 0 27 -1q7 -1 24 -1q6 9 6 17q0 6 -6 18q-7 0 -13 1h7q-45 0 -45 109v-107v117v127l-1 1v377q0 37 33 38q23 0 23 2q28 -1 41 -3q7 -1 26 -1q26 -8 26 -36v37h1q0 -12 -1 -23q0 -11 4 -84l1 -18
q4 -74 17 -185q10 -98 29 -209q17 -101 48 -174q28 -76 65 -108q35 -33 52 -33q3 -1 6 -1q16 0 44 18q26 18 26 58q0 41 -23 68q-23 29 -41 29q-9 0 -9 -15v-4q1 -5 1 -8q-1 -20 -21 -25q-22 0 -43 36q-2 4 -3 8q-5 7 -6 11q-28 71 -44 148q-20 90 -33 181q-8 52 -18 150
q-2 17 -3 23v2q-9 95 -10 125zM253 740h-14q-8 0 -11 -1q-27 0 -27 25v171q0 29 27 29h73h1h3h2q5 -1 13 -2q7 0 13 -1h1q20 0 48 -14q26 -15 42 -37q13 -22 16 -42l1 -8q1 -23 1 -32q0 -39 -43 -64q-44 -25 -88 -25z" />
    <glyph glyph-name="S" unicode="S" horiz-adv-x="754" 
d="M436 989q-49 13 -104 13q-97 0 -156 -56q-60 -54 -68 -110l-1 -2h1l-1 -5q-3 -28 -3 -43q0 -85 59 -146q74 -77 179 -77v6v-6h2h2q112 0 209 -75q96 -74 105 -136q2 -11 2 -35q0 -42 -13 -105q-21 -81 -75 -124q-41 -31 -95 -41q-60 -11 -103 -11q-34 0 -63 7
q-35 8 -58 16q-25 7 -39 13t-36 23q-48 33 -77 87q-9 16 -14 52q-5 18 -5 48q8 41 20 49q12 6 40 6q5 -3 13 -10q6 -5 9 -7q6 -5 10 -25q0 -19 -5 -27q-2 0 -2 -4q0 -5 9 -5q15 0 42 24q25 25 28 43q2 6 3 11q3 11 4 15v19q0 106 -90 115q-5 0 -10 1h-9q-45 0 -73 -28
q-36 -34 -36 -97v-9v-15h-1q2 -42 9 -81q9 -51 27 -87q16 -33 40 -55q22 -24 48 -43q33 -26 86 -46q70 -25 130 -25q52 0 117 14t109 47q66 49 94 122q27 71 27 134q0 172 -111 298q-112 124 -267 124h-2h-2v-1q-51 2 -87 37q-37 35 -39 94h3q6 38 50 64q45 27 108 27
t101 -28q40 -29 56 -63l24 -78q15 -5 24 -5q11 0 21 5q-24 59 -36 113q-8 32 -11 57q-4 38 -5 57q-15 6 -25 6t-21 -6q2 -6 4 -16q0 -1 2 -8q1 -7 1 -9l-7 32q3 -6 3 -16q0 -20 -17 -20q-27 0 -54 7z" />
    <glyph glyph-name="T" unicode="T" horiz-adv-x="776" 
d="M145 998q-13 2 -32 10l-1 -10h1h-3q1 3 2 8q1 3 1 4q-7 4 -15 4t-15 -4q-10 -66 -20 -103q-14 -57 -31 -103l4 -1q7 -3 11 -3q2 0 9 2l6 2q1 4 4 14q8 21 11 33l-3 -13q8 39 49 78q41 42 81 45l-6 1h29q25 -1 29 -1h56q29 -7 34 -81v-190v-190v-191v-190q-4 -72 -32 -81
h-2l-2 -1h-5v-1h-1h1q-4 -8 -4 -17q0 -10 4 -18q2 0 10 1h11l10 2q5 0 10 1q25 1 56 1q45 0 57 -1l8 -1q15 -2 16 -2h12q7 -1 13 -1q4 8 4 17q0 10 -4 19h-7h-7h8q-43 0 -43 109v-106v1v228v231v186v189q5 86 42 86h51q4 0 25 1h25h-2q32 -3 69 -34q37 -33 51 -65
q7 -28 20 -59q10 -4 15 -4q4 0 14 4q-19 55 -30 103q-13 43 -20 103q-8 4 -16 4q-9 0 -14 -4v-2q-19 -8 -31 -10q-86 -2 -128 -3h-130h-128q-43 1 -127 3z" />
    <glyph glyph-name="U" unicode="U" horiz-adv-x="656" 
d="M476 156q-3 -38 -16 -60q-44 -56 -109 -56q-57 0 -100 47q-43 48 -48 117v148v148v186v189q2 86 41 86v1q6 12 6 18q0 9 -6 18q-33 -3 -49 -3q-11 -1 -51 -1q-28 0 -50 1q-22 0 -51 5q-4 -11 -4 -18q0 -8 4 -20h2h1q6 0 7 -1q32 -4 36 -81v-190v-190v-148v-148
q6 -83 72 -142q65 -58 156 -58q63 0 118 31q-4 -8 -4 -16q0 -10 5 -18q27 3 40 3v1q26 1 57 1t57 -1q1 0 18 -1q15 -2 30 -3q5 12 5 17q0 4 -5 19h-6h-7h8q-43 0 -43 109v-106v229v231v186v189q3 86 42 86q0 1 1 1q5 13 5 18q0 8 -5 18q-34 -3 -51 -3q-11 -1 -51 -1
q-27 0 -50 1q-3 0 -7 1q-27 2 -43 4q-5 -13 -5 -18q0 -7 5 -20h1h3h-1h1q4 0 5 -1q32 -4 36 -81v-190v-190v-138v-138v2v-17v-27v-26z" />
    <glyph glyph-name="V" unicode="V" horiz-adv-x="670" 
d="M598 1024q16 -20 20 -39q1 -3 1 -13v-25q-2 -117 -25 -204q-19 -73 -54 -185q-24 -72 -53 -179q-11 -43 -16.5 -88t-5.5 -97q0 -32 -11 -39l-3 -1q-10 0 -25 52v-4q-15 49 -41 149l-13 46q-18 67 -29 103q-17 62 -53 186q-11 42 -26 95q-15 52 -26 94q-8 32 -8 50
q0 36 25 36q0 1 1 1q0 8 -1 15v3q-1 8 -9 18q-7 0 -22 -1q-17 -1 -27 -2q-18 0 -25 -1h-26q-27 0 -50 1q-23 0 -52 5q0 -9 1 -16v-2q2 -11 9 -20h2h2q5 0 6 -1q35 -5 59 -81q1 -4 22 -80q24 -85 31 -110q8 -30 20 -69q23 -84 34 -121q5 -16 27 -95q22 -80 26 -96
q24 -92 54 -190q5 -18 5 -46q0 -29 -15 -35h-2q-4 -1 -6 -1v-1h-1h1q0 -3 -1 -5v-3t1 -4v-5q2 -10 10 -18q14 2 40 3v1q24 1 56 1t57 -1l24 -3h13q10 -1 11 -1q0 2 1 6v4v4l-1 3q-1 9 -10 19h-2h-2h-1q-30 11 -30 34q2 15 7 27q2 10 4 28q0 113 18 214t55 199q75 208 90 435
v2v8v18q-1 44 -32 78q-30 30 -57 30h-4q-4 -1 -5 -1q-68 -9 -68 -113q0 -17 3 -28q8 -43 33 -43q14 0 29 21q13 19 13 44q0 5 -2 11v1q-3 4 -5 6q-13 18 -13 25q0 5 5 8q2 2 6 2q13 0 36 -19z" />
    <glyph glyph-name="W" unicode="W" horiz-adv-x="922" 
d="M635 976q-2 -109 -22 -192q-20 -86 -47 -179q-16 57 -37 134q-8 30 -23 82q-13 43 -16 54q-6 30 -6 49q0 37 24 37q0 1 1 1v18q-1 6 -11 18q-8 0 -24 -1t-25 -2q-22 -1 -50 -1t-51 1q-1 0 -9 1q-24 2 -42 4q0 -2 -1 -5t-1 -5q0 -1 1 -4t1 -4q1 -7 11 -20h1h2q4 0 5 -1
q35 -4 60 -81q17 -64 53 -190q15 -57 41 -148l12 -42q8 -26 12 -42l15 -52q-13 -54 -21 -105q-4 -28 -5.5 -52t-1.5 -55q0 -32 -11 -39l-3 -1q-10 0 -25 52v-4q-15 49 -41 149l-13 46q-18 67 -29 103q-17 62 -53 186q-11 42 -26 95q-15 52 -26 94q-8 32 -8 50q0 36 25 36
q0 1 1 1q0 8 -1 15v3q-1 8 -9 18q-7 0 -22 -1q-17 -1 -27 -2q-18 0 -25 -1h-26q-27 0 -50 1q-23 0 -52 5q0 -9 1 -16v-2q2 -11 9 -20h2h2q5 0 6 -1q35 -5 59 -81q1 -4 22 -80q24 -85 31 -110q8 -30 20 -69q23 -84 34 -121q5 -16 27 -95q22 -80 26 -96q24 -92 54 -190
q5 -18 5 -46q0 -29 -15 -35h-2q-4 -1 -6 -1v-1h-1h1q0 -3 -1 -5v-3t1 -4v-5q2 -10 10 -18q14 2 40 3v1q24 1 56 1t57 -1l24 -3h13q10 -1 11 -1q0 2 1 6v4v4l-1 3q-1 9 -10 19h-2h-2h-1q-30 11 -30 34q2 15 7 27q2 10 4 28q0 96 20 199q9 -34 29 -104l4 -15q16 -59 24 -87
q6 -18 6 -47q0 -28 -15 -34h-4q-1 -1 -4 -1v-1h-3h3q0 -2 -1 -5q-1 -2 -1 -3t1 -4t1 -5q3 -10 9 -18q14 2 20 2t18 2h2q25 1 56 1q45 0 57 -1q2 0 13 -1q10 -2 12 -2h11q7 -1 13 -1q2 4 2 10v4l-1 3q-1 4 -7 13l-4 6h-2h-1h-3v1q-28 9 -28 33q1 9 5 27l1 5q3 17 4 23
q0 112 18 213.5t54 199.5q74 199 89 435h1q-1 1 -1 9q0 6 1 9v10h-1q-1 44 -32 78q-27 30 -56 30h-4q-3 -1 -4 -1q-69 -9 -69 -113q0 -20 4 -28q6 -43 33 -43q12 0 27 21q13 19 13 44v11v-1q-12 22 -12 32q0 8 5 13q2 4 8 4q10 0 28 -21q8 -12 14 -28q7 -14 7 -28
q-1 -109 -27 -208q-15 -63 -51 -186l-2 -7q-34 -113 -52 -187q-22 -93 -22 -190q0 -32 -11 -39l-3 -1q-11 0 -26 52l1 -3q-28 98 -41 148q-7 23 -26 91q-10 37 -16 58q-10 33 -11 40q18 67 54 205q25 102 34 217v2h1v2q0 76 -42 113q6 -20 6 -33q0 -1 -1 -4q-1 -5 -1 -8v-13
q-1 -22 -1 -45z" />
    <glyph glyph-name="X" unicode="X" horiz-adv-x="541" 
d="M91 65q2 99 54 173q50 69 106 169q7 -25 23 -79q13 -47 18 -66q5 -18 19 -64q14 -49 23 -79q6 -18 6 -47q0 -28 -15 -34h-2l-2 -1h-4v-1h-1h1q0 -2 -1 -6v-4v-3q1 -2 1 -4q2 -10 10 -18q27 3 39 3v1q24 1 56 1t57 -1l16 -1q17 -1 33 -3q2 4 2 10v4l-1 3q-1 4 -7 13l-4 6
h-7h-6h7q-42 0 -73 109l31 -106q-5 19 -33 115q-27 95 -33 114l-66 231q-3 5 -7 23l-1 4q55 95 108 218q45 113 57 233q1 3 1 16v2v1q-1 67 -50 79q14 -34 15 -79h-1q-9 -122 -49 -225q-42 -112 -94 -203q-21 68 -43 152q-13 43 -37 130l-7 24q-8 28 -8 51q0 35 24 35
q0 1 1 1q0 8 -1 15v3q-1 8 -9 18q-34 -3 -49 -3q-11 -1 -51 -1q-27 0 -50 1q-4 0 -8 1q-27 2 -44 4q0 -14 1 -18q2 -11 9 -20h2h2q6 0 7 -1q33 -5 58 -81q19 -64 55 -190q23 -77 55 -190q1 -2 4 -12q3 -11 3 -13q4 -16 8 -25q-63 -108 -125 -189q-59 -79 -59 -200h2
q3 -60 56 -74q-1 4 -8 22q-3 6 -5 12q-7 16 -9 44z" />
    <glyph glyph-name="Y" unicode="Y" horiz-adv-x="662" 
d="M493 481q0 119 63 234q62 118 90 241q2 8 2 15q0 65 -59 83q2 -5 6 -18q6 -15 10 -26q9 -25 9 -54q-19 -122 -86 -225q-64 -97 -64 -215q0 -20 -11 -23q-12 0 -28 34v-3q-15 32 -41 96q-2 5 -14 32q-18 44 -28 64q-17 40 -48 102q-17 29 -50 102q-7 20 -7 30q0 2 1 4v2
q5 6 24 6v8q0 7 1 7q0 6 -1 11v2q-2 5 -10 11q-12 -1 -24 -6q-13 -5 -24 -5h-51q-18 0 -25 1q-18 2 -26 3q-11 0 -25 3q-12 4 -26 4q-2 -4 -2 -11q0 -2 1 -6q1 -2 1 -4q4 -12 10 -16h4h2h4q17 -3 31 -9t28 -30q30 -68 49 -105q14 -26 45 -93q2 -4 5 -11q12 -29 34 -78
q6 -13 17 -39q7 -17 25 -59t25 -59h1q18 -37 22 -81v-140v-141q-4 -72 -32 -81h-2q-3 -1 -6 -1v-1h-2h2q-5 -7 -5 -17q0 -12 5 -18q11 1 40 3v1q26 1 57 1t57 -1q1 0 16 -2l8 -1h11q6 -1 12 -1q5 10 5 17t-5 19h-7h-5h6q-41 0 -41 111v-108v61v122v99v-6q0 41 12 81
q13 47 14 84z" />
    <glyph glyph-name="Z" unicode="Z" horiz-adv-x="693" 
d="M549 1q27 -2 39 -3q15 0 42 -9v1q8 0 16 4l2 1q0 52 8 85q3 27 20 83q-5 10 -14 11q-11 0 -17 -5q-5 -12 -8 -24q-18 -38 -52 -69q-35 -30 -70 -35h-85q-27 1 -85 1q-32 0 -47 -1h-48q-8 4 -8 20q0 27 24 87l-45 -107q66 152 99 229q42 100 98 230l81 186q18 42 40 95
q22 52 40 94q41 86 80 86q0 1 1 1q9 11 13 18q2 12 2 18q-13 0 -23 -2v2v2q-52 -2 -79 -2q-27 -1 -79 -1q-7 0 -10 1q-4 0 -10 2l-1 -1q0 -1 -1 -2q-33 0 -50 -2q-16 -1 -50 -1q-57 0 -86 1q-30 2 -86 2l1 1q-22 2 -45 2q-7 0 -50 8q-7 9 -14 10q-7 0 -17 -5q-1 -40 -7 -87
q-5 -25 -22 -81q9 -11 16 -12q10 0 16 5q2 6 5 14q1 3 2 5l-1 -5q0 3 1 4q0 2 1 3q0 2 1 3v3q12 36 45 66q33 28 71 33l-78 1q83 -1 246 -1h44h44v-2h1h2h-1h1q4 0 5 -1q15 0 15 -24q0 -16 -13 -57q-24 -55 -30 -69q-40 -91 -53 -121q-54 -126 -81 -190q-15 -35 -41 -95
q-26 -61 -41 -96q-15 -37 -48 -112l-34 -78q-33 -68 -63 -79q-1 0 -3 -1h-2q-2 0 -4 -1h-3v-2h-2h2q-11 -10 -13 -17q-2 -3 -2 -18q4 0 7 1h8v-2q29 1 87 1q7 0 42 1h45q-1 0 9 0h4q4 0 23 1h23q11 0 24 1h22q35 0 103 -2h51q42 -1 50 -1zM572 40h45h-45z" />
    <glyph glyph-name="bracketleft" unicode="[" horiz-adv-x="138" 
d="M106 800q0 9 1 16q0 8 1 17q-30 -7 -50 -7q-21 0 -48 7q3 -93 6 -208q2 -108 2 -208t-2 -208q-3 -115 -6 -208q27 6 48 6q20 0 50 -6q-1 8 -1 17q-1 7 -1 17l-3 1q-18 3 -28 5h-31q1 93 2 188v189v188l-2 188q12 0 24 1h7q11 0 31 5z" />
    <glyph glyph-name="backslash" unicode="\" horiz-adv-x="242" 
d="M66 692q-12 -4 -22 -4q-11 0 -25 4q16 -64 33 -128l11 -44q24 -97 43 -174q41 -168 82 -345q12 4 21 4t23 -4q-22 86 -43 173q-18 70 -43 172q-19 81 -28 122l-12 52q-25 107 -31 132z" />
    <glyph glyph-name="bracketright" unicode="]" horiz-adv-x="159" 
d="M14 800q21 -5 31 -5h8q11 -1 23 -1q-1 -94 -1 -188q-1 -79 -1 -188q0 -111 1 -189q0 -95 1 -188h-31q-10 -1 -31 -6q-1 -23 -2 -34q29 6 50 6q20 0 49 -6q-4 107 -6 208q-3 102 -3 208t3 208q2 101 6 208q-29 -7 -49 -7q-21 0 -50 7q1 -10 1 -17q0 -8 1 -16z" />
    <glyph glyph-name="underscore" unicode="_" horiz-adv-x="367" 
d="M25 -18v-36h358v36h-358z" />
    <glyph glyph-name="grave" unicode="`" 
d="M11 934l3 -6q4 -13 10 -26q11 -30 27 -58q16 -32 33 -56t32 -24q11 0 11 14v4q-1 4 -1 6q-5 27 -16 56q-11 27 -25 58q-10 21 -14 32q-12 -9 -27 -9t-33 9z" />
    <glyph glyph-name="a" unicode="a" horiz-adv-x="790" 
d="M547 286q6 -16 10 -25q4 -12 12 -28q8 -23 23 -52q7 -20 7 -35q0 -18 -13 -21h-8v-1h-1h1q0 -6 1 -10v-2q3 -7 10 -11q28 0 36 1q20 0 29 1h22q36 0 52 -1h11q3 -1 11 -1q9 -1 22 -1q0 1 1 3v3v3l-1 2q-2 5 -11 13h-2h-3q-2 0 -3 1h-3h7q-40 0 -71 76l32 -74
q-24 52 -35 79q-7 18 -16 40q-10 22 -17 40t-17 40t-17 40t-17 40t-17 40q-9 21 -27 65q-9 21 -27 65q-9 21 -27 65q-1 2 -10 23q-10 24 -18 42q-6 17 -6 29q0 11 5 19q9 16 28 16q0 1 1 1q0 1 1 6v7l-1 2q-4 7 -7 9q-2 0 -31 -3h-6q-19 -2 -27 -2q-26 -1 -45 -1h-19
q-17 0 -27 1q-10 0 -26 2q-21 3 -27 3v-2q-1 -2 -1 -3t1 -3q1 -3 1 -4q2 -6 10 -13h1q20 -6 20 -23q-1 -11 -6 -35q-1 -1 -1 -2l-1 -2q-4 -12 -13 -40q-5 -14 -9 -25q-9 -28 -23 -65q-4 -12 -13 -40q-5 -14 -9 -25q-4 -12 -13 -40q-5 -14 -9 -25q-6 -18 -13 -40
q-8 -22 -14 -40t-13 -40q-8 -22 -14 -40t-14 -40t-14 -40q-9 -27 -27 -79v-1l25 75q-14 -42 -39 -58q-24 -18 -32 -18h2l-3 -1q-5 -8 -7 -13q-2 -4 -2 -12q1 1 12 1l12 1q20 0 23 1q6 1 19 1q6 0 17 -1q1 -1 12 -1l12 -1q14 -1 24 -1q5 11 6 12q1 2 1 4q1 2 1 3q0 3 1 5
q-1 0 -3 1q-6 6 -19 17q-11 11 -11 24q0 7 3 16q4 10 12 38q3 10 8 22q4 11 6 16v1q0 2 6 12l6 12q4 7 10 9q3 2 15 3q8 0 40 1q21 0 39 1q27 0 40 1h38h30q10 -1 33 -1q40 0 63 -1l11 -1q9 -1 11 -1q6 0 13 -9zM526 338q0 -10 -1 -13t-14 -5v1q-27 -1 -63 -1h-32h-30
q-52 0 -152 2h-6q-12 0 -12 7q1 3 1 5l9 27q2 7 7 18l4 12q1 4 6 18q1 3 4 11q2 6 5 14t5 14q20 62 42 123q5 14 11 31q5 17 10 31t11 31q5 17 10 31q4 10 16 10q11 -1 18 -12q6 -14 13 -31t13 -31t14 -31q7 -17 13 -31q13 -33 25 -62q9 -21 27 -61q12 -30 23 -54l1 -1
q15 -40 22 -53z" />
    <glyph glyph-name="b" unicode="b" horiz-adv-x="603" 
d="M469 569q-8 7 -8 17q0 5 3 11q23 22 23 56q0 11 -3 24q-10 55 -34 80q-24 24 -66 38q-5 2 -15 2q-2 0 -7 -1t-8 -1l-264 -3q-14 0 -44 3q-3 -7 -3 -12q0 -8 3 -14h2h3h-1h1q3 0 4 -1q29 -3 33 -56v-66v-66v-66v-66v-67v-66v-66v-66q-5 -52 -28 -56h-3q-1 -1 -2 -1h-3h-1
h-1h1q-4 -5 -4 -12q0 -8 5 -13q18 1 27 2h9v1h-1h-1q0 -1 1 -1h3h117h14h8h7l141 -2q8 -1 19 -1q67 0 131 51q66 50 66 157q0 83 -41 154q-42 73 -83 107zM368 586q42 0 85 -84q44 -85 44 -177q0 -97 -34 -146q-33 -51 -75 -51h-3h-3q-3 -1 -7 -1l-150 1q-27 0 -27 23v412
q0 23 27 23h130q4 0 5 -1q1 1 8 1zM337 770q23 0 51 -23q26 -23 26 -55t-14 -54q-14 -23 -38 -23h-2h-1h-1h-1h-2h-2h-131q-24 0 -24 20v115q0 20 24 20h106h2h2h2h1h2z" />
    <glyph glyph-name="c" unicode="c" horiz-adv-x="532" 
d="M425 208q0 -1 1 -4v-5q0 -27 -39 -41q-70 0 -139 45q-76 49 -110 157q-22 63 -22 125q0 51 15 97q34 106 76 145q23 22 95 35q11 3 30 3q51 0 76 -39q6 -22 6 -29q-1 -1 -1 -17l-1 -18l1 4q0 -3 -1 -4q8 -6 14 -6q7 0 16 6q0 21 1 46q1 14 1 21q4 32 12 67q-10 5 -14 5
t-16 -5v-5v-4v-4v-4l-1 15q0 -21 -22 -21q-20 0 -50 11q-27 11 -57 11q-104 0 -182 -102t-78 -245q0 -144 89 -245q89 -102 197 -102q110 0 189 111v1l4 6q3 6 3 19q0 9 -3 18q-8 17 -25 22q-4 2 -13 2q-12 0 -24 -6q-20 -11 -27 -28q-5 -12 -5 -21q0 -7 4 -17zM391 159
l24 4q-2 -1 -4 -1q-13 -3 -20 -3z" />
    <glyph glyph-name="d" unicode="d" horiz-adv-x="568" 
d="M283 795l-150 -5l-1 1h-1h-1h-19q-17 0 -27 1q-14 0 -46 3q-3 -10 -3 -12t3 -14h1h2q4 0 5 -1q30 -3 34 -56v-66v-66v-66v-66v-67v-66v-66v-66q-4 -51 -29 -56h-3q-1 -1 -2 -1h-3h-1h-1h1q-4 -8 -4 -12q0 -6 5 -13q10 0 27 2h10v1q21 0 30 1h21h22q8 -1 30 -1q5 -1 21 -1
q14 -1 20 -1q20 -1 41 -1h57q84 0 158 59q73 58 73 202q0 88 -33 182q-33 95 -87 161q-34 42 -77 66t-75 24h2zM264 770q31 0 80 -30q47 -29 82 -86q29 -48 45 -105q17 -62 17 -127q2 -10 2 -29q0 -44 -18 -89q-24 -61 -46 -94q-34 -50 -78 -67q-42 -15 -81 -15h-2h-48
q-21 0 -21 19v603q0 20 21 20h43h2h2z" />
    <glyph glyph-name="e" unicode="e" horiz-adv-x="527" 
d="M473 208q-7 -29 -47 -52q-39 -25 -75 -27h-1v-1h-35h-103q-15 2 -21 3q-7 1 -7 35v-38v80v80v80v79v26v29v31v31q1 3 2 8q0 5 1 8q0 4 19 4q3 0 13 -1q13 -1 22 -1q26 -4 66 -25q39 -20 54 -41q2 -2 4 -5l1 -2q1 -1 1 -3l1 -2v2q0 -2 4 -6h5l5 -1q1 0 5 1h4q8 1 18 11
q-4 4 -12 15l-2 3l-15 18q-16 19 -23 39q-9 23 -10 42l-1 12q-1 14 -3 33h-17q-8 -3 -18 -11q0 -1 1 -2v-2v-1v-2q-3 -28 -42 -33q-39 -6 -61 -6q-3 0 -7 -1h-5q-9 0 -9 3q0 9 -1 13v32v33q0 22 1 32v27q0 9 9 12q3 1 25 1q18 1 24 1h61h2h20h-23q38 0 78 -3q43 -5 47 -33
v-1v-2q1 -1 3 -1l2 -1h3q1 -1 5 -1q6 30 10 41q4 16 13 39q-2 1 -3 1q-3 1 -4 1h-6q-1 -1 -3 -1t-2 -1q-55 -8 -107 -11h-9q-46 -2 -66 -2q-9 -1 -19 -1q-16 -1 -19 -1q-13 -1 -35 -1h-13h-3h1h2h-1h-26q-8 -1 -20 -1q-11 0 -19 1h-27q-14 0 -46 3q-4 -7 -4 -12q0 -6 4 -13
h1h1h2q-1 0 -1 -1h1h5q29 -3 33 -57v-65v-66v-67v-66v-66v-66v-67v-65q-4 -51 -29 -56q-3 0 -4 -1h-4l-1 -1h-1h1q-3 -7 -3 -12q0 -8 4 -12q8 1 18 1t19 1q20 0 29 1h22q37 0 52 -1h2h2h3h2l32 -2h1h1h282q3 5 3 13q0 10 -3 14q-6 20 -6 21l-1 4q-2 11 -3 18v9q-1 5 -1 10
q0 21 5 51q-7 4 -14 4q-6 0 -13 -4q-3 -22 -3 -33z" />
    <glyph glyph-name="f" unicode="f" horiz-adv-x="470" 
d="M203 616q-3 0 -7 -1h-5q-9 0 -9 3q0 9 -1 13v32v33q0 22 1 32v27q0 9 9 12q3 1 25 1q18 1 24 1h61h2h20h-23q38 0 78 -3q43 -5 47 -33v-1v-2q1 -1 3 -1l2 -1h3q1 -1 5 -1q6 30 10 41q4 16 13 39q-2 1 -3 1q-3 1 -4 1h-6q-1 -1 -3 -1t-2 -1q-55 -8 -107 -11h-9
q-46 -2 -66 -2q-9 -1 -19 -1q-16 -1 -19 -1q-13 -1 -35 -1h-13h-3h1h2h-1h-26q-8 -1 -20 -1q-11 0 -19 1h-27q-14 0 -46 3q-4 -7 -4 -12q0 -6 4 -13h1h1h2q-1 0 -1 -1h1h5q29 -3 33 -57v-65v-66v-67v-66v-66v-66v-67v-65q-4 -51 -29 -56q-3 0 -4 -1h-4l-1 -1h-1h1
q-3 -7 -3 -12q0 -8 4 -12q8 1 18 1t19 1q20 0 29 1h22q37 0 52 -1q12 0 21 -1h11q4 -1 11 -1q5 7 5 12t-5 13q-5 0 -11 1h6q-38 0 -38 76v-75v80v80v80v79v26v29v31v31q1 3 2 8q0 5 1 8q0 4 19 4q3 0 13 -1q13 -1 22 -1q26 -4 66 -25q39 -20 54 -41q2 -2 4 -5l1 -2
q1 -1 1 -3l1 -2v2q0 -2 4 -6h5l5 -1q1 0 5 1h4q8 1 18 11q-4 4 -12 15l-2 3l-15 18q-16 19 -23 39q-9 23 -10 42l-1 12q-1 14 -3 33h-17q-8 -3 -18 -11q0 -1 1 -2v-2v-1v-2q-3 -28 -42 -33q-39 -6 -61 -6z" />
    <glyph glyph-name="g" unicode="g" horiz-adv-x="582" 
d="M527 392q7 16 31 20h3h1h2q9 8 9 12q0 5 -9 12q-52 -3 -89 -3t-90 3q-9 -6 -9 -12t9 -12h2h2h1q30 -4 36 -27v-147v-6q-1 -5 -1 -6t1 -6v-7v1q-1 -4 -3 -18q-2 -13 -9 -20q-9 -10 -20 -18l-3 -2q-12 -10 -16 -11q-22 -6 -38 -10q-5 -2 -18 -2q-4 0 -10 1q-8 1 -12 1
q-2 0 -11 3l-12 3q-45 11 -70 48q-27 38 -31 62q0 7 -3 17q-3 9 -3 19v22v33v38v41v40v39v33v23v2q1 14 16 69q14 50 32 79q3 5 4 5q4 7 19 20v1q15 20 72 30q12 3 38 3q25 0 48 -4q48 -9 65 -35q6 -19 6 -29v-12q-1 -6 -1 -23l1 4q0 -2 -1 -4q6 -6 14 -6q7 0 16 6v16v17
q0 18 1 34q5 40 13 67q-2 1 -3 1q-8 4 -11 4q-6 0 -16 -5v-5v-4v-4v-4l-1 15q0 -21 -23 -21q-19 0 -49 11q-27 11 -57 11q-105 0 -207 -102q-104 -102 -104 -245q0 -144 89 -245q89 -102 197 -102q35 0 72 14h-1q3 0 4 1q8 3 24 12q38 18 58 25q36 14 61 17h2h1h2h2
q7 6 7 11q0 3 -7 10h-1h-2h-2q-16 2 -18 17v154v30zM534 412h-7h3h2h2zM527 200v-9v9z" />
    <glyph glyph-name="h" unicode="h" horiz-adv-x="532" 
d="M206 586h135q22 -3 27 -23v-29v-29v-28v-29v-67v-66v-66v-66q-5 -52 -29 -56h-2q-1 -1 -2 -1h-2h-2h-1h1q-4 -7 -4 -12q0 -8 4 -13q19 1 29 2h8v1q21 0 30 1h21h22q9 -1 31 -1q3 -1 10 -1q3 -1 11 -1q12 0 22 -1q5 7 5 12t-5 13q-5 0 -6 1h-3h-3h7q-38 0 -38 76v-75v80
v80v80v80v65v65v65v65q2 60 37 60q0 1 1 1q5 8 5 13q0 4 -5 12q-31 -3 -46 -3h-46h-18q-17 0 -28 1q-13 0 -45 3q-4 -7 -4 -12q0 -7 4 -14h1h1h1q4 0 5 -1q29 -1 33 -56v-19v-20v-19v-19q-5 -18 -28 -20h-137q-20 3 -22 24v17v17v18v17q2 60 38 60q0 1 1 1q4 7 4 13
q0 5 -4 12q-17 -2 -46 -3h-12h-12h-11h-11h-19q-17 0 -27 1q-14 0 -46 3q-3 -10 -3 -12t3 -14h1h2q4 0 5 -1q30 -3 34 -56v-66v-66v-66v-66v-67v-66v-66v-66q-4 -51 -29 -56h-8l-1 -1h-1h1q-4 -8 -4 -12q0 -6 5 -13q5 1 19 1q13 1 18 1v1q21 0 30 1h21h22q8 -1 30 -1
q11 0 21 -1q3 -1 11 -1q3 -1 11 -1q5 8 5 12q0 3 -5 13q-5 0 -6 1h-2h-4h7q-38 0 -38 76v-75v80v80v80v80v34v35v34v35v-26q0 22 25 26zM181 633v-18v5v3v5v5zM353 615h15h-15z" />
    <glyph glyph-name="i" unicode="i" horiz-adv-x="221" 
d="M28 127h-3q-1 -1 -2 -1h-3h-1h-1h1q-4 -8 -4 -12q0 -6 5 -13q10 0 27 2h10v1q21 0 30 1h21h22q8 -1 30 -1q4 -1 17 -1q4 0 13 -1q9 0 13 -1q5 8 5 12q0 3 -5 13q-5 0 -6 1h-2h-4h7q-38 0 -38 76v-75v80v80v80v80v65v65v65v65q2 60 38 60v1q5 8 5 13q0 4 -5 12
q-30 -3 -45 -3h-46h-19q-17 0 -27 1q-14 0 -46 3q-3 -10 -3 -12t3 -14h1h2q4 0 5 -1q30 -3 34 -56v-66v-66v-66v-66v-67v-66v-66v-66q-4 -51 -29 -56z" />
    <glyph glyph-name="j" unicode="j" horiz-adv-x="429" 
d="M84 115q5 1 9 5l1 1q16 13 16 31q0 42 -50 42q-48 0 -48 -42v-1v-1h-1q0 -60 51 -98q50 -37 128 -37q76 0 128 51q51 50 51 111h-1v62v75v75v59v65v65v65v65q3 60 38 60q0 1 1 1q4 7 4 13q0 5 -4 12q-31 -3 -46 -3h-46h-19q-17 0 -26 1q-16 0 -46 3q-5 -8 -5 -12
q0 -6 5 -14h1h1h1q4 0 5 -1q29 -3 33 -56v-66v-66v-66v-66v-61v-76v-76v-60q0 -53 -29 -94q-32 -41 -72 -41q-56 0 -86 40q-5 10 -5 16q0 10 11 19z" />
    <glyph glyph-name="k" unicode="k" horiz-adv-x="644" 
d="M361 680q-2 4 -2 12q0 18 16 34l-3 -3l11 13l-5 -7q11 11 33 24q21 14 40 19h2h2h1q2 8 2 11q0 1 -1 5l-1 5q-27 -4 -48 -4h-14q-22 0 -47 4q-9 -7 -9 -10q0 -6 8 -11h1q5 0 5 -8q0 -2 -1 -4q-1 -4 -1 -6q-7 -19 -15 -31l-112 -126q-14 -13 -24 -13q-11 0 -11 16v-8v29
v29v29v29q2 60 38 60v1q5 8 5 13q0 4 -5 12q-30 -3 -45 -3h-46h-19q-17 0 -27 1q-14 0 -46 3q-3 -10 -3 -12t3 -14h1h2q4 0 5 -1q30 -3 34 -56v-66v-66v-66v-66v-67v-66v-66v-66q-4 -51 -29 -56h-3q-1 -1 -2 -1h-3h-1h-1h1q-4 -7 -4 -12q0 -6 5 -13q10 0 27 2h10v1
q21 0 30 1h21h22q8 -1 30 -1q4 -1 17 -1q4 0 13 -1q9 0 13 -1q5 8 5 12q0 3 -5 13q-5 0 -6 1h-2h-4h7q-38 0 -38 76v-75v80v80v80v80v6v6v7v6q0 20 12 42q10 23 26 42q21 20 41 20q18 0 33 -19l152 -381q2 -7 2 -29q0 -15 -8 -20h-1h-2h-2q-4 -8 -4 -15q0 -8 4 -13
q58 5 93 5q33 0 91 -5q5 8 5 13q0 4 -5 14h1h-1v1h-2h-1q-17 2 -34 17q-18 17 -24 30l8 -23l-13 33q0 -1 2 -3l-191 475l-17 43zM227 558l1 1l2 2l-4 -3l15 17zM279 618l8 9z" />
    <glyph glyph-name="l" unicode="l" horiz-adv-x="527" 
d="M183 222v228v65v65v65v65q2 60 39 60v1q5 8 5 13q0 4 -5 12q-3 -1 -11 -1q-4 -1 -12 -1q-10 -1 -22 -1h-27q-8 -1 -19 -1q-8 0 -12 1h-12q-9 1 -23 1q-13 1 -22 1q-18 1 -23 1q-4 -7 -4 -12q0 -6 4 -13h3h2h1h1q1 -1 2 -1q29 -3 32 -56v-66v-67v-66v-65v-63v-63v-65v-68
h1v-2v-2v-3v-2q-4 -51 -29 -57h-2h-2h-4h-1q0 -1 -1 -1h1q-4 -7 -4 -12q0 -6 5 -11q22 1 37 1q15 1 51 1h30h22v-1h9v-1h31h1h2h282q3 5 3 12q0 10 -3 14h-1q0 1 -1 6q-2 8 -4 15q-2 8 -4 22v9q-1 5 -1 10q0 21 5 51q-8 4 -14 4t-13 -4q-3 -18 -3 -33q-7 -27 -47 -52
q-39 -24 -75 -27l129 7v1l1 -1l1 -1l-167 -7h-103q-10 0 -22 2q-6 2 -6 36v-38v23v23v23v26h-1z" />
    <glyph glyph-name="m" unicode="m" horiz-adv-x="1059" 
d="M166 159q-5 -8 -17 -18q-15 -12 -23 -13h-3h-3h-2h-2q-5 -7 -5 -13q0 -7 5 -14q28 5 53 5q22 0 52 -5q6 8 6 14q0 5 -6 12v1h-5q-20 0 -20 30l74 226h-31zM355 650q12 30 20 31q9 0 30 -28l119 -230l-2 -8q5 -2 14 -2q5 0 12 1q2 1 4 1l83 258q9 21 16 21q5 0 8 -8l7 -16
v-1q0 -1 1 -1v1l92 -221q6 -16 17 -40q7 -18 11 -27l27 -66q6 -15 14 -33t14 -33t14 -33t14 -33q5 -11 5 -28q0 -22 -20 -28h-2q-1 -1 -2 -1h-2h-2h-1h1q0 -6 1 -10v-2q2 -4 10 -13q3 1 11 1q6 0 12 1q15 0 22 1q21 0 30 1h21q37 0 52 -1q5 -1 19 -1q2 0 13 -1q6 0 12 -1
q0 1 1 3v3v3l-1 3q-1 4 -10 13q-5 0 -6 1h-3h-3h7q-40 0 -70 76l30 -75v1q-22 52 -33 79q-7 18 -17 40t-17 40t-16 40q-10 22 -17 40t-16 40q-10 22 -17 40q-1 2 -10 23q-10 24 -18 42q-9 21 -27 65q-9 21 -27 65q-9 21 -27 65q-9 24 -9 38q0 22 22 22q0 1 1 1q0 10 -1 13
q-1 5 -9 12h-6q-26 -2 -39 -2q-13 -1 -46 -1h-11h-8q-8 0 -18 1l9 -25l-52 -156q-6 -17 -17 -29q-3 -3 -8 -3q-7 0 -13 9l-67 119q-9 24 -9 39q0 22 21 22h1q0 5 -1 10v4q-1 5 -9 12q-25 -3 -45 -3h-26q-8 -1 -20 -1q-6 0 -9 1h-7h-15q-9 0 -12 1h-11q-2 1 -7 1t-8 1
q-7 0 -9 1q-10 -7 -12 -12v-2q-1 -2 -1 -3t1 -5q1 -2 1 -3q3 -1 10 -1q6 -1 9 -1l-19 1q36 0 36 -32t-6 -65l-94 -287h30zM346 707l18 59h1z" />
    <glyph glyph-name="n" unicode="n" horiz-adv-x="685" 
d="M630 746v40q0 24 16 34q8 4 14 4q2 0 6 -1t6 -1q14 -4 24 -11q2 -2 8 -11q2 -4 5 -8q3 -3 3 -10t-5 -15q2 0 12 8q10 9 15 26q3 6 3 19q0 16 -11 30q-19 20 -49 23q-35 0 -58 -20q-25 -22 -25 -52v-1v-1v-2v-2v-468q-5 -20 -24 -20q-20 0 -50 37l-72 104q-56 81 -89 130
q-13 20 -17 25q-20 31 -26 40q-8 12 -27 40q-11 17 -17 25q-20 32 -20 46t17 14q0 1 1 1q-2 9 -5 13q-4 6 -12 12q-30 -3 -44 -3h-46h-19q-17 0 -27 1h-17h-27q-30 2 -44 3q0 -8 4 -12q6 -8 13 -14h1h2h-1h1q4 0 5 -1h2h1h2q26 -5 26 -27q0 -15 2 -47v-3l1 4v-542
q-4 -19 -28 -23h-2h-3v-1h-1h1q-4 -7 -4 -13q0 -7 4 -15q28 4 49 4q19 0 47 -4q5 12 5 15q0 4 -5 14h-1h-1h-3q-23 3 -26 23v528q0 8 8 26q11 8 18 8q6 0 10 -3q13 -7 28 -27q35 -52 82 -121l16 -23q40 -61 63 -93q15 -23 45 -67l22 -33l22 -33l45 -66l45 -66q15 -26 24 -52
q5 -15 5 -20q0 -10 -6 -10q3 1 8 1t8 1h7h8v1h12h13h12h13l41 -3l-2 2q-18 17 -26 52q-8 34 -11 64v135v128v129v135z" />
    <glyph glyph-name="o" unicode="o" horiz-adv-x="569" 
d="M298 795q-106 0 -183 -102q-77 -103 -77 -245t77 -245q77 -102 183 -102q108 0 184 102q77 103 77 245q0 141 -77 245q-76 102 -184 102zM195 736q9 3 28 3q55 0 117 -40q78 -52 119 -171q25 -73 25 -150q0 -40 -8 -85q-23 -117 -88 -131q-11 -4 -33 -4q-51 0 -105 36
q-71 47 -110 166q-30 87 -30 175q0 36 4 65q15 120 81 136z" />
    <glyph glyph-name="p" unicode="p" horiz-adv-x="484" 
d="M234 551q53 12 74 19q15 4 38 9q11 3 30 8l12 3q10 1 34 9q17 4 30 19q10 13 13 30q3 23 3 29q0 51 -32 84q-31 34 -96 34l-263 -3q-15 0 -44 3q-3 -10 -3 -12t3 -14h1h2q4 0 5 -1q30 -3 34 -56v-66v-66v-66v-66v-43v-43v-44v-45v-24q-1 -8 -1 -24v-23v-20
q-3 -50 -31 -56h-2h-2h-3l-1 -1h-1h-1h1q-3 -6 -3 -12q2 -9 4 -12q16 0 23 1q11 0 16 1h32h24h32h23q4 -1 12 -1q3 -1 11 -1h23q6 6 6 11q0 4 -6 13q-8 0 -12 1h7q-41 0 -41 76v-75v41v40v43v46h-1v217q0 9 10 18q8 10 20 13q5 1 10 3t10 3zM223 570q-9 -1 -15 -3
q-24 0 -24 18v165q0 20 24 20h106h2h1h2h1h2h1q23 0 51 -23q26 -23 26 -55q0 -27 -20 -59q-20 -33 -59 -40z" />
    <glyph glyph-name="q" unicode="q" horiz-adv-x="569" 
d="M421 143q62 44 99 125q39 83 39 180q0 141 -77 245q-76 102 -184 102q-106 0 -183 -102q-77 -103 -77 -245t77 -245q77 -102 183 -102q53 0 105 29q23 -26 23 -47q0 -11 -6 -20q-9 -15 -37 -15q-28 3 -61 27q0 -6 27 -26q43 -31 86 -53q26 -14 44 -14q12 0 22 8q6 7 6 18
q0 19 -18 52q-29 50 -68 83zM368 159h-7q-5 -1 -7 -1q-55 0 -113 43q-65 50 -101 159q-30 87 -30 175q0 36 4 65q15 120 81 136q9 3 28 3q55 0 117 -40q78 -52 119 -171q25 -75 25 -151q0 -43 -7 -79q-22 -114 -84 -135l-1 1q-27 19 -37 44q-5 13 -5 23q0 9 5 19
q10 17 31 17q27 0 68 -29q0 6 -27 25q-37 27 -81 46q-19 8 -32 8q-15 0 -26 -11q-7 -7 -7 -21q0 -18 15 -47q28 -48 69 -77z" />
    <glyph glyph-name="r" unicode="r" horiz-adv-x="478" 
d="M354 564q5 17 27 23q7 1 19 5q7 3 25 11q13 7 19 15q17 19 19 47q0 51 -42 90q-44 40 -107 40l-238 -3q-15 0 -44 3q-3 -10 -3 -12t3 -14h1h2q4 0 5 -1q30 -3 34 -56v-66v-66v-66v-66v-43v-43v-44v-45v-24q-1 -8 -1 -24v-23v-20q-3 -50 -31 -56h-2h-2h-3l-1 -1h-1h-1h1
q-3 -6 -3 -12q2 -9 4 -12q16 0 23 1q11 0 16 1h32h24h32h23q4 -1 12 -1q3 -1 11 -1h23q6 6 6 11q0 4 -6 13q-8 0 -12 1h7q-41 0 -41 76v-75v41v40v43v46h-1v262q0 24 30 27h21q18 -1 37 -1q8 -1 24 -1q23 -6 23 -25v26h1q0 -11 -1 -16q0 -9 5 -64v-7q4 -60 15 -128
q9 -69 27 -145q17 -76 43 -122q26 -50 59 -74q31 -22 48 -22q1 -1 6 -1q15 0 39 12q25 13 25 40q0 28 -22 47q-21 20 -37 20q-9 0 -9 -11v-3q1 -3 1 -5q-2 -14 -19 -16q-19 0 -39 24q0 1 -2 3q-1 2 -2 3q0 1 -1 2q-2 3 -3 5q-23 41 -41 103q-16 57 -29 125q-12 59 -19 121
l-2 15q-2 25 -3 35q-2 14 -4 34v4zM230 615h-13q-9 0 -10 -1q-24 0 -24 18v118q0 20 24 20h67h1h2q3 0 13 -1h10q2 -1 4 -1q20 0 43 -10q22 -9 39 -26q11 -15 14 -29v-3q2 -17 2 -24q0 -27 -39 -45q-40 -17 -81 -17z" />
    <glyph glyph-name="s" unicode="s" horiz-adv-x="670" 
d="M397 788q-46 9 -95 9q-87 0 -143 -39t-60 -76l-1 -2h1q-4 -22 -4 -33q0 -60 54 -102q68 -53 162 -53v4v-4h2h2q102 0 190 -52t96 -95q2 -7 2 -22q0 -29 -13 -75q-18 -55 -67 -86q-34 -20 -86 -28q-54 -8 -95 -8q-22 0 -57 5q-12 3 -24 5q-24 5 -29 6q-24 4 -35 9
q-13 5 -33 15q-47 26 -70 62q-9 11 -14 35l-2 9q-2 13 -2 18q0 2 1 4v3q5 27 17 33q12 5 37 5q6 -4 11 -6q6 -4 8 -5q7 -4 10 -18q0 -16 -4 -20q-2 0 -2 -3q0 -2 8 -2q14 0 37 17q23 15 27 30q5 11 6 17v7v6q0 74 -82 80q-1 0 -8 1h-9q-39 0 -67 -20q-32 -23 -32 -66v-2v-5
v-5v-5q0 -16 8 -56q6 -36 24 -61q14 -22 36 -39q26 -20 44 -29q29 -18 78 -32q63 -18 118 -18q51 0 107 10q59 11 99 33q59 33 84 85q26 51 27 92v1q0 119 -102 206t-243 87h-2h-2v-1q-47 2 -79 26q-33 25 -35 65h3q5 26 45 44q38 19 98 19q57 0 92 -20q37 -20 51 -43
l22 -54q12 -4 22 -4t19 4q-22 44 -33 78q-7 20 -10 40q-3 14 -5 35v4q-12 4 -22 4q-12 0 -19 -4q2 -8 3 -11q2 -9 3 -11l-6 22q2 -4 2 -11q0 -14 -15 -14q-22 0 -49 5z" />
    <glyph glyph-name="t" unicode="t" horiz-adv-x="713" 
d="M133 794q-8 0 -29 7l-1 -7h1h-2q0 3 1 6l1 2q-4 3 -13 3t-15 -3q-9 -47 -17 -71q-12 -39 -28 -71q7 -3 14 -3q4 0 13 3q3 5 14 31l-3 -9q6 27 43 55t75 31l-5 1h25q9 -1 27 -1h25h26q26 -4 31 -56v-66v-66v-66v-66v-67v-66v-66v-66q-5 -52 -29 -56h-2q-1 -1 -2 -1h-2h-2
h-1h1q-4 -7 -4 -12q0 -8 4 -13q7 0 10 1q6 0 9 1q9 0 18 1q21 0 30 1h21q37 0 52 -1q6 -1 11 -1q8 0 11 -1q12 0 22 -1q4 5 4 12q0 6 -4 13q-5 0 -6 1h-3h-3h7q-39 0 -39 76v-75v1v79v80v80v80v65v65v65v65q5 60 39 60h22h24q15 0 23 1h23h-3q30 -1 63 -24q34 -23 47 -45
q4 -13 17 -40q8 -3 15 -3q5 0 12 3q-16 34 -28 71q-10 29 -18 71q-6 3 -14 3q-7 0 -12 -3v-1q-21 -7 -28 -7q-20 -1 -59 -1q-20 -1 -59 -1h-59h-59h-58h-58q-41 0 -113 2h-3z" />
    <glyph glyph-name="u" unicode="u" horiz-adv-x="596" 
d="M434 209q-1 -25 -15 -42q-40 -39 -99 -39q-53 0 -91 33q-40 34 -44 82v51v51v52v51v65v65v65v65q2 60 38 60v1q5 8 5 13q0 4 -5 12q-30 -3 -45 -3h-46h-19q-17 0 -27 1q-14 0 -46 3q-3 -10 -3 -12t3 -14h1h2q4 0 5 -1q30 -3 34 -56v-66v-66v-66v-66v-51v-52v-51v-51
q5 -59 65 -99q59 -41 142 -41q60 0 107 22q-3 -7 -3 -11q0 -6 4 -13q19 1 29 2h8v1q21 0 30 1h21h22q9 -1 31 -1q4 -1 17 -1q4 0 13 -1q9 0 13 -1q5 8 5 12q0 3 -5 13q-5 0 -6 1h-2h-4h7q-38 0 -38 76v-75v80v80v80v80v65v65v65v65q2 60 38 60v1q5 8 5 13q0 4 -5 12
q-30 -3 -45 -3h-47h-18q-17 0 -28 1q-16 0 -45 3q-5 -10 -5 -12q0 -4 5 -14h1h2h-1h1q5 0 6 -1q28 -1 32 -56v-66v-66v-66v-66v-48v-48v-48v-47v1v-7v-5v-10v-9v-9v-9z" />
    <glyph glyph-name="v" unicode="v" horiz-adv-x="610" 
d="M546 811q12 -12 17 -25q1 -3 1 -11v-17q-1 -74 -24 -142q-18 -53 -48 -128q-26 -60 -48 -124q-20 -60 -20 -128q0 -22 -10 -28q-11 0 -26 37v-4q-6 13 -15 41l-4 11q-9 23 -18 52q-7 17 -19 51q-5 11 -10 26t-10 26q-8 21 -24 65q-14 37 -23 65q-13 30 -24 65
q-8 21 -24 65q-7 25 -7 35q0 25 23 25q0 1 1 1q0 4 -1 9v4q-1 3 -8 12l-45 -3h-12h-12h-11h-11h-19q-17 0 -27 1q-15 0 -47 3v-12q1 -6 9 -14h2h2q4 0 5 -1q31 -3 54 -56q7 -22 23 -66t25 -66q11 -33 24 -66q16 -44 25 -66q8 -23 24 -67l24 -66l24 -66q16 -44 25 -66
q5 -13 5 -32q0 -21 -14 -24h-7v-1h-1h1v-3q-1 -2 -1 -3l1 -3v-3q1 -5 9 -13q4 1 18 1q13 1 18 1v1q20 0 29 1h22h21q9 -1 31 -1q12 0 22 -1q3 -1 11 -1q3 -1 11 -1q0 1 1 3v3v3l-1 3q-2 6 -9 13h-2h-2q0 1 -1 1q-27 6 -27 23q2 4 6 19q1 4 3 15q1 3 1 5q0 151 66 287
q68 138 82 301v1v4v3v12q-1 32 -30 54q-26 20 -59 20q-62 -8 -62 -79q0 -11 3 -19q6 -29 30 -29q13 0 25 14q13 13 13 30q0 4 -2 8q0 2 -4 5q-12 11 -12 17t4 6q3 1 5 1q10 0 35 -14z" />
    <glyph glyph-name="w" unicode="w" horiz-adv-x="835" 
d="M578 779q-2 -72 -20 -134q-21 -66 -43 -124q-11 26 -17 47q-10 25 -17 46q-12 32 -17 47q-6 15 -18 47q-6 21 -6 34q0 26 22 26l1 1v13q-1 3 -10 12h-3q-30 -2 -41 -2q-10 -1 -26 -1h-20h-19q-17 0 -27 1q-15 0 -47 3q0 -2 -1 -4v-3q0 -2 1 -5q2 -7 10 -14h1h2q4 0 5 -1
q31 -3 54 -56q11 -33 24 -66l24 -66q16 -44 25 -66l24 -66q8 -21 24 -66q-11 -34 -19 -73q-6 -34 -6 -73q0 -22 -10 -28q-11 0 -26 37v-4q-6 13 -15 41l-4 11q-9 23 -18 52q-7 17 -19 51q-5 11 -10 26t-10 26q-8 21 -24 65q-14 37 -23 65q-13 30 -24 65q-8 21 -24 65
q-7 25 -7 35q0 25 23 25q0 1 1 1q0 4 -1 9v4q-1 3 -8 12l-45 -3h-12h-12h-11h-11h-19q-17 0 -27 1q-15 0 -47 3v-12q1 -6 9 -14h2h2q4 0 5 -1q31 -3 54 -56q7 -22 23 -66t25 -66q11 -33 24 -66q16 -44 25 -66q8 -23 24 -67l24 -66l24 -66q16 -44 25 -66q5 -13 5 -32
q0 -21 -14 -24h-7v-1h-1h1v-3q-1 -2 -1 -3l1 -3v-3q1 -5 9 -13q4 1 18 1q13 1 18 1v1q20 0 29 1h22h21q9 -1 31 -1q12 0 22 -1q3 -1 11 -1q3 -1 11 -1q0 1 1 3v3v3l-1 3q-2 6 -9 13h-2h-2q0 1 -1 1q-27 6 -27 23q2 4 6 19q1 4 3 15q1 3 1 5q0 67 18 137q0 -1 3 -9
q6 -17 10 -26q7 -22 13 -37l4 -10q14 -41 22 -61q6 -19 6 -33q0 -20 -14 -23h-2h-2h-2h-2v-1h-2h2v-3q-1 -2 -1 -3l1 -3v-3q2 -6 9 -12h10q6 0 9 1q9 0 18 1h-1q21 0 30 1h22q36 0 51 -1q13 0 22 -1q6 -1 12 -1q8 0 11 -1q0 1 1 3v3v3l-1 3q-2 3 -10 13h-2h-1q0 1 -2 1h1h-1
q-26 6 -26 23q0 1 1 5q2 8 4 14t4 20q0 148 66 287q68 141 81 301h1v7v6q0 3 1 4v3h-1q-3 30 -30 54q-23 20 -59 20q-61 -6 -61 -79q0 -11 2 -19q6 -29 30 -29q13 0 25 14q13 13 13 30v4q-1 1 -1 3h1q-11 14 -11 22q0 6 4 9q2 3 7 3q9 0 26 -14q1 -2 3 -5q5 -8 9 -14
q6 -10 6 -21h1q-3 -78 -25 -144q-19 -58 -48 -134q-31 -75 -47 -130q-20 -60 -20 -131q-1 -21 -11 -28q-11 0 -26 37l1 -3q-7 17 -19 51q-6 13 -15 41l-4 11q-12 34 -19 51q-6 13 -15 41l-4 11q-8 24 -9 28l6 18q13 38 19 53q12 35 24 72q24 75 31 150v1v2q0 52 -37 79l1 -2
q3 -14 3 -21v-4q-1 -4 -1 -5q-2 -6 -2 -22q0 -1 1 -8v-10z" />
    <glyph glyph-name="x" unicode="x" horiz-adv-x="499" 
d="M85 146q2 70 49 120t96 117q12 -32 19 -49q12 -34 19 -51q12 -34 19 -51q6 -17 18 -49q6 -21 6 -34q0 -19 -13 -22h-2q-1 -1 -2 -1h-3h-1h-1h1q0 -2 -1 -4v-3q0 -2 1 -5q1 -5 9 -13q13 1 30 2h6v1q20 0 29 1h22h22q9 -1 30 -1q5 -1 19 -1q4 0 13 -1q9 0 13 -1q0 1 1 3v3
v3l-1 3q-1 2 -6 9l-4 4q-4 0 -6 1h-2h-3h7q-40 0 -68 76l28 -75q-7 18 -15 40t-15 40q-15 37 -31 80q-7 20 -23 63l-6 17q-7 18 -15 40t-15 40q-1 2 -3 8q0 1 -1 3q-2 4 -3 8q55 73 98 152q41 75 52 161q1 1 1 11v1v1q-1 46 -45 56q12 -25 13 -56h-1q-8 -83 -44 -156
q-36 -74 -86 -141q-6 14 -12 32l-8 20q-4 9 -13 36l-7 18q-5 12 -10 27t-10 27q-6 13 -15 41l-4 11q-7 21 -7 36q0 24 22 24q0 1 1 1q0 4 -1 9v4q-1 3 -8 12q-31 -3 -45 -3h-46h-19q-17 0 -27 1q-17 0 -47 3v-12q2 -5 9 -14h2h2q5 0 6 -1q29 -3 53 -56q16 -44 25 -66
q16 -44 25 -66q16 -44 25 -66q16 -44 25 -66l6 -18l2 -4q0 -2 1 -4l2 -4q1 -3 2 -5q-63 -81 -113 -131q-54 -55 -54 -139h2q2 -40 51 -51l-12 24q-6 11 -8 30z" />
    <glyph glyph-name="y" unicode="y" horiz-adv-x="603" 
d="M449 435q0 83 57 162q56 80 83 169q1 1 1 9q0 45 -54 58l2 -4l5 -10q3 -8 8 -16q9 -19 9 -38q-18 -85 -79 -156q-58 -68 -58 -150q0 -15 -10 -16q-12 0 -26 24v-2q-19 32 -37 67q-7 11 -19 33q-5 8 -14 24l-6 10q-22 39 -44 70q-20 28 -44 71q-7 14 -7 21q0 2 1 4
q4 4 22 4v5q0 6 1 6q0 3 -1 6v2q-4 4 -9 8h-1q-14 -2 -21 -5q-10 -3 -22 -3h-19h-27q-13 0 -23 1q-8 1 -23 1q-10 0 -24 3q-10 2 -24 3q-2 -2 -2 -7q0 -4 3 -7q5 -9 9 -12h4h1h1h1h1q10 -1 30 -5q10 -4 25 -22q29 -51 44 -73q16 -22 46 -71q10 -19 23 -41q10 -19 23 -41
q16 -28 24 -41q5 -9 15 -29q5 -8 7 -12h1q16 -27 20 -57v-49v-47v-48v-51q-5 -52 -29 -56h-8v-1h-1h1q-4 -5 -4 -12q0 -9 4 -13q5 1 19 1q13 1 18 1v1q21 0 30 1h21h22q9 -1 30 -1q12 0 22 -1q3 0 11 -1q4 0 10 -1q5 7 5 12t-5 13q-5 0 -6 1h-2h-3h6q-38 0 -38 76v-75v12v31
v42v43v38v31v11v-16q0 29 11 56q11 30 13 59z" />
    <glyph glyph-name="z" unicode="z" horiz-adv-x="630" 
d="M500 101q20 -1 36 -1q12 0 39 -6l-1 1h1q8 0 15 3q0 32 7 59q4 24 20 57q-5 6 -13 8q-9 0 -17 -4q-6 -13 -6 -16q-16 -27 -48 -48q-31 -22 -64 -25h-38h-39q-25 0 -38 1h-39h-22q-7 -1 -22 -1h-22h-21q-7 3 -7 14q0 20 22 60l-41 -74q10 18 23 40q12 22 22 40
q30 52 45 79q11 21 32 59l12 21q10 18 23 40q12 22 22 40q13 21 37 65q9 15 13 23q17 31 24 42q19 36 36 65q12 21 36 65q38 60 73 60q0 1 1 1q8 6 12 13q2 6 2 12q-5 -1 -12 -1q-4 -1 -9 -1v2v1q-12 -1 -36 -1h-37h-36q-12 -1 -35 -1q-3 0 -4 1h-5h-5q-3 0 -4 1l-2 -2
q-25 0 -46 -1q-30 -2 -45 -2q-28 0 -78 2q-26 0 -39 1h-39l1 1q-20 1 -27 1q-13 1 -15 1q-7 0 -36 4l-9 1q-5 5 -12 7q-5 0 -16 -3q-1 -37 -6 -60q-4 -19 -20 -58q7 -7 14 -7l4 -1q3 0 11 4q3 9 6 13l-1 -3q0 2 1 2v2v1t1 2q0 1 1 2q11 25 41 45q29 22 65 23l-72 1
q37 -1 113 -1h111h20h20h20h20v-1h1h2h-1h1q4 0 5 -1q13 0 13 -16q0 -14 -12 -40q-13 -22 -37 -66q-9 -15 -19 -33t-19 -33q-13 -22 -37 -66q-13 -22 -37 -66q-13 -23 -37 -67q-9 -15 -19 -33t-19 -33q-24 -44 -37 -66t-37 -66q-31 -47 -57 -55h-3h-3h-3q-1 -1 -2 -1v-1h-2
h2q-10 -7 -12 -12q-3 -3 -3 -8q1 -3 1 -5q2 0 3 1h3h4q3 0 4 1v-1v-1h39q27 0 40 1h39h40v1h8q3 0 4 -1q14 0 21 1h21h42h46q31 0 47 -1h46q15 -1 46 -1zM521 128h17h25h-42z" />
    <glyph glyph-name="braceleft" unicode="{" horiz-adv-x="229" 
d="M179 0q-24 57 -39 143q-16 85 -20 180q0 33 -26 50q-29 20 -36 27q10 0 36 26q26 27 26 56q7 119 32 209q25 89 61 142q-51 -25 -89 -122t-47 -230l1 -3v-4q0 -22 -25 -39q-30 -20 -38 -33q1 -19 35 -36q29 -16 29 -39v-3q-1 -3 -1 -4q8 -108 35 -193t66 -127z" />
    <glyph glyph-name="bar" unicode="|" horiz-adv-x="78" 
d="M24 800v-765h34v765h-34z" />
    <glyph glyph-name="braceright" unicode="}" horiz-adv-x="229" 
d="M51 0q38 42 65 127t36 193v4q-1 3 -1 4q0 23 29 38q33 17 35 36q-9 13 -38 33q-25 16 -25 37q0 1 1 5v4q-10 133 -47 230q-38 97 -90 122q37 -53 62 -142q24 -90 32 -209q0 -30 26 -56q25 -26 36 -26q-8 -7 -37 -27q-25 -18 -25 -50q-5 -95 -20 -180q-16 -86 -39 -143z
" />
    <glyph glyph-name="asciitilde" unicode="~" horiz-adv-x="450" 
d="M208 848v-2v-1q0 -36 33 -60q32 -24 78 -24q45 0 78 24t33 60q0 5 -1 9q-5 -25 -29 -41q-25 -18 -61 -18q-71 0 -88 53v1v2q0 34 -32 60q-33 24 -79 24t-78 -24q-32 -26 -32 -60v-10q3 25 29 42t61 17q72 0 88 -52z" />
    <glyph glyph-name="quoteleft" horiz-adv-x="131" 
d="M37 836q12 -9 29 -9q53 0 53 53t-53 53q-36 0 -50 -35q0 -2 -2 -7v-3q-1 -1 -1 -3v-7q-1 -5 -1 -7q0 -28 10 -54q10 -35 45 -49q-5 12 -17 31q-11 14 -13 37z" />
    <glyph glyph-name="quoteright" horiz-adv-x="131" 
d="M93 836q-1 -20 -13 -37q-12 -19 -17 -31q33 14 45 49q10 30 10 55v7q-1 5 -1 6q-1 2 -1 6q0 1 -1 3q0 2 -1 4q-14 35 -50 35q-53 0 -53 -53t53 -53q17 0 29 9z" />
    <glyph glyph-name="quotedblleft" horiz-adv-x="263" 
d="M45 836q12 -9 29 -9q53 0 53 53t-53 53q-36 0 -50 -35q0 -2 -2 -7v-3q-1 -1 -1 -3v-7q-1 -5 -1 -7q0 -28 10 -54q10 -35 45 -49q-5 12 -17 31q-11 14 -13 37zM171 836q12 -9 29 -9q53 0 53 53t-53 53q-36 0 -50 -35q-2 -6 -2 -7q-2 -4 -2 -7l1 1v-8q-1 -5 -1 -9
q0 -25 9 -51q12 -36 46 -49q-5 12 -17 31q-11 14 -13 37z" />
    <glyph glyph-name="quotedblright" horiz-adv-x="263" 
d="M225 836q-1 -20 -13 -37q-13 -18 -17 -31q33 14 45 49q9 27 9 54v8q-1 5 -1 6q-1 2 -1 6q0 1 -2 7q-14 35 -49 35q-53 0 -53 -53t53 -53q16 0 29 9zM99 836q-1 -20 -13 -37q-13 -18 -17 -31q33 14 45 49q9 27 9 54v8q-1 5 -1 6v6q-1 1 -3 7q-14 35 -49 35q-53 0 -53 -53
t53 -53q16 0 29 9z" />
    <glyph glyph-name="sterling" unicode="&#xa3;" horiz-adv-x="1150" 
d="M127 508q-36 -1 -55 -3q8 -8 8 -13t-8 -15q17 4 30 5q10 1 30 5q4 -20 10 -62q1 -12 1 -36v-15q-1 -9 -1 -17q-6 -50 -10 -79q-4 -27 -10 -79q-9 -60 -34 -67q-1 -1 -4 -1h-4v-1h-1h1q-4 -4 -4 -14t4 -15l11 1q20 1 26 1v1h12h13q6 1 26 1h13q4 -1 13 -1h13h13
q58 0 118 -3q53 -4 117 -4q29 0 50 20q20 20 21 47q-1 -16 -22 -29q-20 -13 -49 -13q-50 0 -100 7q-47 5 -82 5h-12q-10 -1 -12 -1q-24 8 -24 58q0 5 1 14q1 12 1 17q-3 -29 -7 -89q3 48 9 96l12 96q3 17 3 49q0 23 -3 44q-4 39 -14 80q15 1 34 3t34 3q10 1 32 2q23 2 35 2
q-10 6 -10 13q0 6 10 15l-10 -2l-60 -9q-46 -6 -69 -8q-14 52 -20 79q-9 35 -11 84h3q-1 3 -1 15q0 84 29 147q28 61 66 61q31 0 52 -26q11 -16 11 -31q0 -13 -6 -25q-19 -19 -19 -43q0 -27 21 -45q19 -19 49 -19t50 19t20 45q0 58 -64 107q-65 50 -118 50q-81 0 -138 -70
q-58 -70 -58 -170v-3v-3q0 -48 13 -90q9 -29 25 -91z" />
    </font>
</defs>
</svg>
