<?xml version="1.0" standalone="no"?>
<!DOCTYPE svg PUBLIC "-//W3C//DTD SVG 1.1//EN" "http://www.w3.org/Graphics/SVG/1.1/DTD/svg11.dtd" >
<svg>
<metadata>
Created by FontForge 20120731 at Sun Oct 18 18:19:28 2015
 By ,,,
(c) Copyright PJ Lloyd 1995
</metadata>
<defs>
<font id="BirminghamTitlingBold" horiz-adv-x="190" >
  <font-face 
    font-family="BirminghamTitlingBold"
    font-weight="400"
    font-stretch="normal"
    units-per-em="1000"
    panose-1="2 11 5 0 0 0 0 0 0 0"
    ascent="800"
    descent="-200"
    x-height="795"
    cap-height="1000"
    bbox="-1 -173 1445 1112"
    underline-thickness="0"
    underline-position="0"
    unicode-range="U+0020-00A3"
  />
<missing-glyph horiz-adv-x="502" 
d="M-1 0h500v500h-500v-500zM9 10v480h480v-480h-480z" />
    <glyph glyph-name=".notdef" horiz-adv-x="502" 
d="M-1 0h500v500h-500v-500zM9 10v480h480v-480h-480z" />
    <glyph glyph-name="space" unicode=" " horiz-adv-x="563" 
 />
    <glyph glyph-name="exclam" unicode="!" 
d="M108 204q-67 0 -67 -53q0 -52 67 -52q66 0 66 52q0 53 -66 53zM134 232q0 64 3.5 119.5t11.5 114.5q1 10 2 19q18 145 22 195q0 133 -14 192t-43 62q-40 0 -61 -57q-15 -40 -15 -111q0 -43 4 -86q0 -35 6 -94l2 -22q7 -69 11 -103q2 -30 8 -91q3 -29 4 -38q6 -63 6 -105
q13 4 13 12q0 6 15 6t15 -2l-1 -1q0 -2 -2 -2q0 -3 13 -8z" />
    <glyph glyph-name="quotedbl" unicode="&#x22;" horiz-adv-x="260" 
d="M19 933v-32q0 -19 1 -38v-20q2 -32 10 -55q9 -25 26 -25t27 25q7 22 10 55v18q1 23 1 41q-1 18 -1 31q-18 -7 -38 -7q-21 0 -36 7zM149 933v-32q0 -18 1 -38v-20q1 -29 11 -55q10 -25 28 -25q17 0 26 25q9 28 10 55v59q-1 18 -1 31q-18 -7 -38 -7t-37 7z" />
    <glyph glyph-name="numbersign" unicode="#" horiz-adv-x="701" 
d="M499 792l-2 -19q-15 -117 -23 -177h-44h-45h-50h-50q9 60 16 98q5 23 13 67l5 31q-15 -5 -24 -5t-21 5q-1 -11 -6 -49q-6 -38 -7 -49q-2 -21 -8 -64q-2 -21 -4 -34q-51 0 -76 1q-52 0 -77 1q0 -12 -1 -16q-1 -5 -10 -16q54 0 80 1q53 0 79 1q-1 -9 -4 -29q-2 -20 -4 -32
l-1 -8q-5 -38 -7 -53q-2 -11 -4 -25q-3 -19 -4 -22q0 -4 -3 -24t-4 -24q-52 0 -78 1t-77 1q0 -7 -1 -12q-1 -3 -1 -4q-1 -3 -5 -10q-2 -5 -3 -6q7 0 41 1q22 0 40 1h80q-2 -10 -6 -37q-8 -52 -12 -74l-18 -111q13 5 21 5q6 0 19 -5l15 111l2 12q9 70 14 100h47h47h48
q17 -1 49 -1q-12 -74 -19 -111q-2 -12 -8 -56q-7 -44 -9 -56q12 5 21 5t19 -5q3 25 8 56q4 31 7 56t8 55q4 30 7 55l79 -1l78 -2q0 2 -1 5v3q0 2 2 6q1 3 1 4q1 7 11 18q-19 -1 -41 -1q-35 -1 -42 -1q-27 -1 -82 -1q1 12 4 32q1 5 2 16q2 10 4 23t4 23q2 20 8 60q5 23 10 61
q18 -1 40 -1q32 -1 39 -1q26 -1 80 -1q0 8 1 14v4l1 3q4 9 9 15q-18 -1 -41 -1t-41 -1q-28 -1 -83 -1q10 64 17 97q7 38 16 98q-15 -5 -23 -5q-12 0 -22 5zM439 352q-16 -1 -46 -1h-45h-50h-50q1 4 4 24t3 24q1 11 4 33q1 10 2 14q5 23 10 61q1 8 5 28q3 21 5 33h48h47h47
q16 -1 47 -1q-2 -12 -6 -40q-2 -12 -3 -20q-2 -21 -8 -61q-3 -15 -7 -47q-1 -12 -4 -26q-3 -20 -3 -21z" />
    <glyph glyph-name="dollar" unicode="$" horiz-adv-x="840" 
d="M415 928q-2 -13 -6 -44q-2 -16 -3 -22q-6 -44 -10 -66h-8h-10q-109 0 -178 -39q-69 -40 -75 -77l-1 -1h1l-2 -10q-3 -16 -3 -24q0 -59 66 -102q70 -43 167 -51q-4 -9 -5 -27q-9 -55 -27 -163q-5 -32 -18 -108l-9 -54h-4q-30 5 -44 9t-40 16q-57 24 -88 61q-11 12 -17 36
q-1 4 -2 12q-3 11 -3 15q0 1 1 4q1 1 1 2q4 28 21 34q15 5 46 5q2 -1 4 -1l4 -2q3 -3 6 -4q2 -1 7 -3q3 -1 3 -2q8 -4 12 -18q0 -14 -6 -19l-1 -3q0 -3 10 -3q17 0 46 17q29 15 33 31q6 10 7 17v3v3v3v4q0 73 -101 80q-1 0 -9 1h-10q-52 0 -86 -20q-40 -25 -40 -67v-2v-2v-2
v-3v-3v-3v-2q0 -14 10 -56q8 -35 29 -61q15 -21 45 -38q34 -22 56 -30q38 -18 97 -31q1 0 5 -1q1 0 4 -1q0 -1 -5 -28q-6 -26 -6 -28q-2 -10 -5 -29t-5 -29q20 7 32 7q14 0 32 -7q0 2 4 26q3 24 3 26q1 13 4 34q1 6 2 17q48 -5 82 -5q65 0 135 10q75 9 123 33q72 32 105 84
q33 50 34 93q0 120 -127 207q-117 77 -275 85q3 25 13 77q0 2 6 34q4 23 7 43q59 -3 95 -19q44 -19 64 -44l27 -54q15 -3 28 -3t23 3q-27 44 -41 79q-11 27 -12 40q-3 13 -7 39q-16 3 -28 3q-14 0 -23 -3q0 -7 4 -12q4 -7 4 -10l-8 21q3 -4 3 -11q0 -14 -19 -14q-31 0 -61 5
q-14 2 -44 6q1 3 5 24q5 29 7 44q3 15 6 34t6 34q-18 -7 -32 -7q-16 0 -31 7zM404 491q118 -3 229 -53q109 -52 118 -94q3 -7 3 -23q0 -32 -15 -74q-23 -56 -84 -86q-41 -21 -107 -29q-75 -8 -120 -8q-32 0 -70 5q-3 0 -4 1h-4q0 3 8 56q10 75 16 112q5 29 13 86q8 56 12 81
q0 1 1 7q0 3 1 6t2 9q1 3 1 4zM393 766q-3 -20 -9 -69l-1 -8q0 -3 -6 -38q-7 -35 -7 -38q-46 5 -80 26q-44 24 -44 64h4q5 26 56 45q36 14 87 18z" />
    <glyph glyph-name="percent" unicode="%" horiz-adv-x="710" 
d="M621 795q-44 -54 -121 -147l-21 -26q-96 -116 -145 -173q-48 -57 -130 -152l-18 -21q-45 -54 -137 -162l-10 -11q21 6 34 6t22 -6q34 40 92 111l51 62q47 57 145 173q90 107 147 173q49 57 149 173q-20 -7 -34 -7t-24 7zM229 797q-76 0 -129 -45q-52 -45 -52 -108
t52 -108q53 -45 129 -45q74 0 129 45q52 45 52 108t-52 108q-55 45 -129 45zM229 763q18 0 51 -33q33 -35 33 -81q0 -47 -33 -86q-33 -37 -51 -37q-19 0 -49 36t-30 84q0 49 30 83t49 34zM480 404q-74 0 -127 -45q-54 -44 -54 -108q0 -66 54 -108q53 -44 127 -44t129 44
q52 43 52 108q0 63 -52 108q-54 45 -129 45zM480 369q18 0 54 -36t36 -85t-36 -82q-35 -34 -54 -34q-18 0 -50 35q-31 34 -31 84q0 49 31 83q32 35 50 35z" />
    <glyph glyph-name="ampersand" unicode="&#x26;" horiz-adv-x="856" 
d="M618 227q-66 72 -99 110l-50 55l-50 55q0 1 -2 3l-3 3q-5 3 -6 7h1l-99 108q-1 0 -1 1q-9 9 -23 27q-10 15 -10 31v12q-1 10 -1 12q0 51 35 77q42 33 104 38q65 0 114 -21q55 -25 70 -73h-2q2 -2 2 -8q1 -1 1 -3v-4q1 -4 1 -6q0 -13 -7 -26q-12 -22 -30 -30
q-22 -16 -40 -22q15 -3 33 -3q60 0 89 29v-1q29 32 29 68q0 30 -19 59q-43 66 -210 70q-119 0 -201 -49q-84 -49 -84 -119q0 -39 36 -81q32 -36 73 -77l-56 -22q-70 -24 -113 -67q-42 -42 -42 -96q0 -78 85 -130q84 -54 205 -54h9q6 -1 11 -1q43 0 85 18q39 18 95 42
q8 -14 8 -22q0 -12 -11 -12h-9v-1h-1h1q0 -5 7 -12q5 -8 16 -12q15 0 22 1q14 0 22 1q27 1 63 1q50 0 65 -1q7 0 29 -1q12 0 28 -1q0 5 -5 12l-1 1q-8 6 -17 11q-4 1 -15 1h9q-51 0 -118 76l50 22q80 34 109 54q26 17 50 46zM524 188q-71 -55 -153 -55q-41 0 -82 14
q-128 41 -130 162q0 61 65 102l66 37v-1q26 -29 59 -64q33 -36 59 -65q73 -82 116 -130zM641 201l68 -74q-4 4 -11 12q-15 16 -23 25q-11 12 -17 18q-5 6 -17 19z" />
    <glyph glyph-name="quotesingle" unicode="'" horiz-adv-x="146" 
d="M11 933v-32q0 -19 1 -38q1 -15 1 -20q2 -36 10 -55q9 -25 26 -25t26 25q9 28 10 55v18q1 23 1 41q-1 18 -1 31q-19 -8 -37 -8q-16 0 -37 8z" />
    <glyph glyph-name="parenleft" unicode="(" horiz-adv-x="209" 
d="M145 0q-35 71 -56 169q-21 99 -21 214q0 148 33 268q35 121 87 182q-74 -28 -124 -149q-49 -120 -49 -281q0 -136 36 -244t94 -159z" />
    <glyph glyph-name="parenright" unicode=")" horiz-adv-x="224" 
d="M73 0q56 50 93 159q37 111 37 244q0 158 -50 281q-51 121 -124 149q54 -61 87 -182q33 -120 33 -268q0 -115 -21 -214q-21 -101 -55 -169z" />
    <glyph glyph-name="asterisk" unicode="*" 
d="M108 817q35 -45 51 -45q4 0 11 7q3 3 3 10q0 21 -44 56q47 32 47 51q0 5 -3 9q-3 5 -12 5q-19 0 -53 -41q0 6 1 15v11q0 39 -18 39q-20 0 -20 -34q0 -3 1 -9q1 -9 1 -13q-33 32 -48 32q-5 0 -10 -6q-2 -2 -2 -8q0 -20 46 -51q-41 -34 -41 -57q0 -1 1 -4v-4q3 -8 10 -8
q12 0 42 35v-11q-1 -8 -1 -9q0 -40 20 -40q19 3 19 45v11q-1 8 -1 14z" />
    <glyph glyph-name="plus" unicode="+" horiz-adv-x="788" 
d="M249 450v-2q-61 0 -93 1q-21 1 -45 1q-38 1 -46 1q0 -8 -1 -15v-5q-6 -12 -11 -19q63 0 95 1q63 0 96 1v-1v-1l44 1v1h13h14l34 1v-1h19h17q-1 -9 -1 -19q0 -11 -1 -20q-1 -10 -2 -26q0 -5 -1 -13h-2l-3 -44h1q-1 -15 -3 -46q-3 -33 -4 -51q-2 -22 -3 -31q-3 -41 -6 -66
q13 7 29 12q6 2 27 2q0 45 2 68q0 23 2 65v3h-1l5 93q0 24 1 37q0 24 1 36h45q14 -1 44 -1h95v-1q24 -1 70 -1q6 0 35 -1q18 0 34 -1q0 8 1 17q1 4 1 5q2 8 13 22q-23 -1 -50 -1t-50 -1t-49 -1q-42 -1 -50 -1v1h-45v-1q-16 -1 -46 -1h-45v4q1 11 1 18q2 26 3 33h-2l3 34
q1 8 1 14q1 10 1 13l5 43h-2q0 6 4 47q3 41 3 47q4 62 7 94q-13 -8 -25 -12q-5 -2 -14 -2h-4q-4 1 -6 1q-1 -20 -2 -45t-2 -45q0 -15 -2 -45l-3 -45h-1l-3 -44l2 1h1q-1 -13 -2 -28t-2 -28t-1 -27q-1 -23 -1 -28h-48h-47v1v1h-44z" />
    <glyph glyph-name="comma" unicode="," horiz-adv-x="173" 
d="M116 107q-1 -20 -16 -36q-14 -18 -21 -32q41 14 56 49q13 31 13 55q0 2 -1 7q-1 4 -1 6q-1 1 -1 3v3q0 1 -1 3q0 2 -1 4q-18 35 -63 35q-66 0 -66 -53q0 -52 66 -52q20 0 36 8z" />
    <glyph glyph-name="hyphen" unicode="-" horiz-adv-x="788" 
d="M249 450v-2q-61 0 -93 1q-21 1 -45 1q-38 1 -46 1q0 -8 -1 -15v-5q-1 -7 -13 -19q64 0 97 1q63 0 96 1v-2l44 1v1h13h14l34 1v-1h27h25h58q19 -1 56 -1h95v-1q24 -1 70 -1q6 0 35 -1q18 0 34 -1q0 8 1 17q1 4 1 5q2 5 11 19l2 3h-5q-64 -2 -95 -2q-23 -1 -49 -1
q-42 -1 -50 -1v1h-45v-1q-19 -1 -54 -1h-53h-60h-60v1v1h-44z" />
    <glyph glyph-name="period" unicode="." horiz-adv-x="169" 
d="M80 204q-66 0 -66 -53q0 -52 66 -52t66 52q0 53 -66 53z" />
    <glyph glyph-name="slash" unicode="/" horiz-adv-x="303" 
d="M221 692l-24 -86l-25 -86q-24 -87 -51 -174q-22 -75 -53 -172q-6 -21 -23 -75q-19 -64 -30 -98q15 4 29 4q10 0 25 -4q16 57 50 173q11 38 26 86t26 86l54 174q24 76 56 172q-16 -4 -31 -4q-17 0 -29 4z" />
    <glyph glyph-name="zero" unicode="0" horiz-adv-x="715" 
d="M374 796q-134 0 -230 -102q-95 -102 -95 -245q0 -145 95 -245q96 -102 230 -102q135 0 229 102q96 104 96 245q0 140 -96 245q-96 102 -229 102zM359 754q70 -4 137 -78q67 -75 70 -198q0 -68 -14 -124t-43 -106q-57 -99 -134 -99q-71 4 -132 71q-58 65 -63 191
q0 69 12 126.5t38 110.5q51 106 129 106z" />
    <glyph glyph-name="one" unicode="1" horiz-adv-x="299" 
d="M36 123h-10q-1 0 -1 -1h-1h1q-5 -5 -5 -10t6 -11q15 0 23 1q15 0 24 1h15h16q10 0 16 1h16h17h16h16q5 -1 16 -1q9 -1 27 -1q8 -1 27 -1q6 6 6 12q0 5 -6 12q-5 0 -7 1h-8h5h4q-48 0 -48 73v-36v-36v77v78v77v78v63v63v63v63q3 60 48 73v1q6 11 6 15q0 6 -6 10
q-4 -1 -18 -6q-3 -1 -11 -4q-9 -4 -29 -10q-34 -12 -56 -19q-6 -2 -19 -6q-20 -6 -38 -11q-20 -6 -29 -8q-6 -2 -13 -4q-12 -2 -16 -4q-5 -7 -5 -12t5 -10q3 0 4 1v-1v1q2 0 4 1h3q3 0 7 1h3q26 0 32 -40v-61v-59v-61v-60v-60v-61v-60v-60q-6 -45 -37 -52z" />
    <glyph glyph-name="two" unicode="2" horiz-adv-x="691" 
d="M209 774h-4q-3 -1 -4 -1q-15 0 -35 12v1q-8 6 -21 10q-1 0 -5 1h-6h-6q-4 -1 -8 -1q-1 -37 -11 -64q-7 -23 -33 -59q12 -9 23 -10q4 -2 14 -2h5q4 1 6 1q4 6 9 15l3 5q22 23 63 47q38 22 79 28l-22 -3q66 11 130 11q100 0 143 -30q42 -30 42 -60h-1q-6 -55 -86 -59l-1 1
q-206 0 -322 -144q-115 -144 -117 -355v-4q0 -3 2 -13q28 2 79 4q50 3 73 4q75 3 151 3q122 0 270 -9v-1q12 -2 19 -2t11 1h2h4l-1 1h2l-2 12q-4 32 -4 45q0 11 4 43q1 4 2 13q-9 3 -18 3q-10 0 -19 -3q0 -1 -1 -3q-2 -11 -3 -22q-16 -49 -85 -55q-115 5 -185 5
q-35 0 -96 -2h-3q-17 0 -50 -2q-33 -1 -48 -2q-55 0 -55 38q0 1 1 6v6q36 130 119 219q79 86 242 94v1q67 2 139 45q71 44 71 122v3v3h-1q0 41 -80 82q-81 42 -198 42q-54 0 -112 -8q-14 -1 -36 -7l-15 -3q-10 -2 -14 -3z" />
    <glyph glyph-name="three" unicode="3" horiz-adv-x="501" 
d="M236 498q-3 -7 -3 -13q0 -5 3 -10q3 -4 3 -10q1 1 2 1q66 0 85 -55q22 -58 22 -148q0 -89 -100 -166q-103 -77 -162 -83h14q38 0 101 25q65 24 127 64q59 38 106 89q45 50 45 101q0 98 -63 153t-133 63q10 24 37 59q10 13 31 42t28 38q34 44 56 78q24 36 24 54v2v2
q0 8 -1 13q-70 -6 -104 -8q-52 -3 -105 -3q-85 0 -186 8l1 1q-5 1 -6 2q-5 1 -7 1q-5 0 -8 -1h-4v-1q0 -1 -1 -1q5 -37 5 -56q0 -21 -5 -56q9 -3 20 -3q5 0 15 3q0 1 1 7q0 3 1 6q0 8 1 12q11 48 58 56q21 -2 59 -4q36 -2 58 -2q42 0 54 1q1 0 20 2l33 2q24 -2 32 -3
q8 0 8 -25q-4 -11 -23 -40q-25 -35 -49 -67q-5 -7 -15 -20q-27 -36 -37 -50l-4 -6q-24 -35 -30 -45q-1 -1 -1 -2q0 -2 -1 -3q-2 -2 -2 -4z" />
    <glyph glyph-name="four" unicode="4" horiz-adv-x="571" 
d="M304 300q-7 -21 -38 -21l4 -1q-51 0 -77 -1q-27 -1 -78 -1q-25 2 -30 12q0 17 21 44l-47 -58h-1l13 15q51 61 70 84q28 34 82 104q98 130 191 281q5 4 5 17q0 4 -3 8l-1 2q-1 4 -1 6q-26 -43 -79 -123l-16 -24q-41 -62 -96 -136q-30 -38 -76 -96q-13 -16 -19 -24
q-33 -39 -97 -113v-2h-1q0 -1 -1 -3q-2 -7 -2 -11q0 -5 3 -12v-1h1v-1v-2q2 1 2 2q1 0 1 1q39 1 119 3q40 1 120 1q24 -1 31 -24v-6v-7v-34v-35q-6 -27 -36 -31q-2 -1 -10 -1h-2h2q-1 -1 -2 -1q-5 -4 -5 -5q0 -3 7 -5q25 0 46 1h16h16q25 0 32 1h17h15q25 0 33 -1
q30 0 53 -1q7 7 7 10q0 2 -5 9l-2 2h-6h-7h3h5q-48 0 -48 56v-29v-28v1v53v54q2 14 25 19q15 -1 48 -1q17 -1 43 -1q2 10 2 13t-1 10l-1 4q-26 0 -45 1t-50 1h14q-30 0 -35 23v33v34v50v49v50v49q2 49 47 108q0 1 1 2q5 11 5 19q0 3 -5 3q-22 -33 -57 -79q-7 -9 -9 -12
q-14 -17 -20 -26l-13 -17q-12 -14 -16 -20q-16 -18 -28 -34q-13 -18 -29 -35q-17 -21 -50 -57q-4 -5 -8 -9q-3 -9 -3 -11l1 -1l2 1q2 0 4 4q1 0 1 1q0 -1 -1 -1q1 0 1 1q2 1 4 3l1 1q1 3 2 3q23 25 33 25q8 0 8 -9v-34v-36v-26v-27z" />
    <glyph glyph-name="five" unicode="5" horiz-adv-x="415" 
d="M255 469q-22 8 -56 23l-5 2q-24 11 -30 27h1q-19 43 -24 122q-2 48 -6 89v3q0 25 8 25q9 1 32 3q23 -2 31 -4q9 -1 32 -1q29 0 35 2q1 1 30 4h5q47 -8 58 -56q0 -3 1 -12q1 -6 2 -13q9 -3 16 -3q10 0 19 3q-5 24 -5 56q0 31 5 56q-1 0 -3 1q2 0 2 1h-5q-3 1 -7 1
q-2 0 -13 -3v-1q-52 -5 -69 -6q-30 -2 -69 -2q-51 0 -104 3q-40 2 -103 8q-3 -7 -3 -13v-2v-2q0 -16 4 -63l2 -30q6 -66 25 -144l12 -45q2 -9 7 -19l1 1q66 0 120 -73q54 -71 54 -167q0 -91 -82 -155q-83 -65 -144 -71h14q38 0 96 21q56 20 112 56q55 34 95 82q40 46 40 97
q0 151 -131 199z" />
    <glyph glyph-name="six" unicode="6" horiz-adv-x="510" 
d="M366 794q-1 1 -8 1q-143 0 -235 -140q-49 -78 -59 -108q-13 -31 -30 -130q0 -19 2 -60v-8v-4v-5q0 -98 68 -168q66 -70 162 -70q95 0 162 70t67 168t-67 169q-70 70 -162 70q-32 0 -43 -7q-6 -4 -15 -9q-13 -7 -23 -13q0 1 9 22q31 82 69 130q38 52 81 59q7 0 12 1
q4 0 9 -1h4zM268 548q33 -11 45 -26q5 -9 13 -20q7 -10 8 -11q13 -21 24 -58q6 -25 10 -79q0 -31 -2 -66l-1 -16q-6 -44 -24 -76q-31 -63 -67 -63h-4q-3 1 -5 1q-49 10 -70 51l-9 18q-11 24 -17 37q-8 14 -11 36t-3 59q1 38 8 76q4 33 21 74q14 33 36 44q24 12 48 19z" />
    <glyph glyph-name="seven" unicode="7" horiz-adv-x="476" 
d="M310 419q64 140 105 235q43 99 43 126v2v2q0 8 -2 13q-70 -6 -103 -8q-52 -3 -105 -3q-85 0 -187 8l2 1q-12 3 -13 3q-5 0 -9 -1h-3v-1q0 -1 -2 -1q5 -27 5 -56q0 -30 -5 -56q11 -3 20 -3q6 0 15 3q1 3 2 9q1 3 1 4q0 8 1 12q9 48 58 56q21 -2 55 -4h3q38 -2 59 -2
q41 0 54 1q10 1 18 1q26 2 34 3q21 -1 33 -3q7 0 7 -25q-2 -10 -42 -98q-14 -29 -48 -101q-30 -63 -45 -95q-22 -48 -75 -157q-13 -27 -21 -43q-49 -98 -55 -109q-1 -1 -1 -2q0 -2 -1 -3q-2 -1 -2 -3q-3 -7 -3 -14q0 -4 3 -9l9 -4q4 0 6 2l-1 2h-9v-1q34 0 72 11
q46 12 63 47q17 50 17 88q0 3 -1 9q-1 5 -1 8q0 47 49 156z" />
    <glyph glyph-name="eight" unicode="8" horiz-adv-x="650" 
d="M341 796q-75 0 -130 -31q-53 -32 -53 -76q0 -45 53 -74q13 -8 29 -14q-60 -19 -109 -61q-86 -77 -86 -182q0 -107 86 -182q87 -75 209 -75q120 0 208 75q87 77 87 182q0 106 -87 182q-50 41 -107 60q23 10 32 15q53 29 53 74t-53 76q-55 31 -132 31zM326 582
q65 -3 123 -55q58 -53 61 -147q0 -97 -50 -171q-51 -73 -119 -73q-64 3 -116 52q-53 49 -56 142q0 98 45 176q43 76 112 76zM341 767q31 0 50 -22q20 -21 20 -53q0 -31 -20 -52q-19 -22 -50 -22q-29 0 -50 22q-21 24 -21 52q0 29 21 53q21 22 50 22z" />
    <glyph glyph-name="nine" unicode="9" horiz-adv-x="508" 
d="M154 6h5h4q67 0 123 55q60 57 105 128q47 74 68 134q21 69 36 156q0 18 -2 63v6v4v4q0 98 -68 169q-67 70 -161 70q-96 0 -163 -70t-67 -169q0 -98 67 -168t163 -70q31 0 49 7q18 8 42 21l-1 -2q-1 -5 -3 -8l-3 -12l-10 -40q-5 -24 -12 -52q-10 -47 -37 -90
q-32 -46 -59 -70q-31 -28 -52 -33h-14h-13zM261 349q-36 9 -48 26l-6 7q-14 17 -18 24q-16 24 -25 58q-10 37 -11 78q0 28 1 48t2 35q6 40 25 76q35 63 74 63h5q3 -1 4 -1q55 -12 76 -52q7 -13 10 -18q11 -20 19 -36q7 -15 10.5 -37t3.5 -59q-4 -51 -8 -76q-6 -34 -24 -73
q-11 -30 -38 -45q-26 -14 -52 -18z" />
    <glyph glyph-name="colon" unicode=":" 
d="M81 600q-66 0 -66 -54q0 -52 66 -52q67 0 67 52q0 54 -67 54zM81 206q-66 0 -66 -53q0 -52 66 -52q67 0 67 52q0 53 -67 53z" />
    <glyph glyph-name="semicolon" unicode=";" horiz-adv-x="181" 
d="M116 107q-1 -20 -16 -36q-14 -18 -21 -32q41 14 56 49q13 31 13 55q0 2 -1 7q-1 4 -1 6q-1 1 -1 3v3q0 1 -1 3q0 2 -1 4q-18 35 -63 35q-66 0 -66 -53q0 -52 66 -52q20 0 36 8zM80 600q-66 0 -66 -54q0 -52 66 -52t66 52q0 54 -66 54z" />
    <glyph glyph-name="equal" unicode="=" horiz-adv-x="788" 
d="M249 367v-1q-61 0 -93 1q-61 0 -91 1q0 -7 -1 -14v-5q-1 -8 -13 -20q32 1 97 1q63 0 96 1v-1l44 1h13h14l34 1h27h25h58q19 -1 56 -1v-1h95q16 -1 35 -1t35 -1q23 -1 69 -1q0 8 1 17q1 4 1 5q2 4 10 17q2 2 3 4q-23 -1 -50 -1t-50 -1t-49 -1q-42 -1 -50 -1v1h-45v-1
q-19 -1 -54 -1h-53h-120v2h-44zM249 528v-2q-61 0 -93 1q-21 1 -45 1q-38 1 -46 1q0 -8 -1 -15v-5q-1 -7 -13 -19q64 0 97 1q31 1 96 1v-1l44 1v1h13h14l34 1v-1h27h25h58q19 -1 56 -1h95v-2q46 0 70 -1q6 0 35 -1q18 0 34 -1q0 8 1 17q1 4 1 5q2 5 11 19l2 3q-23 -1 -50 -1
t-50 -1t-49 -1q-42 -1 -50 -1v1h-45v-1q-19 -1 -54 -1h-53h-60h-60v1v1h-44z" />
    <glyph glyph-name="question" unicode="?" horiz-adv-x="501" 
d="M269 232q-3 2 -8 45q-1 19 -1 92q2 52 14 91q11 41 39 44q66 0 113 47q47 46 50 106q0 114 -68 194q-71 80 -165 80q-62 0 -135 -53q-75 -52 -75 -104q0 -53 66 -53q65 0 65 53q0 35 -41 49q0 1 -1 4q-1 2 -1 3q0 12 17 25q56 49 100 49q22 0 41 -13q53 -39 74 -114
q11 -47 11 -88q0 -35 -5 -59q-13 -67 -54 -67h-4q-3 1 -5 1q-32 0 -71 -33q-29 -23 -29 -67q0 -16 7 -44q1 -28 6 -83q1 -15 2 -23q5 -42 5 -87q13 5 13 12q0 6 15 6t15 -2l-1 -1q0 -2 -2 -2q0 -3 13 -8zM243 204q-67 0 -67 -53q0 -52 67 -52q65 0 65 52q0 53 -65 53z" />
    <glyph glyph-name="at" unicode="@" horiz-adv-x="728" 
d="M619 213h-1q-67 0 -98 -29q-67 -56 -145 -56q-115 0 -177 114q-64 112 -64 274q0 160 64 273q62 114 177 114q117 0 183 -114q65 -115 65 -273q0 -5 1 -19l1 -25q0 -3 1 -18v-18v-18q-1 -15 -1 -18q-1 -37 -14 -67q-12 -30 -40 -30q-39 0 -58 64q-18 52 -27 77
q-18 46 -28 76q-7 13 -15 37q-6 11 -15 36q-2 4 -5 12l-3 6q-1 4 -2 6q-3 8 -4 12q-6 12 -15 36q-4 6 -4 16q0 6 4 10q6 10 15 10v7q0 3 -1 4q-2 1 -2 3q-1 -1 -9 -1l-8 -1q-4 -1 -18 -1q-17 -1 -23 -1h-4h-6q-10 0 -14 1q-11 0 -14 1q-7 1 -14 1v-6q0 -2 5 -7h2
q10 -5 10 -13q-2 -6 -4 -20v-1v-1q-4 -9 -6 -18q-4 -12 -7 -18q-1 -6 -5 -18q0 -1 -3 -9q-3 -7 -3 -9t-3 -8q-2 -7 -3 -11q0 -3 -3 -10q-1 -4 -2 -7q-4 -9 -6 -18q-3 -6 -7 -18q-5 -17 -9 -30l-4 -15q-10 -25 -15 -44q-3 -9 -8 -27l-6 -18q-10 -31 -15 -44l14 41
q-12 -25 -20 -32q-13 -10 -19 -10h2h-2l-4 -7q-1 -2 -1 -7q4 0 14 1h12q1 1 9 1q6 0 10 -1h11q11 -1 14 -1q1 5 2 6l2 4q0 1 1 2v1q-1 0 -3 1q-2 2 -10 9q-5 3 -5 13q0 2 1 5t1 4q0 5 6 21q3 7 6 18l1 4v-1v1q0 1 4 7l3 6q1 4 5 6q3 0 8 1q13 0 19 1h23h10h11q6 0 10 1h10h7
q2 -1 8 -1h9h8q25 0 34 -1h11q2 0 6 -3l2 -2q0 -5 4 -14q3 -9 7 -16l10 -32q15 -50 45 -80q28 -31 66 -31q39 0 68 31q31 31 44 80q20 71 20 146q0 170 -95 294q-96 123 -233 123q-134 0 -230 -123t-96 -294q0 -173 96 -295t230 -122q121 0 150 47q29 48 94 67zM428 460v-4
q-2 -1 -2 -2q0 -3 -7 -3q-19 -1 -33 -1h-8h-9h-8h-7q-28 0 -41 1q-14 1 -43 1q-6 0 -6 6q1 1 1 4q1 3 1 4q1 2 2 6q1 1 1 2l2 3l2 4t1 5q0 2 1 4q0 4 3 8q1 2 1 4t1 4q0 1 1 3q1 3 2 5t1 4t1 4q8 22 11 34q3 7 6 17t6 17v1q2 10 5 16q1 4 3 7q3 7 3 10v1q2 10 5 16q1 4 2 6
q3 8 4 12q0 5 8 5q7 0 10 -6q2 -8 9 -26q2 -4 4 -9l1 -2q4 -10 7 -15q1 -4 3 -7q3 -7 3 -10q7 -20 14 -34q1 -7 7 -17q3 -6 7 -18l6 -12q1 -4 4 -12q1 -2 2 -6q3 -7 10 -22z" />
    <glyph glyph-name="A" unicode="A" horiz-adv-x="1094" 
d="M750 266q12 -31 30 -75q18 -47 31 -76q10 -29 10 -50q0 -25 -17 -30h-10v-1h-3h3q0 -7 1 -14v-4q5 -11 14 -16q21 1 47 1q32 1 72 1q55 0 70 -1h32q3 0 15 -1q9 0 15 -1v17q-1 2 -6 8q-7 7 -9 10h-7q-3 1 -8 1h9q-55 0 -98 109l43 -107q-25 62 -71 179q-13 33 -20 50
q-24 57 -71 173l-23 58q-21 49 -59 145l-17 42q-34 87 -74 187l-1 2q-8 28 -8 40q0 14 8 27q15 24 38 24v1q3 7 3 18q-3 7 -9 16l-2 2q-14 -3 -43 -6q-28 -3 -45 -3q-16 0 -39 -1h-23h-22q-23 1 -41 1t-36 3q-7 1 -9 1q-19 3 -29 4v-4q-1 -3 -1 -4q0 -2 2 -5q1 -3 1 -4
q3 -9 13 -19h3q29 -9 29 -33q-1 -6 -5 -25q-3 -16 -5 -26q-1 -1 -2 -3l-1 -2q-10 -31 -30 -94t-31 -95q-5 -15 -30 -93q-26 -77 -31 -93l-75 -231l-75 -228v-1l33 106q-17 -57 -51 -82q-36 -27 -46 -27h5l-6 -1q-7 -13 -9 -18q-2 -2 -3 -13q-1 -1 -1 -4h7q14 1 27 1
q28 2 32 3q7 1 25 1q13 0 24 -1q5 -1 33 -3q18 -1 24 -1q7 -1 8 -1q8 9 9 17q2 13 4 18q-2 0 -4 1l-2 2q-11 12 -24 23q-15 15 -15 35q0 10 3 23q4 10 11 31q5 13 8 23l1 4q10 35 17 51v-1v2q2 7 8 17q2 5 5 11q3 5 3 6q5 12 14 14q2 1 9 2l12 2q10 0 55 1q30 0 54 1
q36 1 107 1h86q15 0 44 -1q28 0 43 -1q15 -2 30 -2q8 0 17 -14zM721 342q0 -16 -1 -19q-2 -6 -19 -7l-1 1q-26 -1 -85 -1h-85q-112 0 -217 3q-18 0 -18 10q0 1 1 4v3q1 4 4 11q15 42 24 70q14 39 27 83q38 118 59 177q32 100 58 179q8 15 21 15q16 -2 25 -18q9 -23 21 -52
q34 -83 50 -127q6 -15 37 -88q30 -74 36 -89q5 -16 21 -51q5 -13 11 -27q5 -13 16 -40q10 -23 15 -37z" />
    <glyph glyph-name="B" unicode="B" horiz-adv-x="838" 
d="M645 674q-11 10 -11 24q0 9 4 16q32 34 32 80q0 20 -5 35q-13 78 -46 115q-37 37 -91 56q-7 3 -20 3q-10 0 -22 -3l-361 -5q-4 0 -9 1q-32 2 -51 4q-6 -8 -6 -18t6 -20h3h2h-1h1q6 0 8 -1q39 -4 43 -81v-190v-190v-191v-190q-4 -72 -38 -81q-1 0 -3 -1h-2h-7l-1 -1h-1h1
q-5 -7 -5 -17q0 -8 6 -18q35 3 50 3v1v-1h-1h5h160q10 0 16 -1h3q7 0 14 -1h7v2l194 -3l8 -1q13 -1 18 -1q91 0 180 73q89 74 89 227q0 121 -55 222q-54 102 -114 153zM506 698q57 0 117 -120t60 -255q0 -139 -47 -211q-45 -72 -102 -72h-9q-1 0 -3 -1q-4 -1 -6 -1l-206 2
q-37 0 -37 32v594q0 32 37 32h179h6h11zM464 964q34 0 70 -33q35 -32 35 -80q0 -49 -18 -78q-18 -33 -53 -33h-3h-2h-4h-4h-180q-32 0 -32 29v166q0 29 32 29h146h3h2h3h5z" />
    <glyph glyph-name="C" unicode="C" horiz-adv-x="731" 
d="M583 155q0 -3 1 -7v-6q0 -41 -54 -59h-8q-7 -1 -8 -1q-80 0 -174 64q-102 71 -152 228q-30 95 -30 180q0 73 21 140q45 151 104 207q32 31 131 51q14 4 41 4q67 0 104 -56q9 -28 9 -41q-2 -5 -2 -34q-1 -7 -1 -17l1 7q0 -5 -1 -7q10 -8 19 -8t22 8q0 32 2 68q1 18 1 28
q4 31 15 89q1 5 1 8q-14 8 -20 8q-7 0 -21 -8v-13v-12l-1 22q0 -30 -29 -30q-32 2 -70 16q-38 16 -79 16q-144 0 -249 -147q-107 -148 -107 -353q0 -206 122 -352q123 -147 270 -147q152 0 260 160q0 1 4 9q5 10 5 29q0 15 -4 24q-11 26 -35 33q-5 2 -16 2q-19 0 -34 -9
q-26 -13 -37 -41q-6 -15 -6 -29q0 -11 5 -24zM536 83l33 7q-1 -2 -5 -2q-9 -3 -25 -5h-3z" />
    <glyph glyph-name="D" unicode="D" horiz-adv-x="780" 
d="M389 1000l-206 -8l-3 2h-2q-35 0 -63 1q-28 0 -64 5q-5 -13 -5 -18t5 -20h3h1q8 0 9 -1q39 -4 45 -81v-190v-190v-191v-190q-6 -72 -40 -81h-2l-3 -1h-5l-3 -1h-1h1q-5 -10 -5 -17q0 -8 8 -18q32 3 50 3v1q32 1 70 1q40 0 72 -1q14 -1 57 -3q17 0 41 -1h15h77
q116 0 218 84q101 84 101 291q0 122 -46 263q-44 136 -119 232q-50 62 -106 94q-61 35 -104 35h4zM363 964q38 0 110 -43q65 -42 112 -124q39 -68 61 -152q24 -90 24 -183q3 -13 3 -42q0 -63 -25 -128q-33 -88 -63 -135q-50 -72 -106 -95q-57 -22 -113 -22h-2h-66
q-29 0 -29 27v869q0 28 29 28h58h3h4z" />
    <glyph glyph-name="E" unicode="E" horiz-adv-x="725" 
d="M650 155q-11 -43 -65 -76q-56 -35 -102 -38h1v-1v-1q1 0 1 1h-1q0 1 2 1l-53 -1h-142q-11 0 -26 3h-2q-10 3 -10 52v-55v229v230v79v89q3 12 3 23q0 6 27 6q28 0 48 -2q44 -10 92 -38q50 -27 73 -58q2 -3 5 -7q1 -3 2 -4q0 -2 1 -3l1 -1q0 -1 1 -2l-1 2q0 -2 6 -8h6
q4 -1 8 -1q1 0 6 1h7q10 2 23 15q-10 17 -35 49q0 1 -3 4q-21 28 -33 55q-12 40 -14 62q-1 21 -5 63h-9q-7 1 -14 1q-8 -2 -25 -16q0 -4 1 -5v-5q-4 -40 -56 -49q-49 -7 -85 -7q-19 0 -23.5 0.5t-4.5 2.5q0 3 -1 9q-1 7 -1 10q0 61 1 93v85q0 12 14 16q11 4 67 4h83h2h28
h-32q55 0 108 -4q58 -6 64 -47v-3q-2 0 -2 -2l6 -3q2 -1 3 -1h10l2 7q9 41 13 52v1q9 34 18 54q-2 1 -7 3q-2 1 -3 1h-8q-1 -1 -2 -1q-2 0 -3 -1q-2 0 -2 -2q-68 -10 -148 -15q-43 -1 -101 -3q-52 -1 -101 -3l-19 -1h-3q2 0 2 1q-28 -1 -63 -1t-64 1q-18 0 -63 3
q-4 -4 -4 -18q0 -9 4 -18h3h3l-1 -1h1h6q39 -6 46 -81v-191v-190v-191v-190q-8 -72 -40 -81h-6h-5v-1h-1h1q-5 -7 -5 -18t5 -17q16 0 26 1q9 0 25 2q22 0 48 1h22q22 0 49 -1h23h6h6v-2l44 -1h2h388q5 5 5 18q0 15 -5 21q-2 6 -5 18l-3 11q-1 9 -2 10q-2 14 -4 22v14
q-1 8 -1 15q0 17 5 53q1 9 2 19q-9 4 -20 4q-9 0 -18 -4q-3 -31 -3 -47z" />
    <glyph glyph-name="F" unicode="F" horiz-adv-x="659" 
d="M278 742q-19 0 -23.5 0.5t-4.5 2.5q0 3 -1 9q-1 7 -1 10q0 61 1 93v85q0 12 14 16q11 4 67 4h83h2h28h-32q55 0 108 -4q58 -6 64 -47v-3q-2 0 -2 -2l6 -3q2 -1 3 -1h10l2 7q9 41 13 52v1q9 34 18 54q-2 1 -7 3q-2 1 -3 1h-8q-1 -1 -2 -1q-2 0 -3 -1q-2 0 -2 -2
q-68 -10 -148 -15q-43 -1 -101 -3q-52 -1 -101 -3l-19 -1h-3q2 0 2 1q-28 -1 -63 -1t-64 1q-18 0 -63 3q-4 -4 -4 -18q0 -9 4 -18h3h3l-1 -1h1h6q39 -6 46 -81v-191v-190v-191v-190q-8 -72 -40 -81h-6h-5v-1h-1h1q-5 -7 -5 -18t5 -17q16 0 26 1q9 0 25 2q22 0 48 1h22
q22 0 49 -1h23q8 0 24 -2h4h17q12 -1 13 -1q8 10 8 17t-8 18q-7 0 -15 1h10q-53 0 -53 109v-106v229v230v79v89q3 12 3 23q0 6 27 6q28 0 48 -2q44 -10 92 -38q50 -27 73 -58q2 -3 5 -7q1 -3 2 -4q0 -2 1 -3l1 -1q0 -1 1 -2l-1 2q0 -2 6 -8h6q4 -1 8 -1q1 0 6 1h7
q10 2 23 15q-10 17 -35 49q0 1 -3 4q-21 28 -33 55q-12 40 -14 62q-1 21 -5 63h-9q-7 1 -14 1q-8 -2 -25 -16q0 -4 1 -5v-5q-4 -40 -56 -49q-49 -7 -85 -7z" />
    <glyph glyph-name="G" unicode="G" horiz-adv-x="809" 
d="M724 420q9 22 42 28h4h3q13 8 13 18q0 8 -13 18q-67 -6 -122 -6q-54 0 -122 6q-13 -10 -13 -18q0 -9 13 -18h2h4q41 -7 50 -40v-210v-9q-1 -7 -1 -9q0 -1 1 -9v-9v1l-1 -5q-2 -11 -4 -21q-1 -16 -11 -29l-5 -5q-14 -14 -23 -21q-19 -15 -26 -17l-12 -4q-29 -10 -40 -12
q-8 -2 -25 -2q-5 0 -14 1q-10 1 -16 1q-11 2 -15 4q-7 1 -17 5q-61 18 -95 69q-35 53 -45 89q0 12 -3 25q-4 12 -4 27v79v114v114v80v3q2 23 21 100q22 78 45 113q4 7 5 9q8 13 26 28q20 29 99 44q18 4 54 4q37 0 66 -6q63 -12 88 -50q10 -32 10 -41q-2 -7 -4 -51l1 7
q0 -5 -1 -7q10 -8 19 -8q8 0 22 8q0 32 1 48q0 11 2 32l1 16q2 26 12 78l3 19q-14 8 -19 8q-6 0 -22 -8v-13v-12l-2 22q0 -30 -28 -30q-33 2 -69 16q-40 16 -79 16q-142 0 -285 -147q-141 -147 -141 -353t122 -352q123 -147 270 -147q45 0 99 19h-1q4 2 5 3q19 7 34 17
q33 17 78 36q49 18 84 24h5h5q10 6 10 15q0 8 -10 15h-4h-3q-22 3 -24 25v221v44zM734 448h-10h4h6zM724 143v-13v13z" />
    <glyph glyph-name="H" unicode="H" horiz-adv-x="731" 
d="M281 698h187q30 -1 36 -32v-83v-83v-191v-190q-6 -72 -40 -81h-2l-3 -1h-5v-1h-3h3q-6 -7 -6 -17q0 -12 6 -18q33 3 50 3v1q32 1 70 1q40 0 72 -1l20 -2l10 -1h14q8 -1 16 -1q5 8 5 17q0 10 -5 19h-8h-8h9q-53 0 -53 109v-106v229v231v186v189q5 86 52 86q0 1 1 1
q7 11 7 18q0 8 -7 18q-43 -3 -63 -3q-13 -1 -63 -1q-34 0 -63 1q-27 0 -62 5q-5 -9 -5 -18q0 -10 5 -20h2h1q7 0 8 -1q39 -4 45 -81v-56v-55q-6 -24 -39 -29h-187q-28 6 -30 34v50v51q2 86 51 86q0 1 1 1q6 10 6 18q0 10 -6 18q-8 0 -29 -1q-17 -1 -33 -2q-23 0 -32 -1h-32
q-35 0 -63 1q-28 0 -63 5q-5 -10 -5 -18q0 -9 5 -20h2h1q8 0 9 -1q39 -4 45 -81v-190v-190v-191v-190q-6 -72 -40 -81h-3q-4 -1 -7 -1l-2 -1h-2h2q-5 -7 -5 -17t7 -18q13 1 50 3v1q33 1 70 1q40 0 73 -1q8 -1 28 -3h14q9 -1 16 -1q7 12 7 17q0 3 -5 15q-1 3 -2 4h-8h-8h9
q-51 0 -51 111v-108v229v231v99v99v-36q0 30 33 36zM248 766v-26v12v14zM484 740h20h-20z" />
    <glyph glyph-name="I" unicode="I" horiz-adv-x="315" 
d="M38 38q-1 0 -3 -1h-2h-5l-3 -1h-1h1q-5 -7 -5 -17q0 -8 8 -18q32 3 50 3v1q32 1 70 1q40 0 72 -1q2 0 22 -1q20 -2 37 -3q6 11 6 17t-6 19h-9h-7h8q-51 0 -51 109v-106v229v231v186v189q2 86 51 86v1q8 13 8 18q0 8 -8 18q-40 -3 -61 -3q-14 -1 -64 -1q-35 0 -62 1
q-28 0 -64 5q-5 -10 -5 -18q0 -9 5 -20h3h1q7 0 9 -1q39 -4 45 -81v-190v-190v-191v-190q-6 -72 -40 -81z" />
    <glyph glyph-name="J" unicode="J" horiz-adv-x="590" 
d="M115 20l2 1q7 5 9 7q3 0 3 1q21 18 21 44q0 61 -69 61q-66 0 -66 -61v-2h-1q0 -87 70 -142q71 -54 176 -54q101 0 175 74q71 73 71 161h-1v197v193v186v189q5 86 53 86q0 1 1 1q5 10 5 18q0 9 -5 18q-43 -3 -64 -3q-14 -1 -62 -1q-35 0 -63 1l-8 1q-32 2 -54 4
q-8 -11 -8 -18q0 -9 8 -20h1h2q5 0 7 -1q39 -4 46 -81v-190v-190v-196v-198q0 -73 -40 -135q-42 -60 -99 -60q-75 0 -119 59l-2 5q-5 13 -5 18q0 14 16 27z" />
    <glyph glyph-name="K" unicode="K" horiz-adv-x="895" 
d="M496 834q-2 6 -2 18q0 27 21 48l-4 -5l15 19l-6 -9q15 15 45 35q31 21 55 26h3h3q4 12 4 16q0 2 -2 9l-2 6q-39 -6 -65 -6h-20q-27 0 -65 6q-11 -9 -11 -15t10 -16h1q8 0 8 -10q0 -9 -3 -16q-11 -29 -20 -44l-155 -182q-21 -19 -32 -19q-15 0 -15 23v-11v83v85
q2 86 51 86v1q8 13 8 18q0 8 -8 18q-40 -3 -61 -3q-14 -1 -64 -1q-35 0 -62 1q-28 0 -64 5q-5 -10 -5 -18q0 -9 5 -20h2h2q7 0 8 -1q41 -4 45 -81v-190v-190v-191v-190q-4 -72 -40 -81h-2q-2 -1 -3 -1h-5l-2 -1h-1h1q-5 -7 -5 -17t7 -18q33 3 50 3v1q33 1 70 1q40 0 73 -1
q6 -1 24 -2q16 -1 35 -2l2 4q4 10 4 13t-3 11q-2 6 -3 8h-9h-8h9q-51 0 -51 109v-106v229v231v18v18q0 30 16 60q16 34 35 60q30 30 55 30q27 0 48 -28l208 -548q4 -10 4 -41q-1 -23 -12 -29h-4h-3l-2 -5q-4 -12 -4 -17q0 -9 6 -19q63 7 127 7q63 0 126 -7q6 7 6 19
q0 10 -6 20v2h-3h-2q-21 2 -45 24q-23 18 -35 43l12 -34l-17 48l1 -5l-261 684l-24 63zM311 658q0 1 3 2q1 1 1 2l1 2l-6 -5l21 23zM384 744l10 13z" />
    <glyph glyph-name="L" unicode="L" horiz-adv-x="728" 
d="M251 174v329v187v187q5 87 54 87q0 1 1 1q5 9 5 18t-5 18q-22 -2 -31 -3h-17q-13 -1 -15 -1q-29 -1 -63 -1q-22 0 -32 1h-14q-11 1 -18 1q-31 0 -63 3q-5 -7 -5 -17t5 -18q2 -1 6 -1h-1h1h2h4q39 -6 45 -82v-191v-190v-180v-191h1v-7v-8q-7 -71 -40 -80q-5 0 -6 -1h-5
q-1 -1 -2 -1h2v-1q-7 -11 -7 -16q0 -6 7 -17q11 0 21 1q24 1 30 1q30 2 70 2q38 0 72 -2q10 0 12 -1l43 -1h2h1h388q4 4 4 17q0 12 -4 20h-1q-4 20 -7 31q-1 9 -2 10q-2 14 -4 22v13q-1 8 -1 14q0 17 5 54q1 12 2 19q-9 5 -20 5q-9 0 -18 -5q-3 -25 -3 -48q-11 -41 -65 -74
q-56 -35 -102 -38l177 9v3q0 -2 1 -3v-1l-228 -11h-142q-5 1 -16 2q-10 2 -12 2q-10 3 -10 51v-54v65v71h-2z" />
    <glyph glyph-name="M" unicode="M" horiz-adv-x="1473" 
d="M229 84q-8 -13 -24 -26q-16 -15 -31 -18h-8h-6q-7 -11 -7 -20t7 -19q36 6 73 6q32 0 71 -6q9 11 9 19t-9 18v2h-6q-28 0 -28 43l101 325h-42zM489 791q14 40 27 44q12 0 42 -39l162 -332l-2 -12q7 -3 20 -3q14 0 20 3l116 372q11 30 21 30q7 0 11 -12l10 -22v-2v-1v1
l127 -318q36 -89 76 -191q26 -64 76 -190q9 -29 9 -41q0 -32 -28 -40q-1 0 -4 -1h-2h-5v-1h-1h1q0 -7 1 -14v-3q4 -10 14 -18h10q12 1 20 1l30 3q33 1 70 1q56 0 73 -1l23 -1l38 -3q0 1 1 5v4v4l-1 4q-1 7 -15 19h-9h-6h7q-51 0 -96 109l44 -106v1q-33 76 -93 228
q-7 19 -45 116q-38 96 -46 115q-18 44 -50 124q-5 12 -25 62l-75 189q-12 39 -12 54q0 32 31 32v1q0 9 -1 16v2q-3 4 -4 6q-4 5 -9 12q-40 -3 -62 -3q-14 -1 -63 -1h-25q-7 1 -25 1l11 -36l-70 -223q-11 -31 -25 -42q-3 -5 -11 -5q-10 0 -17 12l-92 173q-12 38 -12 55
q0 31 29 31q0 1 1 1q0 8 -1 15v4q-2 5 -14 18q-30 -3 -60 -3q-29 -1 -64 -1h-21q-14 0 -21 1h-17q-5 1 -15 1q-7 1 -16 2q-14 2 -16 2q-9 -7 -18 -18v-4q-1 -3 -1 -4q0 -2 2 -5q1 -3 1 -5q11 -2 26 -3l-26 1q50 0 50 -46t-9 -93l-129 -415h41zM476 874l24 84h3z" />
    <glyph glyph-name="N" unicode="N" horiz-adv-x="961" 
d="M865 929v57q0 35 23 50q10 6 17 6q5 0 13 -2q5 -2 6 -2q20 -7 32 -16q2 -3 4 -5q9 -13 14 -21q4 -5 4 -14q0 -10 -8 -23q5 2 18 12q15 12 21 37q4 10 4 26q0 26 -15 44q-25 30 -69 34q-45 0 -79 -28q-35 -35 -35 -76v-4v-4v-675q-8 -29 -32 -29q-29 2 -69 54l-99 150
q-41 62 -121 186q-26 42 -80 126l-40 63q-28 44 -28 66q0 20 23 20q0 1 1 1q-2 14 -6 18q-4 6 -16 18q-42 -3 -62 -3q-15 -1 -62 -1q-35 0 -64 1q-31 0 -60 1q-48 2 -61 4q0 -13 6 -18q7 -10 18 -20h1h2h-1h1q7 0 8 -1h2h4q36 -7 36 -39q0 -12 2 -42q1 -18 1 -29l1 5v-782
q-6 -25 -39 -32h-2h-4v-1q-5 -9 -5 -19q0 -11 5 -21q43 5 68 5q20 0 65 -5q6 14 6 21q0 4 -5 17l-1 3h-4h-4q-28 3 -36 34v759q0 10 9 34q1 2 2 5q15 12 25 12q7 0 15 -5q18 -13 38 -40q58 -92 174 -268l47 -73q28 -44 87 -137l35 -54q42 -64 124 -190q20 -36 34 -76
q6 -18 6 -27q0 -15 -9 -15q6 0 12 1h10q10 2 20 2v1h35h35l55 -4h1h-1l-2 2l-1 1q-24 26 -34 73q-9 43 -16 93v380v379z" />
    <glyph glyph-name="O" unicode="O" horiz-adv-x="791" 
d="M409 1000q-146 0 -251 -147t-105 -353t105 -352q105 -147 251 -147q147 0 252 147q105 142 105 352t-105 353q-105 147 -252 147zM268 914q13 5 41 5q72 0 157 -58q108 -73 164 -245q35 -105 35 -216q0 -48 -11 -123q-31 -167 -121 -189q-15 -5 -44 -5q-70 0 -145 51
q-97 69 -153 240q-40 123 -40 252q0 50 7 93q18 174 110 195z" />
    <glyph glyph-name="P" unicode="P" horiz-adv-x="669" 
d="M320 648q35 9 103 27q58 16 110 28q13 3 46 14q26 10 40 28q15 17 19 43q2 29 5 41q0 74 -44 121q-45 50 -133 50l-362 -5q-4 0 -9 1q-32 2 -51 4q-5 -10 -5 -18q0 -9 5 -20h2h2q7 0 8 -1q41 -4 45 -81v-190v-190v-124v-128v-69q-1 -23 -1 -63q-6 -71 -42 -80h-5h-7
q0 -1 -1 -1h-1h1l-2 -6q-2 -9 -2 -12q0 -7 5 -17q24 2 54 2l28 1q41 1 50 1h75v-2q22 0 33 -1q9 -1 30 -1q8 10 8 17q0 5 -8 18q-8 0 -16 1h9q-56 0 -56 109v-107v117v127l-2 1v311q0 14 14 27q13 13 28 19q17 5 27 8zM305 676q-2 0 -4 -1q-11 -1 -16 -3q-34 0 -34 26v237
q0 29 34 29h145h3h1h6h3q34 0 70 -33q36 -34 36 -80q0 -38 -26 -84t-83 -59z" />
    <glyph glyph-name="Q" unicode="Q" horiz-adv-x="791" 
d="M578 60q85 64 136 181q52 116 52 259q0 210 -105 353q-105 147 -252 147q-146 0 -251 -147t-105 -353t105 -352q105 -147 251 -147q73 0 145 42q31 -39 31 -68q0 -18 -9 -30q-10 -21 -50 -21q-38 3 -85 38q0 -9 38 -36q56 -42 120 -78q36 -21 57 -21q20 0 30 13
q10 10 10 28q0 29 -25 73q-41 74 -93 119zM505 83h-8q-5 -1 -9 -1q-78 0 -158 63q-87 68 -139 229q-40 123 -40 252q0 50 7 93q18 174 110 195q13 5 41 5q72 0 157 -58q108 -73 164 -245q35 -110 35 -216q0 -39 -10 -113v-3q-29 -164 -115 -194q0 1 -2 1q-34 28 -49 63
q-9 20 -9 34q0 13 8 27q12 25 42 25q38 0 94 -42q0 7 -38 36q-57 43 -110 66q-27 11 -45 11q-21 0 -35 -15q-11 -15 -11 -31q0 -24 23 -67q34 -68 92 -112z" />
    <glyph glyph-name="R" unicode="R" horiz-adv-x="665" 
d="M486 667q7 25 38 34q11 1 26 6l10 5l24 12q18 11 26 20q25 32 26 68q0 76 -57 130q-61 58 -148 58l-327 -5q-4 0 -9 1q-32 2 -51 4q-5 -10 -5 -18q0 -9 5 -20h2h2q7 0 8 -1q41 -4 45 -81v-190v-190v-124v-128v-69q-1 -23 -1 -63q-6 -71 -42 -80h-5h-7q0 -1 -1 -1h-1h1
l-2 -6q-2 -9 -2 -12q0 -7 5 -17q24 2 54 2l28 1q41 1 50 1h75v-2q22 0 33 -1q9 -1 30 -1q8 10 8 17q0 5 -8 18q-8 0 -16 1h9q-56 0 -56 109v-107v117v127l-2 1v377q0 37 42 38q28 0 28 2q37 -1 52 -3q8 -1 32 -1q33 -8 33 -36v37h1q0 -12 -1 -23q0 -21 6 -102q6 -82 21 -185
q14 -105 36 -209q20 -96 60 -174q36 -76 82 -108q42 -33 65 -33q3 -1 7 -1q19 0 55 18q33 19 33 58q0 40 -29 68q-29 29 -51 29q-12 0 -12 -15q0 -1 1 -4q1 -5 1 -8q-3 -20 -27 -25q-27 0 -53 36q-3 3 -4 8q-5 5 -8 11q-35 71 -55 148q-26 95 -41 181q-13 71 -26 173
q-2 15 -2 20q-9 80 -11 107zM316 740h-17q-10 0 -14 -1q-34 0 -34 25v171q0 29 34 29h91h2h3h4q8 -1 15 -2q8 0 15 -1h3q24 0 60 -14q31 -15 52 -37q17 -23 20 -42q0 -1 2 -18q1 -14 1 -22q0 -38 -54 -64q-55 -25 -110 -25z" />
    <glyph glyph-name="S" unicode="S" horiz-adv-x="943" 
d="M545 989q-61 13 -130 13q-121 0 -195 -56q-76 -55 -85 -110l-1 -2h1l-2 -14q-3 -22 -3 -34q0 -86 74 -146q92 -77 224 -77v6v-6h2h3q140 0 261 -75q120 -74 131 -136q3 -11 3 -35q0 -39 -17 -105q-26 -81 -93 -124q-52 -31 -119 -41q-75 -11 -129 -11q-41 0 -79 7
q-45 9 -72 16q-30 7 -49 13q-16 5 -45 23q-59 33 -96 87q-11 15 -18 52q-6 18 -6 48q9 40 25 49q15 6 50 6q7 -4 17 -10q7 -5 11 -7q6 -5 12 -25q0 -19 -6 -27q-3 0 -3 -4q0 -5 12 -5q19 0 52 24q32 26 35 43q2 6 4 10q4 11 5 16v19q0 106 -113 115q-6 0 -12 1h-11
q-57 0 -92 -28q-45 -34 -45 -97v-9v-15h-1q2 -36 11 -81q12 -52 34 -87q22 -33 50 -55q28 -24 60 -43q42 -26 108 -46q88 -25 162 -25q65 0 146 14q81 13 137 47q82 50 117 122q34 71 34 134q0 173 -139 298q-140 124 -334 124h-2h-3v-1q-64 2 -108 37q-47 35 -49 94h4
q8 38 62 64q57 27 135 27q79 0 126 -28q51 -29 70 -63l30 -78q20 -5 30 -5q14 0 27 5q-30 59 -45 113q-11 30 -14 57q-4 29 -6 57q-19 6 -32 6q-12 0 -26 -6q3 -6 5 -16l2 -8q1 -5 2 -9l-9 32q4 -6 4 -16q0 -20 -21 -20q-34 0 -68 7z" />
    <glyph glyph-name="T" unicode="T" horiz-adv-x="970" 
d="M181 998q-16 2 -40 10l-1 -10h1h-3q1 3 2 8q1 3 1 4q-8 4 -18 4q-11 0 -19 -4q-15 -73 -25 -103q-16 -52 -39 -103q2 -1 3 -1q11 -3 16 -3q3 0 11 2q2 1 8 2q1 4 7 17q7 18 11 30l-3 -13q10 38 61 78q51 42 101 45l-7 1h35q21 -1 37 -1h70q37 -7 43 -81v-190v-190v-191
v-190q-6 -72 -40 -81q-1 0 -3 -1h-2h-7v-1h-1h1q-5 -10 -5 -17q0 -8 5 -18q2 0 13 1h14q16 2 25 3q31 1 70 1q56 0 71 -1l10 -1l20 -2h15q9 -1 16 -1q5 8 5 17q0 10 -5 19h-9h-8h10q-54 0 -54 109v-106v1v228v231v186v189q6 86 52 86h64q5 0 32 1h31h-3q39 -3 86 -34
q47 -34 64 -65q8 -27 25 -59q12 -4 19 -4q5 0 17 4q-21 50 -37 103q-16 44 -25 103q-11 4 -20 4q-11 0 -18 -4v-2q-23 -8 -38 -10l-160 -3h-163h-160l-106 2z" />
    <glyph glyph-name="U" unicode="U" horiz-adv-x="820" 
d="M595 156q-3 -37 -20 -60q-54 -56 -136 -56q-72 0 -125 47q-54 48 -60 117v148v148v186v189q2 86 51 86v1q8 13 8 18q0 8 -8 18q-40 -3 -61 -3q-14 -1 -64 -1q-35 0 -62 1q-28 0 -64 5q-5 -10 -5 -18q0 -9 5 -20h2h2q7 0 8 -1q41 -4 45 -81v-190v-190v-148v-148
q8 -83 90 -142q82 -58 195 -58q80 0 148 31q-5 -7 -5 -16q0 -11 6 -18q35 3 50 3v1q33 1 71 1q39 0 72 -1q7 -1 24 -2q15 0 36 -2l2 4q4 10 4 13t-3 11q-2 6 -3 8h-8h-9h10q-53 0 -53 109v-106v229v231v186v189q3 86 52 86q0 1 1 1q7 14 7 18q0 8 -7 18q-42 -3 -63 -3
q-14 -1 -64 -1q-34 0 -63 1q-4 0 -9 1q-35 2 -53 4q-6 -12 -6 -18q0 -8 6 -20h1h4h-1h1q5 0 6 -1q39 -4 45 -81v-190v-190v-138v-138v2v-17v-27v-26z" />
    <glyph glyph-name="V" unicode="V" horiz-adv-x="838" 
d="M748 1024q20 -21 25 -39q1 -3 1 -13v-25q-2 -116 -31 -204q-23 -73 -68 -185q-28 -68 -66 -179q-14 -43 -21 -87.5t-7 -97.5q0 -32 -13 -39l-4 -1q-13 0 -31 52v-4q-14 36 -40 114l-12 35l-12 35q-26 78 -40 114q-15 43 -44 124l-22 62q-44 126 -65 189q-10 29 -10 50
q0 36 31 36q0 1 1 1q0 8 -1 15v3q-1 7 -11 18q-8 0 -27 -1q-22 -1 -35 -2q-22 0 -31 -1h-32q-34 0 -63 1q-29 0 -65 5q0 -9 1 -16v-2q4 -13 12 -20h2h3q6 0 7 -1q44 -5 74 -81q22 -64 66 -190q8 -22 29 -81q28 -78 39 -109l19 -54q31 -93 47 -137q21 -64 67 -190
q7 -18 7 -46q0 -30 -19 -35h-2q-5 -1 -8 -1v-1h-1h1q0 -3 -1 -5v-3t1 -4v-5q2 -9 12 -18q19 2 50 3v1q30 1 70 1t72 -1l30 -3h16q12 -1 14 -1q0 2 1 6v4v4l-1 3q-4 11 -13 19h-2h-3h-1q-38 11 -38 34q4 18 9 27q3 10 5 28q0 113 22.5 214t68.5 199q94 204 113 435v2v8v18
q-1 44 -40 78q-38 30 -71 30h-6q-5 -1 -6 -1q-85 -9 -85 -113q0 -14 4 -28q9 -43 41 -43q18 0 37 21q16 19 16 44q0 7 -3 11v1q-2 4 -6 6q-16 18 -16 25q0 5 6 8q3 2 8 2q16 0 45 -19z" />
    <glyph glyph-name="W" unicode="W" horiz-adv-x="1153" 
d="M794 976q-2 -107 -28 -192q-23 -82 -58 -179q-20 53 -47 134q-8 24 -28 81q-13 36 -20 55q-8 32 -8 49q0 37 30 37q0 1 1 1v18q-1 6 -13 18q-11 0 -31 -1t-31 -2q-27 -1 -62 -1t-64 1q-9 1 -11 1q-33 2 -53 4q0 -2 -1 -5t-1 -5q0 -1 1 -4t1 -4q2 -6 14 -20h1h3q5 0 6 -1
q44 -4 75 -81q15 -46 46 -134q7 -18 20 -56q44 -126 67 -190q19 -54 33 -94q-18 -58 -26 -105q-5 -28 -7 -52t-2 -55q0 -32 -13 -39l-4 -1q-13 0 -31 52v-4q-14 36 -40 114l-12 35l-12 35q-26 78 -40 114q-15 43 -44 124l-22 62q-44 126 -65 189q-10 29 -10 50q0 36 31 36
q0 1 1 1q0 8 -1 15v3q-1 7 -11 18q-8 0 -27 -1q-22 -1 -35 -2q-22 0 -31 -1h-32q-34 0 -63 1q-29 0 -65 5q0 -9 1 -16v-2q4 -13 12 -20h2h3q6 0 7 -1q44 -5 74 -81q22 -64 66 -190q8 -22 29 -81q28 -78 39 -109l19 -54q31 -93 47 -137q21 -64 67 -190q7 -18 7 -46
q0 -30 -19 -35h-2q-5 -1 -8 -1v-1h-1h1q0 -3 -1 -5v-3t1 -4v-5q2 -9 12 -18q19 2 50 3v1q30 1 70 1t72 -1l30 -3h16q12 -1 14 -1q0 2 1 6v4v4l-1 3q-4 11 -13 19h-2h-3h-1q-38 11 -38 34q4 18 9 27q3 10 5 28q0 94 25 199q7 -22 22 -64q10 -27 14 -40q7 -19 16 -46
q13 -40 19 -56q8 -18 8 -47q0 -28 -19 -34h-5q-1 -1 -5 -1v-1h-4h4q0 -2 -1 -5q-1 -2 -1 -3t1 -4t1 -5q5 -12 11 -18q18 2 25 2q9 0 25 2q32 1 70 1q57 0 72 -1q3 0 16 -1q13 -2 15 -2h14q9 -1 16 -1q2 4 2 10v4l-1 3q-1 4 -11 15q-2 3 -3 4h-2h-1h-4v1q-35 9 -35 33
q1 7 4 18q1 3 2 9q5 15 6 28q0 112 22.5 213.5t67.5 199.5q92 197 112 435h1q-1 1 -1 9q0 6 1 9v10h-1q-3 46 -40 78q-35 30 -70 30q-2 0 -6 -1h-4q-87 -9 -87 -113q0 -18 5 -28q8 -43 42 -43q15 0 33 21q17 18 17 44v11v-1q-15 22 -15 32q0 9 6 13q2 4 10 4q13 0 35 -21
q9 -12 17 -28q9 -13 9 -28q-1 -110 -34 -208q-25 -82 -66 -193q-39 -103 -65 -187q-13 -47 -20 -93t-7 -97q0 -32 -14 -39l-4 -1q-14 0 -32 52l1 -3q-28 77 -51 148q-9 24 -30 84q-16 47 -23 65q-5 13 -7 20q-6 16 -7 20q16 46 42 127q17 52 26 78q32 105 42 217v2h2v2
q0 75 -53 113q8 -20 8 -33q0 -1 -1 -4q-2 -5 -2 -8v-13q-1 -22 -1 -45z" />
    <glyph glyph-name="X" unicode="X" horiz-adv-x="676" 
d="M114 65q1 98 67 173q64 70 133 169l25 -70q16 -45 26 -75q8 -21 23 -63q19 -53 30 -80q7 -18 7 -47q0 -28 -19 -34h-2q-2 -1 -3 -1h-5v-1h-1h1q0 -2 -1 -6v-4v-3q1 -2 1 -4q4 -11 13 -18q33 3 49 3v1q30 1 70 1t71 -1q8 -1 19 -1q23 -2 42 -3q3 4 3 10q0 1 -1 4
q-1 2 -1 3q-1 4 -8 13q-1 1 -5 6h-9h-8h9q-52 0 -91 109l39 -106q-7 19 -41 115l-42 114q-18 51 -41 116q-23 64 -41 115q-5 8 -10 27q69 97 135 218q56 114 71 233q1 3 1 16v2v1q-1 67 -62 79q17 -33 18 -79h-1q-11 -121 -61 -225q-53 -111 -118 -203q-33 91 -53 152
q-27 71 -55 154q-10 26 -10 51q0 35 30 35q0 1 1 1q0 8 -1 15v3q-4 10 -12 18q-42 -3 -61 -3q-14 -1 -64 -1q-33 0 -62 1q-4 0 -10 1q-33 2 -55 4q0 -14 1 -18q2 -10 11 -20h3h2q8 0 9 -1q40 -5 73 -81q9 -25 18 -51q35 -97 50 -139q38 -99 69 -190q1 -2 5 -12q3 -11 4 -13
q3 -14 10 -25q-81 -111 -156 -189q-74 -78 -74 -200h2q5 -60 70 -74q-2 6 -9 20q-3 5 -7 14q-9 17 -11 44z" />
    <glyph glyph-name="Y" unicode="Y" horiz-adv-x="828" 
d="M616 481q0 117 79 234q78 119 113 241q2 8 2 15q0 65 -74 83q2 -6 7 -16q10 -19 13 -28q12 -25 12 -54q-25 -123 -108 -225q-80 -96 -80 -215q0 -20 -14 -23q-14 0 -35 34v-3q-27 48 -51 96q-34 64 -52 96q-18 34 -54 92q-2 3 -6 10q-20 27 -61 99l-2 3q-9 21 -9 30
q0 1 1 4q1 1 1 2q5 6 30 6v8q0 7 1 7q0 6 -1 11v2l-1 1q-5 6 -12 10q-15 -1 -30 -6q-17 -5 -30 -5h-64q-22 0 -31 1q-22 2 -32 3q-14 0 -32 3q-15 4 -32 4q-3 -4 -3 -11q0 -2 2 -6q1 -2 1 -4q6 -13 12 -16h5h3h5q20 -3 39 -9q17 -6 35 -30q35 -66 61 -105q21 -31 62 -104
q12 -23 38 -70q18 -31 26 -47q11 -21 32 -59q20 -38 31 -59h1q23 -37 27 -81v-140v-141q-4 -72 -40 -81h-2q-4 -1 -8 -1v-1h-2h2q-6 -7 -6 -17q0 -12 6 -18q13 1 50 3v1q33 1 72 1q38 0 71 -1l20 -2l10 -1h14q8 -1 15 -1l1 2q5 10 5 15t-5 16l-1 3h-9h-6h7q-51 0 -51 111
v-108v61v122v99v-6q0 41 15 81q16 47 17 84z" />
    <glyph glyph-name="Z" unicode="Z" horiz-adv-x="866" 
d="M686 1q36 -2 49 -3q19 0 53 -9v1q10 0 21 4l1 1q0 49 10 85q4 26 25 83q-7 10 -17 11q-13 0 -22 -5q-4 -8 -8 -18q-1 -4 -2 -6q-23 -39 -65 -69q-43 -30 -87 -35h-106q-34 1 -107 1q-40 0 -58 -1h-60q-10 4 -10 20q0 27 30 87l-57 -107q57 102 124 229q64 124 123 230
q33 62 101 186q17 32 50 95t50 94q51 86 100 86q0 1 1 1q13 11 16 18q3 9 3 18q-17 0 -29 -2v2v2q-64 -2 -99 -2q-33 -1 -98 -1q-9 0 -13 1q-6 0 -12 2l-2 -2l-1 -1q-41 0 -62 -2q-20 -1 -63 -1q-71 0 -107 1q-38 2 -108 2l1 1q-27 2 -56 2q-9 0 -62 8q-10 9 -18 10
q-9 0 -21 -5q-1 -40 -9 -87q-5 -23 -27 -81q11 -11 20 -12q11 0 20 5q2 6 6 14q1 3 2 5l-1 -5q0 3 1 4q0 2 2 3q0 2 1 3v3q15 36 56 66q42 28 89 33l-98 1q104 -1 308 -1h55h55v-2h1h3h-2h2q5 0 6 -1q19 0 19 -24q0 -14 -17 -57q-15 -27 -44 -81q-42 -78 -59 -109
q-68 -126 -102 -190q-16 -29 -51 -95t-51 -96q-18 -33 -63 -116q-27 -49 -40 -74q-40 -68 -78 -79q-2 0 -4 -1h-3q-2 0 -5 -1h-3v-2h-3h3q-13 -9 -17 -17q-2 -3 -2 -18q5 0 9 1h10v-2q36 1 108 1q8 0 53 1h56q-1 0 11 0h5q5 0 29 1h29q14 0 30 1h27q45 0 129 -2h64
q52 -1 62 -1zM715 40h56h-56z" />
    <glyph glyph-name="bracketleft" unicode="[" horiz-adv-x="173" 
d="M133 800v16q0 2 1 9q0 4 1 8q-35 -7 -62 -7q-29 0 -60 7q1 -46 3 -104t3 -104q4 -138 4 -208t-4 -208q-1 -46 -3 -104t-3 -104q33 6 60 6q25 0 62 -6q0 2 -1 9q0 4 -1 8v17q-25 5 -39 6h-39q0 16 1 94q0 52 1 94q0 16 1 95v94v93q-1 53 -1 95q-1 42 -1 94t-1 94
q15 0 29 1h10q11 0 39 5z" />
    <glyph glyph-name="backslash" unicode="\" horiz-adv-x="303" 
d="M83 692q-13 -4 -28 -4q-16 0 -31 4l10 -33q31 -96 45 -139l54 -174q53 -172 102 -345q13 4 26 4t29 -4q-18 57 -54 173q-31 97 -53 172q-34 116 -50 174q-29 98 -50 172z" />
    <glyph glyph-name="bracketright" unicode="]" horiz-adv-x="199" 
d="M18 800q28 -5 38 -5h10q15 -1 29 -1q-1 -42 -1 -94t-1 -94v-188v-189q1 -42 1 -94q1 -78 1 -94h-39q-14 -2 -38 -6q-1 -23 -3 -34q36 6 63 6q25 0 61 -6q-4 67 -8 205v3q-3 104 -3 208q0 105 3 208v3q4 138 8 205q-34 -7 -61 -7q-29 0 -63 7q1 -6 1 -17q0 -6 2 -16z" />
    <glyph glyph-name="underscore" unicode="_" horiz-adv-x="459" 
d="M31 -18v-36h448v36h-448z" />
    <glyph glyph-name="grave" unicode="`" 
d="M14 934l1 -2l15 -30q15 -32 34 -58q18 -30 41 -56q21 -24 40 -24q14 0 14 14v4q-1 4 -1 6q-8 29 -20 56l-2 4q-17 32 -30 54q-12 21 -17 32q-15 -9 -34 -9q-18 0 -41 9z" />
    <glyph glyph-name="a" unicode="a" horiz-adv-x="988" 
d="M684 286q2 -3 4 -9q4 -9 8 -16q5 -12 15 -28q11 -23 29 -52q9 -21 9 -35q0 -18 -16 -21h-10v-1h-2h2q0 -6 1 -10v-2q3 -6 12 -11q35 0 45 1q25 0 37 1h27q45 0 65 -1h14q4 -1 14 -1q11 -1 27 -1q0 1 1 3v3v3l-1 2q-2 5 -14 13h-2h-4q-2 0 -4 1h-3h8q-49 0 -88 76l40 -74
q-30 52 -44 79l-11 21q-20 38 -30 59q-6 12 -21 40q-16 28 -22 40q-7 13 -16 30q-18 34 -26 50q-12 21 -34 65q-5 10 -11 20q-15 30 -23 45q-4 7 -11 22q-15 29 -23 43q-11 21 -35 65q-7 15 -7 29q0 12 6 19q12 16 35 16q0 1 1 1q0 2 1 6q1 5 1 7l-1 2q-6 7 -9 9
q-3 0 -39 -3h-6q-27 -2 -35 -2q-33 -1 -57 -1h-23q-22 0 -34 1q-13 0 -33 2q-25 3 -33 3q0 -1 -1 -2q-1 -2 -1 -3t2 -3q1 -3 1 -4q1 -5 12 -13h2q25 -6 25 -23q-1 -6 -2 -8q-3 -16 -6 -27q-1 -1 -1 -2l-1 -2q-8 -18 -18 -42q-9 -21 -10 -23q-12 -29 -29 -65q-5 -15 -21 -51
l-6 -14q-8 -18 -18 -42q-9 -21 -10 -23q-7 -18 -16 -40q-10 -22 -17 -40q-17 -38 -34 -80q-6 -14 -17 -40q-12 -25 -18 -40q-8 -19 -20 -47q-9 -21 -14 -32v-1l31 75q-17 -42 -48 -58q-30 -18 -40 -18h2l-4 -1q-6 -7 -8 -13q-3 -3 -3 -12q2 1 15 1l15 1q25 0 29 1q7 1 24 1
q7 0 21 -1q1 -1 15 -1l15 -1q17 -1 30 -1l3 6l4 6q1 2 2 5q0 1 1 2q0 3 1 5q-1 0 -4 1q-7 6 -23 17q-14 11 -14 24q0 8 4 16q7 18 15 38q4 9 13 29l4 9v1q0 1 6 9l2 3l7 12q6 7 13 9q3 2 18 3q10 0 49 1q27 0 50 1q34 0 50 1h48h37q13 -1 41 -1q50 0 79 -1l14 -1
q11 -1 14 -1q7 0 16 -9zM658 338q0 -10 -2 -13q-1 -3 -17 -5v1q-34 -1 -79 -1h-40h-37q-64 0 -189 2h-9q-15 0 -15 7q1 3 1 5l12 27q3 8 10 23l3 7q3 8 9 19q1 4 4 10l3 7q7 14 9 21q34 82 53 123q6 14 13 31t13 31l6 15q14 30 20 47q6 10 20 10q14 -2 23 -12q7 -14 16 -31
t16 -31q18 -32 34 -62q15 -31 31 -62q12 -21 34 -61q12 -26 29 -54q19 -39 29 -54z" />
    <glyph glyph-name="b" unicode="b" horiz-adv-x="754" 
d="M586 569q-10 7 -10 17q0 3 3 9l1 2q29 21 29 56q0 12 -4 24q-14 56 -42 80q-32 24 -83 38q-6 2 -19 2q-3 0 -9 -1t-9 -1l-330 -3q-17 0 -55 3q-4 -7 -4 -12q0 -9 4 -14h2h4h-1h1q4 0 5 -1q35 -3 41 -56v-66v-66v-66v-66v-67v-66v-66v-66q-6 -52 -35 -56h-4q-1 -1 -2 -1
h-4h-1h-1h1q-5 -5 -5 -12q0 -8 6 -13q22 1 33 2h12v1h-1h-1q0 -1 1 -1h4h146h17h10h9l176 -2q10 -1 24 -1q83 0 164 51q82 49 82 157q0 84 -51 154q-54 75 -104 107zM460 586q52 0 106 -84q55 -83 55 -177q0 -98 -42 -146q-42 -51 -94 -51h-4h-3q-4 -1 -9 -1l-188 1
q-33 0 -33 23v412q0 23 33 23h163q5 0 6 -1q1 1 10 1zM421 770q30 0 64 -23q33 -24 33 -55t-18 -54q-17 -23 -47 -23h-3h-1h-1h-2h-2h-3h-163q-30 0 -30 20v115q0 20 30 20h132h3h2h3h1h2z" />
    <glyph glyph-name="c" unicode="c" horiz-adv-x="665" 
d="M531 208q0 -1 1 -4t1 -5q0 -27 -49 -41q-46 0 -87.5 11t-86.5 34q-96 49 -137 157q-28 63 -28 125q0 52 19 97q41 104 95 145q30 22 119 35q13 3 37 3q64 0 95 -39q8 -24 8 -29q-2 -2 -2 -23q-1 -3 -1 -12l1 4q0 -3 -1 -4q9 -6 18 -6q8 0 20 6q0 21 1 46q1 14 1 21
q6 31 15 67q-12 5 -17 5q-7 0 -20 -5v-5v-4v-4v-4l-2 15q0 -21 -27 -21q-25 0 -63 11q-33 11 -71 11q-129 0 -227 -102t-98 -245t111 -245t247 -102q137 0 236 111v1l5 6q4 6 4 19q0 6 -4 18q-9 17 -31 22q-5 2 -17 2q-15 0 -30 -6q-24 -11 -33 -28q-7 -12 -7 -21
q0 -5 4 -14q0 -1 1 -3zM489 159l30 4q-3 -1 -5 -1q-16 -3 -25 -3z" />
    <glyph glyph-name="d" unicode="d" horiz-adv-x="710" 
d="M354 795l-188 -5l-1 1h-1h-1h-24q-21 0 -34 1q-18 0 -57 3q-4 -9 -4 -12t4 -14h1h2q5 0 7 -1q36 -3 42 -56v-66v-66v-66v-66v-67v-66v-66v-66q-6 -51 -36 -56h-4q-1 -1 -2 -1h-4h-1h-2h2q-5 -7 -5 -12q0 -7 6 -13q11 0 33 2h13v1q26 0 38 1h26h27q10 -1 38 -1q7 -1 26 -1
q18 -1 25 -1q25 -1 51 -1h72q105 0 197 59q91 58 91 202q0 90 -41 182q-40 94 -109 161q-41 41 -96 66q-54 24 -94 24h3zM330 770q39 0 100 -30q59 -29 103 -86q36 -49 56 -105q21 -60 21 -127q3 -10 3 -29q0 -43 -23 -89q-29 -59 -57 -94q-43 -50 -98 -67q-52 -15 -101 -15
h-3h-60q-26 0 -26 19v603q0 20 26 20h54h3h2z" />
    <glyph glyph-name="e" unicode="e" horiz-adv-x="659" 
d="M591 208q-9 -28 -58 -52q-49 -25 -94 -27h-1v-1h-44h-129q-19 2 -26 3q-9 2 -9 35v-38v80v80v80v79v26v29v31v31q1 3 2 8t2 8q0 4 24 4q4 0 16 -1q16 -1 27 -1q33 -4 83 -25q49 -21 67 -41q3 -2 5 -4q1 -2 2 -3t1 -3l1 -2v2q0 -2 5 -6h7q5 -1 6 -1h5q4 1 6 1q11 2 22 11
q-6 5 -16 17l-1 1q-1 2 -9 9q-8 8 -10 9q-19 19 -29 39q-11 23 -12 42q0 1 -2 21l-3 24h-21q-9 -2 -23 -11q0 -1 1 -2v-2v-1v-2q-3 -28 -52 -33q-49 -6 -76 -6q-4 0 -10 -1h-5q-12 0 -12 3q0 9 -1 13v32v33q0 22 1 32v27q0 9 12 12q3 1 31 1l30 1h76h3h25h-29q48 0 97 -3
q53 -4 59 -33v-1v-2q1 -1 3 -1q2 -1 3 -1h4q1 -1 6 -1q8 29 13 41q3 15 16 39q-3 1 -4 1q-4 1 -5 1h-7q-1 -1 -4 -1q-2 0 -2 -1q-71 -8 -134 -11h-12q-57 -2 -82 -2q-11 -1 -23 -1q-20 -1 -24 -1q-17 -1 -44 -1h-16h-4h1h3h-2h-32q-10 -1 -25 -1q-14 0 -24 1h-34
q-18 0 -57 3q-5 -6 -5 -12q0 -7 5 -13h1h1h3q-1 0 -1 -1h1h6q37 -3 41 -57v-65v-66v-67v-66v-66v-66v-67v-65q-4 -51 -36 -56q-4 0 -5 -1h-5l-1 -1h-1h1q-4 -7 -4 -12q0 -8 5 -12q10 1 23 1q12 0 23 1q25 0 37 1h27q46 0 65 -1h3h2h4h2l40 -2h2h1h352q4 4 4 13q0 10 -4 14
q-7 18 -7 21q0 1 -1 6q-3 9 -4 16v9q-1 5 -1 10q0 24 6 51q-8 4 -18 4q-8 0 -16 -4l-2 -12q-2 -16 -2 -21z" />
    <glyph glyph-name="f" unicode="f" horiz-adv-x="588" 
d="M254 616q-4 0 -9 -1h-6q-11 0 -11 3q0 9 -2 13v32v33q0 22 2 32v27q0 9 11 12q3 1 31 1l30 1h76h3h25h-29q47 0 98 -3q54 -5 58 -33v-1v-2q1 -1 4 -1l3 -1h3q2 -1 7 -1l3 10q6 24 9 31q6 17 16 39q-1 1 -4 1q-3 1 -4 1h-8q-1 -1 -4 -1q-2 0 -2 -1q-68 -8 -134 -11h-12
q-57 -2 -82 -2q-11 -1 -23 -1q-20 -1 -24 -1q-16 -1 -44 -1h-16h-4h1h3h-1h-33q-10 -1 -25 -1q-14 0 -24 1h-33q-19 0 -58 3q-5 -6 -5 -12q0 -7 5 -13h1h2h2q-1 0 -1 -1h1h6q36 -3 42 -57v-65v-66v-67v-66v-66v-66v-67v-65q-6 -51 -37 -56q-3 0 -5 -1h-5l-1 -1h-1h1l-1 -3
q-3 -7 -3 -9q0 -7 5 -12q10 1 23 1q12 0 24 1q25 0 36 1h27q47 0 65 -1q15 0 27 -1h13q5 -1 14 -1q6 6 6 12t-6 13q-6 0 -14 1h8q-48 0 -48 76v-75v80v80v80v79v26v29v31v31q2 4 4 14v2q0 4 24 4q4 0 16 -1q16 -1 28 -1q33 -4 82 -25q49 -20 68 -41l5 -5q0 -1 1 -2t1 -3
l1 -2v2q0 -1 5 -6h7q5 -1 6 -1t6 1h5q10 1 23 11q-7 5 -17 17l-1 1q-12 12 -19 18q-20 20 -28 39q-12 22 -13 42v6q-3 24 -5 39h-21q-9 -2 -23 -11q0 -1 2 -2v-2v-1v-2q-4 -29 -53 -33q-48 -6 -76 -6z" />
    <glyph glyph-name="g" unicode="g" horiz-adv-x="728" 
d="M659 392q8 15 39 20h3h2h2q11 7 11 12t-11 12q-66 -3 -111 -3q-47 0 -113 3q-11 -6 -11 -12t11 -12h3h2h2q38 -4 45 -27v-147q0 -2 -1 -6t-1 -6t1 -6q1 -5 1 -7v1q-2 -4 -4 -18q-1 -12 -11 -20q-14 -12 -25 -18q-7 -4 -9 -5q-11 -7 -15 -8q-28 -7 -48 -10q-6 -2 -22 -2
q-4 0 -13 1q-10 1 -15 1q-2 0 -13 3l-15 3q-57 11 -88 48q-33 38 -39 62q0 7 -3 17q-4 8 -4 19v22v33v38v41v40v39v33v23v2q1 12 17 61l3 8q17 48 40 79q4 5 5 5q7 9 24 20v1q18 20 90 30q15 3 47 3t60 -4q61 -9 81 -35q8 -21 8 -29v-12q-1 -6 -1 -23l1 4q0 -2 -1 -4
q8 -6 17 -6q10 0 20 6v16v17q0 18 1 34q7 41 17 67l-4 2q-11 3 -14 3q-7 0 -20 -5v-5v-4v-4v-4l-1 15q0 -21 -29 -21q-23 0 -61 11q-33 11 -71 11q-131 0 -259 -102q-130 -103 -130 -245q0 -144 111 -245q111 -102 246 -102q43 0 90 14h-1q4 0 5 1q9 3 30 12q48 18 73 25
q43 14 76 17h2h2h2h3q8 5 8 11q0 3 -8 10h-2h-2h-3q-20 2 -22 17v154v30zM668 412h-9h4h2h3zM659 200v-9v9z" />
    <glyph glyph-name="h" unicode="h" horiz-adv-x="665" 
d="M258 586h168q28 -3 34 -23v-29v-29v-28v-29v-67v-66v-66v-66q-6 -52 -36 -56h-3q-1 -1 -2 -1h-3h-2h-1h1q-5 -6 -5 -12q0 -8 5 -13q22 1 35 2h11v1q26 0 38 1h26h27q12 -1 39 -1q4 -1 13 -1q3 -1 13 -1q15 0 28 -1q6 6 6 12t-6 13q-6 0 -8 1h-3h-4h9q-48 0 -48 76v-75v80
v80v80v80v65v65v65v65q2 60 46 60q0 1 2 1q1 1 2 3q4 7 4 10t-4 9l-2 3q-40 -3 -58 -3h-57h-23q-21 0 -35 1q-17 0 -56 3q-5 -6 -5 -12q0 -8 5 -14h1h1h2q5 0 6 -1q35 -1 41 -56v-19v-20v-19v-19q-6 -18 -35 -20h-171q-25 3 -28 24v17v17v18v17q3 60 48 60q0 1 1 1q5 6 5 13
q0 6 -5 12q-23 -2 -57 -3h-15h-15h-14h-14h-24q-21 0 -33 1q-19 0 -58 3q-1 -5 -3 -9l-1 -3l1 -3q2 -5 3 -11h1h3q5 0 6 -1q37 -3 43 -56v-66v-66v-66v-66v-67v-66v-66v-66q-6 -51 -37 -56h-10l-1 -1h-1h1q-5 -7 -5 -12t6 -13q6 1 24 1q16 1 23 1v1q26 0 37 1h26h28
q10 -1 37 -1q14 0 27 -1q3 -1 13 -1q4 -1 14 -1q6 8 6 12t-6 13q-6 0 -7 1h-3h-5h9q-48 0 -48 76v-75v80v80v80v80v34v35v34v35v-26q0 22 32 26zM226 633v-18v5v3v5v5zM441 615h19h-19z" />
    <glyph glyph-name="i" unicode="i" horiz-adv-x="276" 
d="M35 127h-4q-1 -1 -2 -1h-4h-1h-1h1q-5 -7 -5 -12q0 -7 6 -13q25 1 35 2h11v1q27 0 38 1h26h28q10 -1 37 -1q5 -1 21 -1q6 -1 17 -1q10 0 16 -1q6 8 6 12t-6 13q-6 0 -8 1h-2h-5h9q-48 0 -48 76v-75v80v80v80v80v65v65v65v65q2 60 48 60v1q1 1 2 3q4 7 4 10t-4 9l-2 3
q-37 -3 -57 -3h-57h-24q-21 0 -34 1q-18 0 -57 3q-4 -9 -4 -12t4 -14h1h3q5 0 6 -1q38 -3 42 -56v-66v-66v-66v-66v-67v-66v-66v-66q-4 -51 -36 -56z" />
    <glyph glyph-name="j" unicode="j" horiz-adv-x="536" 
d="M105 115q8 2 11 5l2 1q20 14 20 31q0 42 -63 42q-60 0 -60 -42v-1v-1h-1q0 -61 64 -98q62 -37 160 -37q94 0 160 51q63 50 63 111h-1v62v75v75v59v65v65v65v65q5 60 48 60q0 1 1 1q5 6 5 13q0 6 -5 12q-39 -3 -58 -3h-57h-24q-21 0 -32 1q-20 0 -58 3q-6 -7 -6 -12
q0 -6 6 -14h1h2h1q5 0 6 -1q37 -3 41 -56v-66v-66v-66v-66v-61v-76v-76v-60q0 -53 -36 -94q-39 -41 -90 -41q-70 0 -107 40q-7 11 -7 16q0 10 14 19z" />
    <glyph glyph-name="k" unicode="k" horiz-adv-x="805" 
d="M451 680q-2 4 -2 12q0 19 20 34l-4 -3l14 13l-6 -7q11 10 41 24q27 14 50 19h2h3h1q0 2 1 5q2 4 2 6q0 1 -1 4q-2 5 -2 6q-33 -4 -60 -4h-17q-27 0 -59 4q-11 -7 -11 -10q0 -7 10 -11h1q6 0 6 -8q0 -2 -1 -4q-1 -4 -1 -6q-7 -16 -19 -31l-140 -126q-19 -13 -30 -13
q-14 0 -14 16v-8v29v29v29v29q2 60 48 60v1q1 1 2 3q4 7 4 10t-4 9l-2 3q-37 -3 -57 -3h-57h-24q-21 0 -34 1q-18 0 -57 3q-4 -9 -4 -12t4 -14h1h3q5 0 6 -1q38 -3 42 -56v-66v-66v-66v-66v-67v-66v-66v-66q-4 -51 -36 -56h-4q-1 -1 -2 -1h-4h-1h-1h1q-5 -6 -5 -12
q0 -7 6 -13q25 1 35 2h11v1q27 0 38 1h26h28q10 -1 37 -1q5 -1 21 -1q6 -1 17 -1q10 0 16 -1q6 8 6 12t-6 13q-6 0 -8 1h-2h-5h9q-48 0 -48 76v-75v80v80v80v80v6v6v7v6q0 20 15 42q14 24 33 42q26 20 51 20q24 0 41 -19l190 -381q3 -7 3 -29q0 -15 -10 -20h-2h-2h-3
q-5 -10 -5 -15q0 -6 5 -13q73 5 117 5q41 0 113 -5q7 9 7 13t-7 14h2h-2v1h-2h-1q-21 2 -43 17q-22 17 -30 30l10 -23l-16 33q0 -1 2 -3l-238 475l-22 43zM284 558l1 1t3 2l-5 -3l18 17zM349 618l10 9z" />
    <glyph glyph-name="l" unicode="l" horiz-adv-x="659" 
d="M229 222v228v65v65v65v65q2 60 49 60v1q1 1 2 3q4 7 4 10t-4 9l-2 3q-4 -1 -14 -1q-5 -1 -15 -1q-13 -1 -28 -1h-33q-10 -1 -24 -1q-10 0 -15 1h-15q-11 1 -29 1q-15 1 -28 1q-22 1 -28 1q-5 -6 -5 -12q0 -7 5 -13h4h2h1h2q1 -1 2 -1q37 -3 40 -56v-66v-67v-66v-65v-63
v-63v-65v-68h1v-2v-2v-3v-2q-4 -51 -36 -57h-2h-3h-5h-1q0 -1 -1 -1h1q-5 -6 -5 -12t6 -11q28 1 46 1q19 1 64 1h38h27v-1h11v-1h39h1h3h352q4 4 4 12q0 10 -4 14h-1q0 1 -1 4q-2 9 -5 17q-3 7 -5 22v9q-1 5 -1 10q0 24 6 51q-11 4 -18 4q-8 0 -16 -4v-3q-4 -21 -4 -30
q-9 -27 -58 -52q-50 -24 -94 -27l161 7v1l1 -1l2 -1l-209 -7h-129q-13 0 -27 2q-8 2 -8 36v-38v23v23v23v26h-1z" />
    <glyph glyph-name="m" unicode="m" horiz-adv-x="1324" 
d="M208 159q-6 -7 -22 -18q-19 -12 -28 -13h-4h-4h-2h-3q-6 -6 -6 -13q0 -8 6 -14q35 5 66 5q28 0 65 -5q8 8 8 14q0 4 -8 12v1h-6q-25 0 -25 30l93 226h-39zM444 650q16 29 25 31q12 0 37 -28l149 -230l-2 -8q6 -2 17 -2q7 0 14 1q4 1 6 1l104 258q11 21 20 21q5 0 10 -8
l9 -16v-1q0 -1 1 -1v1l115 -221q7 -14 20 -38q11 -20 15 -29q22 -44 34 -66q11 -22 35 -66q11 -22 35 -66q6 -11 6 -28q0 -22 -25 -28h-3q-1 -1 -2 -1h-3h-2h-1h1q0 -6 1 -10v-2q2 -5 13 -13q3 1 14 1q7 0 14 1q19 0 28 1q26 0 37 1h27q46 0 65 -1q6 -1 23 -1q5 0 16 -1
q11 0 16 -1q0 1 1 3v3v3l-1 3q-2 4 -12 12l-1 1q-6 0 -7 1h-4h-4h9q-51 0 -88 76l38 -75v1q-28 52 -41 79q-6 12 -21 40q-16 28 -22 40l-20 40l-21 40l-11 21q-20 38 -30 59q-20 35 -35 65q-12 21 -34 65q-5 10 -11 20q-15 30 -23 45q-4 7 -11 22q-15 29 -23 43
q-11 25 -11 38q0 22 28 22q0 1 1 1q0 10 -1 13q-4 7 -12 12h-6q-35 -2 -50 -2q-16 -1 -57 -1h-14h-10q-10 0 -23 1l12 -25l-65 -156q-10 -18 -22 -29q-3 -3 -10 -3q-8 0 -16 9l-84 119q-11 25 -11 39q0 22 26 22h2q0 5 -1 10q-1 2 -1 4q-1 4 -11 12q-31 -3 -56 -3h-33
q-10 -1 -25 -1q-7 0 -11 1h-9h-18q-12 0 -15 1h-14q-5 1 -9 1q-8 1 -10 1q-9 0 -11 1q-13 -7 -15 -12v-2q-1 -2 -1 -3t1 -5q1 -2 1 -3q3 0 12 -1q5 0 12 -1l-24 1q45 0 45 -32q0 -34 -7 -65l-118 -287h38zM433 707l22 59h1z" />
    <glyph glyph-name="n" unicode="n" horiz-adv-x="856" 
d="M788 746v40q0 24 20 34q10 4 17 4q3 0 8 -1t7 -1q18 -4 30 -11q3 -2 12 -14l4 -5q4 -3 4 -10t-6 -15q2 0 15 8t19 26q3 6 3 19q0 15 -13 30q-23 20 -62 23q-43 0 -72 -20q-31 -22 -31 -52v-1v-1v-2v-2v-468q-6 -20 -30 -20q-26 0 -63 37l-90 104q-60 69 -111 130
q-7 8 -25 31q-19 22 -29 34q-11 12 -32 38q-19 23 -23 27q-25 33 -25 46q0 14 21 14q0 1 2 1l-1 3q-3 7 -6 10q-4 6 -15 12q-37 -3 -55 -3h-57h-24q-21 0 -34 1h-21h-34q-37 2 -55 3q0 -8 5 -12q9 -9 17 -14h1h2h-1h1q5 0 7 -1h2h1h3q32 -5 32 -27q0 -12 2 -33q1 -11 1 -17
l1 4v-542q-6 -19 -35 -23h-2h-4v-1h-1h1q-5 -6 -5 -13t5 -15q35 4 61 4q24 0 59 -4q6 11 6 15q0 5 -6 14h-1h-2h-3q-28 3 -33 23v528q0 8 10 26q14 8 23 8q6 0 12 -3q17 -8 35 -27q49 -58 103 -121q48 -58 98 -116q19 -23 57 -67q36 -44 55 -66q18 -22 56 -66q13 -15 28 -33
t28 -33q20 -26 30 -52q6 -13 6 -20q0 -10 -7 -10q4 1 10 1t10 1h9h10v1h15h16h15h16l51 -3l-2 2q-22 17 -33 52q-10 36 -13 64v135v128v129v135z" />
    <glyph glyph-name="o" unicode="o" horiz-adv-x="711" 
d="M373 795q-133 0 -229 -102t-96 -245t96 -245t229 -102q134 0 230 102q96 104 96 245q0 140 -96 245q-96 102 -230 102zM244 736q11 3 35 3q69 0 146 -40q98 -52 149 -171q31 -74 31 -150q0 -38 -10 -85q-29 -117 -110 -131q-14 -4 -41 -4q-63 0 -131 36q-89 47 -138 166
q-37 86 -37 175q0 38 5 65q18 119 101 136z" />
    <glyph glyph-name="p" unicode="p" horiz-adv-x="605" 
d="M293 551q66 12 92 19q21 5 48 9q12 2 32 7q19 4 20 4q13 1 43 9q20 4 37 19q13 13 16 30q4 20 4 29q0 50 -40 84q-38 34 -120 34l-329 -3q-19 0 -55 3q-3 -10 -3 -12t3 -14h2h2q5 0 6 -1q37 -3 43 -56v-66v-66v-66v-66v-43v-43v-44v-45v-24q-1 -8 -1 -24v-23v-20
q-5 -50 -39 -56h-3h-2h-4l-1 -1h-1h-2h2q-4 -5 -4 -12q2 -9 5 -12q20 0 29 1q13 0 20 1h40h30h40h28q5 -1 15 -1q4 -1 14 -1h29q7 6 7 11t-7 13q-10 0 -15 1h9q-52 0 -52 76v-75v41v40v43v46h-1v217q0 9 13 18q10 10 25 13q16 4 25 6zM279 570q-11 -1 -19 -3q-30 0 -30 18
v165q0 20 30 20h133h2h1h3h1h3h1q29 0 64 -23q32 -23 32 -55q0 -26 -25 -59t-74 -40z" />
    <glyph glyph-name="q" unicode="q" horiz-adv-x="711" 
d="M526 143q78 44 124 125q49 82 49 180q0 140 -96 245q-96 102 -230 102q-133 0 -229 -102t-96 -245t96 -245t229 -102q65 0 131 29q29 -26 29 -47q0 -10 -8 -20q-10 -15 -46 -15q-35 3 -76 27q0 -6 33 -26q52 -29 108 -53q33 -14 55 -14q16 0 27 8q8 8 8 18q0 18 -23 52
q-34 49 -85 83zM460 159h-8q-7 -1 -9 -1q-68 0 -142 43q-81 51 -126 159q-37 86 -37 175q0 38 5 65q18 119 101 136q11 3 35 3q69 0 146 -40q98 -52 149 -171q31 -75 31 -151q0 -46 -9 -79q-27 -114 -105 -135l-1 1q-33 19 -46 44q-6 12 -6 23q0 10 6 19q13 17 39 17
q34 0 85 -29q0 5 -34 25q-49 28 -101 46q-24 8 -40 8q-19 0 -33 -11q-9 -7 -9 -21q0 -17 19 -47q34 -47 86 -77z" />
    <glyph glyph-name="r" unicode="r" horiz-adv-x="598" 
d="M443 564q5 17 33 23q11 1 24 5q9 3 31 11q15 6 24 15q23 20 24 47q0 51 -53 90q-55 40 -133 40l-298 -3q-19 0 -55 3q-1 -5 -3 -9l-1 -3l1 -3q2 -5 3 -11h1h3q5 0 6 -1q37 -3 43 -56v-66v-66v-66v-66v-43v-43v-44v-45v-24q-2 -8 -2 -24v-23v-20q-3 -50 -38 -56h-3h-2h-4
l-1 -1h-2h-1h1q-3 -6 -3 -12q2 -9 5 -12q20 0 28 1q14 0 20 1h40h30h40h29q5 -1 15 -1q4 -1 14 -1h29q7 6 7 11t-7 13q-10 0 -15 1h8q-51 0 -51 76v-75v41v40v43v46h-1v262q0 24 37 27h27q22 -1 46 -1q10 -1 30 -1q29 -6 29 -25v26h1q0 -11 -1 -16q0 -15 6 -71
q6 -64 19 -128q10 -69 33 -145q21 -74 54 -122q33 -50 74 -74q38 -22 60 -22q1 -1 7 -1q19 0 49 12q31 13 31 40q0 29 -27 47q-28 20 -46 20q-12 0 -12 -11q0 -1 1 -3q1 -4 1 -5q-3 -14 -24 -16q-25 0 -49 24l-1 2l-4 4q0 1 -2 3t-3 4q-28 39 -51 103q-24 68 -36 125
q-15 53 -24 121q-5 29 -6 50q-3 14 -5 36v2zM288 615h-17q-11 0 -12 -1q-30 0 -30 18v118q0 20 30 20h84h1h2q4 0 17 -1h12q3 -1 5 -1q25 0 54 -10q27 -8 49 -26q15 -17 17 -29q1 -5 1 -11q2 -11 2 -16q0 -27 -49 -45q-51 -17 -101 -17z" />
    <glyph glyph-name="s" unicode="s" horiz-adv-x="838" 
d="M496 788q-57 9 -118 9q-110 0 -179 -39t-75 -76l-1 -2h1q-5 -18 -5 -33q0 -60 67 -102q86 -53 203 -53v4v-4h2h3q129 0 237 -52q111 -52 120 -95q3 -7 3 -22q0 -30 -16 -75q-22 -54 -84 -86q-43 -21 -108 -28q-67 -8 -118 -8q-27 0 -72 5q-17 3 -30 5q-27 4 -36 6
q-30 4 -44 9q-18 5 -41 15q-57 25 -87 62q-12 10 -18 35q-1 5 -3 14q-2 10 -2 13q0 2 1 4v3q6 27 22 33q13 5 46 5q7 -4 14 -6q5 -3 10 -5q9 -4 12 -18q0 -16 -5 -20q-2 0 -2 -3q0 -2 10 -2q17 0 46 17q28 15 34 30l3 6q3 8 4 11v7v6q0 74 -102 80q-2 0 -11 1h-11
q-49 0 -83 -20q-41 -23 -41 -66v-2v-5v-5v-5q0 -17 11 -56q8 -36 30 -61q17 -22 45 -39q32 -20 55 -29q36 -18 97 -32q80 -18 148 -18q64 0 133 10q73 10 124 33q74 33 105 85q33 53 34 92v1q0 119 -128 206q-127 87 -303 87h-3h-2v-1q-60 2 -99 26q-42 25 -44 65h4
q6 26 56 44q48 19 123 19q70 0 115 -20q46 -20 63 -43l28 -54q15 -4 27 -4t24 4q-26 40 -41 78q-8 20 -13 40q-4 24 -6 39q-15 4 -27 4q-16 0 -24 -4q2 -9 4 -11q2 -9 3 -11l-7 22q2 -4 2 -11q0 -14 -18 -14q-29 0 -62 5z" />
    <glyph glyph-name="t" unicode="t" horiz-adv-x="891" 
d="M166 794q-9 0 -36 7l-1 -7h1h-2q0 3 1 6l1 2q-6 3 -16 3q-11 0 -19 -3q-11 -48 -21 -71q-14 -36 -35 -71q9 -3 17 -3q5 0 17 3q3 4 17 31l-4 -9q8 27 54 55t94 31l-6 1h31q11 -1 34 -1h31h32q33 -4 39 -56v-66v-66v-66v-66v-67v-66v-66v-66q-6 -52 -36 -56h-3
q-1 -1 -2 -1h-3h-2h-1h1q-5 -6 -5 -12q0 -8 5 -13q9 0 12 1q8 0 12 1q11 0 22 1q26 0 38 1h26q46 0 65 -1q8 -1 14 -1q10 0 13 -1q15 0 28 -1q5 5 5 12t-5 13q-6 0 -8 1h-3h-4h9q-49 0 -49 76v-75v1v79v80v80v80v65v65v65v65q6 60 49 60h27h30q19 0 29 1h29h-4q37 -1 79 -24
t58 -45q4 -11 22 -40q9 -3 18 -3q6 0 15 3q-18 31 -35 71q-14 35 -22 71q-7 3 -18 3q-9 0 -15 -3v-1q-25 -7 -35 -7q-25 -1 -73 -1q-25 -1 -74 -1h-74h-74h-72h-73q-51 0 -142 2h-3z" />
    <glyph glyph-name="u" unicode="u" horiz-adv-x="745" 
d="M543 209q-3 -26 -19 -42q-51 -39 -124 -39q-66 0 -114 33q-49 34 -55 82v51v51v52v51v65v65v65v65q3 60 48 60v1q6 8 6 13t-6 12q-37 -3 -56 -3h-58h-24q-21 0 -33 1q-19 0 -58 3q-1 -5 -3 -9l-1 -3l1 -3q2 -5 3 -11h1h3q5 0 6 -1q37 -3 43 -56v-66v-66v-66v-66v-51v-52
v-51v-51q5 -58 81 -99q74 -41 177 -41q75 0 134 22l-2 -4q-2 -5 -2 -7q0 -5 5 -13q23 1 36 2h11v1q26 0 37 1h26h28q11 -1 39 -1q5 -1 21 -1q5 0 16 -1q11 0 16 -1q7 9 7 12t-5 11l-2 2q-6 0 -7 1h-3h-5h9q-47 0 -47 76v-75v80v80v80v80v65v65v65v65q2 60 47 60v1q6 8 6 13
t-6 12q-37 -3 -56 -3h-59h-22q-22 0 -35 1q-21 0 -57 3l-3 -6q-3 -5 -3 -6q0 -3 4 -10l2 -4h2h2h-1h1q6 0 8 -1q34 -1 40 -56v-66v-66v-66v-66v-48v-48v-48v-47v1v-7v-5v-10v-9v-9v-9z" />
    <glyph glyph-name="v" unicode="v" horiz-adv-x="763" 
d="M683 811q14 -12 21 -25q1 -3 1 -11v-17q-1 -74 -30 -142q-22 -53 -60 -128q-33 -60 -60 -124q-25 -61 -25 -128q0 -22 -12 -28q-14 0 -33 37v-4q-6 11 -15 33q-5 12 -9 19q-15 31 -22 52q-6 11 -16 34q-7 14 -8 17q-5 9 -12 26q-8 17 -13 26q-10 21 -30 65q-17 36 -29 65
q-16 30 -30 65q-10 21 -30 65q-8 22 -8 35q0 25 28 25q0 1 2 1q0 4 -1 9q-1 3 -1 4q-1 3 -10 12q-17 -1 -56 -3h-15h-15h-14h-13h-24q-21 0 -34 1q-18 0 -59 3v-12q3 -8 12 -14h2h3q5 0 6 -1q40 -3 67 -56q9 -22 29 -66t31 -66q14 -33 30 -66q20 -44 32 -66q10 -23 30 -67
l30 -66l30 -66q20 -44 31 -66q6 -13 6 -32q0 -21 -17 -24h-9v-1h-1h1v-3q-1 -2 -1 -3l1 -3v-3q1 -5 11 -13q6 1 23 1q16 1 22 1v1q25 0 36 1h28h26q11 -1 39 -1q15 0 27 -1q4 -1 14 -1q4 -1 14 -1q0 1 1 3v3v3l-1 3q-2 5 -11 13h-3h-2q0 1 -2 1q-33 6 -33 23q0 1 4 10l3 9
q3 8 5 18v2q0 150 83 287q85 139 102 301v1v4v3v12q-1 31 -37 54q-34 20 -74 20q-78 -8 -78 -79q0 -9 4 -19q8 -29 38 -29q15 0 31 14q16 13 16 30q0 4 -2 8q0 2 -5 5q-15 11 -15 17t5 6q3 1 6 1q13 0 44 -14z" />
    <glyph glyph-name="w" unicode="w" horiz-adv-x="1044" 
d="M723 779q-3 -74 -25 -134q-34 -82 -54 -124q-11 21 -21 47q-6 11 -17 35l-5 11q-5 10 -9 19q-9 20 -12 28q-5 10 -7 16q-9 18 -15 31q-8 22 -8 34q0 26 28 26l1 1v13q-1 4 -13 12h-6q-33 -2 -49 -2q-12 -1 -32 -1h-25h-24q-21 0 -34 1q-19 0 -58 3q0 -1 -1 -4
q-1 -2 -1 -3q0 -2 2 -5q2 -7 12 -14h1h3q5 0 6 -1q39 -3 68 -56q12 -33 30 -66l30 -66q20 -44 31 -66l30 -66q9 -21 30 -66q-15 -38 -24 -73q-7 -32 -7 -73q0 -22 -13 -28q-14 0 -32 37v-4q-12 22 -24 52q-7 14 -20 45l-3 7q-16 34 -23 51q-7 14 -19 40l-6 12q-10 21 -30 65
q-17 36 -29 65q-16 30 -30 65q-10 21 -30 65q-9 25 -9 35q0 25 29 25q0 1 1 1q0 4 -1 9v4q-1 3 -10 12q-21 -2 -56 -3h-15h-15h-14h-14h-24q-21 0 -33 1q-20 0 -59 3v-12q1 -6 11 -14h3h2q5 0 6 -1q39 -3 68 -56q9 -22 29 -66t31 -66q14 -33 30 -66q20 -44 31 -66
q10 -23 30 -67l30 -66l30 -66q20 -44 31 -66q7 -13 7 -32q0 -21 -18 -24h-9v-1h-1h1v-3q-1 -2 -1 -3l1 -3v-3q3 -7 12 -13q5 1 23 1q16 1 22 1v1q25 0 36 1h27h27q11 -1 38 -1q15 0 28 -1q4 -1 14 -1q3 -1 13 -1q0 1 1 3t1 3t-1 3t-1 3q-2 5 -11 13h-2h-3q0 1 -1 1
q-34 6 -34 23q4 8 8 19l1 6q2 10 4 14q0 68 22 137q4 -10 5 -10q6 -16 11 -25q9 -23 17 -37q16 -41 32 -71q8 -21 8 -33q0 -20 -18 -23h-2h-3h-2h-3v-1h-2h2v-3q-1 -2 -1 -3l1 -3v-3q1 -6 11 -12h13q7 0 11 1q11 0 23 1h-2q27 0 38 1h27q45 0 64 -1q16 0 28 -1q7 -1 14 -1
q11 0 14 -1q0 1 1 3t1 3t-1 3t-1 3q-1 2 -12 13h-3h-1q0 1 -2 1h1h-1q-33 6 -33 23q1 2 2 5q2 8 4 14q3 6 5 20q0 147 83 287q85 142 101 301h1v7v6q0 3 2 4v3h-2q-3 29 -37 54q-15 11 -32.5 15.5t-41.5 4.5q-76 -6 -76 -79q0 -11 2 -19q8 -29 38 -29q15 0 31 14
q16 13 16 30v4q-1 1 -1 3h1q-13 15 -13 22t5 9q2 3 8 3q11 0 33 -14q6 -8 15 -19q7 -10 7 -21h2q-5 -79 -32 -144q-23 -59 -60 -134q-40 -78 -58 -130q-25 -57 -25 -131q-3 -22 -14 -28q-14 0 -33 37l2 -3q-13 26 -24 51q-6 11 -15 33q-5 12 -9 19q-10 26 -24 51
q-13 27 -23 52l-9 21q-3 6 -3 7l5 12q18 40 27 59q15 35 30 72q30 78 38 150v1v2q0 52 -46 79q5 -13 5 -23v-4q-1 -4 -1 -5q-3 -6 -3 -22q0 -3 1 -8q1 -7 1 -10z" />
    <glyph glyph-name="x" unicode="x" horiz-adv-x="624" 
d="M106 146q3 70 62 120q57 50 120 117q3 -7 15 -33l8 -16q1 -3 8 -17q10 -23 16 -34q1 -3 8 -17q10 -23 16 -34q4 -9 13 -29l9 -20q8 -22 8 -34q0 -19 -16 -22h-3q-1 -1 -2 -1h-4h-1h-2h2q0 -1 -1 -4q-1 -2 -1 -3q0 -2 2 -5q1 -5 11 -13q19 1 36 2h9v1q25 0 36 1h28h27
q11 -1 38 -1q6 -1 23 -1q6 -1 17 -1q10 0 16 -1q0 1 1 3v3v3l-1 3q-1 3 -11 11l-2 2q-5 0 -7 1h-3h-3h8q-49 0 -85 76l35 -75q-5 11 -18 40q-14 29 -19 40q-12 23 -29 59q-3 7 -10 21q-7 17 -22 50q-9 20 -14 30q-9 18 -19 40t-19 40q-1 2 -3 8q-4 6 -5 11q68 73 122 152
q51 74 65 161q1 1 1 11v1v1q-1 45 -56 56q15 -24 16 -56h-1q-9 -82 -55 -156t-107 -141q-12 22 -25 52q-11 21 -25 54q-9 18 -25 54q-12 22 -24 52q-9 23 -9 36q0 24 28 24q0 1 1 1q0 4 -1 9v4q-4 6 -10 12q-40 -3 -57 -3h-57h-24q-21 0 -34 1q-20 0 -58 3v-12q2 -4 11 -14
h2h3q6 0 7 -1q37 -3 67 -56q20 -44 31 -66q20 -44 31 -66q20 -44 31 -66q20 -44 32 -66q2 -8 7 -18l2 -4l2 -4q1 -1 3 -4t2 -5q-82 -83 -141 -131q-68 -56 -68 -139h3q2 -40 63 -51q-4 8 -15 24q-6 9 -10 30z" />
    <glyph glyph-name="y" unicode="y" horiz-adv-x="754" 
d="M561 435q0 83 72 162q70 81 103 169q2 1 2 9q0 44 -68 58q1 -2 4 -6q3 -5 5 -8q3 -7 10 -16q11 -20 11 -38q-23 -86 -99 -156q-72 -69 -72 -150q0 -15 -13 -16q-15 0 -32 24v-2q-26 35 -46 67q-13 17 -24 33q-5 6 -15 20q-6 9 -10 14q-35 47 -55 70q-27 30 -55 71
q-9 15 -9 21q0 2 1 4q5 4 28 4v5q0 6 1 6q0 3 -1 6v2q-2 2 -11 8h-1q-19 -2 -27 -5q-13 -3 -27 -3h-24h-34q-16 0 -29 1q-10 1 -28 1q-13 0 -30 3q-13 2 -30 3q-3 -2 -3 -7q0 -4 4 -7q7 -10 11 -12h5h1h2h1h1q13 -1 33 -4l5 -1q13 -4 31 -22l6 -9q31 -44 49 -64
q23 -26 57 -71q13 -20 29 -41q13 -20 29 -41q20 -28 30 -41q7 -11 12 -18q11 -16 15 -23h2q19 -27 25 -57v-49v-47v-48v-51q-6 -52 -37 -56h-10v-1h-1h1q-5 -7 -5 -12q0 -8 5 -13q6 1 24 1q16 1 23 1v1q26 0 37 1h26h28q11 -1 37 -1q15 0 28 -1q3 0 13 -1q6 0 13 -1
q6 6 6 12t-6 13q-6 0 -7 1h-3h-4h8q-48 0 -48 76v-75v12v31v42v43v38v31v11v-16q0 30 14 56q14 30 16 59z" />
    <glyph glyph-name="z" unicode="z" horiz-adv-x="788" 
d="M625 101q25 -1 45 -1q15 0 49 -6l-1 1h1q9 0 19 3q0 34 8 59q5 23 25 57q-7 6 -16 8q-12 0 -21 -4q-8 -14 -8 -16q-19 -27 -60 -48q-38 -22 -80 -25h-47h-49q-31 0 -47 1h-49h-28q-8 -1 -27 -1h-28h-26q-9 3 -9 14q0 20 28 60l-51 -74q13 19 39 56l17 24q13 18 43 61
l13 18q23 35 55 80l17 24q27 37 39 56q17 21 47 65q9 13 19 26q18 27 27 39q25 38 45 65q15 21 45 65q47 60 91 60q0 1 1 1q11 7 15 13q3 5 3 12q-6 -1 -15 -1q-5 -1 -11 -1v2v1q-15 -1 -45 -1h-47h-45q-15 -1 -43 -1q-4 0 -5 1h-7h-6q-4 0 -5 1l-2 -2q-32 0 -58 -1h-3
q-34 -2 -53 -2q-34 0 -98 2q-32 0 -48 1h-49l1 1q-17 1 -35 1q-12 1 -17 1q-9 0 -48 4q-4 1 -9 1q-7 5 -15 7q-6 0 -20 -3q-2 -40 -7 -60q-5 -17 -25 -58q8 -7 17 -7l5 -1q4 0 14 4q4 9 8 13l-2 -3q0 2 2 2v2v1t1 2q0 1 1 2q14 25 51 45q37 22 82 23l-90 1q46 -1 141 -1h139
h25h25h25h25v-1h1h2h-1h1q5 0 7 -1q16 0 16 -16q0 -14 -15 -40q-16 -22 -46 -66q-13 -17 -32 -44q-9 -13 -16 -22q-16 -22 -46 -66q-16 -22 -46 -66q-17 -23 -47 -67q-4 -5 -23 -33q-20 -27 -24 -33q-30 -44 -46 -66q-17 -22 -47 -66q-38 -47 -71 -55h-4h-3h-4q-1 -1 -3 -1
v-1h-2h2q-12 -7 -15 -12q-3 -3 -3 -8q1 -3 1 -5q2 0 4 1h3h5q4 0 5 1v-1v-1h49q34 0 50 1h49h50v1h10q4 0 5 -1q17 0 26 1h26h53h57q39 0 59 -1h58q18 -1 57 -1zM651 128h22h31h-53z" />
    <glyph glyph-name="braceleft" unicode="{" horiz-adv-x="286" 
d="M224 0q-31 58 -50 143q-19 86 -24 180q0 33 -32 50q-37 20 -45 27q12 0 44 26q33 27 33 56q9 121 40 209q33 91 76 142q-64 -26 -111 -122q-47 -95 -59 -230q0 -1 1 -3q1 -3 1 -4q0 -21 -32 -39q-38 -20 -47 -33q2 -20 43 -36q37 -17 37 -39v-3q-1 -3 -1 -4
q9 -104 43 -193q35 -86 83 -127z" />
    <glyph glyph-name="bar" unicode="|" horiz-adv-x="98" 
d="M30 800v-765h43v765h-43z" />
    <glyph glyph-name="braceright" unicode="}" horiz-adv-x="286" 
d="M64 0q49 44 81 127q35 86 45 193v4q-1 3 -1 4q0 23 35 38q42 17 45 36q-12 14 -48 33q-31 16 -31 37q0 1 1 5v4q-12 131 -59 230q-46 96 -112 122q44 -50 77 -142q31 -92 41 -209q0 -30 31 -56q32 -26 46 -26q-12 -9 -46 -27q-31 -18 -31 -50q-8 -101 -26 -180
q-20 -86 -48 -143z" />
    <glyph glyph-name="asciitilde" unicode="~" horiz-adv-x="563" 
d="M260 848v-2v-1q0 -36 41 -60t98 -24t97 24q42 24 42 60q0 5 -2 9q-5 -25 -36 -41q-31 -18 -76 -18q-89 0 -110 53v1v2q0 34 -40 60q-42 24 -99 24q-58 0 -97 -24q-40 -25 -40 -60v-10q3 25 36 42t76 17q89 0 110 -52z" />
    <glyph glyph-name="quoteleft" horiz-adv-x="164" 
d="M46 836q15 -9 37 -9q66 0 66 53t-66 53q-46 0 -63 -35q0 -2 -2 -7v-3q-2 -1 -2 -3v-7q-1 -5 -1 -7q0 -28 13 -54q12 -35 56 -49q-4 8 -16 25q-1 1 -5 6q-14 14 -17 37z" />
    <glyph glyph-name="quoteright" horiz-adv-x="164" 
d="M116 836q-1 -21 -16 -37q-14 -17 -21 -31q41 14 56 49q13 29 13 55q0 2 -1 7q-1 4 -1 6q-1 2 -1 6q0 1 -1 3q0 2 -1 4q-18 35 -63 35q-66 0 -66 -53t66 -53q21 0 36 9z" />
    <glyph glyph-name="quotedblleft" horiz-adv-x="329" 
d="M56 836q15 -9 37 -9q66 0 66 53t-66 53q-46 0 -63 -35q0 -2 -2 -7v-3q-2 -1 -2 -3v-7q-1 -5 -1 -7q0 -28 13 -54q12 -35 56 -49q-4 8 -16 25q-1 1 -5 6q-14 14 -17 37zM214 836q15 -9 36 -9q66 0 66 53t-66 53q-45 0 -62 -35q-3 -4 -3 -7q-2 -4 -2 -7l1 1v-8q-1 -5 -1 -9
q0 -28 11 -51q15 -35 57 -49q-7 14 -21 31q-14 15 -16 37z" />
    <glyph glyph-name="quotedblright" horiz-adv-x="329" 
d="M281 836q-1 -21 -16 -37q-15 -17 -21 -31q41 14 56 49q11 25 11 54v8q-1 5 -1 6q-1 2 -1 6q0 3 -3 7q-17 35 -61 35q-66 0 -66 -53t66 -53q20 0 36 9zM124 836q-1 -18 -16 -37q-17 -19 -22 -31q42 14 57 49q11 28 11 54v8q-1 5 -1 6v6q-2 1 -4 7q-17 35 -61 35
q-67 0 -67 -53t67 -53q20 0 36 9z" />
    <glyph glyph-name="sterling" unicode="&#xa3;" horiz-adv-x="1438" 
d="M159 508q-46 -1 -69 -3q10 -8 10 -13t-10 -15q21 4 38 5q14 1 37 5q5 -20 13 -62q1 -12 1 -36v-15q-1 -9 -1 -17q-7 -50 -13 -79q-8 -41 -12 -79q-12 -60 -43 -67q-1 -1 -5 -1h-5v-1h-1h1q-5 -4 -5 -14t5 -15q4 0 14 1q25 1 32 1v1h15h17q7 1 32 1h16q5 -1 17 -1h16h16
q73 0 148 -3q67 -4 146 -4q36 0 62 20q24 18 27 47q-3 -16 -28 -29t-61 -13q-62 0 -125 7q-58 5 -103 5h-15q-12 -1 -15 -1q-30 8 -30 58q0 4 1 14q2 11 2 17q-3 -20 -6 -60l-3 -29q6 64 11 96l15 96q4 17 4 49q0 25 -4 44q-3 31 -17 80q15 1 43 3l42 3q12 1 39 2q29 2 45 2
q-13 6 -13 13q0 6 13 15l-11 -1q-55 -8 -77 -10l-7 -1q-55 -5 -79 -7q-18 52 -25 79q-12 36 -14 84h4q-1 3 -1 15q0 86 36 147t82 61q39 0 65 -26q14 -16 14 -31q0 -14 -7 -25q-24 -18 -24 -43q0 -27 26 -45q23 -19 61 -19q37 0 63 19q25 19 25 45q0 58 -80 107
q-82 50 -148 50q-102 0 -172 -70q-73 -70 -73 -170v-3v-3q0 -49 17 -90q11 -29 31 -91z" />
    </font>
</defs>
</svg>
