<?xml version="1.0" standalone="no"?>
<!DOCTYPE svg PUBLIC "-//W3C//DTD SVG 1.1//EN" "http://www.w3.org/Graphics/SVG/1.1/DTD/svg11.dtd" >
<svg>
<metadata>
Created by FontForge 20120731 at Sun Oct 18 18:19:28 2015
 By ,,,
(c) Copyright PJ Lloyd 1995
</metadata>
<defs>
<font id="BirminghamElongated" horiz-adv-x="356" >
  <font-face 
    font-family="BirminghamElongated"
    font-weight="400"
    font-stretch="normal"
    units-per-em="1000"
    panose-1="2 11 5 0 0 0 0 0 0 0"
    ascent="800"
    descent="-200"
    x-height="695"
    cap-height="833"
    bbox="-1 -144 644 927"
    underline-thickness="0"
    underline-position="0"
    unicode-range="U+0020-00A3"
  />
<missing-glyph horiz-adv-x="502" 
d="M-1 0h500v500h-500v-500zM9 10v480h480v-480h-480z" />
    <glyph glyph-name=".notdef" horiz-adv-x="502" 
d="M-1 0h500v500h-500v-500zM9 10v480h480v-480h-480z" />
    <glyph glyph-name="space" unicode=" " horiz-adv-x="281" 
 />
    <glyph glyph-name="exclam" unicode="!" horiz-adv-x="95" 
d="M53 104q-31 0 -31 -53q0 -52 31 -52q32 0 32 52q0 53 -32 53zM66 132q0 66 1.5 120.5t5.5 113.5q9 134 12 214q0 132 -6.5 191.5t-20.5 62.5q-19 0 -30 -57q-7 -38 -7 -111q0 -26 2 -75v-11q0 -35 3 -94q2 -61 6 -125q3 -66 6 -129t3 -105q6 5 6 12q0 6 7 6t7 -2v-1
q0 -2 -1 -2q0 -3 6 -8z" />
    <glyph glyph-name="quotedbl" unicode="&#x22;" horiz-adv-x="130" 
d="M11 833v-32q0 -19 1 -38v-20q0 -28 5 -55q4 -25 12 -25q9 0 13 25q4 31 5 55v59v31q-8 -7 -18 -7t-18 7zM74 833v-32v-58q2 -31 6 -55q4 -25 13 -25t12 25q5 27 5 55v59v31q-8 -7 -18 -7t-18 7z" />
    <glyph glyph-name="numbersign" unicode="#" horiz-adv-x="352" 
d="M247 692q-3 -43 -6 -98t-6 -98h-22h-21h-24h-24q2 32 7 90l1 8q2 22 4 49t4 49q-7 -5 -11 -5q-5 0 -10 5q-1 -22 -3 -49t-3 -49t-3 -49t-3 -49q-25 0 -37 1q-25 0 -37 1v-16q0 -3 -3 -11q-1 -3 -2 -5q26 0 38 1q25 0 38 1q-2 -40 -4 -61q-2 -40 -4 -61q-1 -15 -3 -47
q-1 -11 -2 -24t-2 -24q-25 0 -37 1t-37 1q0 -7 -1 -12v-4q-2 -10 -4 -16q9 1 20 1q10 0 19 1h38q-2 -37 -8 -111l-9 -111q7 5 10 5q4 0 9 -5q3 37 7 111q2 25 4 56t4 56h23h22h23q8 -1 24 -1l-9 -111q-6 -72 -8 -112q5 5 10 5q4 0 9 -5q0 8 4 56q3 48 3 56q1 11 4 55
q2 44 3 55q17 -1 38 -1q21 -1 38 -2q0 2 -1 5v3q0 2 1 6v4q2 8 6 18q-9 -1 -20 -1q-16 -1 -20 -1q-13 -1 -39 -1q0 24 3 48q1 10 2 23q0 13 1 23q1 13 2 30t2 30q4 40 5 61q9 -1 19 -1t19 -1q13 -1 38 -1q0 8 1 14v4q0 5 5 18q-9 -1 -20 -1t-20 -1q-13 -1 -39 -1q1 15 3 46
q3 33 4 51l1 8q5 58 7 90q-7 -5 -11 -5q-5 0 -10 5zM218 252q-8 -1 -22 -1h-22h-24h-24l3 48q2 32 4 47q1 9 2 29q2 21 2 32q1 11 3 31q1 20 2 30h23h23h22q8 -1 23 -1q-2 -20 -4 -60q-1 -10 -2 -30q-2 -20 -3 -31q-1 -15 -3 -47t-3 -47z" />
    <glyph glyph-name="dollar" unicode="$" horiz-adv-x="421" 
d="M208 828q0 -5 -2 -33q-2 -27 -3 -33q-1 -15 -2 -33t-2 -33h-5h-4q-53 0 -86 -39q-33 -40 -36 -77v-1v-3q-2 -22 -2 -31q0 -59 32 -102q33 -43 80 -51q-1 -7 -3 -27q-4 -55 -12 -163q-3 -36 -7 -81t-7 -81h-1q-18 6 -21 9q-5 2 -15 12l-5 4q-27 24 -42 61q-5 10 -8 36v4
q-2 17 -2 23v6q3 28 10 34q8 5 23 5l3 -3l2 -2q0 -1 1 -2l5 -5q3 -4 6 -18q0 -14 -3 -19l-1 -3q0 -3 5 -3q8 0 22 17q15 15 16 31q2 5 4 17v3v3v3v4q0 72 -49 80q-1 0 -4 1h-5q-26 0 -41 -20q-20 -25 -20 -67v-2v-2v-2v-3v-3v-3v-2q0 -14 5 -56q5 -39 14 -61q7 -22 22 -38
q17 -22 27 -30q19 -19 46 -31q1 0 3 -1q1 0 2 -1l-6 -57q-1 -19 -5 -57q10 7 16 7q7 0 15 -7q1 11 2 26q0 15 1 26q2 34 4 51q22 -5 39 -5q31 0 64 10q36 9 60 33q33 30 50 84q16 54 16 93q0 121 -61 207q-57 78 -132 85v6q4 49 7 71q2 25 6 77q28 -3 45 -19q22 -19 31 -44
l13 -54q8 -3 13 -3q6 0 12 3q-14 46 -20 79q-4 22 -6 40q-1 17 -3 39q-9 3 -14 3t-11 -3q0 -4 2 -12q2 -7 2 -10l-4 21q2 -4 2 -11q0 -14 -9 -14q-15 0 -30 5l-21 6q1 15 3 34t3 34t3 34t3 34q-8 -7 -15 -7q-8 0 -15 7zM202 391q57 -3 110 -53q52 -52 57 -94q1 -7 1 -23
q0 -35 -7 -74q-10 -55 -40 -86q-20 -21 -52 -29q-35 -8 -57 -8q-16 0 -34 5q-1 0 -2 1h-2l12 168q4 55 12 167q0 1 1 6v7q0 1 1 6v7zM197 666q-1 -12 -2 -38l-3 -39q-1 -17 -3 -38t-3 -38q-22 5 -38 26q-21 24 -21 64h1q3 26 27 45q18 14 42 18z" />
    <glyph glyph-name="percent" unicode="%" 
d="M305 695q-28 -75 -68 -173q-46 -116 -70 -173q-10 -25 -44 -109q-17 -43 -26 -64q-48 -116 -71 -173q9 6 16 6q6 0 11 -6q12 29 40 100q15 40 28 73q10 24 20 49q35 88 50 124q9 21 26 64q34 84 44 109q24 57 72 173q-10 -7 -16 -7t-12 7zM117 697q-36 0 -62 -45
q-25 -44 -25 -108t25 -108q26 -45 62 -45q37 0 62 45q25 44 25 108t-25 108q-25 45 -62 45zM117 663q9 0 24 -33q16 -32 16 -81q0 -50 -16 -86q-15 -37 -24 -37t-23 36q-15 36 -15 84q0 49 15 83q13 34 23 34zM238 304q-36 0 -62 -45q-25 -44 -25 -108q0 -65 25 -108
q26 -44 62 -44q35 0 61 44t26 108q0 62 -26 108q-25 45 -61 45zM238 269q9 0 25 -36q18 -36 18 -85t-18 -82q-16 -34 -25 -34t-24 35t-15 84t15 83q15 35 24 35z" />
    <glyph glyph-name="ampersand" unicode="&#x26;" horiz-adv-x="429" 
d="M305 127l-23 55l-24 55q-11 25 -24 55t-24 55l-3 6q-2 4 -2 7l-47 108q-1 0 -1 1q-8 18 -11 27q-4 12 -4 31v12q-1 10 -1 12q0 52 17 77q20 34 49 38q33 0 55 -21q27 -24 34 -73h-1q1 -3 1 -11v-4q1 -4 1 -6q0 -14 -4 -26q-4 -22 -14 -30q-8 -14 -19 -22q8 -3 16 -3
q28 0 43 29v-1q13 32 13 68q0 29 -9 59q-19 65 -100 70q-58 0 -97 -49q-40 -49 -40 -119q0 -39 17 -81l8 -18q18 -40 27 -59l-27 -22q-33 -24 -54 -67q-20 -41 -20 -96q0 -78 40 -130q42 -54 99 -54q1 0 5 -1h4q22 0 41 18q30 28 46 42q1 -3 1 -5q3 -12 3 -17q0 -12 -5 -12
h-5v-1q0 -6 3 -12q3 -7 8 -12q7 0 11 1q7 0 10 1q13 1 31 1q24 0 31 -1q3 0 14 -1q6 0 13 -1q0 4 -2 12q-3 5 -9 12q-1 1 -7 1h4q-25 0 -56 76l24 22q38 33 52 54q13 19 24 46zM260 88q-33 -55 -73 -55q-21 0 -39 14q-61 41 -63 162q0 59 31 102l32 37v-1q38 -86 56 -129
q30 -68 56 -130zM317 101l32 -74l-6 15q-7 15 -10 22q-6 12 -8 18q-3 6 -8 19z" />
    <glyph glyph-name="quotesingle" unicode="'" horiz-adv-x="73" 
d="M7 833v-5q-1 -14 -1 -27q0 -19 1 -38v-20q0 -28 5 -55q4 -25 13 -25q8 0 12 25q3 17 5 55v18q1 23 1 41q-1 18 -1 31q-10 -8 -18 -8q-7 0 -17 8z" />
    <glyph glyph-name="parenleft" unicode="(" horiz-adv-x="104" 
d="M72 0q-17 69 -27 169q-10 94 -10 214q0 152 16 268q16 119 41 182q-35 -29 -59 -149q-23 -124 -23 -281q0 -142 17 -244q18 -109 45 -159z" />
    <glyph glyph-name="parenright" unicode=")" horiz-adv-x="112" 
d="M37 0q27 50 45 159q18 108 18 244q0 160 -24 281t-60 149q25 -61 42 -182q16 -116 16 -268q0 -120 -10 -214q-10 -100 -27 -169z" />
    <glyph glyph-name="asterisk" unicode="*" horiz-adv-x="95" 
d="M53 717q18 -45 25 -45q3 0 5 7q2 3 2 10q0 19 -21 56q22 31 22 51q0 6 -1 9q-2 5 -6 5q-8 0 -26 -41q0 6 1 15v11q0 39 -9 39t-9 -34v-9q1 -8 1 -13q-17 32 -23 32q-4 0 -5 -6q-1 -2 -1 -8q0 -20 22 -51q-20 -35 -20 -57v-4q1 -3 1 -4q2 -8 5 -8q5 0 20 35v-11
q-1 -8 -1 -9q0 -40 10 -40q9 3 9 45v11q-1 8 -1 14z" />
    <glyph glyph-name="plus" unicode="+" horiz-adv-x="395" 
d="M128 350v-2q-30 0 -45 1q-9 1 -21 1q-13 0 -22 1q0 -8 -1 -15v-5q-1 -5 -4 -14q0 -1 -1 -5q30 0 45 1q31 0 46 1v-1v-1l21 1v1h7h7l16 1v-1h9h8v-19q-1 -17 -1 -20v-19q-1 -17 -1 -20h-1l-2 -44h1q-2 -64 -4 -97q-2 -64 -4 -97q9 9 14 12q3 2 13 2q0 45 1 68q0 45 1 68
h-1l3 93v37q0 3 1 18v18h21q7 -1 22 -1h45v-1q11 -1 34 -1q7 -1 17 -1q9 0 16 -1q0 8 1 17v5q1 10 6 22q-11 -1 -24 -1t-24 -1t-23 -1q-20 -1 -24 -1v1h-22v-1q-8 -1 -22 -1h-22v4q1 6 1 26q0 11 1 25h-1l2 34q0 21 1 27l2 43h-1q1 21 2 47q0 26 1 47q2 62 4 94
q-7 -9 -12 -12q-3 -2 -7 -2h-2q-2 1 -3 1q-1 -20 -1 -45t-1 -45q0 -30 -2 -90h-1l-1 -44l1 1v-28q-1 -23 -1 -28q-1 -13 -1 -27q-1 -23 -1 -28h-22h-23v1v1h-21z" />
    <glyph glyph-name="comma" unicode="," horiz-adv-x="86" 
d="M58 7q-1 -19 -8 -37q-7 -14 -10 -31q19 13 27 49q0 2 1 3q5 35 5 52v7q-1 5 -1 6v2l-1 1v3q0 4 -1 7q-8 35 -30 35q-32 0 -32 -53q0 -52 32 -52q10 0 18 8z" />
    <glyph glyph-name="hyphen" unicode="-" horiz-adv-x="395" 
d="M128 350v-2q-30 0 -45 1q-9 1 -21 1q-13 0 -22 1q0 -8 -1 -15v-5q-2 -9 -6 -19q31 0 46 1q31 0 46 1v-2l21 1v1h7h7l16 1v-1h13h12h27q9 -1 28 -1h45v-1q11 -1 34 -1q7 -1 17 -1q9 0 16 -1q0 8 1 17v5q1 8 6 22q-32 -2 -48 -2q-11 -1 -23 -1q-20 -1 -24 -1v1h-22v-1
q-9 -1 -26 -1h-26h-28h-29v1v1h-21z" />
    <glyph glyph-name="period" unicode="." horiz-adv-x="84" 
d="M40 104q-32 0 -32 -53q0 -52 32 -52t32 52q0 53 -32 53z" />
    <glyph glyph-name="slash" unicode="/" horiz-adv-x="151" 
d="M109 692q-15 -107 -23 -172q-16 -116 -25 -174q-1 -8 -12 -86q-12 -78 -13 -86q-2 -10 -12 -81q-8 -50 -14 -92q7 4 14 4q5 0 12 -4q8 57 24 173q9 57 22 153l3 19q6 39 13 87t13 87q6 38 14 86q7 48 13 86q-8 -4 -15 -4t-14 4z" />
    <glyph glyph-name="zero" unicode="0" horiz-adv-x="358" 
d="M187 696q-65 0 -110 -102q-46 -102 -46 -245q0 -146 46 -245q45 -102 110 -102t110 102q46 101 46 245q0 143 -46 245q-45 102 -110 102zM180 654q33 -4 66 -78q31 -72 34 -198q0 -131 -28 -230q-27 -99 -64 -99q-35 5 -64 71q-28 65 -30 191q0 69 6 126.5t18 110.5
q24 106 62 106z" />
    <glyph glyph-name="one" unicode="1" horiz-adv-x="150" 
d="M20 23h-4q-1 0 -1 -1h-1h1q-2 -4 -2 -10t3 -11q7 0 10 1q8 0 12 1h7h8q5 0 7 1h8h8h8h8q2 -1 8 -1q4 -1 12 -1q5 -1 13 -1q3 6 3 12q0 5 -3 12q-2 0 -3 1h-4h3h1q-22 0 -22 73v-36v-36v77v78v77v78v63v63v63v63q0 59 22 73v1q3 11 3 15q0 6 -3 10q-5 -3 -6 -5
q-2 -1 -7 -5q-8 -6 -14 -10q-12 -9 -27 -19q-3 -2 -11 -7q-11 -6 -17 -10l-4 -2q-6 -5 -10 -6q-2 -2 -7 -4q-4 -2 -6 -4q-3 -9 -3 -12q0 -4 3 -10q1 0 1 1v-1v1q2 0 2 1h2q1 0 3 1h2q12 0 15 -40v-61v-59v-61v-60v-60v-61v-60v-60q-3 -44 -18 -52z" />
    <glyph glyph-name="two" unicode="2" horiz-adv-x="346" 
d="M107 674h-1l-2 -1q-8 0 -17 12v1q-6 7 -10 10l-3 1h-3h-2q-3 -1 -4 -1q-2 -46 -6 -64q-4 -27 -15 -59q5 -8 11 -10q1 -2 6 -2q1 0 3 1h3q3 11 6 20q11 25 30 47q17 21 37 28l-10 -3q31 11 63 11q47 0 68 -30q20 -30 20 -60q-3 -54 -42 -59v1q-99 0 -155 -144
q-55 -141 -56 -355v-4v-5q1 -5 1 -8q15 2 37 4q21 2 36 4q36 3 73 3q59 0 129 -9v-1q6 -2 9 -2q4 0 6 1h1h2q-1 0 -1 1h1q-3 35 -3 57t3 56q-4 3 -9 3q-4 0 -9 -3q0 -4 -1 -14q-1 -9 -1 -11q-7 -49 -40 -55q-57 5 -89 5q-16 0 -48 -2q-10 -1 -23 -2q-14 -1 -24 -2
q-26 0 -26 38v12q18 131 57 219q39 87 117 94v1q32 2 66 45t34 122v3v3q0 40 -39 82q-37 42 -94 42q-27 0 -54 -8q-8 -1 -18 -7l-3 -1q-3 -2 -4 -2l-3 -1q-3 -2 -4 -2z" />
    <glyph glyph-name="three" unicode="3" horiz-adv-x="251" 
d="M119 398v-2q-2 -8 -2 -11q0 -4 2 -10q1 -3 1 -10q0 1 1 1q31 0 41 -55q10 -53 10 -148q0 -89 -48 -167q-48 -76 -77 -82h6q18 0 49 24q36 30 60 65q28 37 52 89q21 50 21 101q0 98 -30 153t-64 63q5 22 18 59q3 8 14 40q10 29 14 40q15 41 27 78q12 36 12 54v2v2v6
q-1 4 -1 7l-7 -1q-28 -5 -43 -7q-25 -3 -50 -3q-40 0 -90 8l1 1l-6 3q-2 0 -4 -1h-2v-1q0 -1 -1 -1q3 -33 3 -56q0 -24 -3 -56q4 -3 10 -3q3 0 7 3q1 4 1 13q0 1 1 6v6q5 49 28 56q10 -2 28 -4t28 -2q20 0 26 1q3 1 9 2q15 2 16 2q11 -1 15 -3q4 0 4 -25q0 -7 -11 -40
q-4 -13 -11 -31q-10 -29 -12 -36q-9 -24 -25 -70q0 -1 -1 -3q-13 -38 -15 -48q-1 -1 -1 -2q0 -2 -1 -3v-4z" />
    <glyph glyph-name="four" unicode="4" horiz-adv-x="286" 
d="M152 200q-4 -21 -18 -21l2 -1q-25 0 -38 -1q-12 -1 -37 -1q-12 2 -14 12q0 17 10 44l-23 -58q3 9 16 39q19 47 24 60q13 34 39 104q48 135 92 281q2 6 2 17q0 5 -1 8t-1 8q-6 -20 -18 -57q-21 -68 -28 -90q-15 -49 -46 -136q-10 -28 -32 -84l-14 -36q-10 -26 -30 -74
q-10 -24 -16 -39v-2h-1q0 -1 -1 -6v-8q0 -3 1 -8v-5h1v-1v-2v1l1 1v1l57 3q19 1 58 1q11 -1 15 -24v-6v-7v-34v-35q-3 -26 -18 -31q0 -1 -4 -1h-1h1q-3 -4 -3 -6q0 -3 3 -5q12 0 22 1h7h8q12 0 15 1h9h7q12 0 16 -1q14 0 25 -1q3 6 3 10t-3 11h-3h-3h2h2q-23 0 -23 56v-29
v-28v1v53v54q0 15 12 19q7 -1 23 -1q8 -1 20 -1q2 10 2 13t-1 10l-1 4q-12 0 -21 1t-24 1h6q-13 0 -16 23v33v34v50v49v50v49q0 47 22 108q1 1 1 2q2 9 2 19q0 3 -2 3q-18 -54 -28 -79q-3 -11 -11 -30l-3 -8q-3 -9 -7 -22l-6 -15q-8 -18 -14 -34q-5 -16 -14 -35
q-15 -37 -27 -66q-2 -6 -2 -11v-1l2 1q1 2 2 5q0 -1 -1 -1q1 0 1 1t2 3l1 2v2q11 25 16 25q4 0 4 -9v-34v-36v-26v-27z" />
    <glyph glyph-name="five" unicode="5" horiz-adv-x="208" 
d="M127 369q-11 8 -27 22l-3 3q-12 11 -14 27q-10 50 -11 122q-1 75 -3 92q0 25 4 25q5 2 15 3q11 -2 15 -4q4 -1 15 -1q15 0 17 2q1 1 17 4q22 -7 28 -56q0 -14 1 -25q5 -3 8 -3q5 0 9 3q-2 19 -2 56q0 36 2 56q-1 0 -1 1v1h-2q-1 1 -3 1q-1 0 -7 -3v-1q-21 -4 -33 -6
q-14 -2 -33 -2q-25 0 -49 3q-20 2 -50 8q-1 -5 -1 -13v-2v-2q0 -52 2 -93q3 -69 13 -144l5 -45q0 -5 3 -16q0 -1 1 -3v1q31 0 58 -73q26 -75 26 -167q0 -89 -40 -155q-39 -65 -69 -71h7q18 0 46 21q26 20 54 56q28 38 45 82q20 48 20 97q0 151 -63 199z" />
    <glyph glyph-name="six" unicode="6" horiz-adv-x="256" 
d="M181 694q-1 1 -4 1q-69 0 -113 -140q-21 -72 -28 -108q-7 -35 -14 -130q0 -43 1 -68v-4v-5q0 -98 32 -168q31 -70 78 -70q45 0 78 70q32 72 32 168t-32 169q-33 70 -78 70q-15 0 -21 -7l-3 -4q-9 -12 -15 -18l1 3q2 10 3 19q15 78 33 130t39 59q4 0 6 1q2 0 5 -1h1z
M134 448q16 -11 21 -26q2 -5 4 -12q5 -13 7 -19q7 -25 11 -58q3 -25 5 -79q0 -29 -0.5 -45t-1.5 -37q-1 -38 -11 -76q-15 -63 -32 -63l-2 1h-2q-25 11 -34 51q-3 13 -11 47l-2 8q-3 14 -4.5 36.5t-1.5 58.5q1 39 3 76q4 40 11 74q6 33 17 44q12 12 23 19z" />
    <glyph glyph-name="seven" unicode="7" horiz-adv-x="238" 
d="M154 319l16 77q28 128 34 158q20 96 20 126v2v2v13q-34 -6 -50 -8q-25 -3 -50 -3q-40 0 -90 8l1 1l-6 3q-2 0 -4 -1h-2v-1q0 -1 -1 -1q3 -33 3 -56q0 -24 -3 -56q4 -3 10 -3q3 0 7 3q0 1 1 6v7q0 8 1 12q5 49 27 56q9 -2 26 -4h3q16 -2 28 -2q20 0 25 1q3 1 8 1l18 3
q11 -1 15 -3q4 0 4 -25q0 -9 -21 -98l-30 -135q-7 -30 -14 -61q-8 -34 -25 -108q-20 -86 -21 -92q-6 -24 -10 -43q-14 -58 -16 -66q-1 -1 -1 -2q0 -2 -1 -3v-3q-2 -10 -2 -14q0 -3 2 -9l4 -4q2 0 3 2l-1 2h-4v-1q16 0 34 11q23 12 31 47q8 56 8 88v9q-1 7 -1 8q0 50 24 156z
" />
    <glyph glyph-name="eight" unicode="8" horiz-adv-x="325" 
d="M170 696q-37 0 -62 -31q-26 -34 -26 -76q0 -43 26 -74q8 -10 14 -14q-30 -21 -52 -61q-42 -76 -42 -182q0 -107 42 -182q41 -75 100 -75q57 0 99 75q42 77 42 182q0 106 -42 182q-22 41 -51 60q11 9 15 15q26 29 26 74q0 46 -26 76q-25 31 -63 31zM163 482q32 -3 59 -55
q28 -55 29 -147q0 -100 -24 -171q-24 -73 -57 -73q-31 3 -55 52q-25 48 -27 142q0 98 21 176q21 76 54 76zM170 667q15 0 24 -22q10 -21 10 -53q0 -31 -10 -52q-9 -22 -24 -22q-14 0 -24 22q-10 25 -10 52q0 28 10 53q10 22 24 22z" />
    <glyph glyph-name="nine" unicode="9" horiz-adv-x="254" 
d="M79 -94h2h2q32 0 59 55q25 49 51 128q24 81 32 134q10 65 17 156q0 44 -1 69v4v4q0 97 -32 169q-33 70 -78 70t-78 -70q-32 -72 -32 -169q0 -96 32 -168q33 -70 78 -70q16 0 24 7q10 9 20 21q0 -4 -2 -10v-6q-1 -5 -1 -6q-3 -22 -7 -56l-4 -36q-4 -49 -18 -90
q-11 -38 -28 -70q-15 -29 -25 -33h-7h-6zM130 249q-17 9 -23 26q-3 6 -8 20q-2 7 -4 11q-5 21 -12 58q-5 38 -5 78q0 29 0.5 46t1.5 37q2 38 12 76q17 63 35 63h2l2 -1q27 -12 37 -52q2 -6 5 -18q6 -25 9 -36q3 -15 4.5 -37t1.5 -59q0 -19 -2 -55q-1 -16 -1 -21
q-3 -34 -12 -73q-6 -31 -18 -45t-25 -18z" />
    <glyph glyph-name="colon" unicode=":" horiz-adv-x="95" 
d="M41 500q-32 0 -32 -54q0 -52 32 -52t32 52q0 54 -32 54zM41 106q-32 0 -32 -53q0 -52 32 -52t32 52q0 53 -32 53z" />
    <glyph glyph-name="semicolon" unicode=";" horiz-adv-x="91" 
d="M58 7q-2 -23 -8 -37q-5 -12 -10 -31q19 13 27 49q6 29 6 55v13q-1 1 -1 3v3v2q-1 3 -1 5q-8 35 -30 35q-32 0 -32 -53q0 -52 32 -52q9 0 17 8zM41 500q-32 0 -32 -54q0 -52 32 -52t32 52q0 54 -32 54z" />
    <glyph glyph-name="equal" unicode="=" horiz-adv-x="395" 
d="M128 267v-1q-30 0 -45 1q-29 0 -43 1q0 -7 -1 -14v-5q-2 -10 -6 -20q15 1 46 1t46 1v-1l21 1h7h7l16 1h13h12h27q9 -1 28 -1v-1h45q7 -1 17 -1t17 -1q11 -1 33 -1q0 8 1 17v5q2 8 6 21q-11 -1 -24 -1t-24 -1t-23 -1q-20 -1 -24 -1v1h-22v-1q-9 -1 -26 -1h-26h-57v2h-21z
M128 428v-2q-30 0 -45 1q-9 1 -21 1q-13 0 -22 1q0 -8 -1 -15v-5q-2 -9 -6 -19q31 0 46 1t46 1v-1l21 1v1h7h7l16 1v-1h13h12h27q9 -1 28 -1h45v-2q23 0 34 -1q7 -1 17 -1q9 0 16 -1q0 8 1 17v5q1 8 6 22q-11 -1 -24 -1t-24 -1t-23 -1q-20 -1 -24 -1v1h-22v-1q-9 -1 -26 -1
h-26h-28h-29v1v1h-21z" />
    <glyph glyph-name="question" unicode="?" horiz-adv-x="251" 
d="M134 132q-1 3 -3 45q-1 19 -1 92q2 53 7 91q5 41 18 44q32 0 55 47t24 106q0 113 -33 194q-33 80 -79 80q-29 0 -65 -53q-36 -52 -36 -104q0 -53 32 -53q31 0 31 53q0 35 -20 49v7q0 12 7 25q28 49 48 49q11 0 20 -13q26 -40 36 -114q5 -50 5 -88q0 -21 -2 -59
q-7 -67 -26 -67l-2 1h-2q-15 0 -35 -33q-13 -22 -13 -67q0 -20 3 -44q0 -38 4 -106v-15q2 -55 2 -72q6 5 6 12q0 6 7 6q8 0 8 -2l-1 -1q0 -2 -1 -2q0 -2 6 -8zM122 104q-32 0 -32 -53q0 -52 32 -52q31 0 31 52q0 53 -31 53z" />
    <glyph glyph-name="at" unicode="@" horiz-adv-x="364" 
d="M305 113h-1q-32 0 -47 -29q-32 -56 -69 -56q-54 0 -86 114q-30 113 -30 274q0 159 30 273q32 114 86 114q56 0 87 -114q32 -116 32 -273q0 -21 1 -44v-36v-36q-2 -42 -7 -67q-6 -30 -19 -30q-18 0 -28 64q-8 52 -13 77q-3 17 -7 38t-7 38q-1 5 -3 17q-3 12 -4 20
q-1 4 -3 14t-4 22l-1 3q-1 9 -3 15l-3 18q0 3 -3 18q-2 8 -4 18q-2 6 -2 16q0 4 2 10q3 10 7 10v7v4q-1 1 -1 3q0 -1 -4 -1q-3 -1 -4 -1q-2 -1 -9 -1q-8 -1 -11 -1h-2h-3q-5 0 -6 1q-6 0 -7 1q-4 1 -7 1v-6q0 -2 3 -7q5 -4 5 -13q0 -6 -2 -20v-1v-1l-3 -18q0 -9 -3 -18
q0 -6 -2 -18q-1 -10 -3 -18q-1 -7 -3 -19t-2 -17q-2 -6 -4 -18t-2 -18l-2 -15l-5 -30l-2 -10q-4 -25 -5 -34l-2 -15l-5 -30l-3 -18q-3 -20 -4 -26l7 41q-5 -24 -10 -32q-6 -10 -9 -10h1h-1l-2 -7v-7q1 0 6 1h6q1 1 4 1t5 -1h6q5 -1 6 -1q1 5 1 6l1 4v2q1 0 1 1q-1 0 -2 1
q-1 2 -4 9q-3 3 -3 13q0 1 1 5v4q0 5 3 21q3 17 3 22v-1v1q0 1 2 7l1 6q2 5 3 6q2 0 4 1q6 0 9 1h11h5h5q3 0 5 1h5h3q1 -1 4 -1h4h4q12 0 16 -1h6q1 0 3 -5q0 -1 1 -7l1 -7l2 -6l2 -10l5 -32q6 -46 21 -80q13 -31 32 -31t32 31q15 30 21 80q10 66 10 146q0 172 -46 294
q-45 123 -111 123q-64 0 -111 -123q-46 -122 -46 -294q0 -175 46 -295q47 -122 111 -122q58 0 72 47q14 48 45 67zM213 360v-4q0 -1 -1 -2q0 -3 -3 -3q-9 -1 -16 -1h-4h-4h-4h-3q-13 0 -20 1t-21 1q-3 0 -3 6q1 1 1 4q1 3 1 4q0 5 1 8v2q1 3 1 5q1 2 1 5q0 2 1 4q0 5 1 8
q0 1 1 4v4q1 3 1 8q1 2 1 4t1 4q1 11 4 29l1 5q4 21 5 34q1 5 3 17t3 17q0 5 2 17l3 18q0 5 4 5t5 -6q3 -13 6 -35l1 -2q2 -11 3 -15q2 -12 3 -17q2 -9 3 -17q2 -13 3 -17q2 -12 4 -17l3 -18q2 -4 3 -12l3 -18q3 -16 6 -30z" />
    <glyph glyph-name="A" unicode="A" horiz-adv-x="498" 
d="M338 222q5 -27 12 -63q3 -14 10 -45l4 -18q4 -23 4 -42q0 -21 -7 -25h-5v-1q0 -6 1 -11v-4q2 -9 6 -13q10 1 21 1q14 1 31 1q24 0 31 -1h13q3 -1 7 -1t7 -1v14q-1 3 -5 11l-2 4q-2 0 -3 1h-3h4q-24 0 -43 91l19 -89q-7 30 -22 104q-11 49 -19 87q-9 43 -20 96t-20 96
l-33 156l-33 156q-3 21 -3 35q0 16 3 23q6 19 17 19v1q1 6 1 15l-4 12q0 1 -1 3h-2q-10 -3 -17 -4q-12 -3 -19 -3q-12 -1 -27 -1q-16 0 -28 1q-7 0 -16 3q-6 1 -16 3v-6q0 -2 1 -5v-3q0 -7 6 -16q13 -7 13 -27v-3q-2 -22 -4 -40q-1 -1 -1 -4q-9 -53 -27 -157t-27 -155
q-3 -21 -13 -81q-12 -70 -19 -111q-22 -128 -33 -191v-1l15 89q-7 -45 -23 -69q-16 -22 -20 -22h2l-2 -1q-2 -5 -4 -12q-1 -2 -1 -3q0 -7 -1 -14q7 0 15 1l7 1q6 0 7 1q2 1 11 1q5 0 10 -1q1 0 7 -1l7 -1l12 -2h3q1 3 1 5q2 6 2 9t1 6q1 7 1 9l-2 1q-1 3 -8 15q-1 3 -3 6
q-7 14 -7 29q0 6 2 16v3q2 10 4 23q2 12 4 22q2 18 8 46v-1v2q0 4 3 14q2 5 2 7q2 6 2 7q3 11 6 12q3 2 9 3q4 0 24 1q12 0 23 1q16 1 48 1h37q9 -1 19 -1q15 -1 19 -1q3 -1 5 -1q6 -1 8 -1q3 0 8 -11zM325 285v-16q-1 -4 -9 -6v1q-12 -1 -38 -1h-36q-49 0 -96 3q-7 0 -7 8
q0 1 1 3v3q4 28 12 68q6 36 12 69q16 98 25 148q1 5 13 74q11 69 12 74q4 13 10 13q5 -1 11 -15q20 -100 31 -149q1 -3 16 -74q14 -71 15 -74l6 -27q6 -28 8 -38q2 -11 8 -37q4 -19 6 -27z" />
    <glyph glyph-name="B" unicode="B" horiz-adv-x="382" 
d="M289 562q-5 10 -5 20q0 5 2 13q14 28 14 67q0 9 -2 29q-6 63 -20 96q-15 30 -40 46q-3 3 -9 3q-4 0 -9 -3l-158 -4l-9 1q-12 2 -17 3q-2 -5 -2 -15t2 -16h1h1q3 0 3 -1q17 -4 20 -68v-158v-158v-159v-159q-3 -59 -17 -67q-1 -1 -3 -1h-2l-1 -1q-2 -10 -2 -14q0 -9 3 -15
q4 0 8 1q11 1 14 1v1h-1v-1h2h70h8q3 0 7 -1h2v1l85 -2q3 -1 4 -1q5 -1 7 -1q40 0 79 61q39 62 39 189q0 100 -24 185q-23 82 -50 128zM229 582q25 0 50 -100q26 -97 26 -213t-19 -175q-21 -61 -45 -61h-4q-2 -1 -4 -1l-90 1q-16 0 -16 27v495q0 27 16 27h78h3h5zM210 803
q15 0 31 -27q15 -28 15 -67q0 -41 -8 -65q-7 -27 -23 -27h-1h-1h-2h-1h-79q-14 0 -14 24v138q0 24 14 24h64h1h1h1h2z" />
    <glyph glyph-name="C" unicode="C" horiz-adv-x="334" 
d="M261 129q0 -1 1 -5v-6q0 -34 -24 -49h-3q-3 -1 -4 -1q-35 0 -76 54q-45 58 -66 190q-13 75 -13 150q0 60 9 117q19 124 45 172q13 25 57 43q6 3 18 3q30 0 46 -47q3 -24 3 -34q0 -20 -1 -43l1 6q0 -4 -1 -6q5 -6 9 -6q5 0 9 6q0 25 1 57v23q4 54 8 81q-6 7 -9 7
q-5 0 -9 -7v-10v-11l-1 19q0 -25 -13 -25q-14 2 -30 13q-16 13 -34 13q-62 0 -109 -122q-47 -124 -47 -294q0 -171 53 -294q54 -122 118 -122q66 0 114 133q0 4 1 8q3 8 3 24q0 8 -2 20q-4 21 -15 27q-2 2 -7 2q-8 0 -15 -7q-11 -11 -16 -35q-3 -12 -3 -24q0 -6 2 -18v-2z
M241 69l14 6l-2 -2l-9 -3q-2 -1 -3 -1z" />
    <glyph glyph-name="D" unicode="D" 
d="M176 833l-90 -6v1h-1q-16 0 -28 1q-11 0 -28 4q0 -3 -1 -6q-1 -7 -1 -9q0 -3 1 -12l1 -4h1h1q3 0 4 -1q17 -5 20 -68v-158v-158v-159v-159q-3 -59 -18 -67q-1 -1 -3 -1h-2v-1h-1h1q-3 -7 -3 -14t3 -15q6 1 7 1q11 1 16 1v1q13 1 30 1t31 -1q3 -1 12 -1q9 -1 13 -1
q12 -1 25 -1h34q51 0 94 70q44 69 44 242q0 108 -19 220q-22 117 -53 193q-22 53 -46 79q-25 28 -45 28h1zM165 803q18 0 48 -35q30 -38 49 -104q17 -57 27 -126q10 -67 10 -153q2 -11 2 -35q0 -49 -11 -107q-15 -76 -28 -112q-20 -60 -46 -79q-25 -19 -49 -19h-1h-29
q-13 0 -13 23v724q0 23 13 23h26h1h1z" />
    <glyph glyph-name="E" unicode="E" horiz-adv-x="330" 
d="M290 129q-3 -33 -28 -63q-24 -29 -45 -32h1v-1q0 1 1 1l-23 -1h-62q-8 1 -13 3q-4 1 -4 43v-46v191v192v66v74v3q2 10 2 16q0 5 11 5q13 0 21 -2q18 -7 40 -31q24 -25 32 -49l3 -9q0 -1 1 -2l1 -1v-2l-1 2q0 -1 3 -7h3l3 -1q1 0 3 1h2q4 2 11 13l-8 22l-9 22
q-10 25 -14 46q-4 24 -6 51q-2 36 -3 53h-4q-3 1 -6 1q-5 -3 -11 -14l1 -2v-2v-4q-1 -34 -25 -40q-21 -7 -37 -7q-12 0 -12 3v7q-1 5 -1 9v78q1 27 1 70q0 9 5 14q6 3 30 3h36h1h12h-14q24 0 47 -4q25 -4 28 -39v-2v-2l3 -3h5q2 16 4 33q2 12 2 16l1 7q4 24 7 39q-2 1 -4 3
h-4q0 -1 -2 -1v-1q-1 0 -1 -1q-25 -8 -64 -13q-4 0 -22 -1q-12 0 -22 -1q-25 -1 -45 -3l-8 -1q-1 0 -1 1h1q-12 -1 -28 -1q-15 0 -27 1q-8 0 -28 3q-2 -4 -2 -15q0 -5 2 -15h1h1v-1h3q19 -5 20 -68v-158v-159v-159v-159q-1 -59 -17 -67h-3h-2v-1h-1h1q-2 -5 -2 -15t2 -14
q7 0 11 1q8 0 11 1q14 1 31 1q24 0 31 -1h3h2v-1l20 -1h1h169q2 6 2 15t-2 17q0 2 -1 5q-1 12 -3 20v3q-2 15 -2 23v12q-1 10 -1 12q0 13 2 38q0 8 1 22q-4 4 -8 4t-8 -4l-1 -12q-1 -21 -1 -27z" />
    <glyph glyph-name="F" unicode="F" horiz-adv-x="299" 
d="M128 618q-12 0 -12 3v7q-1 5 -1 9v78v70q0 10 6 14q6 3 30 3h36h1h12h-14q24 0 47 -4q25 -4 28 -39v-2v-1q-1 0 -1 -1q2 -1 4 -3h4l2 14q4 27 5 35q1 15 8 46l-2 2q-2 1 -3 1h-3q-1 -1 -2 -1q-1 -1 -1 -2q-27 -8 -64 -13q-4 0 -23 -1q-11 0 -22 -1q-27 -2 -44 -3l-8 -1
q-1 0 -1 1q-12 -1 -27 -1t-28 1q-9 0 -27 3q-2 -4 -2 -15q0 -10 2 -15h1h1l-1 -1h1h3q17 -4 20 -68v-158v-159v-159v-159q-3 -59 -18 -67h-2h-2v-1h-1h1q-3 -7 -3 -15t3 -14q7 0 11 1q7 0 11 1q13 1 30 1q25 0 32 -1q8 0 12 -1q5 -1 13 -1q3 8 3 14t-3 15q-3 0 -6 1h4
q-23 0 -23 91v-89v191v192v66v74q1 7 1 19q0 5 12 5t21 -2q19 -9 40 -31t32 -49l3 -9v-2l1 -1q0 -1 1 -2l-1 2q0 -1 1 -2q0 -3 1 -5q1 0 4 -1h2q1 0 3 1h3q4 2 11 13q-4 10 -9 22t-9 22q-7 17 -14 46q-4 24 -6 51q0 19 -2 53h-4q-3 1 -6 1q-5 -3 -11 -14v-4q1 -1 1 -4
q-3 -34 -25 -40q-22 -7 -37 -7z" />
    <glyph glyph-name="G" unicode="G" horiz-adv-x="368" 
d="M323 350q6 19 19 23h2h1q6 8 6 15q0 6 -6 15q-33 -5 -53 -5q-21 0 -54 5q-5 -8 -5 -15t5 -15h1h2q18 -6 22 -33v-175v-7q-1 -7 -1 -8t1 -7v-8v1q-2 -10 -2 -21q0 -13 -5 -25q-4 -9 -12 -22q-1 -2 -3 -5q-7 -8 -9 -9q-13 -9 -23 -13q-3 -2 -10 -2q-3 0 -7 1t-7 1l-6 3
q-2 1 -5 3q-1 1 -2 1q-27 15 -42 58q-16 48 -19 74q0 7 -2 21t-2 22v66v95v95v67v2l1 6q5 48 9 78q7 49 19 94q2 5 3 7q3 9 11 24q9 24 43 36q8 4 24 4t28 -5q29 -10 39 -42l2 -14q2 -15 2 -20q0 -2 -1 -16q0 -5 -1 -27l1 6q0 -4 -1 -6q5 -6 9 -6q5 0 9 6q0 27 1 40
q0 27 1 40q2 45 7 81q-6 7 -9 7t-9 -7v-10v-11l-1 19q0 -25 -13 -25q-14 2 -30 13q-14 13 -34 13q-62 0 -124 -122q-62 -124 -62 -294q0 -171 53 -294q54 -122 118 -122q23 0 43 16l1 1q1 0 1 1q7 4 15 14l3 3q19 17 31 27q19 15 37 20h2h2q4 7 4 13q0 5 -4 12h-2h-1
q-9 3 -11 21v184v37zM328 373h-5h2h3zM323 119v-11v11z" />
    <glyph glyph-name="H" unicode="H" horiz-adv-x="334" 
d="M130 582h81q13 -1 16 -27v-69v-69v-159v-159q-3 -59 -18 -67q0 -1 -2 -1h-2v-1h-1h1q-3 -7 -3 -14q0 -9 3 -15q4 0 8 1q11 1 14 1v1q13 1 30 1q18 0 32 -1q1 0 7 -1q3 0 6 -1q4 -1 13 -1q2 5 2 14q0 10 -2 16h-4h-3h4q-23 0 -23 91v-89v192v192v155v157q2 72 22 72
q1 0 1 1q3 9 3 15t-3 15q-19 -3 -28 -3q-6 -1 -27 -1q-15 0 -28 1q-10 0 -27 4q-2 -10 -2 -15q0 -4 2 -13v-3h1h1q3 0 3 -1q17 -4 20 -68v-46v-46q-3 -21 -17 -24h-82q-13 5 -13 28v42v42q0 72 22 72q1 0 1 1q2 6 2 15t-2 15q-8 -1 -28 -3h-14q-4 -1 -13 -1q-16 0 -28 1
q-11 0 -27 4q-3 -10 -3 -15t3 -16h1q3 0 4 -1q17 -5 20 -68v-158v-158v-159v-159q-3 -59 -18 -67q-1 -1 -4 -1q-1 0 -1 -1h-1h1q-2 -5 -2 -14q0 -7 3 -15q2 1 11 1q5 0 11 1v1q13 1 30 1q18 0 32 -1q3 -1 6 -1t6 -1q5 -1 13 -1q3 9 3 14q0 6 -3 16h-3h-4h4q-22 0 -22 92v-90
v192v192v83v82v-30q0 26 15 30zM115 638v-21v10v11zM218 617h9h-9z" />
    <glyph glyph-name="I" unicode="I" horiz-adv-x="143" 
d="M20 32q-1 -1 -3 -1h-2l-1 -1q-2 -10 -2 -14q0 -7 3 -15q4 0 8 1q11 1 14 1v1q14 1 31 1t31 -1q10 -2 26 -3q3 9 3 14q0 6 -3 16h-4h-3h4q-23 0 -23 91v-89v192v192v155v157q2 72 23 72v1q3 9 3 15q0 8 -3 15q-18 -3 -27 -3q-6 -1 -28 -1q-15 0 -27 1q-12 0 -28 4
q-2 -7 -2 -15q0 -9 2 -16h1h1q3 0 3 -1q17 -4 20 -68v-158v-158v-159v-159q-1 -59 -17 -67z" />
    <glyph glyph-name="J" unicode="J" horiz-adv-x="269" 
d="M55 17q2 1 4 4l2 2v1q10 16 10 37q0 51 -30 51q-29 0 -29 -51v-2h-1q0 -72 31 -118q30 -45 77 -45q45 0 76 61t31 135v164v161v155v157q2 72 22 72q1 0 1 1q2 6 2 15t-2 15q-19 -3 -28 -3q-6 -1 -27 -1q-15 0 -27 1q-3 0 -7 1l-21 3q-3 -7 -3 -15t3 -16h1h1q3 0 3 -1
q17 -4 20 -68v-158v-158v-164v-165q0 -62 -18 -112t-43 -50q-33 0 -51 49q-3 10 -3 19q0 13 6 23z" />
    <glyph glyph-name="K" unicode="K" horiz-adv-x="407" 
d="M145 548l8 20l-9 -19l2 4q0 -2 -1 -3v-2zM225 695q-1 5 -1 15q0 22 9 40l-1 -4l6 16l-3 -8q5 10 20 30q14 17 24 21h1h2q1 5 1 13q0 7 -1 13q-18 -5 -29 -5h-8q-11 0 -28 5q-6 -7 -6 -13q0 -5 5 -13h1q3 0 3 -8t-2 -13q-2 -16 -8 -37l-68 -152q-10 -16 -14 -16
q-7 0 -7 19v-9v70v70q2 72 23 72v1q3 9 3 15q0 8 -3 15q-18 -3 -27 -3q-6 -1 -28 -1q-15 0 -27 1q-11 0 -28 4q0 -3 -1 -6q-1 -7 -1 -9q0 -3 1 -12l1 -4h1h1q3 0 4 -1q16 -4 19 -68v-158v-158v-159v-159q-1 -59 -17 -67q-1 -1 -3 -1h-2v-1h-1h1q-3 -7 -3 -14t3 -15q4 0 8 1
q11 1 14 1v1q14 1 31 1t31 -1q10 -2 26 -3q3 9 3 14q0 6 -3 16h-4h-3h4q-23 0 -23 91v-89v192v192v15v15q0 19 7 50q9 33 16 50q13 25 24 25t20 -24l92 -456q1 -9 1 -34q0 -20 -5 -25h-2h-1q-2 -7 -2 -18t2 -16q30 6 55 6t55 -6q3 8 3 16q0 7 -3 17v1h-1h-1q-9 2 -20 20
q-10 18 -15 36l6 -28l-8 40v-4l-114 570l-10 52zM176 620l5 11z" />
    <glyph glyph-name="L" unicode="L" horiz-adv-x="331" 
d="M116 145v274v156v156q3 72 24 72v1q3 9 3 15t-3 15q-1 0 -7 -1q-4 0 -7 -1q-4 -1 -13 -1q-13 -1 -28 -1q-9 0 -14 1q-9 0 -13 1q-10 0 -28 2q-2 -5 -2 -14q0 -10 2 -15q0 -1 2 -1h2h1q17 -4 20 -68v-159v-159v-150v-159v-6v-6q-1 -59 -17 -67h-3q0 -1 -2 -1q0 -1 -1 -1h1
q-3 -7 -3 -14q0 -6 3 -14q6 1 11 1q8 1 11 1q7 1 31 1t31 -1q4 0 5 -1l19 -1h1h1h169q1 3 1 14q0 14 -1 17h-1q0 13 -3 26v3q-2 15 -2 23v11q-1 6 -1 12q0 11 2 38q1 14 1 23q-4 4 -8 4q-5 0 -8 -4v-6q-2 -22 -2 -34q-3 -32 -28 -62q-24 -29 -45 -32l78 8v2v-2v-1l-99 -9
h-62q-4 1 -10 3l-3 1q-4 1 -4 42v-45v54v59h-1z" />
    <glyph glyph-name="M" unicode="M" horiz-adv-x="670" 
d="M113 70q-3 -11 -10 -22q-8 -12 -14 -15h-3h-3q-3 -9 -3 -16q0 -8 3 -16q18 5 32 5q13 0 31 -5q4 7 4 16q0 7 -4 15v1h-3q-12 0 -12 36l45 271h-19zM227 659q8 36 12 37q5 0 18 -33l71 -276l-1 -10q3 -3 8 -3q8 0 9 3l51 310q5 25 9 25q2 0 4 -8q1 -1 1 -2l4 -19v-1v-1v1
l56 -265l33 -159l33 -159q4 -17 4 -34q0 -27 -12 -33q-1 -1 -3 -1h-2v-1h-1h1q0 -6 1 -12v-2q0 -6 6 -15q7 0 13 1q3 1 7 1q5 1 6 1q14 1 31 1q24 0 31 -1l27 -3v7v7q-2 7 -7 16h-3h-3h3q-23 0 -42 91l19 -89v1q-14 63 -40 191q-16 72 -40 192q-11 51 -33 155t-32 157
q-6 29 -6 45q0 27 13 27v1v15q0 1 -1 2q-2 8 -5 13q-18 -3 -27 -3q-6 -1 -27 -1q-8 0 -11 1h-11l5 -30l-31 -186q-5 -26 -10 -35q-2 -4 -5 -4q-5 0 -8 10l-40 144q-5 32 -5 46q0 26 13 26v1v16q-1 5 -6 15q-13 -3 -27 -3q-12 -1 -27 -1h-10q-6 0 -9 1q-5 0 -7 1h-7
q-11 2 -14 3q-5 -7 -7 -15v-3q-1 -2 -1 -3t1 -4v-5q2 -1 6 -1q4 -1 6 -1l-12 1q22 0 22 -39q0 -44 -4 -77l-56 -346h18zM221 728l11 70h1z" />
    <glyph glyph-name="N" unicode="N" horiz-adv-x="438" 
d="M387 774v48q0 30 10 41q3 5 7 5t8 -3q10 -7 15 -13l2 -5q4 -11 5 -17q2 -4 2 -12t-3 -19q2 2 7 11q6 9 9 30q2 8 2 22q0 22 -7 37q-10 23 -29 28q-20 0 -35 -24q-15 -27 -15 -63v-3v-4v-562q-3 -24 -14 -24q-12 2 -30 45l-43 125q-32 89 -53 155q-12 34 -32 94
q-16 49 -21 63q-12 38 -12 55t10 17q1 0 1 1q0 9 -3 15q-4 10 -7 15q-18 -3 -27 -3q-6 -1 -27 -1q-15 0 -28 1q-13 0 -26 1q-20 2 -27 3q0 -9 3 -15q1 -6 8 -16h1q3 0 3 -1h2h1q16 -6 16 -32q0 -38 1 -60l1 4v-651q-3 -21 -17 -27h-1h-2v-1q-2 -6 -2 -16t2 -17q16 4 29 4
t29 -4q3 9 3 17q0 7 -3 17h-2h-1q-13 3 -16 28v633q0 10 5 32q6 10 11 10q3 0 6 -4q6 -9 16 -33q26 -74 91 -265l6 -19q5 -13 27 -79q22 -67 26 -80l54 -159q9 -31 15 -63q3 -15 3 -23q0 -12 -4 -12q7 0 9 1q3 1 9 1v1h15h16l24 -3q-1 1 -1 2q-10 19 -15 62q-5 36 -7 77v316
v316z" />
    <glyph glyph-name="O" unicode="O" horiz-adv-x="360" 
d="M186 833q-63 0 -110 -122q-45 -123 -45 -294q0 -172 45 -294q47 -122 110 -122q65 0 110 122q46 120 46 294q0 172 -46 294q-45 122 -110 122zM124 762q6 4 18 4q32 0 69 -48q48 -63 72 -205q15 -90 15 -180q0 -45 -5 -102q-13 -140 -53 -158q-7 -4 -19 -4q-32 0 -63 43
q-43 56 -67 200q-17 98 -17 210q0 51 2 77q9 145 48 163z" />
    <glyph glyph-name="P" unicode="P" horiz-adv-x="305" 
d="M146 540q21 10 44 23q5 2 24 12q7 3 24 11q11 5 20 12q13 8 18 23q7 17 8 36v4q2 21 2 30q0 62 -19 101q-20 41 -58 41l-157 -4q-1 0 -9 1l-18 3q0 -3 -1 -6q-1 -7 -1 -9q0 -3 1 -12l1 -4h1h1q3 0 4 -1q16 -4 19 -68v-158v-158v-104v-106v-58v-52q-3 -60 -19 -67h-2h-3
v-1h-1h1q0 -3 -1 -6q-1 -7 -1 -9q0 -4 2 -14q5 1 9 1q12 1 15 1q15 1 33 1h33v-1q10 0 15 -1q4 -1 13 -1l1 2q3 8 3 12q0 2 -2 9l-2 6q-4 0 -7 1h4q-25 0 -25 91v-89v97v106v1v259q0 11 6 23q5 11 12 15q8 5 12 7zM139 563l-9 -3q-14 0 -14 22v197q0 24 14 24h64h1h1h2h1
q15 0 31 -27q15 -28 15 -67q0 -36 -11 -70q-12 -39 -36 -49z" />
    <glyph glyph-name="Q" unicode="Q" horiz-adv-x="360" 
d="M260 50q36 53 59 151q23 100 23 216q0 172 -46 294q-45 122 -110 122q-63 0 -110 -122q-45 -123 -45 -294q0 -172 45 -294q47 -122 110 -122q33 0 63 35q14 -33 14 -57q0 -14 -4 -25q-4 -18 -22 -18q-15 3 -37 32q0 -7 17 -30q27 -38 52 -65q16 -17 25 -17q8 0 13 11
q4 8 4 23q0 27 -11 61q-16 59 -40 99zM228 69h-3q-3 -1 -5 -1q-33 0 -68 53q-39 58 -61 191q-17 98 -17 210q0 51 2 77q9 145 48 163q6 4 18 4q32 0 69 -48q48 -63 72 -205q15 -100 15 -180q0 -43 -5 -96q-12 -136 -50 -162q0 1 -1 1q-15 22 -21 53q-4 13 -4 28q0 12 3 22
q6 21 19 21q16 0 41 -35q0 5 -17 30q-26 37 -48 55q-10 9 -19 9q-10 0 -15 -12t-5 -26q0 -21 9 -56q17 -61 41 -93z" />
    <glyph glyph-name="R" unicode="R" horiz-adv-x="303" 
d="M218 556q3 20 17 28q7 2 11 5l15 15q8 8 11 16q10 22 12 57q0 60 -25 108q-27 48 -65 48l-142 -4q-1 0 -9 1l-18 3q0 -3 -1 -6q-1 -7 -1 -9q0 -3 1 -12l1 -4h1h1q3 0 4 -1q16 -4 19 -68v-158v-158v-104v-106v-58v-52q-3 -60 -19 -67h-2h-3v-1h-1h1q0 -3 -1 -6
q-1 -7 -1 -9q0 -4 2 -14q5 1 9 1q12 1 15 1q15 1 33 1h33v-1q10 0 15 -1q4 -1 13 -1l1 2q3 8 3 12q0 2 -2 9l-2 6q-4 0 -7 1h4q-25 0 -25 91v-89v97v106v1v314q0 31 18 32q12 0 12 1q3 0 11 -1q9 0 11 -1q4 -1 15 -1q14 -6 14 -30v31v-19q0 -17 3 -85q2 -69 9 -154
q7 -96 16 -175q11 -93 26 -145q17 -65 35 -90q20 -27 29 -27q1 -1 3 -1q9 0 24 15q14 14 14 48q0 33 -12 57q-13 24 -22 24q-6 0 -6 -12v-4q1 -4 1 -6q-1 -18 -12 -21q-11 0 -23 30q0 1 -2 7l-3 9q-13 50 -24 123q-10 71 -18 151q-5 47 -10 131l-1 13q-4 66 -6 106zM144 617
h-8q-4 0 -6 -1q-14 0 -14 21v142q0 24 14 24h40h1h1q3 0 8 -1t8 -1q13 0 26 -12q15 -12 24 -31q7 -18 8 -35q1 -13 1 -33q0 -31 -23 -53q-24 -21 -48 -21z" />
    <glyph glyph-name="S" unicode="S" horiz-adv-x="429" 
d="M247 824q-28 11 -57 11q-52 0 -85 -46q-32 -46 -37 -92v-2v-3q-2 -26 -2 -37q0 -70 32 -122q40 -64 98 -64v5v-5h1h1q60 0 114 -62q53 -63 57 -114q1 -9 1 -29q0 -42 -7 -87q-10 -65 -41 -104q-19 -24 -51 -34q-31 -9 -57 -9q-17 0 -34 6q-22 8 -32 13t-21 11
q-7 4 -20 19q-26 28 -42 73q-5 18 -8 43q-2 15 -2 40q4 35 11 41q7 5 22 5q8 -10 11 -14q5 -4 6 -21q0 -15 -3 -23q-1 0 -1 -3q0 -4 5 -4q8 0 23 20q13 19 16 36q3 14 3 21v16q0 89 -49 96q-2 0 -6 1h-4q-25 0 -40 -23q-20 -29 -20 -81v-7v-13q0 -20 5 -67q4 -43 15 -73
q8 -27 21 -46q14 -21 27 -36q16 -19 46 -38q38 -21 71 -21q30 0 64 12q34 10 60 39q35 39 51 102q15 62 15 111q0 145 -61 248q-62 104 -146 104h-1h-1v-1q-27 2 -48 31q-20 31 -20 78h1q3 32 27 54q25 22 59 22t55 -23q22 -23 31 -53l13 -65q7 -4 13 -4q7 0 12 4
q-14 52 -20 94q-4 24 -6 48q-1 15 -3 47q-10 5 -13 5q-5 0 -12 -5q1 -3 1 -6q1 -6 1 -7q1 -3 1 -7t1 -7l-4 26q2 -5 2 -13q0 -17 -9 -17q-15 0 -30 6z" />
    <glyph glyph-name="T" unicode="T" horiz-adv-x="442" 
d="M88 832q-9 2 -18 8v-8h-1q0 2 1 6v4q-3 3 -8 3q-4 0 -8 -3q-4 -40 -11 -86q-10 -57 -17 -86q4 -3 8 -3q3 0 9 3q0 1 2 12q3 16 6 27l-2 -11q5 34 26 66q22 34 45 37l-3 1q10 -1 31 -1h31q17 -7 18 -68v-158v-158v-159v-159q-1 -59 -17 -67q-1 -1 -2 -1h-3v-1
q-2 -10 -2 -14q0 -5 2 -15q8 0 11 1t6 1q4 1 5 1q14 1 31 1q24 0 31 -1q3 -1 7 -1q5 -1 6 -1q4 -1 14 -1v2q2 8 2 12t-2 13v3h-4h-4h5q-24 0 -24 91v-89v1v191v192v155v157q3 72 23 72h28q18 0 27 1h-1q18 -3 38 -29q20 -25 27 -54q3 -11 5 -22q5 -21 6 -27q5 -3 9 -3t7 3
q-8 38 -16 86q-7 41 -11 86q-4 3 -9 3q-4 0 -7 -3v-2q-8 -5 -17 -8q-46 -2 -70 -2q-24 -1 -71 -1t-70 1q-23 0 -69 2z" />
    <glyph glyph-name="U" unicode="U" horiz-adv-x="373" 
d="M268 130q-3 -30 -9 -50q-26 -47 -60 -47q-32 0 -54 40q-24 39 -27 97v124v123v155v157q2 72 23 72v1q3 9 3 15q0 8 -3 15q-18 -3 -27 -3q-6 -1 -28 -1q-15 0 -27 1q-11 0 -28 4q0 -3 -1 -6q-1 -7 -1 -9q0 -3 1 -12l1 -4h1h1q3 0 4 -1q16 -4 19 -68v-158v-158v-123v-124
q3 -70 39 -118q36 -49 86 -49q33 0 64 26v-2q-2 -8 -2 -11q0 -5 2 -15l7 1q13 1 16 1v1q13 1 30 1q18 0 31 -1l27 -3l1 4q1 7 1 10t-1 12l-1 4h-4h-3h4q-24 0 -24 91v-89v192v192v155v157q3 72 23 72l1 1q3 9 3 15q0 8 -3 15q-19 -3 -28 -3q-6 -1 -27 -1q-16 0 -28 1
q-1 0 -9 1l-18 3q-3 -9 -3 -15q0 -5 3 -16h1h1h-1h1q2 0 3 -1q17 -5 20 -68v-158v-158v-115v-115v1v-14v-22v-22z" />
    <glyph glyph-name="V" unicode="V" horiz-adv-x="382" 
d="M334 853q8 -14 11 -32v-4q1 -4 1 -7v-21q-2 -97 -14 -170q-13 -77 -30 -154q-20 -100 -28 -149q-12 -70 -12 -154q0 -25 -6 -33l-2 -1q-6 0 -14 44v-4q-8 41 -22 125q-3 14 -11 62q-9 48 -12 62q-4 20 -16 84q-11 63 -13 71q-9 50 -24 132l-5 25l-1 9q-3 24 -3 33
q0 30 14 30l1 1q0 7 -1 12v3v2q-2 8 -5 13l-27 -3h-14q-4 -1 -13 -1q-16 0 -28 1q-11 0 -28 4v-15v-1q2 -10 5 -15h1h2q2 0 3 -1q19 -5 32 -68q1 -5 15 -79q13 -74 14 -79q8 -46 25 -136l4 -22q3 -13 15 -79q12 -67 14 -80q3 -13 15 -79q12 -67 14 -80q3 -15 3 -38
q0 -25 -8 -29q-1 -1 -4 -1v-1h-1h1q0 -2 -1 -4v-3l1 -3v-4q2 -10 5 -15q3 1 11 1q5 0 11 1v1q13 1 30 1q18 0 32 -1q1 0 7 -1q3 0 6 -1q4 -1 13 -1q0 2 1 5v3v3l-1 3q0 3 -3 12l-2 4h-2h-1q-17 9 -17 28v3q3 14 4 20q2 16 2 23q0 94 10 178t30 167q42 173 49 362v1v7v15
q-1 38 -17 65q-16 25 -31 25h-2q-2 -1 -3 -1q-37 -7 -37 -94q0 -18 1 -23q5 -36 18 -36q8 0 16 17q7 15 7 37q0 7 -1 9q0 2 -2 6q-8 14 -8 21q0 2 2 5l1 2q1 1 3 1q7 0 20 -16z" />
    <glyph glyph-name="W" unicode="W" horiz-adv-x="525" 
d="M358 813q-2 -86 -13 -159q-7 -55 -25 -150q-5 25 -10 56q-6 31 -11 56q-9 58 -21 113q-3 26 -3 41q0 31 13 31l1 1v15q-1 8 -6 15l-27 -3q-12 -1 -27 -1q-16 0 -28 1l-10 2l-18 2v-4q-1 -3 -1 -4l1 -3v-4q1 -7 6 -16h2q2 0 3 -1q19 -5 32 -68q1 -5 15 -79q13 -74 14 -79
q8 -46 25 -136l4 -22q3 -13 7 -38q5 -24 8 -41q-7 -43 -12 -87q-1 -19 -2 -41t-1 -48q0 -25 -6 -33l-2 -1q-6 0 -14 44v-4q-8 41 -22 125q-3 14 -11 62q-9 48 -12 62q-4 20 -16 84q-11 63 -13 71q-9 50 -24 132l-5 25l-1 9q-3 24 -3 33q0 30 14 30l1 1q0 7 -1 12v3v2
q-2 8 -5 13l-27 -3h-14q-4 -1 -13 -1q-16 0 -28 1q-11 0 -28 4v-15v-1q2 -10 5 -15h1h2q2 0 3 -1q19 -5 32 -68q1 -5 15 -79q13 -74 14 -79q8 -46 25 -136l4 -22q3 -13 15 -79q12 -67 14 -80q3 -13 15 -79q12 -67 14 -80q3 -15 3 -38q0 -25 -8 -29q-1 -1 -4 -1v-1h-1h1
q0 -2 -1 -4v-3l1 -3v-4q2 -10 5 -15q3 1 11 1q5 0 11 1v1q13 1 30 1q18 0 32 -1q1 0 7 -1q3 0 6 -1q4 -1 13 -1q0 2 1 5v3v3l-1 3q0 3 -3 12l-2 4h-2h-1q-17 9 -17 28v3q3 14 4 20q2 16 2 23q0 78 11 166q9 -52 16 -86q10 -58 15 -86q3 -15 3 -39t-7 -28h-3q-1 -1 -2 -1v-1
h-1h1q0 -2 -1 -4v-3l1 -3v-4q1 -7 5 -15q3 1 6 1q2 0 5 1q7 0 11 1q13 1 30 1q25 0 32 -1q1 0 7 -1q3 0 6 -1q4 -1 13 -1q1 3 1 8v6q-1 5 -6 16h-2h-1v1q-16 7 -16 27q1 7 3 23t2 23q0 93 10 177.5t30 167.5q40 165 49 362v7v8v8q-1 36 -18 65q-14 25 -30 25h-2q-2 -1 -3 -1
q-37 -7 -37 -94q0 -18 1 -23q5 -36 18 -36q7 0 15 17q8 18 8 37v9v-1q-7 15 -7 27q0 5 2 11q2 3 5 3q6 0 15 -17q5 -13 8 -23l1 -3q3 -14 3 -21q-1 -90 -15 -173q-11 -68 -29 -161q-14 -70 -28 -156q-12 -73 -12 -158q0 -25 -6 -33l-2 -1q-6 0 -14 44l1 -3q-16 82 -23 124
q-3 14 -11 62q-9 48 -12 62q-4 26 -6 33q19 105 29 171q14 83 19 181v1q1 0 1 2q0 62 -23 94q3 -12 3 -27v-4q-1 -4 -1 -6v-49z" />
    <glyph glyph-name="X" unicode="X" horiz-adv-x="307" 
d="M56 54q2 86 30 144q29 59 57 141q4 -21 14 -70l9 -50l7 -39q11 -56 16 -81q3 -15 3 -39t-8 -28q-1 -1 -2 -1h-3v-1v-8v-6q2 -7 6 -15l9 1t12 1v1q14 1 31 1q18 0 31 -1l27 -3q1 3 1 8v3l-1 3q-1 5 -6 16h-3h-4h4q-24 0 -40 91l17 -89l-36 192q-18 95 -36 192l-1 4
q-2 11 -3 18q31 82 58 182q26 95 32 194v13v2v1q-1 56 -27 66q6 -22 8 -66h-1q-3 -95 -26 -187t-52 -170q-3 17 -16 86l-7 41q-13 73 -24 128q-4 24 -4 43q0 29 13 29l1 1q0 7 -1 12v3v2q-2 8 -5 13q-18 -3 -27 -3q-6 -1 -27 -1q-16 0 -28 1q-1 0 -9 1q-13 2 -19 3v-15v-2
q2 -8 5 -14h1h2q2 0 3 -1q17 -4 32 -68q7 -35 15 -79t15 -79t15 -79t15 -79q2 -14 4 -21q2 -14 4 -21q-41 -104 -68 -157q-32 -64 -32 -167h1q1 -50 30 -62l-2 10q-3 11 -5 19q-3 11 -5 36z" />
    <glyph glyph-name="Y" unicode="Y" horiz-adv-x="377" 
d="M277 401q0 100 34 195q35 99 49 201q1 3 1 12q0 54 -32 69q3 -13 9 -36q5 -25 5 -45q-12 -106 -47 -187q-35 -80 -35 -180q0 -16 -6 -19q-7 0 -16 28v-2q-5 18 -11 40t-11 40q-6 24 -18 65l-5 15q-13 48 -26 85t-27 85q-4 15 -4 25v5q3 5 14 5v6v6v11q-1 3 -6 9h-1
q-8 -2 -12 -5q-5 -4 -13 -4h-28q-9 0 -14 1q-3 1 -6 1q-4 0 -7 1q-6 0 -14 3t-15 3q-1 -3 -1 -9q0 -2 1 -5v-3q2 -9 6 -14h2h1h2q6 -1 15 -6l3 -1q7 -4 15 -25q12 -47 26 -87q11 -30 28 -87q6 -22 14 -49q7 -27 13 -49t14 -49t14 -49q9 -28 12 -68v-116v-118q-1 -59 -17 -67
q-1 -1 -5 -1v-1v-2q-2 -8 -2 -12q0 -7 2 -15q3 1 11 1q5 0 11 1v1q14 1 32 1q17 0 30 -1q3 -1 7 -1q5 -1 6 -1q4 -1 13 -1q3 8 3 14q0 7 -3 16h-4h-3h4q-23 0 -23 92v-90v52v101v83v-6q0 28 7 68q6 31 8 70z" />
    <glyph glyph-name="Z" unicode="Z" horiz-adv-x="395" 
d="M308 1l21 -3q9 0 23 -7v1q6 0 10 4q0 43 4 71q3 27 11 69q-3 7 -7 9q-6 0 -10 -4q-2 -8 -2 -10q-2 -8 -2 -10q-11 -34 -29 -57q-18 -25 -38 -30q-31 0 -46 1h-46h-26q-9 -1 -26 -1q-5 5 -5 17q0 21 14 72l-25 -89q18 63 54 191q5 16 27 96t26 96q15 51 45 155q8 31 19 69
q18 65 24 88q23 72 44 72v1q3 5 7 12l1 3q0 1 1 8v7q-4 -1 -6 -1q-5 0 -7 -1v2v1q-14 -1 -43 -1q-15 -1 -43 -1q-4 0 -6 1q-3 0 -5 1v-1q-1 0 -1 -1q-18 0 -27 -1q-18 -2 -28 -2q-15 0 -47 2q-16 1 -46 1v1q-12 2 -25 2q-4 0 -27 6q-2 6 -7 8q-5 0 -10 -4q0 -42 -3 -72
q-3 -22 -12 -68q4 -8 8 -10q5 0 9 4q1 3 2 8q2 7 2 8l-1 -4v4v1l1 1q0 2 1 3v2q6 29 24 55q18 24 39 27l-42 1q45 -1 134 -1h24h24v-1h1q3 0 3 -1q8 0 8 -20q0 -19 -7 -48q-10 -35 -22 -79q-13 -44 -23 -79q-5 -19 -8 -29q-24 -83 -36 -129l-45 -159l-45 -159
q-18 -57 -34 -66h-3q-1 -1 -4 -1v-2h-1h1q-5 -7 -7 -14q-1 -3 -1 -15q2 0 4 1h4v-2q16 1 48 1q31 0 47 1h5h2q17 0 26 1h25q37 0 55 -1q19 -1 56 -1zM320 33h25h-25z" />
    <glyph glyph-name="bracketleft" unicode="[" horiz-adv-x="86" 
d="M65 800q0 1 1 8v8q0 11 1 17q-17 -7 -30 -7q-14 0 -29 7q1 -46 1 -104q1 -58 2 -104q2 -138 2 -208t-2 -208q-1 -46 -2 -104q0 -58 -1 -104q17 6 29 6t30 -6q-1 5 -1 17v8q-1 5 -1 9q-12 5 -18 6h-19q1 62 1 188v189v188q0 125 -1 188q7 0 14 1h5q5 0 18 5z" />
    <glyph glyph-name="backslash" unicode="\" horiz-adv-x="151" 
d="M43 692q-7 -4 -14 -4t-15 4q6 -38 14 -86q7 -48 13 -86q6 -39 13 -87t13 -87q4 -29 25 -172q20 -144 24 -173q7 4 12 4q7 0 14 -4q-6 42 -14 92q-10 71 -12 81q-1 8 -12 86q-12 78 -13 86l-24 174q-5 38 -12 86t-12 86z" />
    <glyph glyph-name="bracketright" unicode="]" horiz-adv-x="100" 
d="M11 800q13 -5 18 -5h5q7 -1 14 -1v-94q-1 -78 -1 -94v-188v-189q0 -42 1 -95v-93h-19q-6 -1 -18 -6q-1 -16 -1 -34q17 6 30 6q11 0 29 -6q-2 67 -4 205v3q-1 69 -1 208t1 208v3q2 138 4 205q-17 -7 -29 -7q-15 0 -30 7v-17q0 -11 1 -16z" />
    <glyph glyph-name="underscore" unicode="_" horiz-adv-x="230" 
d="M20 -18v-36h215v36h-215z" />
    <glyph glyph-name="grave" unicode="`" horiz-adv-x="95" 
d="M8 834q0 -1 2 -9q5 -18 6 -23q8 -35 16 -58q8 -27 20 -56q11 -24 19 -24q7 0 7 14v4q-1 4 -1 6q-1 23 -9 56q-8 30 -15 58q-6 21 -9 32q-6 -9 -16 -9q-8 0 -20 9z" />
    <glyph glyph-name="a" unicode="a" horiz-adv-x="494" 
d="M338 186q4 -16 6 -25q2 -8 6 -21l2 -7l9 -36q3 -14 4 -16q5 -23 5 -35q0 -18 -8 -21h-5v-1h-1h1q0 -6 1 -10v-2q1 -6 6 -11q16 0 21 1q12 0 18 1h13q21 0 31 -1h6q3 -1 7 -1q6 -1 13 -1q0 1 1 3v3v3l-1 2q0 3 -6 13h-2h-1q-2 0 -2 1h-2h4q-23 0 -42 76l19 -74
q-14 52 -21 79q-5 18 -10 40t-10 40t-10 40t-10 40t-10 40q-6 22 -11 40l-3 12q-9 38 -13 53l-7 27q-7 28 -9 38q-6 21 -16 65q-2 9 -9 36q-4 16 -8 29l-1 3q-3 19 -3 26q0 6 2 15q1 3 1 4q6 16 17 16q0 1 1 1v13q-1 5 -4 11q-1 0 -19 -3q-3 0 -5 -1q-10 -1 -15 -1
q-15 -1 -27 -1h-11q-10 0 -16 1q-6 0 -16 2q-12 3 -16 3v-2q-1 -2 -1 -3l1 -3v-4q1 -5 6 -13h1q12 -6 12 -23q0 -7 -2 -24q-1 -6 -2 -11q0 -2 -1 -4q-2 -9 -7 -37q-3 -13 -6 -28q-5 -26 -14 -65q-2 -9 -7 -37q-3 -13 -6 -28q-2 -9 -7 -37q-3 -13 -6 -28q-3 -18 -8 -40
t-8 -40q0 -1 -8 -40q-9 -38 -9 -40q-3 -18 -8 -40t-8 -40q-4 -17 -7 -35q-7 -32 -10 -44v-1l15 75q-8 -41 -23 -58q-15 -18 -19 -18h1l-2 -1q-1 -3 -2 -5q-2 -6 -2 -8q-1 -2 -1 -12q0 1 7 1l7 1q12 0 14 1q4 1 11 1q4 0 11 -1q0 -1 7 -1l7 -1q8 -1 14 -1q1 5 3 9l1 3
q0 2 1 4v3q0 3 1 5q-1 0 -2 1q-4 6 -11 17q-7 10 -7 24q0 4 2 13v3l3 18l4 20q3 13 6 27q0 3 2 11v1l1 3q2 4 3 9l4 12q3 8 6 9q2 2 9 3q5 0 24 1q12 0 23 1q16 0 24 1h23h18q6 -1 20 -1q23 0 37 -1l7 -1q5 -1 7 -1q3 0 7 -9zM326 238q0 -10 -1 -13q-1 -4 -8 -5v1
q-16 -1 -38 -1h-19h-18q-31 0 -92 2h-3q-7 0 -7 7v5l6 27q3 14 6 30q4 20 6 29q1 6 3 14t3 14q8 41 26 123q3 14 6 31t6 31q7 37 13 62q3 10 9 10q7 -2 11 -12q3 -14 8 -31t8 -31q9 -36 16 -62q3 -14 8 -31q4 -17 7 -31q3 -12 9 -34q5 -20 7 -27q1 -5 9 -33q5 -19 5 -21
q6 -29 14 -54z" />
    <glyph glyph-name="b" unicode="b" horiz-adv-x="377" 
d="M289 469q-5 8 -5 17q0 3 2 9v2q14 22 14 56q0 6 -1 20l-1 4q-6 53 -20 80q-14 24 -40 38q-3 2 -9 2q-1 0 -4 -1t-5 -1l-158 -3q-9 0 -27 3q-1 -5 -1 -12q0 -10 1 -14h1h1h1q2 0 3 -1q17 -3 20 -56v-66v-66v-66v-66v-67v-66v-66v-66q-3 -51 -17 -56h-2q0 -1 -1 -1h-2h-1
q-2 -8 -2 -12q0 -8 3 -13q10 1 17 2h5v1h-1h-1q0 -1 1 -1h2h70h8h5h4l85 -2q5 -1 11 -1q40 0 79 51q40 51 40 157q0 81 -25 154q-24 70 -50 107zM229 486q24 0 51 -84q26 -86 26 -177q0 -95 -20 -146q-21 -51 -45 -51h-2h-2q-2 -1 -4 -1l-90 1q-16 0 -16 23v412q0 23 16 23
h78q2 0 3 -1q1 1 5 1zM210 670q14 0 31 -23q15 -22 15 -55q0 -32 -8 -54q-8 -23 -23 -23h-1h-1h-1h-1h-1h-79q-14 0 -14 20v115q0 20 14 20h64h1h1h1h1h1z" />
    <glyph glyph-name="c" unicode="c" horiz-adv-x="334" 
d="M262 108v-9q0 -27 -23 -41q-42 0 -84 45q-45 48 -66 157q-13 62 -13 125q0 51 9 97q19 103 46 145q14 22 57 35q6 3 18 3q30 0 45 -39q4 -20 4 -29v-3q-1 -15 -1 -32v4v-4q5 -6 8 -6q4 0 10 6q0 23 1 46v21q4 44 7 67q-5 5 -8 5t-10 -5v-5v-4v-4v-4v15q0 -21 -14 -21
q-11 0 -30 11q-16 11 -34 11q-62 0 -109 -102q-47 -103 -47 -245q0 -144 54 -245q53 -102 118 -102q67 0 113 111v1l3 6q1 6 1 19q0 12 -1 18q-6 18 -15 22q-3 2 -8 2q-7 0 -15 -6q-12 -12 -16 -28q-3 -10 -3 -21q0 -9 3 -17zM241 59l15 4q-2 -1 -3 -1q-7 -3 -12 -3z" />
    <glyph glyph-name="d" unicode="d" 
d="M177 695l-90 -5l-1 1h-1h-11q-10 0 -16 1q-10 0 -28 3q-1 -6 -2 -9v-3v-3q1 -3 2 -11h1h1q2 0 3 -1q17 -3 20 -56v-66v-66v-66v-66v-67v-66v-66v-66q-3 -51 -17 -56h-2q0 -1 -1 -1h-2h-1l-1 -6q-1 -5 -1 -6q0 -7 3 -13q10 1 17 2h5v1q13 0 18 1h13h13q5 -1 18 -1
q3 -1 13 -1q9 -1 12 -1q12 -1 24 -1h34q51 0 95 59t44 202q0 85 -20 182t-52 161q-21 43 -46 66q-25 24 -45 24h1zM166 670q18 0 48 -30q27 -29 49 -86q17 -48 27 -105t10 -127q1 -10 1 -29q0 -48 -11 -89q-13 -59 -27 -94q-20 -50 -47 -67q-25 -15 -49 -15h-1h-29
q-12 0 -12 19v603q0 20 12 20h26h1h2z" />
    <glyph glyph-name="e" unicode="e" horiz-adv-x="330" 
d="M291 108q-4 -28 -28 -52q-24 -25 -45 -27h-1v-1h-21h-62q-9 2 -12 3q-4 1 -4 35v-38v80v80v80v79v26v29v31v31q0 1 1 8v8q0 4 12 4q2 0 8 -1q7 -1 13 -1q17 -5 39 -25q23 -20 33 -41q2 -6 3 -7v-3q1 0 1 -2v2l1 -3l1 -3q1 0 4 -1h2q1 0 3 1h3q5 2 11 11l-9 18l-9 18
q-7 13 -14 39q-4 20 -6 42q0 8 -1 33l-1 12h-10q-4 -2 -10 -10l-1 -1v-2q1 -1 1 -2v-1v-2q-3 -29 -26 -33q-22 -6 -36 -6q-2 0 -5 -1h-2q-6 0 -6 3v13v32v33v32v27q0 9 6 12q2 1 14 1q11 1 15 1h37h1h12h-14q23 0 47 -3q25 -4 28 -33v-1v-2q0 -1 2 -1l1 -1h2q1 -1 3 -1
q3 27 6 41q1 10 8 39q-1 1 -2 1t-3 1h-3q-1 -1 -2 -1t-1 -1q-33 -8 -64 -11h-6q-26 -2 -39 -2q-5 -1 -11 -1q-10 -1 -12 -1q-8 -1 -21 -1h-8h-2h1h1h-1h-15q-5 -1 -12 -1t-12 1h-16q-9 0 -27 3q-3 -7 -3 -12t3 -13h1h1q-1 0 -1 -1h1h3q17 -3 20 -57v-65v-66v-67v-66v-66v-66
v-67v-65q-3 -51 -18 -56q-2 0 -2 -1h-2l-1 -1h-1h1l-1 -3q-1 -6 -1 -9q0 -7 3 -12q4 1 10 1q7 0 12 1q12 0 17 1h13q22 0 32 -1h1h1h2h1l19 -2h1h170q1 3 1 13q0 11 -1 14q-4 17 -4 21q-2 10 -2 22v9q-1 5 -1 10q0 24 3 51q-4 4 -8 4t-8 -4l-1 -12q-1 -15 -1 -21z" />
    <glyph glyph-name="f" unicode="f" horiz-adv-x="295" 
d="M128 516q-2 0 -5 -1h-2q-6 0 -6 3v13v32v33v32v27q0 9 6 12q2 1 14 1q11 1 15 1h37h1h12h-14q23 0 47 -3q25 -4 28 -33v-1v-2q0 -1 2 -1l1 -1h2q1 -1 3 -1q3 27 6 41q1 10 8 39q-1 1 -2 1t-3 1h-3q-1 -1 -2 -1t-1 -1q-33 -8 -64 -11h-6q-26 -2 -39 -2q-5 -1 -11 -1
q-10 -1 -12 -1q-8 -1 -21 -1h-8h-2h1h1h-1h-15q-5 -1 -12 -1t-12 1h-16q-9 0 -27 3q-3 -7 -3 -12t3 -13h1h1q-1 0 -1 -1h1h3q17 -3 20 -57v-65v-66v-67v-66v-66v-66v-67v-65q-3 -51 -18 -56q-2 0 -2 -1h-2l-1 -1h-1h1l-1 -3q-1 -6 -1 -9q0 -7 3 -12q4 1 10 1q7 0 12 1
q12 0 17 1h13q22 0 32 -1q7 0 12 -1h7q2 -1 6 -1q3 6 3 12t-3 13q-3 0 -6 1h3q-22 0 -22 76v-75v80v80v80v79v26v29v31v31q0 1 1 8v8q0 4 12 4q2 0 8 -1q7 -1 13 -1q17 -5 39 -25q23 -20 33 -41q2 -6 3 -7v-3q1 0 1 -2v2l1 -3l1 -3q1 0 4 -1h2q1 0 3 1h3q5 2 11 11l-9 18
l-9 18q-7 13 -14 39q-4 20 -6 42q0 8 -1 33l-1 12h-10q-4 -2 -10 -10l-1 -1v-2q1 -1 1 -2v-1v-2q-3 -29 -26 -33q-22 -6 -36 -6z" />
    <glyph glyph-name="g" unicode="g" horiz-adv-x="364" 
d="M324 292q4 16 19 20h1h1h1q6 8 6 12q0 5 -6 12q-31 -3 -53 -3t-54 3q-6 -6 -6 -12t6 -12h1h1h1q18 -4 21 -27v-147v-12v-13v1v-4q-1 -8 -1 -14q-2 -13 -6 -20q-4 -9 -12 -18q-8 -12 -11 -13q-8 -4 -21 -9l-2 -1q-3 -2 -11 -2q-2 0 -6 1q-5 1 -7 1q-1 0 -7 3q-4 2 -7 3
q-25 11 -42 48q-15 36 -18 62q0 4 -1 12l-1 5q-2 12 -2 19v22v33v38v41v40v39v33v23v2q2 24 10 69q8 49 19 79q1 5 2 5q3 9 12 20v1q9 20 43 30q7 3 23 3q15 0 28 -4q30 -9 39 -35q4 -17 4 -29v-12v-9q-1 -9 -1 -14l1 4q0 -2 -1 -4q5 -6 9 -6q5 0 9 6v16v17v10q1 15 1 24
q4 46 8 67q-7 5 -9 5q-4 0 -9 -5v-5v-4v-4v-4l-1 15q0 -21 -14 -21q-12 0 -29 11q-16 11 -34 11q-64 0 -124 -102q-63 -102 -63 -245q0 -144 54 -245q53 -102 118 -102q21 0 43 14h-1q2 0 3 1q6 4 14 12q20 16 35 25q22 14 37 17h1h2h1q4 5 4 11q0 3 -4 10h-1h-1h-1
q-9 1 -11 17v154v30zM328 312h-4h2h1h1zM324 100v-9v9z" />
    <glyph glyph-name="h" unicode="h" horiz-adv-x="334" 
d="M130 486h81q15 -3 16 -23v-29v-29v-28v-29v-67v-66v-66v-66q-1 -51 -17 -56h-1l-1 -1h-2h-1l-1 -3q-1 -6 -1 -9q0 -5 2 -13q8 1 18 2h4v1q13 0 18 1h13h13q5 -1 19 -1q1 -1 6 -1q2 -1 6 -1q8 0 14 -1q3 6 3 12t-3 13q-3 0 -4 1h-2h-2h5q-23 0 -23 76v-75v80v80v80v80v65
v65v65v65q0 60 22 60q0 1 1 1q3 8 3 13t-3 12q-19 -3 -28 -3h-28h-11q-10 0 -16 1q-9 0 -27 3q-3 -7 -3 -12q0 -6 3 -14h1h1q2 0 3 -1q18 -2 19 -56v-19v-20v-19v-19q-3 -19 -16 -20h-83q-11 3 -13 24v17v17v18v17q2 60 23 60q0 1 1 1l1 3q1 7 1 10t-1 9l-1 3q-11 -2 -28 -3
h-7h-7h-7h-7h-11q-10 0 -16 1q-8 0 -28 3q-1 -6 -2 -9v-3v-3q1 -3 2 -11h1h1q3 0 3 -1q17 -3 20 -56v-66v-66v-66v-66v-67v-66v-66v-66q-3 -52 -17 -56h-5v-1h-1h1q-3 -9 -3 -12q0 -7 3 -13q3 1 11 1q8 1 11 1v1q13 0 18 1h13h13q5 -1 18 -1q7 0 13 -1q2 -1 6 -1q2 -1 7 -1
q3 8 3 12t-3 13q-3 0 -4 1h-1h-2h4q-23 0 -23 76v-75v80v80v80v80v34v35v34v35v-26q0 22 15 26zM115 533v-18v5v3v5v5zM218 515h9h-9z" />
    <glyph glyph-name="i" unicode="i" horiz-adv-x="138" 
d="M20 27h-2q0 -1 -1 -1h-2h-1l-1 -6q-1 -5 -1 -6q0 -7 3 -13q11 1 17 2h5v1q13 0 18 1h13h13q5 -1 18 -1q2 -1 10 -1q2 0 8 -1q4 0 8 -1q3 8 3 12t-3 13q-3 0 -4 1h-1h-2h4q-23 0 -23 76v-75v80v80v80v80v65v65v65v65q0 60 23 60v1q3 8 3 13t-3 12q-18 -3 -27 -3h-28h-11
q-10 0 -16 1q-10 0 -28 3q-1 -6 -2 -9v-3v-3q1 -3 2 -11h1h1q2 0 3 -1q17 -3 20 -56v-66v-66v-66v-66v-67v-66v-66v-66q-3 -51 -17 -56z" />
    <glyph glyph-name="j" unicode="j" horiz-adv-x="269" 
d="M56 15q3 2 5 5l1 1q9 14 9 31q0 42 -30 42q-28 0 -28 -42v-1v-1h-1q0 -61 31 -98q30 -37 76 -37t77 51q31 49 31 111h-1v62v75v75v59v65v65v65v65q2 60 23 60q0 1 1 1l1 3q1 7 1 10t-1 9l-1 3q-19 -3 -28 -3h-28h-11q-10 0 -16 1q-9 0 -27 3q-3 -7 -3 -12q0 -6 3 -14h1h1
q2 0 3 -1q18 -3 19 -56v-66v-66v-66v-66v-61v-76v-76v-60q0 -56 -17 -94q-18 -41 -43 -41q-34 0 -52 40q-3 9 -3 16q0 9 7 19z" />
    <glyph glyph-name="k" unicode="k" horiz-adv-x="403" 
d="M225 580q-1 4 -1 12q0 19 9 34l-1 -3l6 13l-3 -7q5 9 20 24q13 14 24 19h1h1h1q1 4 1 11q0 5 -1 10q-16 -4 -29 -4h-8q-13 0 -28 4q-6 -7 -6 -10q0 -6 5 -11h1q3 0 3 -8q0 -2 -1 -4q-1 -4 -1 -6q-3 -18 -9 -31l-67 -126q-9 -13 -14 -13q-7 0 -7 16v-8v29v29v29v29
q2 60 23 60v1q3 8 3 13t-3 12q-18 -3 -27 -3h-28h-11q-10 0 -16 1q-9 0 -28 3q-1 -6 -2 -9v-3v-3q1 -3 2 -11h1h1q3 0 3 -1q17 -3 20 -56v-66v-66v-66v-66v-67v-66v-66v-66q-3 -52 -17 -56h-2q0 -1 -1 -1h-2h-1h1q-3 -7 -3 -12q0 -7 3 -13q10 1 16 2h6v1q13 0 18 1h13h13
q5 -1 18 -1q3 -1 10 -1q2 0 8 -1q4 0 8 -1q3 8 3 12t-3 13q-3 0 -4 1h-1h-2h4q-23 0 -23 76v-75v80v80v80v80v6v6v7v6q0 16 7 42q8 27 16 42q13 20 25 20q10 0 19 -19l92 -381q1 -7 1 -29q0 -15 -5 -20h-1h-1h-1q-2 -6 -2 -15t2 -13q35 5 56 5t54 -5q3 8 3 13t-3 14h1h-1v1
h-1q-10 1 -21 17q-11 18 -14 30l5 -23l-8 33q0 -2 1 -3l-115 475l-10 43zM176 518l5 9zM145 458l8 17l-9 -17l2 3q0 -1 -1 -2v-1z" />
    <glyph glyph-name="l" unicode="l" horiz-adv-x="330" 
d="M117 122v228v65v65v65v65q2 60 23 60v1q3 8 3 13t-3 12q-2 -1 -6 -1q-3 -1 -7 -1q-6 -1 -14 -1h-16q-5 -1 -11 -1q-5 0 -7 1h-8q-5 1 -13 1q-7 1 -14 1q-10 1 -13 1q-3 -7 -3 -12t3 -13h1h1h1h1q0 -1 1 -1q18 -3 19 -56v-66v-67v-66v-65v-63v-63v-65v-68h1v-2v-2v-3v-2
q-3 -51 -18 -57h-1h-1h-2h-1q0 -1 -1 -1h1q-2 -5 -2 -12q0 -6 3 -11q13 1 22 1q9 1 30 1h18h14v-1h5v-1h19h1h170q1 3 1 12q0 11 -1 14h-1q0 5 -3 21q-2 14 -2 22v9q-1 5 -1 10q0 24 3 51q-5 4 -8 4q-4 0 -8 -4v-3q-2 -20 -2 -30q-4 -27 -28 -52q-24 -24 -45 -27l77 7v1
l1 -1v-1l-100 -7h-62q-5 0 -13 2q-3 2 -3 36v-38v23v23v23v26h-1z" />
    <glyph glyph-name="m" unicode="m" horiz-adv-x="663" 
d="M113 59q-3 -10 -10 -18q-8 -12 -14 -13h-1h-2h-1h-2q-3 -6 -3 -13q0 -8 3 -14q17 5 32 5q14 0 31 -5q4 7 4 14q0 5 -4 12v1h-3q-12 0 -12 30l45 226h-19zM227 550q8 30 12 31q5 0 18 -28l71 -230l-1 -8q3 -2 8 -2q3 0 7 1q2 1 3 1l50 258q5 21 9 21q3 0 5 -8l4 -16v-1
q0 -1 1 -1v1l55 -221l7 -29q5 -21 10 -38q3 -15 8 -33t8 -33q2 -5 9 -33q7 -27 8 -33q2 -5 9 -33q7 -27 8 -33q3 -11 3 -28q0 -22 -12 -28h-1q-1 -1 -2 -1h-1h-1h-1h1q0 -6 1 -10v-2q0 -5 6 -13q2 1 7 1q2 0 6 1q9 0 14 1q12 0 17 1h13q22 0 31 -1q3 -1 12 -1q3 -1 8 -1
t7 -1v6v6q-1 5 -6 13q-3 0 -4 1h-2h-1h4q-24 0 -42 76l18 -75v1q-4 16 -11 45q-7 25 -9 34l-4 14q-10 41 -16 66q-5 18 -10 40t-10 40l-4 14q-10 41 -16 66q-2 9 -9 36q-4 16 -8 29l-7 27q-7 28 -9 38l-7 27q-7 28 -9 38q-6 21 -16 65q-6 24 -6 38q0 22 13 22q0 1 1 1
q0 10 -1 13q0 4 -5 12h-3q-17 -2 -24 -2q-8 -1 -28 -1h-6h-5q-5 0 -11 1l6 -25l-32 -156q-4 -19 -10 -29q-2 -3 -5 -3q-4 0 -7 9l-41 119q-5 27 -5 39q0 22 13 22v14q-1 5 -6 12q-15 -3 -27 -3h-16q-4 -1 -11 -1q-4 0 -6 1h-4h-9q-6 0 -7 1h-7q-2 1 -4 1q-3 0 -5 1
q-4 0 -5 1q-7 -9 -7 -12v-2q-1 -2 -1 -3q0 -2 1 -5v-3q2 -1 6 -1q4 -1 6 -1l-12 1q22 0 22 -32q0 -36 -4 -65l-56 -287h18zM221 607l11 59h1z" />
    <glyph glyph-name="n" unicode="n" horiz-adv-x="429" 
d="M387 646v40q0 24 10 34q4 4 8 4q1 0 4 -1q2 -1 3 -1q8 -4 15 -11q1 -2 2 -5q3 -8 5 -14q2 -3 2 -10t-3 -15q2 0 7 8q6 9 9 26q2 6 2 19q0 17 -6 30q-12 20 -30 23q-21 0 -35 -20q-15 -22 -15 -52v-1v-1v-2v-2v-468q-1 -20 -14 -20q-12 0 -30 37l-43 104q-30 70 -54 130
q-2 4 -9 24q-10 23 -16 41q-9 21 -27 65q-12 32 -12 46t10 14q0 1 1 1q0 7 -3 13q-4 8 -7 12q-18 -3 -27 -3h-27h-12q-10 0 -16 1h-10h-16l-27 3q0 -7 3 -12q1 -6 8 -14h1q3 0 3 -1h2h1q16 -4 16 -27q0 -33 1 -50l1 4v-542q-3 -19 -17 -23h-1h-2v-1h-1h1q-2 -5 -2 -13
q0 -9 2 -15q16 4 29 4q12 0 29 -4q3 11 3 15q0 5 -3 14h-1h-1h-1q-14 3 -16 23v528q0 8 5 26q6 8 11 8q3 0 6 -3q7 -7 16 -27q7 -18 28 -68q8 -21 21 -53q8 -18 23 -55q17 -41 25 -61q9 -23 27 -67t26 -66l27 -66l27 -66q9 -26 15 -52q3 -13 3 -20q0 -10 -4 -10q2 1 5 1t5 1
h4h5v1h7h8h7h8l24 -3l-1 2q-12 21 -15 52q-5 28 -7 64v135v128v129v135z" />
    <glyph glyph-name="o" unicode="o" 
d="M187 695q-65 0 -110 -102q-46 -101 -46 -245t46 -245q45 -102 110 -102q64 0 110 102q46 101 46 245q0 143 -46 245t-110 102zM125 636q5 3 17 3q33 0 70 -40q47 -53 71 -171q15 -75 15 -150q0 -38 -5 -85q-14 -118 -52 -131q-7 -4 -20 -4q-31 0 -63 36q-44 47 -66 166
q-18 87 -18 175q0 43 2 65q9 120 49 136z" />
    <glyph glyph-name="p" unicode="p" horiz-adv-x="303" 
d="M146 451q32 12 45 19q14 6 22 9q7 2 20 8l6 3q7 2 20 9q10 4 18 19q7 15 8 30l1 16q1 10 1 13q0 49 -19 84q-19 34 -58 34l-158 -3q-9 0 -26 3q-1 -6 -2 -9v-3v-3q1 -3 2 -11h2q2 0 3 -1q17 -3 20 -56v-66v-66v-66v-66v-43v-43v-44v-45v-24v-12q-1 -10 -1 -12v-23v-20
q-1 -50 -18 -56h-1h-2h-1l-1 -1h-1q-1 -4 -1 -12q0 -6 2 -12q10 0 13 1q8 0 10 1h20h14h19h14q2 -1 7 -1q2 -1 7 -1h14q3 6 3 11q0 4 -3 13q-5 0 -8 1h5q-25 0 -25 76v-75v41v40v43v46h-1v217q0 9 6 18q6 10 12 13zM140 470q-6 -1 -9 -3q-15 0 -15 18v165q0 20 15 20h63h2h1
h1h1h1q15 0 30 -23q16 -22 16 -55q0 -27 -12 -59q-13 -33 -35 -40z" />
    <glyph glyph-name="q" unicode="q" 
d="M260 43q38 44 60 125q23 84 23 180q0 143 -46 245t-110 102q-65 0 -110 -102q-46 -101 -46 -245t46 -245q45 -102 110 -102q31 0 63 29q13 -25 13 -47q0 -11 -3 -20q-6 -15 -22 -15q-17 3 -37 27q0 -7 16 -26q28 -33 52 -53q16 -14 26 -14q8 0 13 8q4 7 4 18q0 17 -11 52
q-16 49 -41 83zM229 59h-4q-4 -1 -5 -1q-33 0 -68 43q-39 50 -60 159q-18 87 -18 175q0 43 2 65q9 120 49 136q5 3 17 3q33 0 70 -40q47 -53 71 -171q15 -76 15 -151q0 -44 -4 -79q-13 -114 -50 -135l-1 1q-16 20 -22 44q-3 12 -3 23q0 10 3 19q6 17 18 17q16 0 41 -29
q0 6 -16 25q-24 28 -49 46q-11 8 -19 8q-9 0 -15 -11q-5 -8 -5 -21q0 -18 9 -47q18 -51 42 -77z" />
    <glyph glyph-name="r" unicode="r" horiz-adv-x="299" 
d="M219 464q3 17 16 23q4 1 12 5q2 2 3 2q7 6 12 9q8 8 11 15q11 20 11 47q0 52 -25 90q-27 40 -64 40l-143 -3q-9 0 -26 3q-1 -6 -2 -9v-3v-3q1 -3 2 -11h2q2 0 3 -1q17 -3 20 -56v-66v-66v-66v-66v-43v-43v-44v-45v-24v-12q-1 -10 -1 -12v-23v-20q-1 -50 -18 -56h-1h-2h-1
l-1 -1h-1q-1 -4 -1 -12q0 -6 2 -12q10 0 13 1q8 0 10 1h20h14h19h14q2 -1 7 -1q2 -1 7 -1h14q3 6 3 11q0 4 -3 13q-5 0 -8 1h5q-25 0 -25 76v-75v41v40v43v46h-1v262q0 24 18 27h13q11 -1 22 -1q5 -1 15 -1q13 -6 13 -25v26h1q0 -11 -1 -16q0 -15 3 -71q3 -59 9 -128
q7 -83 17 -145q9 -69 25 -122q16 -51 36 -74q18 -22 29 -22q0 -1 3 -1q9 0 24 12q15 13 15 40t-14 47q-12 20 -22 20q-5 0 -5 -11v-8q0 -14 -11 -16q-12 0 -23 24l-3 6q0 1 -1 4q0 1 -1 3q-15 46 -25 103q-12 79 -17 125q-7 62 -12 121q-1 24 -3 50v8q-2 21 -2 30zM145 515
h-8q-5 0 -6 -1q-15 0 -15 18v118q0 20 15 20h40h1h1q2 0 8 -1h5q2 -1 3 -1q12 0 26 -10q11 -7 23 -26q6 -10 9 -29q0 -7 1 -15v-12q0 -27 -24 -45q-23 -17 -48 -17z" />
    <glyph glyph-name="s" unicode="s" horiz-adv-x="420" 
d="M247 688q-28 9 -57 9q-53 0 -86 -39t-36 -76l-1 -2h1l-1 -11q-2 -15 -2 -22q0 -60 33 -102q41 -53 97 -53v4v-4h1h1q62 0 114 -52q53 -52 58 -95q1 -7 1 -22q0 -30 -8 -75q-10 -55 -40 -86q-18 -20 -51 -28q-34 -8 -57 -8q-13 0 -35 5q-4 2 -15 5q-12 4 -16 6
q-15 5 -21 9q-10 5 -20 15q-29 26 -42 62q-6 10 -9 35q-1 7 -1 9q-1 13 -1 18q0 2 1 4v3q3 27 10 33q7 5 22 5q3 -4 7 -6l3 -3l1 -2q5 -4 6 -18q0 -17 -2 -20q-1 0 -1 -3q0 -2 5 -2q8 0 22 17q13 14 16 30q2 7 4 17v7v6q0 74 -50 80h-4q-4 1 -6 1q-23 0 -40 -20
q-19 -22 -19 -66v-2v-5v-5v-5q0 -25 5 -56q3 -34 14 -61q8 -23 22 -39q15 -20 26 -29q19 -18 47 -32q38 -18 71 -18q31 0 64 10q35 11 59 33q36 33 51 85q14 49 16 92v1q0 118 -61 206q-61 87 -146 87h-1h-2v-1q-28 2 -47 26q-21 26 -21 65h2q2 26 27 44q22 19 59 19
q34 0 55 -20t30 -43l14 -54q7 -4 13 -4t11 4q-10 33 -20 78l-6 40q-1 24 -3 39q-7 4 -13 4q-7 0 -11 -4q1 -3 1 -6q0 -4 1 -5q1 -9 1 -11l-3 22q1 -4 1 -11q0 -14 -9 -14q-14 0 -29 5z" />
    <glyph glyph-name="t" unicode="t" horiz-adv-x="446" 
d="M89 694q-5 0 -18 7v-7h-1q0 1 1 4v4q-3 3 -7 3q-6 0 -9 -3q-4 -34 -11 -71q-6 -35 -16 -71q3 -3 8 -3q2 0 8 3q2 7 8 31l-2 -9q5 28 26 55q22 28 45 31l-3 1h15q5 -1 16 -1h15h16q16 -4 19 -56v-66v-66v-66v-66v-67v-66v-66v-66q-3 -51 -18 -56h-1q0 -1 -1 -1h-1h-2
l-1 -3q-1 -6 -1 -9q0 -5 2 -13q4 0 6 1q4 0 6 1q5 0 11 1q12 0 18 1h12q23 0 31 -1q4 -1 7 -1q6 0 7 -1q7 0 13 -1q2 8 2 12q0 3 -1 11l-1 2q-3 0 -4 1h-2h-1h4q-24 0 -24 76v-75v1v79v80v80v80v65v65v65v65q3 60 24 60h13h14q9 0 14 1h14h-2q19 -1 38 -24q21 -24 28 -45
q1 -7 6 -24l4 -16q6 -3 9 -3q4 0 8 3q-9 30 -17 71q-7 35 -11 71q-3 3 -8 3t-8 -3v-1q-13 -7 -16 -7q-12 -1 -36 -1q-12 -1 -35 -1h-36h-35h-35h-35q-23 0 -69 2z" />
    <glyph glyph-name="u" unicode="u" horiz-adv-x="373" 
d="M268 109q-1 -25 -9 -42q-24 -39 -59 -39q-32 0 -55 33q-23 34 -26 82v51v51v52v51v65v65v65v65q0 60 23 60v1q3 8 3 13t-3 12q-18 -3 -27 -3h-28h-12q-10 0 -16 1q-9 0 -27 3q-1 -6 -2 -9v-3v-3q1 -3 2 -11h2q2 0 3 -1q17 -3 20 -56v-66v-66v-66v-66v-51v-52v-51v-51
q3 -58 39 -99t85 -41q36 0 64 22q-1 -5 -1 -11q0 -8 2 -13q8 1 18 2h4v1q13 0 18 1h13h13q5 -1 19 -1q2 -1 10 -1q3 -1 8 -1t7 -1q3 8 3 12t-3 13q-2 0 -3 1h-2h-2h4q-22 0 -22 76v-75v80v80v80v80v65v65v65v65q0 60 22 60v1q3 8 3 13t-3 12q-18 -3 -27 -3h-28h-11
q-10 0 -16 1q-10 0 -27 3q-3 -9 -3 -12q0 -5 3 -14h1q3 0 4 -1q16 -1 19 -56v-66v-66v-66v-66v-48v-48v-48v-47v1v-7v-5v-10v-9v-9v-9z" />
    <glyph glyph-name="v" unicode="v" horiz-adv-x="382" 
d="M335 711q8 -11 11 -25v-11v-17q-2 -80 -14 -142q-7 -35 -25 -112l-4 -16q-18 -70 -29 -124q-12 -58 -12 -128q0 -22 -6 -28q-6 0 -15 37v-4q-3 11 -6 26t-6 26q-1 6 -5 26q-5 20 -6 26q-1 4 -5 26q-5 21 -6 25q-3 11 -6 26t-6 26q-9 39 -14 65q-9 39 -14 65q-5 21 -15 65
q-4 21 -14 65q-1 4 -1 7q-3 21 -3 28q0 25 14 25v1v13q0 1 -2 6q-1 1 -3 6l-27 -3h-7h-8h-6h-7h-11q-10 0 -16 1q-10 0 -29 3v-12q1 -6 6 -14h1h1q3 0 3 -1q18 -3 33 -56q1 -5 7 -33q5 -27 6 -33l15 -66l15 -66l15 -66q2 -9 6 -30q5 -24 8 -37l15 -66q4 -22 14 -66l15 -66
q3 -13 3 -32q0 -21 -8 -24h-5v-1v-6v-6q1 -5 6 -13q2 1 10 1q8 1 11 1v1q13 0 18 1h13h13q5 -1 18 -1q7 0 13 -1q2 -1 7 -1q2 -1 7 -1v6v6q-2 7 -6 13h-1h-1q0 1 -1 1q-16 6 -16 23q0 1 1 6q2 6 3 13q0 4 1 7q1 10 1 13q0 152 40 287q42 143 49 301v1v4v3v12q-1 32 -18 54
q-15 20 -36 20q-37 -8 -37 -79q0 -9 2 -19q3 -29 18 -29q7 0 15 14t8 30q0 2 -1 5v3q0 2 -3 5q-7 10 -7 17q0 6 2 6q2 1 3 1q7 0 21 -14z" />
    <glyph glyph-name="w" unicode="w" horiz-adv-x="523" 
d="M358 679q0 -68 -12 -134q-9 -52 -26 -124l-4 20q-4 17 -6 27t-5 23t-5 23q-4 15 -8 40l-2 7q-2 9 -6 26q-3 15 -5 21q-1 4 -1 8q-3 19 -3 26q0 26 14 26v1v13q-1 5 -6 12q-18 -2 -26 -2q-6 -1 -16 -1h-12h-11q-10 0 -16 1q-9 0 -29 3v-7v-5q2 -7 6 -14h1h1q3 0 3 -1
q18 -3 33 -56q4 -22 14 -66t14 -66l15 -66l15 -66l3 -12q6 -27 11 -54q-5 -25 -11 -73q-4 -31 -4 -73q0 -22 -6 -28q-6 0 -15 37v-4q-3 11 -6 26t-6 26q-1 6 -5 26q-5 20 -6 26q-1 4 -5 26q-5 21 -6 25q-3 11 -6 26t-6 26q-9 39 -14 65q-9 39 -14 65q-5 21 -15 65
q-4 21 -14 65q-1 4 -1 7q-3 21 -3 28q0 25 14 25v1v13q0 1 -2 6q-1 1 -3 6l-27 -3h-7h-8h-6h-7h-11q-10 0 -16 1q-10 0 -29 3v-12q1 -6 6 -14h1h1q3 0 3 -1q18 -3 33 -56q1 -5 7 -33q5 -27 6 -33l15 -66l15 -66l15 -66q2 -9 6 -30q5 -24 8 -37l15 -66q4 -22 14 -66l15 -66
q3 -13 3 -32q0 -21 -8 -24h-5v-1v-6v-6q1 -5 6 -13q2 1 10 1q8 1 11 1v1q13 0 18 1h13h13q5 -1 18 -1q7 0 13 -1q2 -1 7 -1q2 -1 7 -1v6v6q-2 7 -6 13h-1h-1q0 1 -1 1q-16 6 -16 23q0 1 1 6q2 6 3 13q0 4 1 7q1 10 1 13q0 63 11 137l3 -15q3 -12 4 -20l2 -7q5 -21 6 -30
q2 -10 9 -40l7 -31l1 -6q3 -20 3 -27q0 -20 -9 -23h-1h-1h-1h-2v-1h-1h1v-6v-6q2 -6 6 -12h6q3 0 5 1q6 0 11 1h-1q13 0 18 1h14q21 0 30 -1q8 0 13 -1q4 -1 7 -1q6 0 7 -1q0 1 1 3v3v3l-1 3q0 3 -6 13h-1h-1q0 1 -1 1h1h-1q-15 6 -15 23q0 6 3 19q2 12 2 20q0 149 40 287
q41 141 48 301h1v7v6v4v3q-1 30 -18 54q-14 20 -36 20q-36 -6 -36 -79q0 -15 1 -19q3 -29 18 -29q7 0 15 14t8 30v4q-1 1 -1 3h1q-7 16 -7 22t3 9q1 3 4 3q6 0 15 -14q2 -2 4 -8l4 -11q3 -10 3 -21h1q-1 -76 -15 -144l-4 -17q-14 -72 -25 -117q-15 -61 -28 -130
q-12 -58 -12 -131q-1 -21 -7 -28q-6 0 -15 37v-3q-8 34 -11 51q-3 11 -6 26t-6 26q-3 17 -11 51q-7 31 -11 52q-3 11 -5 23q-1 4 -1 5q5 23 15 71q8 35 15 72q14 71 18 150v1v2q0 53 -22 79v-2q2 -14 2 -21v-9q-1 -6 -1 -22v-18z" />
    <glyph glyph-name="x" unicode="x" horiz-adv-x="313" 
d="M57 46q0 68 29 120q26 46 58 117q1 -6 6 -27q2 -11 5 -22l12 -51q3 -17 11 -51q3 -11 5 -22q5 -21 6 -27q1 -4 1 -8q3 -19 3 -26q0 -19 -8 -22h-2q0 -1 -1 -1h-1h-1h-1h1q0 -2 -1 -4v-3q0 -2 1 -5q0 -5 5 -13q13 1 19 2h3v1q12 0 17 1h14h13q5 -1 18 -1q3 -1 11 -1
q2 0 8 -1q4 0 8 -1v6v6q-1 3 -6 13q-3 0 -4 1h-1h-2h4q-24 0 -40 76l16 -75q-4 18 -9 40t-9 40t-9 40t-9 40t-9 40t-9 40t-9 40t-9 40q0 2 -2 8q0 2 -1 7q-1 2 -1 4q29 62 59 152q25 75 31 161q1 1 1 11v1v1q-1 46 -27 56q7 -25 8 -56h-1q-4 -79 -26 -156q-22 -74 -52 -141
q-8 34 -12 52q-6 26 -12 54l-12 54q-7 31 -11 52q-5 25 -5 36q0 24 14 24v1v13q0 1 -2 6q-1 1 -3 6q-19 -3 -27 -3h-28h-11q-10 0 -16 1q-11 0 -29 3v-12q2 -6 6 -14h1h1q3 0 4 -1q17 -3 32 -56q4 -22 14 -66t16 -66q4 -22 14 -66t16 -66q0 -2 1 -8q2 -6 2 -10q1 -2 1 -4
t1 -4q2 -6 2 -9q-40 -87 -67 -131q-33 -55 -33 -139h1q1 -41 31 -51q-2 5 -5 18q-2 5 -2 6q-5 15 -5 30z" />
    <glyph glyph-name="y" unicode="y" horiz-adv-x="377" 
d="M277 335q0 80 34 162q32 75 50 169q1 1 1 9q0 45 -33 58q2 -4 4 -14q1 -2 3 -8q1 -6 2 -8q6 -19 6 -38q-10 -84 -48 -156q-34 -68 -34 -150q0 -14 -6 -16q-8 0 -16 24v-2l-7 21q-11 32 -15 46l-12 33q-8 22 -12 34q-13 40 -26 70t-26 71q-5 17 -5 21q0 2 1 4q3 4 13 4v5
q0 6 1 6q0 3 -1 6v2t-5 8q-9 -2 -13 -5q-7 -3 -14 -3h-11h-16q-8 0 -14 1q-5 1 -14 1q-6 0 -14 3q-6 2 -15 3q-1 -2 -1 -7q0 -3 2 -7l1 -3q2 -7 4 -9h3h1h1q6 -1 18 -5q7 -4 15 -22q15 -45 27 -73q11 -26 27 -71q4 -11 6 -18q6 -18 8 -23q5 -18 14 -41q4 -11 6 -18
q6 -18 8 -23q4 -12 10 -32l3 -9h1q9 -25 12 -57v-49v-47v-48v-51q-3 -52 -17 -56h-5v-1h-1h1q-3 -6 -3 -12q0 -8 3 -13q2 1 11 1q8 1 11 1v1q13 0 18 1h13h13q5 -1 18 -1q7 0 13 -1q2 -1 7 -1q2 0 6 -1q3 6 3 12t-3 13q-3 0 -4 1h-1h-2h4q-23 0 -23 76v-75v12v31v42v43v38
v31v11v-16q0 31 6 56q8 34 8 59z" />
    <glyph glyph-name="z" unicode="z" horiz-adv-x="395" 
d="M308 1q12 -1 22 -1q8 0 23 -6v1q5 0 9 3q0 27 5 59q3 26 12 57q-5 7 -8 8q-6 0 -10 -4q-4 -12 -4 -16q-11 -29 -29 -48q-17 -22 -38 -25h-23h-23q-16 0 -23 1h-24h-13q-4 -1 -13 -1h-13h-13q-4 3 -4 14q0 21 13 60l-24 -74q7 23 21 64l5 16q18 52 28 79q7 23 21 64l5 16
q6 18 14 40q7 22 13 40q8 21 22 65q4 11 9 25q9 28 13 40l5 16q11 32 17 49l5 16q11 32 17 49q21 60 43 60q0 1 1 1q5 6 7 13q1 3 1 12q-2 -1 -7 -1q-2 -1 -5 -1v2v1q-7 -1 -22 -1h-22h-22q-7 -1 -21 -1q-1 0 -2 1h-3h-3q-2 0 -2 1l-2 -2q-15 0 -27 -1q-18 -2 -27 -2
q-17 0 -47 2q-16 0 -24 1h-23l1 1q-8 1 -17 1q-6 1 -8 1q-5 0 -27 5q-4 6 -8 7q-3 0 -9 -3q-2 -43 -4 -60q-3 -21 -12 -58q4 -7 9 -7l2 -1q1 0 5 2l2 2q1 9 3 13v-3v2v2v1t1 2v2q6 22 25 45q19 22 39 23l-43 1q22 -1 67 -1h67h12h12h12h12v-1h1h1h-1h1q3 0 3 -1q8 0 8 -16
q0 -10 -7 -40q-2 -5 -11 -33q-10 -27 -12 -33l-11 -33l-11 -33q-2 -5 -11 -33q-10 -27 -12 -33l-11 -33l-11 -33q-4 -14 -13 -39q-7 -20 -9 -28q-2 -5 -11 -33q-10 -27 -12 -33q-14 -44 -22 -66t-22 -66q-19 -48 -34 -55h-2h-2h-2q0 -1 -1 -1v-1h-1h1q-5 -6 -7 -12
q-2 -3 -2 -8q1 -3 1 -5l1 1h2h3q1 0 2 1v-1v-1h23q16 0 24 1h24h24v1h5q1 0 2 -1q8 0 12 1h13h25h28q19 0 28 -1h28q9 -1 27 -1zM321 28h10h15h-25z" />
    <glyph glyph-name="braceleft" unicode="{" horiz-adv-x="143" 
d="M110 0q-14 60 -23 143q-9 86 -12 180q0 33 -16 50q-16 20 -21 27q6 0 21 26q16 26 16 56q5 123 19 209q16 92 37 142q-30 -24 -54 -122q-22 -95 -28 -230l1 -3v-4q0 -21 -15 -39q-19 -20 -23 -33q0 -19 21 -36q17 -17 17 -39v-7q5 -107 21 -193q16 -85 39 -127z" />
    <glyph glyph-name="bar" unicode="|" horiz-adv-x="49" 
d="M16 800v-765h20v765h-20z" />
    <glyph glyph-name="braceright" unicode="}" horiz-adv-x="143" 
d="M34 0q23 42 39 127q17 97 21 193v8q0 23 17 38q20 17 21 36q-7 16 -23 33q-15 17 -15 37q0 1 1 5v4q-6 130 -29 230q-22 96 -53 122q22 -56 37 -142q15 -99 19 -209q0 -30 15 -56t22 -26q-5 -9 -22 -27q-15 -18 -15 -50q-3 -94 -12 -180q-9 -83 -23 -143z" />
    <glyph glyph-name="asciitilde" unicode="~" horiz-adv-x="281" 
d="M131 748v-2v-1q0 -37 19 -60q20 -24 47 -24q28 0 47 24q20 25 20 60q0 5 -1 9q-1 -24 -17 -41q-15 -18 -37 -18q-43 0 -52 53v1v2q0 34 -20 60q-19 24 -47 24q-27 0 -47 -24q-19 -25 -19 -60v-10q1 25 17 42q17 17 37 17q43 0 53 -52z" />
    <glyph glyph-name="quoteleft" horiz-adv-x="82" 
d="M23 736q8 -9 18 -9q32 0 32 53t-32 53q-22 0 -30 -35q0 -2 -1 -7l-1 -1v-2v-3q0 -1 -1 -7v-7q0 -27 6 -54q7 -35 27 -49q-3 16 -10 31q-6 13 -8 37z" />
    <glyph glyph-name="quoteright" horiz-adv-x="82" 
d="M57 736q-2 -24 -8 -37l-2 -5q-6 -17 -8 -26q20 14 27 49q6 27 6 55v7q-1 5 -1 6v6q-1 1 -1 7q-9 35 -30 35q-32 0 -32 -53t32 -53q10 0 17 9z" />
    <glyph glyph-name="quotedblleft" horiz-adv-x="165" 
d="M31 736q6 -9 17 -9q32 0 32 53t-32 53q-21 0 -30 -35q0 -2 -1 -7q0 -2 -1 -3v-3v-14q0 -31 5 -54q8 -36 28 -49q-6 20 -11 31q-7 18 -7 37zM106 736q8 -9 18 -9q31 0 31 53t-31 53q-22 0 -30 -35q-2 -6 -2 -7q-1 -4 -1 -7l1 1v-8q-1 -5 -1 -9q0 -25 6 -51q6 -34 27 -49
q-2 9 -8 26l-2 5q-6 13 -8 37z" />
    <glyph glyph-name="quotedblright" horiz-adv-x="165" 
d="M139 736q-1 -20 -8 -37q-7 -15 -10 -31q20 14 26 49q6 27 6 54v8q-1 5 -1 6v6v2q-1 3 -1 5q-9 35 -30 35q-32 0 -32 -53t32 -53q9 0 18 9zM63 736q-2 -24 -8 -37q-7 -15 -10 -31q20 14 27 49q5 23 5 54v14v6q0 1 -1 3q0 2 -1 4q-8 35 -29 35q-32 0 -32 -53t32 -53
q10 0 17 9z" />
    <glyph glyph-name="sterling" unicode="&#xa3;" horiz-adv-x="720" 
d="M91 408q-23 -1 -33 -3q5 -8 5 -13t-5 -15q12 4 18 5t18 5q2 -15 4 -42q1 -6 2 -20q1 -12 1 -36v-15q-1 -9 -1 -17q-2 -40 -6 -79q-2 -27 -6 -79q-4 -59 -20 -67q-1 -1 -3 -1h-2v-1h-1h1q-2 -4 -2 -14q0 -11 2 -15q4 0 8 1q11 1 14 1v1h7h8q4 1 16 1h7q3 -1 8 -1h8h8
q35 0 71 -3q32 -4 70 -4q18 0 30 20q12 19 13 47q-1 -16 -14 -29q-12 -13 -29 -13q-29 0 -60 7q-28 5 -49 5h-7q-7 -1 -8 -1q-14 8 -14 58q0 2 1 14v17q0 -14 -2 -43q-1 -31 -2 -46q1 32 5 96q2 21 4 48t4 48q1 17 1 49q0 30 -1 44q-3 43 -9 80q4 1 21 3q17 3 20 3q9 1 20 2
t20 2q-6 6 -6 13q0 6 6 15q-28 -8 -42 -11q-28 -6 -41 -8q-8 40 -12 79q-5 35 -7 84h2v5q-1 6 -1 10q0 86 18 147q16 61 39 61q19 0 31 -26q7 -14 7 -31q0 -13 -3 -25q-12 -19 -12 -43q0 -28 13 -45q12 -19 29 -19q18 0 30 19q12 18 12 45q0 57 -38 107q-39 50 -71 50
q-49 0 -83 -70q-35 -71 -35 -170v-3v-3q0 -44 8 -90q5 -29 15 -91z" />
    </font>
</defs>
</svg>
