<?xml version="1.0" standalone="no"?>
<!DOCTYPE svg PUBLIC "-//W3C//DTD SVG 1.1//EN" "http://www.w3.org/Graphics/SVG/1.1/DTD/svg11.dtd" >
<svg>
<metadata>
Created by FontForge 20120731 at Sun Oct 18 18:19:28 2015
 By ,,,
(c) Copyright PJ Lloyd 1995
</metadata>
<defs>
<font id="Birmingham" horiz-adv-x="658" >
  <font-face 
    font-family="Birmingham"
    font-weight="400"
    font-stretch="normal"
    units-per-em="1000"
    panose-1="2 11 5 0 0 0 0 0 0 0"
    ascent="800"
    descent="-200"
    x-height="695"
    cap-height="833"
    bbox="-1 -144 1074 927"
    underline-thickness="0"
    underline-position="0"
    unicode-range="U+0020-00A3"
  />
<missing-glyph horiz-adv-x="502" 
d="M-1 0h500v500h-500v-500zM9 10v480h480v-480h-480z" />
    <glyph glyph-name=".notdef" horiz-adv-x="502" 
d="M-1 0h500v500h-500v-500zM9 10v480h480v-480h-480z" />
    <glyph glyph-name="space" unicode=" " horiz-adv-x="469" 
 />
    <glyph glyph-name="quotedbl" unicode="&#x22;" horiz-adv-x="217" 
d="M19 833v-20v-12v-38q1 -15 1 -20q1 -31 8 -55q7 -25 21 -25t21 25q6 24 8 55v18q1 19 1 41q-1 26 -1 31q-14 -7 -30 -7t-29 7zM123 833v-20v-12v-38q1 -15 1 -20q2 -31 9 -55q7 -25 22 -25q14 0 21 25q6 24 8 55v51v8q-1 26 -1 31q-14 -7 -30 -7t-30 7z" />
    <glyph glyph-name="numbersign" unicode="#" horiz-adv-x="586" 
d="M411 692q-9 -95 -20 -196h-35h-36h-40h-40q6 52 13 98q5 33 14 98q-11 -5 -19 -5t-17 5q-3 -26 -9 -89l-1 -9q-3 -26 -9 -89l-1 -9q-36 0 -61 1q-31 0 -61 1q0 -9 -1 -16q-2 -7 -8 -16q37 0 64 1q31 0 63 1q-3 -28 -6 -61q-3 -26 -7 -61q-3 -26 -6 -47l-6 -48
q-33 0 -62 1q-34 1 -62 1q0 -7 -1 -12v-4q-2 -7 -7 -16q32 1 65 2h64q-8 -63 -14 -111q-10 -69 -15 -111q11 5 17 5t15 -5q6 55 12 111q6 58 13 112h38h37h39q16 -1 39 -1q-8 -57 -15 -111q-9 -68 -14 -112q9 5 17 5q7 0 15 -5q7 62 12 112q5 49 12 110q63 -1 126 -3
q0 2 -1 5v3q0 2 1 6q1 2 1 4q2 8 9 18h-11q-39 -2 -55 -2q-31 -1 -66 -1q2 23 5 48l6 46q3 31 7 60l4 32q1 8 4 29q39 -1 63 -2q30 -1 64 -1q0 8 1 14v4q1 6 8 18q-44 -1 -66 -2q-31 -1 -66 -1q6 50 13 97q8 54 13 98q-11 -5 -18 -5q-10 0 -18 5zM363 252q-18 -1 -37 -1h-36
h-40h-40q3 21 6 48q2 20 5 47q4 31 8 61q3 31 8 61h38h38h37q16 -1 38 -1q-4 -28 -7 -60q-3 -28 -7 -61q-3 -27 -5 -47q-3 -26 -6 -47z" />
    <glyph glyph-name="dollar" unicode="$" horiz-adv-x="701" 
d="M346 828q-4 -33 -7 -66l-8 -66h-7h-8q-87 0 -142 -39q-56 -41 -60 -77l-1 -1h1v-3q-4 -21 -4 -31q0 -60 53 -102q56 -44 133 -51q-2 -8 -4 -27q-10 -81 -21 -163q-7 -54 -22 -162h-3q-28 6 -35 9q-14 5 -32 16q-46 24 -71 61q-9 13 -13 36q-1 3 -1 4q-3 18 -3 23q0 2 1 4
v2q4 28 17 34q11 5 37 5q2 -2 6 -3q3 -2 5 -4q6 -4 8 -5q6 -5 10 -18q0 -15 -5 -19l-1 -3q0 -3 8 -3q14 0 37 17q23 15 26 31q5 8 6 17v3v3v3v4q0 73 -81 80q-1 0 -7 1h-8q-41 0 -69 -20q-32 -24 -32 -67v0v-2v-2v-2v-3v-3v-3v-2q0 -19 8 -56q6 -35 23 -61q13 -22 36 -38
q28 -22 45 -30q33 -19 78 -31q2 -1 7 -2q-5 -28 -9 -57q-5 -36 -8 -57q17 7 26 7q10 0 25 -7q3 23 6 52q2 23 5 51q33 -5 65 -5q50 0 108 10q60 9 99 33q57 31 84 84q25 51 27 93q0 120 -102 207q-95 78 -220 85q5 38 11 77q5 37 10 77q46 -3 76 -19q36 -20 51 -44l22 -54
q12 -3 22 -3t19 3q-23 44 -33 79q-8 23 -10 40q-3 18 -5 39q-14 3 -23 3q-10 0 -18 -3q0 -6 3 -12q3 -7 3 -10l-6 21q2 -4 2 -11q0 -14 -15 -14q-24 0 -49 5q-19 3 -35 6l1 9l9 59q5 34 9 68q-15 -7 -25 -7q-11 0 -25 7zM337 391q96 -3 183 -53q88 -53 95 -94q2 -7 2 -23
q0 -32 -12 -74q-18 -56 -67 -86q-33 -21 -86 -29q-54 -8 -96 -8q-29 0 -56 5q-2 0 -3 1h-3q9 87 19 168q9 78 17 141l3 26q1 5 1 8l1 5q0 2 1 9zM328 666q-4 -43 -8 -77q-4 -33 -10 -76q-36 4 -64 26q-35 24 -35 64h3q3 26 45 45q29 14 69 18z" />
    <glyph glyph-name="percent" unicode="%" horiz-adv-x="593" 
d="M509 695q-66 -101 -114 -173q-56 -85 -116 -173l-16 -24q-62 -91 -102 -149q-70 -104 -118 -173q16 6 27 6t18 -6q57 86 114 173q63 95 116 173q56 83 118 173q49 72 119 173q-17 -7 -27 -7q-11 0 -19 7zM195 697q-61 0 -103 -45t-42 -108t42 -108t103 -45q60 0 103 45
q42 45 42 108t-42 108q-43 45 -103 45zM195 663q14 0 41 -33q26 -33 26 -81q0 -49 -26 -86q-27 -37 -41 -37q-15 0 -39 36t-24 84q0 49 24 83t39 34zM396 304q-60 0 -102 -45q-43 -45 -43 -108q0 -64 43 -108q42 -44 102 -44t103 44q42 44 42 108q0 63 -42 108
q-43 45 -103 45zM396 269q14 0 43 -36t29 -85t-29 -82q-29 -34 -43 -34q-15 0 -40 35t-25 84q0 48 25 83t40 35z" />
    <glyph glyph-name="ampersand" unicode="&#x26;" horiz-adv-x="715" 
d="M509 127q-38 52 -79 110q-48 65 -80 110l-4 6q-3 3 -5 7h1l-79 108q-1 0 -1 1q-11 14 -18 27q-8 13 -8 31v12q-1 10 -1 12q0 51 28 77q35 34 83 38q53 0 91 -21q44 -24 56 -73h-1q1 -5 2 -11v-4q1 -4 1 -6q0 -12 -6 -26q-9 -22 -24 -30q-13 -14 -32 -22q12 -3 27 -3
q48 0 71 29v-1q23 32 23 68q0 29 -15 59q-34 66 -168 70q-95 0 -161 -49q-67 -50 -67 -119q0 -41 29 -81q29 -41 58 -77l-45 -22q-56 -24 -90 -67q-34 -44 -34 -96q0 -77 68 -130q68 -54 164 -54q1 0 8 -1h8q35 0 68 18q46 25 76 42q7 -16 7 -22q0 -12 -9 -12h-7v-1h-1h1
q0 -6 5 -12q4 -7 13 -12q10 0 18 1q8 0 17 1q37 1 51 1q32 0 52 -1q16 -1 45 -2q0 6 -4 12q-4 4 -14 12q-4 1 -12 1h7q-40 0 -94 76l40 22q65 35 87 54q21 18 40 46zM434 88q-56 -55 -122 -55q-33 0 -66 14q-102 41 -104 162q0 60 52 102l53 37v-1q9 -13 45 -62l49 -67
l15 -21q47 -66 78 -109zM528 101l54 -74q-14 18 -27 37q-9 12 -14 18q-4 6 -13 19z" />
    <glyph glyph-name="quotesingle" unicode="'" horiz-adv-x="122" 
d="M11 833v-20v-12v-38q1 -15 1 -20q1 -31 8 -55q7 -25 21 -25t21 25q6 24 8 55v18q1 19 1 41q-1 26 -1 31q-16 -8 -30 -8q-13 0 -29 8z" />
    <glyph glyph-name="parenleft" unicode="(" horiz-adv-x="174" 
d="M120 0q-28 69 -45 169q-17 98 -17 214q0 148 27 268t69 182q-59 -29 -98 -149q-40 -121 -40 -281q0 -136 29 -244q29 -109 75 -159z" />
    <glyph glyph-name="parenright" unicode=")" horiz-adv-x="187" 
d="M62 0q45 50 75 159q29 108 29 244q0 160 -40 281q-40 120 -99 149q43 -62 70 -182q26 -120 26 -268q0 -115 -16 -214q-17 -99 -45 -169z" />
    <glyph glyph-name="asterisk" unicode="*" horiz-adv-x="158" 
d="M89 717q29 -45 41 -45q4 0 9 7q2 3 2 10q0 21 -35 56q38 32 38 51q0 5 -3 9q-2 5 -9 5q-15 0 -43 -41q0 6 1 15v11q0 39 -14 39q-16 0 -16 -34v-9q1 -8 1 -13q-26 32 -38 32q-5 0 -8 -6q-2 -2 -2 -8q0 -20 37 -51q-33 -34 -33 -57q0 -1 1 -4v-4q3 -8 8 -8q10 0 34 35v-11
q-1 -8 -1 -9q0 -40 16 -40q15 3 15 45v11q-1 8 -1 14z" />
    <glyph glyph-name="plus" unicode="+" 
d="M213 350v-2q-39 0 -74 1q-26 1 -73 2q0 -8 -1 -15v-5q-3 -9 -9 -19q44 0 76 1q38 0 77 1v-1v-1l35 1v1h11h11l27 1v-1h15h14q-1 -24 -2 -39v-8l-2 -31h-2l-2 -44h1q-3 -43 -6 -97q-3 -44 -7 -97q11 8 23 12q5 2 22 2q0 39 1 68q0 35 2 68h-1l4 93q0 21 1 37q0 18 1 36h36
q14 -1 35 -1h76v-1q28 -1 56 -1q27 -1 55 -2q0 8 1 17q1 4 1 5q2 10 10 22q-53 -1 -80 -2h-8l-71 -2v1h-36v-1q-18 -1 -37 -1h-36v4l3 51h-1l2 34q1 17 2 27l4 43h-2q3 41 6 94q1 37 5 94q-11 -9 -20 -12q-4 -2 -11 -2h-3q-3 1 -5 1q-2 -37 -3 -90q-2 -40 -4 -90h-1l-2 -44
l1 1h1q-2 -28 -3 -56v-8q-2 -34 -2 -47h-38h-38v1v1h-35z" />
    <glyph glyph-name="comma" unicode="," horiz-adv-x="144" 
d="M96 7q-2 -21 -13 -37q-11 -15 -17 -31q33 14 45 49q10 32 10 55v7q-1 5 -1 6q-1 2 -1 3v3q-1 2 -2 7q-13 35 -50 35q-53 0 -53 -53q0 -52 53 -52q17 0 29 8z" />
    <glyph glyph-name="hyphen" unicode="-" 
d="M213 350v-2q-39 0 -74 1q-26 1 -73 2q0 -8 -1 -15v-5q-2 -8 -10 -19q44 0 77 1q38 0 77 1v-2l35 1v1h11h11l27 1v-1h22h20h46q18 -1 45 -1h76v-1q28 -1 56 -1q27 -1 55 -2q0 8 1 17q1 4 1 5q2 9 10 22q-39 -2 -80 -2q-40 -1 -79 -2v1h-36v-1q-21 -1 -43 -1h-43h-42h-6
h-48v1v1h-35z" />
    <glyph glyph-name="period" unicode="." horiz-adv-x="140" 
d="M67 104q-53 0 -53 -53q0 -52 53 -52t53 52q0 53 -53 53z" />
    <glyph glyph-name="slash" unicode="/" horiz-adv-x="252" 
d="M182 692q-17 -73 -39 -172q-20 -86 -41 -174q-18 -75 -42 -172q-17 -68 -43 -173q13 4 23 4q7 0 20 -4q20 86 41 173q17 73 41 172q22 90 43 174q22 86 45 172q-15 -4 -25 -4q-12 0 -23 4z" />
    <glyph glyph-name="zero" unicode="0" horiz-adv-x="596" 
d="M312 696q-108 0 -184 -102q-76 -103 -76 -245q0 -144 76 -245q76 -102 184 -102t183 102q77 102 77 245q0 142 -77 245q-76 102 -183 102zM300 654q56 -5 110 -78q53 -74 56 -198q0 -131 -46 -230q-45 -99 -107 -99q-58 5 -106 71q-47 64 -50 191q0 69 10 126.5t30 110.5
q40 106 103 106z" />
    <glyph glyph-name="one" unicode="1" horiz-adv-x="250" 
d="M34 23h-8q-1 0 -1 -1h-1h1q-4 -6 -4 -10q0 -6 5 -11q11 0 18 1q9 0 19 1h12h13q7 0 13 1h13h13h13h13q5 -1 13 -1q10 -1 21 -1q9 -1 22 -1q5 6 5 12q0 4 -5 12q-3 0 -6 1h-6h4h3q-38 0 -38 73v-36v-36v77v78v77v78v63v63v63v63q2 60 38 73v1q5 10 5 15t-5 10
q-12 -5 -23 -10q-12 -6 -23 -10q-29 -12 -45 -19q-24 -9 -46 -17q-11 -5 -23 -8q-12 -4 -23 -8q-4 -9 -4 -12q0 -4 4 -10q1 0 3 1v-1v1q2 0 3 1h3t5 1h3q21 0 25 -40v-61v-59v-61v-60v-60v-61v-60v-60q-4 -45 -29 -52z" />
    <glyph glyph-name="two" unicode="2" horiz-adv-x="577" 
d="M179 674h-3q-2 -1 -3 -1q-13 0 -28 12v1q-9 7 -17 10q-1 0 -4 1h-5h-5q-4 -1 -6 -1q-1 -38 -9 -64q-8 -28 -26 -59q8 -8 18 -10q3 -2 11 -2q1 0 5 1h4q6 14 10 20q18 24 50 47q32 22 63 28l-17 -3q50 11 104 11q79 0 114 -30q34 -31 34 -60h-1q-4 -54 -69 -59l-1 1
q-165 0 -257 -144q-93 -144 -94 -355v-4q0 -5 2 -13q61 4 121 8q61 3 121 3q97 0 216 -9v-1q8 -2 15 -2q4 0 9 1h2h3l-1 1h2v0q-5 34 -5 57q0 22 5 56q-8 3 -15 3t-15 -3q-1 -7 -3 -25q-13 -49 -68 -55q-84 5 -148 5q-39 0 -79 -2q-53 -3 -75 -4h-4q-44 0 -44 38q0 1 1 6v6
q29 131 95 219q65 87 194 94v1q54 1 111 45q57 43 57 122v3v3h-1q0 40 -64 82t-158 42q-46 0 -90 -8q-16 -2 -29 -7q-6 -1 -12 -3t-11 -3z" />
    <glyph glyph-name="three" unicode="3" horiz-adv-x="419" 
d="M198 398q-3 -7 -3 -13t3 -10q2 -5 2 -10q1 1 2 1q51 0 68 -55t17 -148q0 -90 -80 -167q-81 -76 -129 -82h11q29 0 81 24q51 25 101 65q49 39 85 89t36 101q0 97 -50 153q-51 56 -107 63q7 20 30 59q25 43 47 80q26 42 45 78t19 54v2v2q0 5 -1 13q-40 -5 -83 -8
q-42 -3 -84 -3q-74 0 -149 8l1 1q-9 3 -10 3t-7 -1h-3v-1q0 -1 -1 -1q4 -34 4 -56q0 -23 -4 -56q7 -3 16 -3q4 0 12 3q1 6 2 13q0 6 1 12q8 48 46 56q25 -3 47 -4q22 -2 47 -2q29 0 43 1q12 1 42 4q17 -1 26 -3q6 0 6 -25q-1 -9 -18 -40q-17 -30 -39 -67q-21 -34 -42 -70
q-20 -35 -27 -51q-1 -3 -2 -5q-1 -3 -1 -4z" />
    <glyph glyph-name="four" unicode="4" horiz-adv-x="476" 
d="M253 200q-6 -21 -30 -21l3 -1q-28 0 -62 -1q-30 -1 -62 -1q-21 1 -24 12q0 16 17 44l-38 -58h-1q31 45 67 99q33 51 65 104q73 121 153 281q4 5 4 17q0 4 -2 8t-2 8q-38 -77 -76 -147q-39 -73 -77 -136q-38 -62 -76 -120q-40 -59 -77 -113v-2h-1q-2 -6 -2 -14t2 -13h1v-1
v-2q1 1 1 2q1 0 1 1q39 1 95 3q48 1 96 1q19 -2 25 -24v-6v-7v-34v-35q-4 -27 -29 -31q-2 -1 -8 -1h-1h1q-5 -4 -5 -6q0 -3 5 -5q13 0 37 1h13h13q17 0 25 1h14h12q16 0 26 -1q11 0 43 -1q5 6 5 10t-5 11h-5h-6h3h4q-39 0 -39 56v-29v-28v1v53v54q2 14 20 19q18 -1 39 -1
q17 -1 34 -1q2 8 2 13t-2 14q-15 0 -36 1q-24 1 -40 1h11q-23 0 -28 23v33v34v50v49v50v49q2 50 38 108q0 1 1 2q4 13 4 19q0 3 -4 3q-23 -42 -46 -79q-14 -22 -23 -38q-1 -1 -17 -27q-4 -7 -6 -10q-12 -18 -23 -34q-12 -19 -23 -35q-27 -40 -46 -66q-3 -9 -3 -11l1 -1l2 1
q1 0 4 5q0 -1 -1 -1q1 0 1 1l3 3l2 4q19 25 27 25q6 0 6 -9v-34v-36v-26v-27z" />
    <glyph glyph-name="five" unicode="5" horiz-adv-x="347" 
d="M211 369q-29 14 -49 25q-20 10 -24 27h1q-16 46 -19 122q-3 75 -5 92q0 25 6 25q8 2 26 3q18 -2 25 -4q7 -1 25 -1q25 0 28 2q2 1 28 4q38 -8 47 -56q0 -10 2 -25q8 -3 13 -3q8 0 15 3q-4 29 -4 56q0 26 4 56q-1 0 -2 1q1 0 1 1h-4q-3 1 -5 1t-11 -3v-1q-43 -5 -55 -6
q-17 -2 -55 -2q-41 0 -83 3q-44 3 -83 8q-2 -7 -2 -13v-2v-2q0 -31 5 -93q4 -63 20 -144l9 -45q1 -9 6 -19l1 1q52 0 96 -73q43 -74 43 -167q0 -90 -66 -155t-115 -71h11q30 0 77 21q46 21 90 56t76 82q32 46 32 97q0 151 -105 199z" />
    <glyph glyph-name="six" unicode="6" horiz-adv-x="426" 
d="M302 694q-2 1 -7 1q-115 0 -188 -140q-38 -76 -47 -108q-10 -32 -24 -130q0 -33 2 -68v-4v-5q0 -99 54 -168q53 -70 130 -70q75 0 129 70t54 168q0 97 -54 169q-55 70 -129 70q-25 0 -35 -7q-12 -9 -30 -22q0 1 7 22q24 79 55 130q30 51 65 59q4 0 10 1q3 0 7 -1h3z
M223 448q26 -10 36 -26l5 -9l12 -22q11 -23 19 -58q7 -36 8 -79q0 -25 -0.5 -45t-1.5 -37q-4 -40 -19 -76q-25 -63 -54 -63h-3q-2 1 -4 1q-40 10 -56 51q-9 23 -21 55q-6 14 -8.5 35.5t-2.5 59.5q2 42 6 76t17 74q10 32 29 44t38 19z" />
    <glyph glyph-name="seven" unicode="7" horiz-adv-x="397" 
d="M256 319q50 136 84 235q34 101 34 126v2v2q0 5 -1 13q-40 -5 -83 -8q-42 -3 -84 -3q-74 0 -149 8l1 1q-9 3 -10 3t-7 -1h-3v-1q0 -1 -1 -1q4 -34 4 -56q0 -23 -4 -56q7 -3 16 -3q4 0 12 3q1 6 2 13q0 6 1 12q8 48 46 56q25 -3 47 -4q22 -2 47 -2q29 0 43 1q12 1 42 4
q17 -1 26 -3q6 0 6 -25q-1 -9 -34 -98q-40 -106 -74 -196q-39 -103 -77 -200q-37 -94 -44 -109q-1 -3 -2 -5t-1 -3q-3 -8 -3 -14q0 -5 3 -9l7 -4q3 0 5 2l-1 2h-7v-1q26 0 57 11q38 12 51 47q13 51 13 88v9q-1 6 -1 8q0 50 39 156z" />
    <glyph glyph-name="eight" unicode="8" horiz-adv-x="542" 
d="M284 696q-61 0 -104 -31q-43 -33 -43 -76q0 -44 43 -74q9 -8 23 -14q-48 -19 -87 -61q-69 -76 -69 -182q0 -107 69 -182t167 -75q96 0 166 75q70 76 70 182q0 105 -70 182q-39 41 -85 60q17 9 25 15q43 30 43 74t-43 76q-44 31 -105 31zM272 482q52 -3 98 -55
q46 -54 49 -147q0 -97 -40 -171q-40 -73 -95 -73q-51 3 -93 52q-42 48 -45 142q0 98 36 176q34 76 90 76zM284 667q23 0 40 -22q16 -22 16 -53q0 -30 -16 -52q-17 -22 -40 -22q-24 0 -40 22q-17 22 -17 52q0 31 17 53q16 22 40 22z" />
    <glyph glyph-name="nine" unicode="9" horiz-adv-x="424" 
d="M131 -94h4h3q53 0 99 55t84 128q38 76 54 134q15 58 29 156q0 31 -2 69v4v4q0 99 -54 169t-129 70q-76 0 -130 -70t-54 -169q0 -98 54 -168t130 -70q24 0 39 7t34 21q-1 -5 -3 -10q-2 -6 -3 -12q-5 -25 -13 -69l-4 -23q-9 -49 -30 -90q-22 -40 -47 -70q-25 -29 -42 -33
h-11h-10zM217 249q-29 9 -39 26q-11 17 -19 31q-12 23 -20 58t-9 78q0 28 1 47.5t2 35.5q4 39 20 76q27 63 59 63h4l3 -1q44 -12 61 -52q10 -24 23 -54q6 -15 8.5 -37.5t2.5 -58.5q-2 -43 -6 -76q-5 -34 -19 -73q-11 -32 -31 -45t-41 -18z" />
    <glyph glyph-name="colon" unicode=":" horiz-adv-x="158" 
d="M68 500q-53 0 -53 -54q0 -52 53 -52t53 52q0 54 -53 54zM68 106q-53 0 -53 -53q0 -52 53 -52t53 52q0 53 -53 53z" />
    <glyph glyph-name="semicolon" unicode=";" horiz-adv-x="151" 
d="M97 7q-2 -21 -13 -37q-11 -15 -17 -31q33 14 45 49q10 32 10 55v7q-1 5 -1 6q-1 2 -1 3v3q-1 2 -2 7q-13 35 -50 35q-53 0 -53 -53q0 -52 53 -52q17 0 29 8zM68 500q-53 0 -53 -54q0 -52 53 -52t53 52q0 54 -53 54z" />
    <glyph glyph-name="equal" unicode="=" 
d="M213 267v-1q-43 0 -74 1q-37 0 -73 1q0 -7 -1 -14v-5q-2 -9 -10 -20q42 1 77 1q40 0 77 1v-1l35 1h11h11l27 1h22h20h46q18 -1 45 -1v-1h76h2q17 -1 54 -2q26 -1 55 -1q0 8 1 17q1 4 1 5q2 8 10 21q-53 -1 -80 -2h-8l-71 -2v1h-36v-1q-21 -1 -43 -1h-43h-96v2h-35z
M213 428v-2q-39 0 -74 1q-26 1 -73 2q0 -8 -1 -15v-5q-2 -8 -10 -19q40 0 77 1q42 1 77 1v-1l35 1v1h11h11l27 1v-1h22h20h46q18 -1 45 -1h76v-2q25 0 56 -1q35 -1 55 -2q0 8 1 17q1 4 1 5q2 9 10 22q-53 -1 -80 -2h-8l-71 -2v1h-36v-1q-21 -1 -43 -1h-43h-48h-48v1v1h-35z
" />
    <glyph glyph-name="question" unicode="?" horiz-adv-x="419" 
d="M224 132q-3 3 -6 45q-1 19 -1 92q1 49 11 91q9 41 31 44q53 0 91 47q37 46 40 106q0 113 -55 194q-55 80 -132 80q-49 0 -108 -53q-60 -53 -60 -104q0 -53 53 -53q52 0 52 53q0 35 -33 49v4l-1 3q0 12 13 25q46 49 80 49q19 0 33 -13q43 -40 59 -114q9 -45 9 -88
q0 -33 -4 -59q-10 -67 -43 -67l-3 1h-4q-25 0 -57 -33q-23 -23 -23 -67q0 -17 5 -44q2 -54 7 -106q4 -51 4 -87q10 5 10 12q0 6 12 6t12 -2l-1 -1q0 -2 -1 -2q0 -3 10 -8zM203 104q-53 0 -53 -53q0 -52 53 -52q52 0 52 52q0 53 -52 53z" />
    <glyph glyph-name="at" unicode="@" horiz-adv-x="607" 
d="M508 113h-1q-54 0 -78 -29q-53 -56 -116 -56q-92 0 -142 114q-51 113 -51 274q0 159 51 273q50 114 142 114q93 0 146 -114q52 -114 52 -273q0 -12 2 -44q0 -3 1 -18v-18v-18q-1 -10 -1 -18q-2 -38 -11 -67q-10 -30 -32 -30q-30 0 -47 64q-10 37 -21 77q-12 39 -23 76
q-4 13 -12 37q-4 11 -12 36q-3 8 -6 18q-3 9 -5 18l-12 36q-3 6 -3 16q0 6 3 10q4 10 12 10v7q0 2 -1 4q-1 1 -1 3q-1 -1 -14 -2q-5 -1 -14 -1q-14 -1 -19 -1h-3h-5q-7 0 -11 1q-8 0 -11 1h-3q-7 1 -8 1v-6t4 -7h1q8 -4 8 -13q-1 -9 -3 -20v-1v-1q-3 -9 -5 -18
q-2 -10 -5 -18q-2 -10 -4 -18q-3 -11 -5 -18q-3 -11 -5 -19l-1 -4q-1 -7 -3 -13q-3 -10 -5 -18q-3 -9 -5 -18q-7 -28 -11 -45q-8 -26 -12 -44q-7 -28 -11 -45q-8 -30 -12 -44l11 41q-7 -23 -16 -32q-10 -10 -15 -10h2h-2l-3 -7q-1 -3 -1 -7q3 0 11 1h10q2 1 7 1q2 0 8 -1h9
q9 -1 11 -1q1 5 2 6q0 2 1 4v0q0 1 1 2v1q-1 0 -2 1q-2 2 -8 9q-4 3 -4 13q0 1 1 5v4q0 4 5 21t6 22v-1v1q0 2 3 7l2 6q2 5 4 6q1 0 7 1q8 0 15 1h18h8h9q4 0 8 1h8h6q2 -1 6 -1h7h7q16 0 27 -1h9q2 0 6 -5q0 -3 3 -14q3 -7 6 -16l8 -32q12 -50 36 -80q23 -31 53 -31t54 31
q24 30 35 80q16 69 16 146q0 171 -76 294q-77 123 -186 123q-108 0 -184 -123q-77 -123 -77 -294q0 -173 77 -295q76 -122 184 -122q97 0 120 47q22 47 75 67zM355 360v-4q-1 -1 -1 -2q0 -3 -6 -3q-21 -1 -26 -1h-7h-7h-6h-6q-17 0 -33 1q-19 1 -34 1q-5 0 -5 6l2 8q1 3 2 8
q1 3 3 7q1 4 2 9q0 4 2 8q1 3 2 8q1 3 2 8q1 3 2 8q4 16 9 34q5 17 9 34q1 8 4 17q3 8 5 17q1 8 4 17q3 8 5 18q0 5 6 5t8 -6q5 -16 11 -35q2 -8 6 -17q3 -8 5 -17q7 -21 11 -34q2 -9 6 -17q3 -9 5 -18q2 -4 5 -12q1 -7 5 -18q5 -18 10 -30z" />
    <glyph glyph-name="A" unicode="A" horiz-adv-x="830" 
d="M563 222q8 -27 21 -63q12 -32 23 -63q7 -24 7 -42q0 -20 -12 -25h-8v-1h-1h1q0 -6 1 -11v-4q3 -8 10 -13q27 1 35 1q38 1 52 1q32 0 51 -1h23q15 -1 22 -2v14q-3 6 -11 15q-3 0 -5 1h-6h7q-39 0 -71 91l31 -89q-33 93 -67 191l-68 192q-27 74 -55 156l-54 156
q-6 21 -6 35t5 23q10 19 28 19v1q2 6 2 15q-5 11 -8 15q-11 -2 -31 -4q-21 -3 -33 -3q-28 -1 -45 -1t-46 1q-12 0 -26 3q-16 2 -27 3v-3q-1 -2 -1 -3t1 -5q1 -2 1 -3q1 -7 10 -16h1q21 -7 21 -27q-2 -19 -7 -43l-1 -1q0 -2 -1 -3q-23 -83 -44 -157q-29 -100 -45 -155
q-26 -93 -54 -192q-22 -74 -55 -191v-1l25 89q-13 -47 -38 -69q-26 -22 -33 -22h3q-2 0 -3 -1h-1q-6 -11 -7 -15t-2 -14q5 0 24 1q20 1 24 2q7 1 18 1q4 0 17 -1q3 -1 24 -2q21 -2 24 -2q4 7 6 14l3 15q-1 0 -3 1q-2 3 -19 21q-11 13 -11 29q0 9 3 19l1 2q8 29 12 43
q6 22 13 46v-1v2q1 3 6 14t6 14q5 11 10 12l15 3l61 2h18q45 1 79 1h62q36 -1 63 -2q15 -2 22 -2q5 0 13 -11zM542 285q0 -12 -1 -16t-14 -6l-1 1q-28 -1 -62 -1h-61q-83 0 -159 3q-12 0 -12 8q0 1 1 3v3q9 31 20 68q11 40 20 69q21 77 42 148q24 84 42 148q6 13 16 13
q10 -2 18 -15q29 -85 52 -149q30 -86 52 -148q11 -28 24 -65q13 -38 23 -64z" />
    <glyph glyph-name="B" unicode="B" horiz-adv-x="636" 
d="M482 562q-8 8 -8 20q0 7 3 13q23 28 23 67q0 14 -3 29q-10 65 -34 96q-25 30 -66 46q-5 3 -15 3q-7 0 -15 -3l-263 -4q-13 1 -44 4q-4 -8 -4 -15t4 -16h2h2h-1h1q3 0 5 -1q28 -4 32 -68v-158v-158v-159v-159q-4 -60 -28 -67q-2 -1 -4 -1h-4l-1 -1h-1h1q-4 -8 -4 -14
q0 -9 5 -15q25 2 36 2v1v0v0l-1 -1v0h4h116h12h2q3 0 10 -1h5v1l141 -2q12 -2 19 -2q66 0 131 61t65 189q0 100 -40 185t-83 128zM381 582q41 0 85 -100q43 -100 43 -213q0 -115 -33 -175q-33 -61 -75 -61h-6q-4 -1 -7 -1l-150 1q-27 0 -27 27v495q0 27 27 27h130h5h8z
M350 803q25 0 51 -27q26 -28 26 -67q0 -38 -13 -65q-14 -27 -39 -27h-2h-2h-3h-2h-131q-24 0 -24 24v138q0 24 24 24h106h2h2h2h3z" />
    <glyph glyph-name="C" unicode="C" horiz-adv-x="556" 
d="M435 129q0 -1 1 -5v-6q0 -34 -39 -49h-6q-5 -1 -6 -1q-58 0 -126 54q-75 59 -111 190q-22 76 -22 150q0 60 15 117q33 124 76 172q22 25 95 43q10 3 30 3q50 0 76 -47q6 -22 6 -34q-1 -8 -2 -43l1 6q0 -3 -1 -6q7 -6 14 -6t16 6q0 27 1 57q1 15 1 23q4 40 12 81
q-9 7 -15 7t-15 -7v-10v-11l-1 19q0 -25 -21 -25q-23 1 -51 13q-26 13 -57 13q-104 0 -181 -122q-78 -123 -78 -294q0 -172 89 -294q88 -122 196 -122q111 0 189 133q0 2 3 8q4 8 4 24q0 11 -3 20q-7 21 -25 27q-4 2 -12 2q-14 0 -25 -7q-19 -12 -27 -35q-5 -13 -5 -24
q0 -7 3 -18zM401 69l24 6q-2 -2 -4 -2q-12 -3 -20 -4z" />
    <glyph glyph-name="D" unicode="D" horiz-adv-x="593" 
d="M294 833l-150 -6l-1 1h-2q-17 0 -46 1q-15 0 -46 4q-4 -10 -4 -15t4 -16h2h1q4 0 6 -1q28 -4 33 -68v-158v-158v-159v-159q-4 -60 -29 -67q-2 -1 -4 -1h-4l-1 -1h-1h1q-4 -8 -4 -14q0 -8 5 -15q25 2 37 2v1q38 1 51 1t52 -1q11 -1 41 -2q29 -1 41 -1h57q84 0 158 70
q73 70 73 242q0 105 -33 220q-33 114 -87 193q-35 50 -77 79q-43 28 -75 28h2zM275 803q31 0 80 -35q48 -36 82 -104q28 -57 45 -126q17 -70 17 -153q2 -11 2 -35q0 -51 -18 -107q-24 -72 -46 -112q-36 -61 -77 -79q-42 -19 -82 -19h-2h-48q-21 0 -21 23v724q0 23 21 23h43
h2h2z" />
    <glyph glyph-name="E" unicode="E" horiz-adv-x="550" 
d="M484 129q-7 -34 -47 -63t-75 -32h1v-1h1h-1q0 1 2 1l-39 -1h-103q-14 1 -21 3t-7 43v-46v191v192v66v74q3 10 3 19q0 5 19 5q21 0 35 -2q29 -7 67 -31q37 -24 53 -49q3 -5 5 -8v-1q0 -1 1 -2q1 -2 2 -3l-1 2q0 -1 4 -7h5l5 -1q1 0 5 1h4q8 2 18 13q-16 26 -29 44
q-15 22 -23 46t-10 51l-3 44l-1 9h-6q-6 1 -11 1q-8 -3 -18 -14q0 -2 1 -4v-4q-3 -34 -41 -40q-38 -7 -62 -7q-20 0 -20 3t-1 7q-1 6 -1 9q0 44 1 78v70q0 10 10 14q9 3 49 3h60h2h20h-23q34 0 78 -4q42 -4 47 -39v-2q-1 -1 -1 -2q3 -2 6 -3h7q7 32 11 49q4 18 13 46
q-4 2 -7 3h-6q-1 -1 -3 -1q-2 -1 -2 -2q-50 -9 -107 -13q-44 -1 -74 -2h-1q-52 -2 -73 -3l-13 -1q-2 0 -2 1h1q-29 -1 -46 -1q-16 0 -46 1q-14 0 -46 3q-3 -4 -3 -15q0 -7 3 -15h2h2l-1 -1h1h5q29 -5 33 -68v-158v-159v-159v-159q-4 -60 -29 -67h-4h-4v-1h-1h1q-4 -8 -4 -15
q0 -8 4 -14q11 0 19 1q9 0 18 1q38 1 51 1q33 0 52 -1h5h4v-1l32 -1h2h282q3 5 3 15q0 11 -3 17q-3 11 -6 25t-4 26v12q-1 10 -1 12q0 25 5 60q-8 4 -14 4t-14 -4q-2 -25 -2 -39z" />
    <glyph glyph-name="F" unicode="F" horiz-adv-x="499" 
d="M213 618q-20 0 -20 3t-1 7q-1 6 -1 9q0 44 1 78v70q0 10 10 14q9 3 49 3h60h2h20h-23q34 0 78 -4q42 -4 47 -39v-2q-1 -1 -1 -2q3 -2 6 -3h7q7 32 11 49q4 18 13 46q-4 2 -7 3h-6q-1 -1 -3 -1q-2 -1 -2 -2q-50 -9 -107 -13q-44 -1 -74 -2h-1q-52 -2 -73 -3l-13 -1
q-2 0 -2 1h1q-29 -1 -46 -1q-16 0 -46 1q-14 0 -46 3q-3 -4 -3 -15q0 -7 3 -15h2h2l-1 -1h1h5q29 -5 33 -68v-158v-159v-159v-159q-4 -60 -29 -67h-4h-4v-1h-1h1q-4 -8 -4 -15q0 -8 4 -14q11 0 19 1q9 0 18 1q38 1 51 1q33 0 52 -1q9 0 21 -1q10 -1 22 -1q5 7 5 14
q0 6 -5 15q-4 0 -11 1h7q-39 0 -39 91v-89v191v192v66v74q3 10 3 19q0 5 19 5q21 0 35 -2q29 -7 67 -31q37 -24 53 -49q3 -5 5 -8v-1q0 -1 1 -2q1 -2 2 -3l-1 2q0 -1 4 -7h5l5 -1q1 0 5 1h4q8 2 18 13q-16 26 -29 44q-15 22 -23 46t-10 51l-3 44l-1 9h-6q-6 1 -11 1
q-8 -3 -18 -14q0 -2 1 -4v-4q-3 -34 -41 -40q-38 -7 -62 -7z" />
    <glyph glyph-name="G" unicode="G" horiz-adv-x="614" 
d="M539 350q8 19 31 23h3h2q10 8 10 15q0 6 -10 15q-48 -5 -89 -5t-89 5q-9 -8 -9 -15t9 -15h2h3q30 -6 36 -33v-175v-7q-1 -7 -1 -8t1 -7v-8v1q-2 -7 -3 -21q-1 -15 -9 -25q-7 -10 -20 -22t-19 -14q-23 -9 -38 -13q-5 -2 -18 -2q-4 0 -10 1q-8 1 -12 1q-6 1 -11 3l-6 2
q-4 1 -6 2q-44 15 -69 58q-26 43 -32 74q0 10 -3 21t-3 22v66v95v95v67v2q3 27 16 84t32 94q3 5 4 7q6 11 19 24q15 24 72 36q13 4 39 4q27 0 48 -5q46 -10 64 -42q7 -26 7 -34q-1 -5 -3 -43l1 6q0 -3 -1 -6q8 -6 14 -6q7 0 16 6q0 23 1 40q0 21 2 40q3 41 11 81q-9 7 -14 7
q-6 0 -16 -7v-10v-11l-1 19q0 -25 -21 -25q-23 1 -50 13q-27 13 -57 13q-104 0 -207 -122q-103 -123 -103 -294q0 -172 89 -294q88 -122 196 -122q36 0 72 16h-1q3 1 4 2q12 5 24 14q24 14 58 30q33 16 61 20h3h4q7 7 7 13q0 5 -7 12h-3h-3q-15 3 -17 21v184v37zM546 373h-7
h3h4zM539 119v-11v11z" />
    <glyph glyph-name="H" unicode="H" horiz-adv-x="556" 
d="M216 582h135q23 -2 27 -27v-69v-69v-159v-159q-4 -60 -29 -67q-2 -1 -4 -1h-4v-1h-1h1q-4 -8 -4 -14q0 -9 4 -15q26 2 37 2v1q38 1 51 1q14 0 52 -1h2l20 -2q10 -1 22 -1q4 7 4 14t-4 16h-6h-6h7q-39 0 -39 91v-89v192v192v155v157q3 72 38 72l1 1q5 9 5 15t-5 15
q-32 -3 -46 -3q-14 -1 -46 -1q-16 0 -46 1q-14 0 -45 4q-4 -8 -4 -15t4 -16h2h1q4 0 5 -1q29 -4 33 -68v-46v-46q-5 -21 -28 -24h-137q-20 4 -22 28v42v42q2 72 38 72l1 1q4 9 4 15t-4 15l-46 -3h-23q-10 -1 -23 -1q-17 0 -46 1q-15 0 -46 4q-4 -10 -4 -15t4 -16h2h1
q4 0 6 -1q28 -4 33 -68v-158v-158v-159v-159q-4 -60 -29 -67q-3 -1 -8 -1l-1 -1h-1h1q-4 -8 -4 -14q0 -8 5 -15q14 1 37 2v1q38 1 51 1t52 -1q12 -1 21 -2q10 -1 22 -1q5 9 5 14t-5 16h-6h-6h7q-38 0 -38 92v-90v192v192v83v82v-30q0 25 25 30zM191 638v-21v10v11zM363 617
h15h-15z" />
    <glyph glyph-name="I" unicode="I" horiz-adv-x="239" 
d="M33 32q-2 -1 -4 -1h-4l-1 -1h-1h1q-4 -8 -4 -14q0 -8 5 -15q25 2 37 2v1q38 1 51 1t52 -1q14 -1 43 -3q5 9 5 14t-5 16h-6h-6h7q-38 0 -38 91v-89v192v192v155v157q2 72 38 72v1q5 9 5 15q0 7 -5 15q-30 -3 -45 -3q-14 -1 -46 -1q-17 0 -46 1q-15 0 -46 4q-4 -10 -4 -15
t4 -16h2h1q4 0 6 -1q28 -4 33 -68v-158v-158v-159v-159q-4 -60 -29 -67z" />
    <glyph glyph-name="J" unicode="J" horiz-adv-x="448" 
d="M92 17q6 3 9 6q1 0 1 1q16 16 16 37q0 51 -50 51q-48 0 -48 -51v-2h-1q0 -73 51 -118t128 -45q75 0 127 61q52 62 52 135h-1v164v161v155v157q3 72 38 72l1 1q4 9 4 15t-4 15q-32 -3 -46 -3q-14 -1 -46 -1q-16 0 -45 1q-14 1 -46 4q-5 -8 -5 -15q0 -8 5 -16h1h2q4 0 5 -1
q29 -4 33 -68v-158v-158v-164v-165q0 -62 -29 -112q-30 -50 -72 -50q-55 0 -86 49q-5 12 -5 19q0 12 11 23z" />
    <glyph glyph-name="K" unicode="K" horiz-adv-x="679" 
d="M241 548l14 20l-15 -19l4 4q-1 -2 -2 -3t-1 -2zM375 695q-2 5 -2 15q0 21 16 40l-3 -4l11 16l-5 -8q10 12 33 30q22 17 40 21h2h3q2 8 2 13q0 4 -2 13q-27 -5 -48 -5h-14q-20 0 -47 5q-9 -8 -9 -13q0 -6 8 -13h1q5 0 5 -8t-2 -13q-6 -21 -14 -37l-113 -152
q-16 -16 -24 -16q-11 0 -11 19v-9v70v70q2 72 38 72v1q5 9 5 15q0 7 -5 15q-30 -3 -45 -3q-14 -1 -46 -1q-17 0 -46 1q-15 0 -46 4q-4 -10 -4 -15t4 -16h2h1q4 0 6 -1q28 -4 33 -68v-158v-158v-159v-159q-4 -60 -29 -67q-2 -1 -4 -1h-4l-1 -1h-1h1q-4 -8 -4 -14q0 -8 5 -15
q25 2 37 2v1q38 1 51 1t52 -1q14 -1 43 -3q5 9 5 14t-5 16h-6h-6h7q-38 0 -38 91v-89v192v192v15v15q0 22 12 50q12 29 26 50q22 25 40 25q19 0 34 -24l152 -456q3 -9 3 -34q-1 -20 -9 -25h-3h-2q-4 -11 -4 -18q0 -9 4 -16q49 6 92 6q42 0 92 -6q4 8 4 16q0 7 -4 17v1h-2h-2
q-15 2 -33 20t-25 36l9 -28l-13 40v-1q1 -1 1 -3l-190 570l-17 52zM293 620l8 11z" />
    <glyph glyph-name="L" unicode="L" horiz-adv-x="552" 
d="M194 145v274v156v156q3 72 39 72q0 1 1 1q4 9 4 15t-4 15h-2l-21 -2q-11 -1 -23 -1q-30 -1 -46 -1q-14 0 -23 1q-11 0 -23 1q-24 0 -46 2q-4 -7 -4 -14t4 -15q1 -1 4 -1h-1h1h2h3q29 -5 32 -68v-159v-159v-150v-159h1v-6v-6q-4 -60 -29 -67h-4q-2 -1 -4 -1q-1 -1 -2 -1h2
q-5 -8 -5 -14q0 -7 5 -14q24 1 37 2q19 1 51 1t52 -1q6 0 9 -1l31 -1h2h1h282q2 3 2 14q0 12 -2 17h-1q-2 14 -5 26q-3 14 -4 26v11q-1 6 -1 12q0 24 5 61q-8 4 -14 4q-7 0 -14 -4q-2 -21 -2 -40q-7 -33 -47 -62t-75 -32l129 8v2q0 -1 1 -2v-1l-166 -9h-103q-15 2 -21 4
q-7 1 -7 42v-45v54v59h-1z" />
    <glyph glyph-name="M" unicode="M" horiz-adv-x="1117" 
d="M189 70q-5 -10 -17 -22t-23 -15h-5h-5q-5 -9 -5 -16q0 -8 5 -16q27 5 53 5q24 0 52 -5q6 8 6 16q0 6 -6 15v1h-5q-20 0 -20 36l74 271h-31zM378 659q12 35 20 37q9 0 30 -33l119 -276l-2 -10q5 -3 14 -3q11 0 15 3l84 310q9 25 16 25q3 0 8 -10l7 -19v-1v-1v1l92 -265
q21 -61 56 -159q31 -87 55 -159q6 -19 6 -34q0 -27 -20 -33q-2 -1 -4 -1h-4v-1h-1h1q0 -6 1 -12v-2q1 -6 10 -15q9 0 22 1q12 1 22 2q38 1 51 1q33 0 52 -1l45 -3q0 1 1 4v3v4l-1 3q-2 6 -11 16h-6h-5h6q-39 0 -70 91l31 -89v1q-33 91 -67 191q-32 92 -66 192
q-27 73 -55 155t-54 157q-9 29 -9 45q0 27 22 27v1q0 7 -1 13v2q-1 5 -9 15q-30 -3 -45 -3q-14 -1 -46 -1q-12 0 -18 1h-18l8 -30l-51 -186q-8 -24 -18 -35q-3 -4 -8 -4q-7 0 -13 10l-66 144q-9 29 -9 46q0 26 21 26q0 1 1 1q0 7 -1 13v3q-2 5 -10 15q-22 -3 -44 -3
q-30 -1 -46 -1h-16q-7 0 -15 1q-7 0 -12 1h-11q-18 2 -24 3q-9 -8 -12 -15v-3q-1 -2 -1 -3t1 -4t1 -5q7 -1 19 -2l-19 1q36 0 36 -39t-6 -77l-94 -346h30zM369 728l18 70h1z" />
    <glyph glyph-name="N" unicode="N" horiz-adv-x="730" 
d="M645 774v48q0 29 16 41q7 5 13 5t13 -3q15 -6 24 -13q5 -8 13 -22q2 -4 2 -12q0 -10 -5 -19q3 1 13 11q10 9 15 30q3 8 3 22q0 20 -11 37q-18 24 -50 28q-33 0 -57 -24q-26 -27 -26 -63v-3v-4v-562q-5 -24 -23 -24q-20 1 -50 45l-72 125q-44 76 -88 155l-19 33
q-13 24 -69 124q-20 39 -20 55q0 17 17 17l1 1q-1 9 -5 15q-4 7 -12 15q-30 -3 -44 -3q-15 -1 -46 -1q-17 0 -46 1q-14 0 -44 1q-32 1 -44 3q0 -9 4 -15q4 -7 13 -16h1h2h-1h1q4 0 5 -1h2h3q26 -6 26 -32q0 -29 2 -60l1 4v-651q-4 -21 -28 -27h-2h-3v-1q-4 -9 -4 -16t4 -17
q30 4 49 4q17 0 47 -4q5 9 5 17q0 7 -5 17h-2h-3q-22 3 -26 28v633q0 13 8 32q10 10 18 10q6 0 11 -4q12 -10 27 -33q82 -146 161 -284q41 -74 89 -159q53 -93 90 -159q15 -30 25 -63v-4q4 -14 4 -19q0 -12 -6 -12q9 0 15 1q7 1 15 1v1h25h26l40 -3h1h-1l-2 2q-17 20 -25 62
q-8 40 -11 77v316v316z" />
    <glyph glyph-name="O" unicode="O" horiz-adv-x="600" 
d="M310 833q-107 0 -183 -122q-76 -123 -76 -294q0 -172 76 -294t183 -122t184 122q76 122 76 294q0 171 -76 294q-77 122 -184 122zM207 762q10 4 30 4q53 0 115 -48q79 -63 119 -205q25 -88 25 -180q0 -49 -8 -102q-23 -140 -88 -158q-11 -4 -32 -4q-51 0 -105 43
q-72 57 -111 200q-29 100 -29 210q0 41 4 77q14 145 80 163z" />
    <glyph glyph-name="P" unicode="P" horiz-adv-x="508" 
d="M243 540q38 11 74 23q39 12 80 23q14 4 34 12q18 7 29 23q11 15 14 36q2 21 3 34q0 61 -31 101q-33 41 -97 41l-263 -4q-13 1 -44 4q-4 -10 -4 -15t4 -16h2h1q4 0 6 -1q28 -4 33 -68v-158v-158v-104v-106v-58q-1 -23 -1 -52q-4 -60 -31 -67h-4h-4q0 -1 -1 -1h-1h1
q-3 -10 -3 -15q0 -6 4 -14q27 2 39 2q41 1 56 1h55v-1q11 0 24 -1q10 -1 22 -1q6 7 6 14q0 5 -6 15q-3 0 -12 1h7q-41 0 -41 91v-89v97v106l-1 1v259q0 11 10 23q9 11 20 15q13 5 20 7zM232 563q-8 -1 -15 -3q-24 0 -24 22v197q0 24 24 24h106h2h1h4h2q25 0 51 -27
q26 -28 26 -67q0 -32 -19 -70q-20 -38 -60 -49z" />
    <glyph glyph-name="Q" unicode="Q" horiz-adv-x="600" 
d="M433 50q61 53 99 151q38 97 38 216q0 171 -76 294q-77 122 -184 122t-183 -122q-76 -123 -76 -294q0 -172 76 -294t183 -122q55 0 105 35q23 -32 23 -57q0 -13 -6 -25q-9 -18 -37 -18q-28 3 -61 32q0 -8 27 -30q40 -35 87 -65q27 -17 42 -17q14 0 22 11q7 8 7 23
q0 24 -18 61q-30 61 -68 99zM380 69h-6q-3 -1 -7 -1q-56 0 -114 53q-65 58 -101 191q-29 100 -29 210q0 41 4 77q14 145 80 163q10 4 30 4q53 0 115 -48q79 -63 119 -205q25 -94 25 -180q0 -43 -7 -96q-21 -137 -84 -162q0 1 -1 1q-26 23 -36 53q-6 16 -6 28q0 10 5 22
q11 21 31 21q27 0 68 -35q0 6 -27 30q-41 35 -80 55q-19 9 -33 9q-16 0 -25 -12q-8 -11 -8 -26q0 -22 16 -56q26 -58 67 -93z" />
    <glyph glyph-name="R" unicode="R" horiz-adv-x="505" 
d="M364 556q5 21 27 28q10 1 19 5q12 7 25 15t19 16q18 26 19 57q0 62 -42 108q-44 48 -107 48l-238 -4q-13 1 -44 4q-4 -10 -4 -15t4 -16h2h1q4 0 6 -1q28 -4 33 -68v-158v-158v-104v-106v-58q-1 -23 -1 -52q-4 -60 -31 -67h-4h-4q0 -1 -1 -1h-1h1q-3 -10 -3 -15
q0 -6 4 -14q27 2 39 2q41 1 56 1h55v-1q11 0 24 -1q10 -1 22 -1q6 7 6 14q0 5 -6 15q-3 0 -12 1h7q-41 0 -41 91v-89v97v106l-1 1v314q0 30 30 32q21 0 21 1q26 -1 37 -2q9 -1 24 -1q23 -6 23 -30v31h1q0 -5 -1 -19q0 -18 5 -85q4 -68 15 -154q10 -88 27 -175
q17 -88 43 -145q27 -63 59 -90q31 -27 48 -27q3 -1 5 -1q15 0 40 15q24 15 24 48t-21 57t-37 24q-9 0 -9 -12v-4q1 -4 1 -6q-2 -18 -19 -21q-19 0 -39 30q0 1 -1 1l-2 6q-3 4 -5 9q-23 49 -40 123q-18 73 -30 151t-19 144q-7 68 -9 106zM240 617h-11h-2q-7 0 -10 -1
q-24 0 -24 21v142q0 24 24 24h67h1h2h4l10 -1q11 -1 13 -1q19 0 43 -12t39 -31q11 -16 14 -35q2 -20 2 -33q0 -32 -39 -53t-80 -21z" />
    <glyph glyph-name="S" unicode="S" horiz-adv-x="715" 
d="M412 824q-46 11 -95 11q-88 0 -142 -46q-55 -47 -61 -92l-1 -2h1v-3q-4 -24 -4 -37q0 -71 54 -122q67 -64 162 -64v5v-5h2h2q101 0 190 -62q88 -63 95 -114q2 -9 2 -29q0 -40 -12 -87q-18 -67 -68 -104q-34 -25 -86 -34t-94 -9q-29 0 -57 6q-29 6 -53 13q-23 6 -35 11
q-13 5 -33 19q-45 29 -70 73q-9 15 -13 43q-4 15 -4 40q6 34 18 41q11 5 36 5q12 -8 20 -14q6 -5 9 -21q0 -16 -4 -23q-2 0 -2 -3q0 -4 8 -4q14 0 38 20q23 20 26 36q5 13 6 21v16q0 89 -82 96q-1 0 -8 1h-9q-40 0 -66 -23q-33 -29 -33 -81v-7v-13h-1q1 -25 8 -67
q8 -43 25 -73q13 -26 36 -46q22 -21 44 -36q32 -22 78 -38q62 -21 118 -21q49 0 107 12q58 11 99 39q59 39 85 102q25 62 25 111q0 144 -101 248q-102 104 -243 104h-2h-2v-1q-46 1 -79 31q-34 30 -35 78h3q4 31 45 54q41 22 98 22q56 0 92 -23q36 -24 51 -53l22 -65
q12 -4 22 -4t19 4q-22 50 -33 94q-7 24 -10 48t-5 47q-14 5 -22 5q-10 0 -19 -5q1 -6 3 -13q1 -8 3 -14l-6 26q2 -5 2 -13q0 -17 -15 -17q-23 0 -49 6z" />
    <glyph glyph-name="T" unicode="T" horiz-adv-x="737" 
d="M146 832q-9 1 -29 8l-1 -8h1h-2l2 10q-6 3 -13 3t-14 -3q-8 -49 -18 -86q-12 -46 -28 -86q7 -3 13 -3q5 0 14 3q5 14 14 39l-3 -11q6 31 44 66q37 34 74 37l-5 1q25 -1 52 -1h51q27 -7 31 -68v-158v-158v-159v-159q-4 -60 -29 -67q-2 -1 -4 -1h-4v-1h-1h1q-4 -8 -4 -14
q0 -8 4 -15q9 0 19 1q7 1 18 2q38 1 51 1q33 0 52 -1h2l20 -2q10 -1 22 -1q4 7 4 14t-4 16h-6h-6h7q-39 0 -39 91v-89v1v191v192v155v157q4 72 38 72h46q24 0 46 1h-2q30 -3 63 -29q32 -26 46 -54q8 -25 18 -49q8 -3 14 -3t13 3q-18 49 -28 86q-10 34 -18 86q-7 3 -14 3
t-13 -3v-2q-19 -7 -28 -8q-56 -2 -117 -2q-49 -1 -118 -1q-68 0 -116 1q-60 0 -116 2z" />
    <glyph glyph-name="U" unicode="U" horiz-adv-x="622" 
d="M446 130q-3 -31 -15 -50q-41 -47 -99 -47q-52 0 -91 40q-39 39 -44 97v124v123v155v157q2 72 38 72v1q5 9 5 15q0 7 -5 15q-30 -3 -45 -3q-14 -1 -46 -1q-17 0 -46 1q-15 0 -46 4q-4 -10 -4 -15t4 -16h2h1q4 0 6 -1q28 -4 33 -68v-158v-158v-123v-124q5 -70 65 -118
q60 -49 142 -49q58 0 107 26q-3 -7 -3 -13q0 -8 4 -15q26 2 37 2v1q38 1 51 1q14 0 52 -1q14 -1 44 -3q4 9 4 14t-4 16h-6h-6h7q-39 0 -39 91v-89v192v192v155v157q3 72 38 72l1 1q5 9 5 15q0 7 -5 15q-31 -3 -46 -3q-14 -1 -46 -1q-17 0 -46 1q-14 1 -45 4q-5 -9 -5 -15
t5 -16h1h2h-1h1q3 0 5 -1q29 -4 33 -68v-158v-158v-115v-115v1v-14v-22v-22z" />
    <glyph glyph-name="V" unicode="V" horiz-adv-x="636" 
d="M557 853q14 -16 18 -32q1 -4 1 -11v-21q-1 -91 -23 -170q-22 -77 -49 -154q-27 -74 -48 -149q-20 -72 -20 -154q0 -26 -10 -33l-3 -1q-9 0 -23 44v-4q-19 62 -37 125l-38 124q-23 73 -48 155t-48 157q-7 30 -7 42q0 30 23 30l1 1q0 7 -1 12v3q-2 6 -8 15l-45 -3h-23
q-9 -1 -23 -1q-17 0 -46 1q-15 0 -47 4q0 -7 1 -13v-2q1 -8 8 -16h2h2q4 0 5 -1q31 -4 54 -68q32 -105 48 -158q25 -84 49 -158q20 -67 48 -159q26 -85 49 -159q5 -15 5 -38q0 -25 -14 -29q-2 -1 -7 -1v-1h-1h1q0 -2 -1 -4v-3l1 -3v-4q2 -8 9 -15q14 1 36 2v1q37 1 51 1
q13 0 52 -1q15 -1 22 -2q10 -1 22 -1q0 2 1 5v3v3l-1 3q-2 7 -9 16h-2h-2h-1q-27 9 -27 28q2 12 6 23q3 12 4 23q0 94 16 178.5t50 166.5q68 168 82 362v1v7v15q-2 37 -29 65q-26 25 -52 25h-4q-3 -1 -4 -1q-62 -7 -62 -94q0 -15 3 -23q6 -36 30 -36q13 0 26 17q12 17 12 37
q0 6 -2 9q-1 3 -4 6q-12 14 -12 21q0 4 4 7q2 1 6 1q11 0 33 -16z" />
    <glyph glyph-name="W" unicode="W" horiz-adv-x="875" 
d="M596 813q-1 -83 -20 -159q-20 -77 -43 -150q-18 57 -34 112q-17 57 -35 113q-6 26 -6 41q0 31 22 31l1 1v15q-2 7 -10 15q-22 -2 -44 -3q-29 -1 -46 -1t-46 1q-12 1 -47 4v-4q-1 -3 -1 -4l1 -3v-4q2 -7 10 -16h1h2q3 0 5 -1q31 -4 54 -68q32 -105 48 -158q25 -84 49 -158
q11 -36 24 -79q-12 -45 -19 -87q-3 -20 -4.5 -40.5t-1.5 -48.5q0 -26 -10 -33l-3 -1q-9 0 -23 44v-4q-19 62 -37 125l-38 124q-23 73 -48 155t-48 157q-7 30 -7 42q0 30 23 30l1 1q0 7 -1 12v3q-2 6 -8 15l-45 -3h-23q-9 -1 -23 -1q-17 0 -46 1q-15 0 -47 4q0 -7 1 -13v-2
q1 -8 8 -16h2h2q4 0 5 -1q31 -4 54 -68q32 -105 48 -158q25 -84 49 -158q20 -67 48 -159q26 -85 49 -159q5 -15 5 -38q0 -25 -14 -29q-2 -1 -7 -1v-1h-1h1q0 -2 -1 -4v-3l1 -3v-4q2 -8 9 -15q14 1 36 2v1q37 1 51 1q13 0 52 -1q15 -1 22 -2q10 -1 22 -1q0 2 1 5v3v3l-1 3
q-2 7 -9 16h-2h-2h-1q-27 9 -27 28q2 12 6 23q3 12 4 23q0 82 18 166q12 -43 26 -86q0 -3 12 -39q7 -24 14 -47q5 -15 5 -39t-13 -28h-4q-2 -1 -4 -1v-1h-2h2q0 -2 -1 -4v-3l1 -3v-4q3 -9 9 -15l18 2q9 0 18 1q38 1 51 1q33 0 52 -1q15 -1 22 -2q10 -1 22 -1q2 3 2 8v3l-1 3
q-2 6 -10 16h-2h-1h-2v1q-26 8 -26 27q2 10 5 23q3 12 4 23q0 182 66 345q68 168 81 362h1q-1 1 -1 7q0 5 1 8v8h-1q-2 37 -29 65q-25 25 -51 25h-4q-3 -1 -4 -1q-62 -7 -62 -94q0 -16 3 -23q6 -36 30 -36q12 0 25 17q12 17 12 37v9v-1q-11 17 -11 27q0 6 4 11q2 3 8 3
q8 0 25 -17q8 -12 13 -23q6 -13 6 -24q-2 -91 -24 -173q-23 -82 -49 -161q-26 -78 -47 -156q-20 -75 -20 -158q0 -26 -10 -33l-3 -1q-9 0 -23 44l1 -3q-19 59 -38 124l-38 124q-8 24 -10 33q26 89 49 171q24 87 31 181v1h1v2q0 62 -38 94q5 -13 5 -27v-4q-1 -4 -1 -6v-11
q-1 -19 -1 -38z" />
    <glyph glyph-name="X" unicode="X" horiz-adv-x="512" 
d="M94 54q2 85 49 144t96 141q20 -64 38 -120q20 -64 38 -120q5 -15 5 -39t-13 -28q-2 -1 -4 -1h-4v-1h-1h1q0 -2 -1 -5v-3l1 -3v-3q2 -8 9 -15q26 2 36 2v1q37 1 51 1t52 -1q17 -1 44 -3q2 3 2 8v3l-1 3q-2 6 -10 16h-6h-6h7q-39 0 -67 91l28 -89q-27 85 -60 192
q-29 92 -60 192q-3 7 -7 22q55 89 98 182q42 93 52 194q1 4 1 13v2v1q-2 55 -45 66q11 -26 13 -66h-1q-7 -97 -44 -187q-37 -91 -86 -170q-21 66 -39 127q-25 78 -40 128q-7 25 -7 43q0 29 22 29l1 1q0 7 -1 12v3q-2 6 -8 15q-31 -3 -45 -3q-14 -1 -46 -1q-17 0 -46 1
q-14 1 -47 4q0 -9 1 -15t8 -16h2h2q4 0 6 -1q29 -4 53 -68q21 -65 50 -158q21 -65 50 -158q3 -9 6 -21t7 -21q-59 -93 -113 -157q-54 -66 -54 -167h2q3 -50 51 -62q-5 12 -12 29q-7 16 -8 36z" />
    <glyph glyph-name="Y" unicode="Y" horiz-adv-x="629" 
d="M461 401q0 99 57 195q56 95 82 201q2 5 2 12q0 54 -54 69q5 -13 15 -36q8 -22 8 -45q-18 -103 -78 -187q-58 -82 -58 -180q0 -16 -10 -19q-11 0 -26 28v-2q-18 39 -37 80q-21 44 -38 80q-24 49 -44 85q-21 34 -45 85q-7 15 -7 25q0 1 1 3v2q4 5 22 5v6q0 6 1 6q0 5 -1 9
v2q-1 3 -9 9q-11 -1 -22 -5t-22 -4h-46q-13 0 -23 1q-9 1 -23 2q-11 0 -23 3t-24 3q-2 -3 -2 -9q0 -1 1 -5q1 -2 1 -3q4 -10 9 -14h4h2h3q16 -2 29 -7t25 -25q24 -53 45 -87q20 -37 45 -87q31 -65 46 -98q31 -65 46 -98h1q15 -29 20 -68v-116v-118q-4 -60 -29 -67
q-2 -1 -8 -1v-1h-1h1q-4 -7 -4 -14q0 -9 4 -15q14 1 37 2v1q38 1 52 1q13 0 51 -1h2l20 -2q10 -1 21 -1q5 7 5 14t-5 16h-6h-5h6q-38 0 -38 92v-90v52v101v83v-6q0 32 11 68q12 37 13 70z" />
    <glyph glyph-name="Z" unicode="Z" 
d="M513 1q21 -2 36 -3q13 0 38 -7v1q9 0 16 4q0 39 7 71q5 31 19 69q-6 8 -13 9q-9 0 -16 -4q-6 -15 -7 -20q-16 -32 -47 -57q-32 -26 -64 -30q-45 0 -77 1h-77h-43q-18 -1 -44 -1q-7 4 -7 17q0 24 22 72l-41 -89q42 88 90 191q37 80 89 192q36 75 74 155q39 84 72 157
q37 72 73 72l1 1q9 9 12 15q2 7 2 15q-14 -1 -21 -2v2v1q-36 -1 -72 -1q-31 -1 -72 -1q-6 0 -9 1q-5 0 -9 1l-2 -2q-23 0 -45 -1q-23 -2 -46 -2q-39 0 -78 2q-40 1 -78 1l1 1q-20 2 -41 2q-5 0 -46 6q-6 7 -12 8q-8 0 -16 -4q-1 -42 -6 -72q-6 -28 -20 -68q8 -9 14 -10
q8 0 15 4q5 12 6 16l-1 -4q0 2 1 4q0 1 1 2q0 1 1 3v2q11 30 41 55q30 24 65 27l-71 1q107 -1 223 -1h40h40v-1h1h2h-1h1q3 0 5 -1q13 0 13 -20q0 -16 -12 -48q-37 -77 -75 -158q-49 -105 -74 -158q-37 -80 -74 -159q-44 -93 -75 -159q-30 -57 -57 -66h-5q-3 -1 -6 -1v0v-2
h-2h2q-10 -9 -12 -14q-2 -3 -2 -15q4 0 7 1h7v-2q43 1 79 1q41 0 79 1q-1 0 8 0h4q25 0 42 1h42q41 0 93 -1q44 -1 92 -1zM534 33h41h-41z" />
    <glyph glyph-name="bracketleft" unicode="[" horiz-adv-x="144" 
d="M109 800q0 9 1 16q0 8 1 17q-30 -7 -50 -7q-21 0 -48 7q3 -93 6 -208q2 -108 2 -208t-2 -208q-3 -115 -6 -208q27 6 48 6q20 0 50 -6q-1 8 -1 17q-1 7 -1 17l-3 1q-18 3 -28 5h-31q1 93 2 188v189v188l-2 188q12 0 24 1h7q11 0 31 5z" />
    <glyph glyph-name="backslash" unicode="\" horiz-adv-x="252" 
d="M71 692q-12 -4 -22 -4q-11 0 -25 4q16 -64 33 -128l11 -44q24 -97 43 -174q41 -168 82 -345q12 4 21 4t23 -4q-22 86 -43 173q-18 70 -43 172q-19 81 -28 122l-12 52q-25 107 -31 132z" />
    <glyph glyph-name="bracketright" unicode="]" horiz-adv-x="166" 
d="M18 800q21 -5 31 -5h8q11 -1 23 -1q-1 -94 -1 -188q-1 -79 -1 -188q0 -111 1 -189q0 -95 1 -188h-31q-10 -1 -31 -6q-1 -23 -2 -34q29 6 50 6q20 0 49 -6q-4 107 -6 208q-3 102 -3 208t3 208q2 101 6 208q-29 -7 -49 -7q-21 0 -50 7q1 -10 1 -17q0 -8 1 -16z" />
    <glyph glyph-name="underscore" unicode="_" horiz-adv-x="383" 
d="M33 -18v-36h358v36h-358z" />
    <glyph glyph-name="grave" unicode="`" horiz-adv-x="158" 
d="M14 834q1 -2 13 -32q12 -31 27 -58q15 -30 33 -56q17 -24 32 -24q11 0 11 14v4q-1 4 -1 6q-4 23 -16 56q-8 20 -25 58q-10 21 -14 32q-12 -9 -27 -9t-33 9z" />
    <glyph glyph-name="a" unicode="a" horiz-adv-x="824" 
d="M564 186q4 -12 10 -25q4 -12 12 -28q11 -27 23 -52q7 -20 7 -35q0 -18 -13 -21h-8v-1h-1h1q0 -6 1 -10v-2q3 -7 10 -11q25 0 36 1q18 0 29 1h22q25 0 52 -1h11q4 -1 11 -1q13 -1 22 -1q0 1 1 3v3v3l-1 2q-2 5 -11 13h-2h-3q-2 0 -3 1h-3h7q-39 0 -71 76l32 -74
q-19 41 -35 79q-17 39 -33 80q-11 27 -34 80q-11 27 -34 80q-13 32 -27 65q-14 31 -27 65q-12 28 -27 65q-13 31 -28 65q-6 17 -6 29q0 11 5 19q9 16 28 16q0 1 1 1q0 1 1 6v7q-4 8 -8 11q-2 0 -31 -3q-18 -2 -33 -2q-37 -1 -45 -1h-19q-13 0 -27 1q-15 0 -26 2q-21 3 -27 3
v-2q-1 -2 -1 -3t1 -3q1 -3 1 -4q1 -6 10 -13h1q20 -6 20 -23q-1 -13 -6 -35q-1 -1 -2 -4l-9 -26q-6 -20 -13 -39q-12 -36 -23 -65l-9 -26q-6 -20 -13 -39q-5 -14 -7 -21l-15 -44q-13 -41 -27 -80t-27 -80q-3 -9 -21 -59l-7 -21q-14 -41 -27 -79v-1l25 75q-14 -41 -39 -58
q-24 -18 -32 -18h2l-3 -1q-6 -9 -7 -13q-2 -3 -2 -12q3 1 24 2q19 0 23 1q10 1 19 1h4q6 -1 13 -1q1 -1 24 -2q20 -1 24 -1l6 12q0 2 1 3q0 2 1 4q0 2 1 5q-1 0 -3 1q-6 6 -19 17q-11 11 -11 24q0 7 3 16q5 14 12 38q11 29 14 38v1q0 2 6 12l6 12q5 8 10 9q3 1 15 3h16
q52 2 63 2q23 0 40 1h38h30q12 -1 33 -1q24 0 63 -1q15 -2 22 -2q5 0 13 -9zM543 238q0 -7 -1 -13q-2 -4 -14 -5v1q-38 -1 -63 -1h-32h-30q-79 0 -158 2q-12 0 -12 7q1 3 1 5q4 13 9 27q4 11 11 30q5 15 10 29q7 19 10 28q20 62 42 123q8 26 21 62q12 38 21 62q4 10 16 10
q10 -1 18 -12q11 -27 26 -62q13 -32 27 -62q13 -33 25 -62q13 -31 27 -61q7 -18 23 -54q13 -34 23 -54z" />
    <glyph glyph-name="b" unicode="b" horiz-adv-x="629" 
d="M482 469q-8 7 -8 17q0 5 3 11q23 22 23 56q0 11 -3 24q-10 55 -34 80q-25 25 -66 38q-5 2 -15 2q-2 0 -7 -1t-8 -1l-264 -3q-14 0 -44 3q-3 -7 -3 -12q0 -8 3 -14h2v0h3h-1h1q3 0 4 -1q29 -3 33 -56v-66v-66v-66v-66v-67v-66v-66v-66q-4 -51 -28 -56h-3q-1 -1 -2 -1h-3
h-1h-1h1q-4 -6 -4 -12q0 -8 5 -13q33 2 36 2v1h-1h-1q0 -1 1 -1h3h117h14h8h7v0v0l141 -2q11 -1 19 -1q66 0 131 51q66 50 66 157q0 83 -41 154q-40 71 -83 107zM381 486q41 0 85 -84t44 -177q0 -96 -34 -146q-33 -51 -75 -51h-3h-3q-5 -1 -7 -1l-150 1q-27 0 -27 23v412
q0 23 27 23h130q4 0 5 -1q2 1 8 1zM350 670q24 0 51 -23q26 -23 26 -55q0 -33 -14 -54q-13 -23 -38 -23h-2h-1h-1h-1h-2h-2h-131q-24 0 -24 20v115q0 20 24 20h106h2h2h2h1h2z" />
    <glyph glyph-name="c" unicode="c" horiz-adv-x="556" 
d="M436 108q0 -1 1 -4v-5q0 -27 -39 -41q-70 0 -139 45q-75 48 -110 157q-22 63 -22 125q0 51 15 97q33 104 76 145q22 21 95 35q11 3 30 3q51 0 76 -39q6 -23 6 -29q-1 -3 -2 -35l1 4q0 -3 -1 -4q7 -6 14 -6t16 6q0 21 1 46q1 14 1 21q4 33 12 67q-9 5 -14 5q-6 0 -16 -5
v-5v-4v-4v-4l-1 15q0 -21 -22 -21q-21 0 -50 11q-25 11 -57 11q-104 0 -182 -102t-78 -245q0 -144 89 -245q88 -102 197 -102q110 0 189 111v1l4 6q3 6 3 19q0 9 -3 18q-8 17 -25 22q-4 2 -13 2q-12 0 -24 -6q-19 -10 -27 -28q-5 -12 -5 -21q0 -7 4 -17zM402 59l24 4
q-3 -1 -4 -1q-13 -3 -20 -3z" />
    <glyph glyph-name="d" unicode="d" horiz-adv-x="593" 
d="M295 695l-150 -5l-1 1h-1h-1h-19q-13 0 -27 1q-15 0 -46 3q-3 -11 -3 -12q0 -2 3 -14h1h2q4 0 5 -1q29 -3 34 -56v-66v-66v-66v-66v-67v-66v-66v-66q-5 -51 -29 -56h-3q-1 -1 -2 -1h-3h-1h-1h1q-4 -9 -4 -12q0 -7 5 -13q33 2 37 2v1q19 0 30 1h21h22q10 -1 30 -1
q11 -1 41 -2q29 -1 41 -1h57q84 0 158 59q73 58 73 202q0 87 -33 182t-87 161q-35 42 -77 66q-43 24 -75 24h2zM276 670q31 0 80 -30q48 -30 82 -86q28 -48 45 -105q17 -60 17 -127q2 -10 2 -29q0 -44 -18 -89q-24 -60 -46 -94q-35 -51 -78 -67q-42 -15 -81 -15h-2h-48
q-21 0 -21 19v603q0 20 21 20h43h2h2z" />
    <glyph glyph-name="e" unicode="e" horiz-adv-x="550" 
d="M485 108q-7 -28 -47 -52q-39 -25 -75 -27h-1v-1h-35h-103q-15 1 -21 3q-7 1 -7 35v-38v80v80v80v79v26v29v31v31q2 8 3 16q0 4 19 4q3 0 13 -1q13 -1 22 -1q29 -5 66 -25q37 -19 54 -41q4 -5 5 -7t1 -3l1 -2v2q0 -1 4 -6h5l5 -1q1 0 5 1h4q9 2 18 11q-7 8 -14 18
q-10 11 -15 18q-15 18 -23 39q-8 20 -10 42q-1 17 -4 45h-17q-9 -3 -18 -11q0 -1 1 -2v-2v-1v-2q-3 -29 -42 -33q-39 -6 -61 -6q-3 0 -7 -1h-5q-9 0 -9 3q0 6 -1 13v32v33q0 20 1 32v27q0 9 9 12q10 1 49 2h61h2h20h-23q38 0 78 -3q42 -4 47 -33v-1v-2q1 -1 5 -2h3
q2 -1 5 -1q6 29 10 41q3 14 13 39q-3 1 -7 2h-6q-1 -1 -3 -1t-2 -1q-48 -8 -107 -11q-40 -2 -75 -2l-12 -1q-20 -1 -26 -1q-18 -1 -35 -1h-13h-3h1h2h-1h-26q-10 -1 -20 -1q-9 0 -19 1h-27q-15 0 -46 3q-4 -7 -4 -12t4 -13h1h1h2q-1 0 -1 -1h1h5q28 -3 33 -57v-65v-66v-67
v-66v-66v-66v-67v-65q-5 -51 -29 -56q-3 0 -4 -1h-4l-1 -1h-1h1q-3 -7 -3 -12q0 -7 4 -12q13 1 18 1q7 0 19 1q18 0 29 1h22q26 0 52 -1h2h2h3h2l32 -2h1h1h282q3 4 3 13q0 10 -3 14q-6 19 -6 21q-2 7 -4 22v9q-1 5 -1 10q0 21 5 51q-7 4 -14 4q-6 0 -13 -4q-3 -23 -3 -33z
" />
    <glyph glyph-name="f" unicode="f" horiz-adv-x="491" 
d="M213 516q-3 0 -7 -1h-5q-9 0 -9 3q0 6 -1 13v32v33q0 20 1 32v27q0 9 9 12q10 1 49 2h61h2h20h-23q38 0 78 -3q42 -4 47 -33v-1v-2q1 -1 5 -2h3q2 -1 5 -1q6 29 10 41q3 14 13 39q-3 1 -7 2h-6q-1 -1 -3 -1t-2 -1q-48 -8 -107 -11q-40 -2 -75 -2l-12 -1q-20 -1 -26 -1
q-18 -1 -35 -1h-13h-3h1h2h-1h-26q-10 -1 -20 -1q-9 0 -19 1h-27q-15 0 -46 3q-4 -7 -4 -12t4 -13h1h1h2q-1 0 -1 -1h1h5q28 -3 33 -57v-65v-66v-67v-66v-66v-66v-67v-65q-5 -51 -29 -56q-3 0 -4 -1h-4l-1 -1h-1h1q-3 -7 -3 -12q0 -7 4 -12q13 1 18 1q7 0 19 1q18 0 29 1h22
q26 0 52 -1q5 0 21 -1h11q5 -1 11 -1q5 6 5 12t-5 13q-2 0 -11 1h6q-38 0 -38 76v-75v80v80v80v79v26v29v31v31q2 8 3 16q0 4 19 4q3 0 13 -1q13 -1 22 -1q29 -5 66 -25q37 -19 54 -41q4 -5 5 -7t1 -3l1 -2v2q0 -1 4 -6h5l5 -1q1 0 5 1h4q9 2 18 11q-7 8 -14 18
q-10 11 -15 18q-15 18 -23 39q-8 20 -10 42q-1 17 -4 45h-17q-9 -3 -18 -11q0 -1 1 -2v-2v-1v-2q-3 -29 -42 -33q-39 -6 -61 -6z" />
    <glyph glyph-name="g" unicode="g" horiz-adv-x="607" 
d="M540 292q7 16 31 20h3h1h2q9 7 9 12t-9 12q-53 -3 -89 -3q-38 0 -90 3q-9 -6 -9 -12t9 -12h2h2h1q30 -5 36 -27v-147v-6q-1 -5 -1 -6t1 -6v-7v1q-2 -4 -3 -18q-1 -12 -9 -20q-7 -9 -20 -18q-13 -11 -19 -13q-24 -7 -38 -10q-5 -2 -18 -2q-4 0 -10 1q-8 1 -12 1
q-2 0 -11 3l-12 3q-44 11 -70 48q-26 36 -31 62q0 7 -3 17q-3 9 -3 19v22v33v38v41v40v39v33v23v2q2 20 16 69q13 48 32 79q3 5 4 5q5 8 19 20v1q15 19 72 30q12 3 38 3q25 0 48 -4q48 -9 65 -35q6 -19 6 -29v-12q-1 -7 -1 -23l1 4q0 -1 -1 -4v0q6 -6 14 -6q7 0 16 6v16v17
q0 11 1 34q4 34 13 67q-10 5 -14 5q-7 0 -16 -5v-5v-4v-4v-4l-1 15q0 -21 -23 -21q-21 0 -49 11q-26 11 -57 11q-105 0 -207 -102q-104 -102 -104 -245q0 -144 89 -245q88 -102 197 -102q36 0 72 14h-1q2 0 4 1q8 3 24 12q27 14 58 25q35 14 61 17h2h1h2h2q7 6 7 11
q0 3 -7 10h-1h-2h-2q-16 2 -18 17v154v30zM547 312h-7h3h2h2zM540 100v-9v9z" />
    <glyph glyph-name="h" unicode="h" horiz-adv-x="556" 
d="M217 486h135q23 -3 27 -23v-29v-29v-28v-29v-67v-66v-66v-66q-4 -51 -29 -56h-2q-1 -1 -2 -1h-2h-2h-1h1q-4 -7 -4 -12q0 -7 4 -13q34 2 37 2v1q19 0 30 1h21h22q11 -1 31 -1q4 -1 10 -1q4 -1 11 -1q5 0 22 -1q5 6 5 12t-5 13q-4 0 -6 1h-3h-3h7q-38 0 -38 76v-75v80v80
v80v80v65v65v65v65q1 60 37 60q0 1 1 1q5 7 5 13q0 5 -5 12q-32 -3 -46 -3h-46h-18q-13 0 -28 1q-14 0 -45 3q-4 -7 -4 -12q0 -7 4 -14h1h1h1q4 0 5 -1q29 -2 33 -56v-19v-20v-19v-19q-5 -18 -28 -20h-137q-21 3 -22 24v17v17v18v17q1 60 38 60q0 1 1 1q4 7 4 13q0 5 -4 12
l-46 -3h-12h-12h-11h-11h-19q-13 0 -27 1q-15 0 -46 3q-3 -11 -3 -12q0 -2 3 -14h1h2q4 0 5 -1q29 -3 34 -56v-66v-66v-66v-66v-67v-66v-66v-66q-5 -51 -29 -56h-8l-1 -1h-1h1q-4 -9 -4 -12q0 -7 5 -13q10 1 37 2v1q19 0 30 1h21h22q10 -1 30 -1q4 0 21 -1q5 -1 11 -1
q4 -1 11 -1q5 8 5 12t-5 13q-4 0 -6 1h-2h-4h7q-38 0 -38 76v-75v80v80v80v80v34v35v34v35v-26q0 21 25 26zM192 533v-18v5v3v5v5zM364 515h15h-15z" />
    <glyph glyph-name="i" unicode="i" horiz-adv-x="230" 
d="M33 27h-3q-1 -1 -2 -1h-3h-1h-1h1q-4 -9 -4 -12q0 -7 5 -13q33 2 37 2v1q19 0 30 1h21h22q10 -1 30 -1q6 -1 17 -1q12 -1 26 -2q5 8 5 12t-5 13q-4 0 -6 1h-2h-4h7q-38 0 -38 76v-75v80v80v80v80v65v65v65v65q1 60 38 60v1q5 7 5 13q0 5 -5 12q-30 -3 -45 -3h-46h-19
q-13 0 -27 1q-15 0 -46 3q-3 -11 -3 -12q0 -2 3 -14h1h2q4 0 5 -1q29 -3 34 -56v-66v-66v-66v-66v-67v-66v-66v-66q-5 -51 -29 -56z" />
    <glyph glyph-name="j" unicode="j" horiz-adv-x="448" 
d="M93 15q6 2 9 5l1 1q16 13 16 31q0 42 -50 42q-48 0 -48 -42v-1v-1h-1q0 -60 51 -98q51 -37 128 -37q75 0 128 51q51 50 51 111h-1v62v75v75v59v65v65v65v65q3 60 38 60q0 1 1 1q4 7 4 13q0 5 -4 12q-32 -3 -46 -3h-46h-19q-13 0 -26 1q-16 0 -46 3q-5 -7 -5 -12
q0 -7 5 -14h1h1h1q4 0 5 -1q29 -3 33 -56v-66v-66v-66v-66v-61v-76v-76v-60q0 -53 -29 -94q-31 -41 -72 -41q-56 0 -86 40q-5 10 -5 16q0 10 11 19z" />
    <glyph glyph-name="k" unicode="k" horiz-adv-x="672" 
d="M375 580q-2 4 -2 12q0 18 16 34l-3 -3l11 13l-5 -7q10 11 33 24q23 15 40 19h2h2h1q2 6 2 11q0 3 -2 10q-30 -4 -48 -4h-14q-18 0 -47 4q-9 -7 -9 -10q0 -6 8 -11h1q5 0 5 -8q0 -2 -1 -4q-1 -4 -1 -6q-6 -17 -15 -31l-112 -126q-14 -13 -24 -13q-11 0 -11 16v-8v29v29v29
v29q1 60 38 60v1q5 7 5 13q0 5 -5 12q-30 -3 -45 -3h-46h-19q-13 0 -27 1q-15 0 -46 3q-3 -11 -3 -12q0 -2 3 -14h1h2q4 0 5 -1q29 -3 34 -56v-66v-66v-66v-66v-67v-66v-66v-66q-5 -51 -29 -56h-3q-1 -1 -2 -1h-3h-1h-1h1q-4 -7 -4 -12q0 -7 5 -13q33 2 37 2v1q19 0 30 1h21
h22q10 -1 30 -1q6 -1 17 -1q12 -1 26 -2q5 8 5 12t-5 13q-4 0 -6 1h-2h-4h7q-38 0 -38 76v-75v80v80v80v80v6v6v7v6q0 20 12 42q11 24 26 42q21 20 41 20q18 0 33 -19l152 -381q2 -7 2 -29q0 -16 -8 -20h-1h-2h-2q-4 -9 -4 -15q0 -7 4 -13q52 5 93 5q38 0 91 -5q5 7 5 13
q0 5 -5 14h1h-1v1h-2h-1q-17 2 -34 17q-18 16 -24 30l8 -23l-13 33v0q0 -1 2 -3l-191 475l-17 43zM241 458l1 1v0l2 2l-4 -3l15 17zM293 518l8 9z" />
    <glyph glyph-name="l" unicode="l" horiz-adv-x="550" 
d="M195 122v228v65v65v65v65q2 60 39 60v1q5 7 5 13q0 4 -5 12q-5 -1 -11 -1q-5 -1 -12 -1q-14 -1 -22 -1h-27q-10 -1 -19 -1q-7 0 -12 1h-12q-16 1 -23 1q-29 1 -45 2q-4 -7 -4 -12q0 -6 4 -13h3h2h1h1q1 -1 2 -1q29 -3 32 -56v-66v-67v-66v-65v-63v-63v-65v-68h1v-2v-2v-3
v-2q-4 -51 -29 -57h-2h-2h-4h-1q0 -1 -1 -1h1q-4 -8 -4 -12q0 -6 5 -11q13 0 21 1h16q24 1 51 1h30h22v-1h9v-1h31h1h2h282q3 5 3 12q0 9 -3 14h-1q-1 5 -5 21q-3 10 -4 22v9q-1 5 -1 10q0 21 5 51q-9 4 -14 4q-6 0 -13 -4q-3 -18 -3 -33q-8 -28 -47 -52t-75 -27l129 7v1
l1 -1l1 -1l-167 -7h-103q-13 0 -22 2q-6 2 -6 36v-38v23v23v23v26h-1z" />
    <glyph glyph-name="m" unicode="m" horiz-adv-x="1105" 
d="M189 59q-6 -9 -17 -18q-13 -11 -23 -13h-3h-3h-2h-2q-5 -6 -5 -13q0 -8 5 -14q25 5 53 5q25 0 52 -5q6 8 6 14q0 5 -6 12v1h-5q-20 0 -20 30l74 226h-31zM378 550q12 29 20 31q9 0 30 -28l119 -230l-2 -8q5 -2 14 -2q5 0 12 1q2 1 4 1l83 258q9 21 16 21q5 0 8 -8l7 -16
v-1q0 -1 1 -1v1l92 -221l13 -31l15 -36q15 -38 27 -66q19 -44 28 -66q19 -44 28 -66q5 -11 5 -28q0 -22 -20 -28h-2q-1 -1 -2 -1h-2h-2h-1h1q0 -6 1 -10v-2q2 -5 10 -13q9 1 23 2q11 0 22 1q19 0 30 1h21q26 0 52 -1q7 -1 19 -1q11 -1 25 -2q0 1 1 3v3v3l-1 3q-2 6 -10 13
q-4 0 -6 1h-3h-3h7q-40 0 -70 76l30 -75v1q-15 37 -33 79q-11 27 -34 80q-16 41 -33 80t-33 80q-12 28 -28 65q-14 31 -27 65q-13 32 -27 65q-14 31 -27 65q-9 24 -9 38q0 22 22 22q0 1 1 1q0 7 -1 13q-2 5 -9 12q-25 -2 -45 -2q-19 -1 -46 -1h-11h-8q-4 0 -18 1l9 -25
l-52 -156q-8 -19 -17 -29q-3 -3 -8 -3q-7 0 -13 9l-67 119q-9 24 -9 39q0 22 21 22h1q0 5 -1 10v4q-2 4 -9 12q-26 -3 -45 -3h-26q-10 -1 -20 -1q-6 0 -9 1h-7h-15q-8 0 -12 1h-11l-15 2q-6 0 -9 1q-10 -7 -12 -12v-2q-1 -2 -1 -3t1 -5q1 -2 1 -3q7 -1 19 -2l-19 1
q36 0 36 -32t-6 -65l-94 -287h30zM369 607l18 59h1z" />
    <glyph glyph-name="n" unicode="n" horiz-adv-x="715" 
d="M645 646v40q0 24 16 34q8 4 14 4q2 0 6 -1t6 -1q15 -5 24 -11q5 -6 13 -19q3 -3 3 -10t-5 -15q3 0 12 8q10 9 15 26q3 6 3 19q0 16 -11 30q-18 20 -49 23q-35 0 -58 -20q-25 -23 -25 -52v-1v-1v-2v-2v-468q-5 -20 -24 -20q-20 0 -50 37l-72 104q-44 63 -89 130
q-17 26 -43 65q-21 31 -44 65q-20 32 -20 46t17 14q0 1 1 1q-1 7 -5 13q-5 6 -12 12q-30 -3 -44 -3h-46h-19q-13 0 -27 1h-17h-27q-29 1 -44 3q0 -8 4 -12q4 -6 13 -14h1h2h-1h1q4 0 5 -1h2h1h2q26 -5 26 -27q0 -26 2 -50l1 4v-542q-4 -19 -28 -23h-2h-3v-1h-1h1
q-4 -7 -4 -13t4 -15q32 4 49 4q15 0 47 -4q5 10 5 15t-5 14h-1h-1h-3q-23 3 -26 23v528q0 10 8 26q11 8 18 8q6 0 10 -3q13 -8 28 -27q40 -60 82 -121q40 -60 79 -116q20 -31 45 -67q20 -29 44 -66q18 -27 45 -66q26 -38 45 -66q15 -25 24 -52q5 -15 5 -20q0 -10 -6 -10
l14 2h2h7h8v1h12h13h12h13l41 -3l-2 2q-19 18 -26 52q-8 31 -11 64v135v128v129v135z" />
    <glyph glyph-name="o" unicode="o" horiz-adv-x="594" 
d="M311 695q-107 0 -183 -102q-77 -102 -77 -245t77 -245q76 -102 183 -102t184 102t77 245q0 142 -77 245q-77 102 -184 102zM208 636q9 3 28 3q55 0 117 -40q79 -52 119 -171q25 -73 25 -150q0 -40 -8 -85q-23 -117 -88 -131q-11 -4 -33 -4q-51 0 -105 36q-71 46 -110 166
q-30 87 -30 175q0 36 4 65q15 120 81 136z" />
    <glyph glyph-name="p" unicode="p" horiz-adv-x="505" 
d="M244 451q44 10 74 19q17 4 38 9q19 5 42 11q10 2 34 9q18 5 30 19q10 14 13 30q3 22 3 29q0 51 -32 84q-32 34 -96 34l-263 -3q-15 0 -44 3q-3 -11 -3 -12q0 -2 3 -14h1h2q4 0 5 -1q29 -3 34 -56v-66v-66v-66v-66v-43v-43v-44v-45v-24q-1 -10 -1 -24v-23v-20
q-3 -50 -31 -56h-2h-2h-3l-1 -1h-1h-1h1q-3 -6 -3 -12q1 -7 4 -12q15 0 23 1q9 0 16 1h32h24h32h23q6 -1 12 -1q4 -1 11 -1h23q6 6 6 11q0 4 -6 13q-6 0 -12 1h7q-41 0 -41 76v-75v41v40v43v46h-1v217q0 9 10 18q9 10 20 13q7 2 20 6zM233 470q-9 -1 -15 -3q-24 0 -24 18
v165q0 20 24 20h106h2h1h2h1h2h1q24 0 51 -23q26 -23 26 -55q0 -27 -20 -59q-19 -32 -59 -40z" />
    <glyph glyph-name="q" unicode="q" horiz-adv-x="594" 
d="M434 43q61 43 99 125q39 82 39 180q0 142 -77 245q-77 102 -184 102t-183 -102q-77 -102 -77 -245t77 -245q76 -102 183 -102q54 0 105 29q23 -26 23 -47q0 -11 -6 -20q-9 -15 -37 -15q-28 3 -61 27q0 -7 27 -26q42 -30 86 -53q26 -14 44 -14q12 0 22 8q6 7 6 18
q0 19 -18 52q-29 50 -68 83zM381 59h-7q-5 -1 -7 -1q-55 0 -113 43q-65 49 -101 159q-30 87 -30 175q0 36 4 65q15 120 81 136q9 3 28 3q55 0 117 -40q79 -52 119 -171q25 -75 25 -151q0 -43 -7 -79q-22 -114 -84 -135l-1 1q-26 18 -37 44q-5 13 -5 23q0 9 5 19q10 17 31 17
q27 0 68 -29q0 5 -27 25q-39 28 -81 46q-19 8 -32 8q-15 0 -26 -11q-7 -7 -7 -21q0 -18 15 -47q28 -49 69 -77z" />
    <glyph glyph-name="r" unicode="r" horiz-adv-x="499" 
d="M365 464q5 17 27 23q10 2 19 5q14 6 25 11q13 8 19 15q18 20 19 47q0 51 -42 90q-45 40 -107 40l-238 -3q-15 0 -44 3q-3 -11 -3 -12q0 -2 3 -14h1h2q4 0 5 -1q29 -3 34 -56v-66v-66v-66v-66v-43v-43v-44v-45v-24q-1 -10 -1 -24v-23v-20q-3 -50 -31 -56h-2h-2h-3l-1 -1
h-1h-1h1q-3 -6 -3 -12q1 -7 4 -12q15 0 23 1q9 0 16 1h32h24h32h23q6 -1 12 -1q4 -1 11 -1h23q6 6 6 11q0 4 -6 13q-6 0 -12 1h7q-41 0 -41 76v-75v41v40v43v46h-1v262q0 24 30 27h21q26 -1 37 -1q11 -1 24 -1q23 -6 23 -25v26h1q0 -8 -1 -16q0 -16 5 -71q4 -61 15 -128
q9 -70 27 -145q16 -74 43 -122q27 -52 59 -74q31 -22 48 -22q2 -1 6 -1q15 0 39 12q25 13 25 40q0 28 -22 47q-21 20 -37 20q-9 0 -9 -11v-3q1 -3 1 -5q-2 -14 -19 -16q-19 0 -39 24q-1 1 -4 6q-2 3 -4 7q-23 41 -41 103q-19 70 -29 125q-13 65 -19 121q-3 29 -3 31
q-1 10 -2 19q-3 23 -4 38zM241 515h-13q-8 0 -10 -1q-24 0 -24 18v118q0 20 24 20h67h1h2q3 0 13 -1h10q2 -1 4 -1q19 0 43 -10q22 -9 39 -26q11 -13 14 -29q2 -15 2 -27q0 -27 -39 -45q-40 -17 -81 -17z" />
    <glyph glyph-name="s" unicode="s" horiz-adv-x="700" 
d="M411 688q-47 9 -95 9q-88 0 -143 -39t-60 -76l-1 -2h1q-4 -22 -4 -33q0 -60 54 -102q67 -53 162 -53v4v-4h2h2q101 0 190 -52q88 -53 96 -95q2 -7 2 -22q0 -29 -13 -75q-18 -55 -67 -86q-34 -21 -86 -28q-50 -8 -95 -8q-27 0 -57 5q-35 7 -53 11q-25 5 -35 9
q-14 4 -33 15q-46 25 -70 62q-9 11 -14 35l-2 9q-2 13 -2 18q0 2 1 4v3q5 27 17 33q11 5 37 5q7 -4 11 -6q5 -3 8 -5q7 -5 10 -18q0 -15 -4 -20q-2 0 -2 -3q0 -2 8 -2q15 0 37 17q23 15 27 30q5 10 6 17v7v6q0 74 -82 80q-1 0 -8 1h-9q-39 0 -67 -20q-32 -23 -32 -66v-2v-5
v-5v-5q0 -18 8 -56q6 -35 24 -61q13 -22 36 -39q26 -20 44 -29q32 -19 78 -32q63 -18 118 -18q49 0 107 10q59 10 99 33q59 33 84 85q26 51 27 92v1q0 119 -102 206t-243 87h-2h-2v-1q-46 1 -79 26q-34 25 -35 65h3q4 26 45 44q39 19 98 19q57 0 92 -20q36 -19 51 -43
l22 -54q14 -4 22 -4q9 0 19 4q-22 43 -33 78q-7 22 -10 40q-4 25 -5 39q-13 4 -22 4q-11 0 -19 -4q2 -8 3 -11q2 -9 3 -11l-6 22q2 -4 2 -11q0 -14 -15 -14q-22 0 -49 5z" />
    <glyph glyph-name="t" unicode="t" horiz-adv-x="744" 
d="M148 694q-7 0 -29 7l-1 -7h1h-2q0 4 2 8q-5 3 -13 3q-9 0 -15 -3q-7 -39 -17 -71q-14 -45 -28 -71q7 -3 14 -3q4 0 13 3q3 5 14 31l-3 -9q6 26 43 55q37 28 75 31l-5 1h25q11 -1 27 -1h25h26q27 -5 31 -56v-66v-66v-66v-66v-67v-66v-66v-66q-4 -51 -29 -56h-2
q-1 -1 -2 -1h-2h-2h-1h1q-4 -7 -4 -12q0 -7 4 -13q6 0 10 1q4 0 9 1q6 0 18 1q19 0 30 1h21q28 0 52 -1q14 -1 22 -2q5 0 22 -1q4 6 4 12t-4 13q-4 0 -6 1h-3h-3h7q-39 0 -39 76v-75v1v79v80v80v80v65v65v65v65q4 60 39 60h22h24q13 0 23 1h23h-3q30 -2 63 -24t47 -45
q5 -16 17 -40q8 -3 15 -3q5 0 12 3q-18 40 -28 71q-10 30 -18 71q-6 3 -14 3t-12 -3v-1q-23 -7 -28 -7q-30 -1 -59 -1q-25 -1 -59 -1h-59h-59h-58h-58q-61 0 -116 2z" />
    <glyph glyph-name="u" unicode="u" horiz-adv-x="622" 
d="M447 109q-2 -26 -15 -42q-41 -39 -99 -39q-53 0 -91 33q-39 33 -44 82v51v51v52v51v65v65v65v65q1 60 38 60v1q5 7 5 13q0 5 -5 12q-30 -3 -45 -3h-46h-19q-13 0 -27 1q-15 0 -46 3q-3 -11 -3 -12q0 -2 3 -14h1h2q4 0 5 -1q29 -3 34 -56v-66v-66v-66v-66v-51v-52v-51v-51
q4 -59 65 -99q59 -41 142 -41q59 0 107 22q-3 -7 -3 -11q0 -6 4 -13q34 2 37 2v1q19 0 30 1h21h22q11 -1 31 -1q6 -1 17 -1q12 -1 26 -2q5 8 5 12t-5 13q-4 0 -6 1h-2h-4h7q-38 0 -38 76v-75v80v80v80v80v65v65v65v65q2 60 38 60v1q5 8 5 13q0 4 -5 12q-30 -3 -45 -3h-47
h-18q-13 0 -28 1q-16 0 -45 3q-5 -9 -5 -12q0 -5 5 -14h1h2h-1h1q4 0 6 -1q27 -2 32 -56v-66v-66v-66v-66v-48v-48v-48v-47v1v-7v-5v-10v-9v-9v-9z" />
    <glyph glyph-name="v" unicode="v" horiz-adv-x="636" 
d="M559 711q13 -13 17 -25q1 -6 1 -11v-17q-2 -75 -24 -142q-20 -58 -48 -128q-25 -58 -48 -124q-20 -60 -20 -128q0 -22 -10 -28q-11 0 -26 37v-4q-10 27 -19 52q-10 25 -18 52q-10 25 -19 51q-9 24 -20 52q-12 32 -24 65q-12 32 -23 65q-13 33 -24 65l-1 2q-17 48 -23 63
q-7 25 -7 35q0 25 23 25q0 1 1 1q0 4 -1 9v4q-2 5 -8 12l-45 -3h-12h-12h-11h-11h-19q-13 0 -27 1q-15 0 -47 3v-12q2 -7 9 -14h2h2q4 0 5 -1q31 -3 54 -56q10 -31 23 -66t25 -66q11 -34 24 -66q12 -33 25 -66q11 -32 24 -67l24 -66l24 -66q13 -35 25 -66q5 -13 5 -32
q0 -21 -14 -24h-7v-1h-1h1v-3q-1 -2 -1 -3l1 -3v-3q1 -6 9 -13q10 1 36 2v1q18 0 29 1h22h21q11 -1 31 -1q5 0 22 -1q5 -1 11 -1q4 -1 11 -1q0 1 1 3v3v3l-1 3q-2 5 -9 13h-2v0h-2q0 1 -1 1q-27 6 -27 23q1 2 6 19q3 12 4 20q0 151 66 287q69 140 82 301v1v4v3v12
q-2 31 -30 54q-26 20 -59 20q-62 -7 -62 -79q0 -11 3 -19q6 -29 30 -29q13 0 25 14q13 13 13 30q0 5 -2 8q0 2 -4 5q-12 11 -12 17t4 6q3 1 5 1q10 0 35 -14z" />
    <glyph glyph-name="w" unicode="w" horiz-adv-x="871" 
d="M597 679q-1 -68 -20 -134q-19 -61 -43 -124q-10 26 -17 47q-9 23 -17 46l-3 9q-7 18 -14 38l-7 16q-5 16 -11 31q-6 21 -6 34q0 26 22 26l1 1v13q-2 4 -10 12q-23 -2 -44 -2q-14 -1 -26 -1h-20h-19q-13 0 -27 1q-15 0 -47 3q0 -2 -1 -4v-3q0 -2 1 -5q1 -6 10 -14h1h2
q4 0 5 -1q31 -3 54 -56q11 -34 24 -66q13 -37 24 -66q14 -38 25 -66q13 -37 24 -66q8 -21 24 -66q-12 -38 -19 -73q-6 -34 -6 -73q0 -22 -10 -28q-11 0 -26 37v-4q-10 27 -19 52q-10 25 -18 52q-10 25 -19 51q-9 24 -20 52q-12 32 -24 65q-12 32 -23 65q-13 33 -24 65l-1 2
q-17 48 -23 63q-7 25 -7 35q0 25 23 25q0 1 1 1q0 4 -1 9v4q-2 5 -8 12l-45 -3h-12h-12h-11h-11h-19q-13 0 -27 1q-15 0 -47 3v-12q2 -7 9 -14h2h2q4 0 5 -1q31 -3 54 -56q10 -31 23 -66t25 -66q11 -34 24 -66q12 -33 25 -66q11 -32 24 -67l24 -66l24 -66q13 -35 25 -66
q5 -13 5 -32q0 -21 -14 -24h-7v-1h-1h1v-3q-1 -2 -1 -3l1 -3v-3q1 -6 9 -13q10 1 36 2v1q18 0 29 1h22h21q11 -1 31 -1q5 0 22 -1q5 -1 11 -1q4 -1 11 -1q0 1 1 3v3v3l-1 3q-2 5 -9 13h-2v0h-2q0 1 -1 1q-27 6 -27 23q1 2 6 19q3 12 4 20q0 67 18 137l3 -8q2 -7 10 -27
q6 -18 13 -37q10 -29 26 -71q6 -19 6 -33q0 -20 -14 -23h-2h-2h-2h-2v-1v0h-2h2v-3q-1 -2 -1 -3l1 -3v-3q2 -6 9 -12h10q4 0 9 1q6 0 18 1h-1q19 0 30 1h22q27 0 51 -1q6 0 22 -1q14 -1 23 -2q0 1 1 3v3v3l-1 3q-1 3 -10 13h-2h-1q0 1 -2 1h1h-1q-26 6 -26 23q1 4 5 19
q3 9 4 20q0 148 66 287q68 141 81 301h1v7v6q0 2 1 4v3h-1q-3 30 -30 54q-23 20 -59 20q-61 -6 -61 -79q0 -13 2 -19q6 -29 30 -29q13 0 25 14q13 14 13 30v4q-1 2 -1 3h1q-11 14 -11 22q0 6 4 9q2 3 7 3q9 0 26 -14q3 -4 12 -19q6 -10 6 -21h1q-3 -77 -25 -144
q-21 -64 -48 -134q-30 -75 -47 -130q-20 -60 -20 -131q-1 -21 -11 -28q-11 0 -26 37l1 -3q-10 25 -19 51q-9 23 -19 52q-7 19 -19 51q-10 25 -19 52q-8 22 -9 28q15 44 25 71l24 72q23 71 31 150v1v2q0 52 -37 79l1 -2q3 -14 3 -21v-4q-1 -4 -1 -5q-2 -6 -2 -22q0 -1 1 -8
v-10z" />
    <glyph glyph-name="x" unicode="x" horiz-adv-x="521" 
d="M95 46q1 69 49 120q47 50 96 117l3 -9q7 -18 16 -40q9 -25 19 -51q10 -29 19 -51l7 -18l11 -31q6 -21 6 -34q0 -19 -13 -22h-2q-1 -1 -2 -1h-3h-1h-1h1q0 -2 -1 -4v-3q0 -2 1 -5q1 -6 9 -13q34 2 36 2v1q18 0 29 1h22h22q11 -1 30 -1q7 -1 19 -1q12 -1 26 -2q0 1 1 3v3v3
l-1 3q-2 4 -10 13q-3 0 -6 1h-2h-3h7q-40 0 -68 76l28 -75q-14 37 -30 80q-13 33 -31 80q-16 46 -29 80q-10 27 -30 80q-2 3 -3 8q-2 5 -4 11q54 72 98 152q42 77 52 161q1 2 1 11v1v1q-2 46 -45 56q11 -22 13 -56h-1q-7 -81 -44 -156q-34 -71 -86 -141l-20 52l-20 54
q-1 4 -11 29l-9 25q-9 25 -19 52q-7 21 -7 36q0 24 22 24q0 1 1 1q0 4 -1 9v4q-2 5 -8 12q-31 -3 -45 -3h-46h-19q-13 0 -27 1q-17 0 -47 3v-12q1 -5 9 -14h2h2q4 0 6 -1q29 -3 53 -56q14 -38 25 -66q12 -33 25 -66q14 -38 25 -66q12 -33 25 -66l6 -18q1 -4 3 -8q2 -6 4 -9
q-63 -81 -113 -131q-54 -55 -54 -139h2q2 -41 51 -51q-5 8 -12 24q-7 14 -8 30z" />
    <glyph glyph-name="y" unicode="y" horiz-adv-x="629" 
d="M462 335q0 83 57 162q56 80 83 169q1 2 1 9q0 45 -54 58l6 -12l1 -2q3 -8 8 -16q9 -20 9 -38q-18 -84 -79 -156q-58 -68 -58 -150q0 -14 -10 -16q-12 0 -26 24v-2q-22 38 -37 67q-9 15 -19 33q-10 16 -20 34q-27 46 -44 70q-20 27 -44 71q-7 14 -7 21q0 2 1 4q5 4 22 4v5
q0 6 1 6q0 3 -1 6v2q-1 2 -9 8q-11 -1 -22 -5q-11 -3 -22 -3h-19h-27q-9 0 -23 1q-13 1 -23 1t-24 3q-10 2 -24 3q-2 -2 -2 -7q0 -4 3 -7q4 -9 9 -12h4h1h1h1h1q17 -2 30 -5q12 -5 25 -22q22 -41 44 -73q21 -29 46 -71q12 -22 23 -41q10 -19 23 -41q7 -12 16 -28q1 -1 8 -13
q11 -21 22 -41h1q15 -25 20 -57v-49v-47v-48v-51q-4 -51 -29 -56h-8v-1h-1h1q-4 -6 -4 -12q0 -8 4 -13q10 1 37 2v1q19 0 30 1h21h22q11 -1 30 -1q5 0 22 -1q8 -1 21 -2q5 6 5 12t-5 13q-4 0 -6 1h-2h-3h6q-38 0 -38 76v-75v12v31v42v43v38v31v11v-16q0 29 11 56
q12 32 13 59z" />
    <glyph glyph-name="z" unicode="z" 
d="M514 1q29 -1 36 -1q12 0 39 -6l-1 1h1q8 0 15 3q0 30 7 59q5 26 20 57q-8 7 -13 8q-8 0 -17 -4q-6 -14 -6 -16q-17 -27 -48 -48q-31 -22 -64 -25h-38h-39q-22 0 -38 1h-39h-22q-9 -1 -22 -1h-22h-21q-7 3 -7 14q0 20 22 60l-41 -74q19 35 45 80l3 5q34 60 42 74
q22 43 44 80q22 39 45 80q20 35 37 65q21 37 37 65q18 33 36 65t36 65q37 60 73 60q0 1 1 1q9 8 12 13q2 5 2 12q-7 -1 -12 -1q-5 -1 -9 -1v2v1q-17 -1 -36 -1h-37h-36q-15 -1 -35 -1q-2 0 -4 1h-5h-5q-2 0 -4 1l-2 -2q-12 0 -46 -1q-21 -2 -45 -2q-42 0 -78 2q-23 0 -39 1
h-39l1 1q-35 2 -42 2t-36 4l-9 1q-6 6 -12 7q-6 0 -16 -3q-1 -37 -6 -60q-5 -22 -20 -58q7 -7 14 -7l4 -1q3 0 11 4q3 9 6 13l-1 -3q0 2 1 2v2v1q0 1 1 2q0 1 1 2q10 24 41 45q29 21 65 23l-72 1q53 -1 113 -1h111h20h20h20h20v-1h1h2h-1h1q4 0 5 -1q13 0 13 -16
q0 -14 -12 -40q-19 -33 -37 -66l-38 -66t-37 -66q-16 -27 -37 -66q-5 -10 -16 -29t-21 -38l-38 -66q-16 -29 -37 -66q-18 -31 -37 -66q-31 -48 -57 -55h-3h-3h-3q-1 -1 -2 -1v-1h-2h2q-10 -8 -12 -12q-3 -3 -3 -8q1 -3 1 -5q1 0 3 1h3h4q2 0 4 1v-1v-1h39q21 0 40 1h39h40v1
h8q2 0 4 -1q12 0 21 1h21h42h46q20 0 47 -1h46q19 -1 46 -1zM535 28h17h25h-42z" />
    <glyph glyph-name="braceleft" unicode="{" horiz-adv-x="239" 
d="M184 0q-24 57 -39 143q-16 85 -20 180q0 33 -26 50q-29 20 -36 27q10 0 36 26q26 27 26 56q7 119 32 209q25 89 61 142q-51 -25 -89 -122t-47 -230l1 -3v-4q0 -22 -25 -39q-30 -20 -38 -33q1 -19 35 -36q29 -16 29 -39v-3q-1 -3 -1 -4q8 -108 35 -193t66 -127z" />
    <glyph glyph-name="bar" unicode="|" horiz-adv-x="82" 
d="M26 800v-765h34v765h-34z" />
    <glyph glyph-name="braceright" unicode="}" horiz-adv-x="239" 
d="M56 0q38 42 65 127t36 193v4q-1 3 -1 4q0 23 29 38q33 17 35 36q-9 13 -38 33q-25 16 -25 37q0 1 1 5v4q-10 133 -47 230q-38 97 -90 122q37 -53 62 -142q24 -90 32 -209q0 -30 26 -56q25 -26 36 -26q-8 -7 -37 -27q-25 -18 -25 -50q-5 -95 -20 -180q-16 -86 -39 -143z
" />
    <glyph glyph-name="asciitilde" unicode="~" horiz-adv-x="469" 
d="M218 748v-2v-1q0 -36 33 -60q32 -24 78 -24q45 0 78 24t33 60q0 2 -1 9q-4 -24 -29 -41q-26 -18 -61 -18q-72 0 -88 53v1v2q0 35 -32 60q-33 24 -79 24t-78 -24q-32 -25 -32 -60v-10q3 25 29 42t61 17q72 0 88 -52z" />
    <glyph glyph-name="quoteleft" horiz-adv-x="137" 
d="M39 736q12 -9 29 -9q53 0 53 53t-53 53q-36 0 -50 -35q0 -2 -2 -7v-3q-1 -2 -1 -3v-7q-1 -5 -1 -7q0 -27 10 -54q11 -36 45 -49q-6 15 -17 31q-12 15 -13 37z" />
    <glyph glyph-name="quoteright" horiz-adv-x="137" 
d="M95 736q-2 -22 -13 -37q-11 -16 -17 -31q33 13 45 49q10 30 10 55v7q-1 5 -1 6q-1 2 -1 6q-1 2 -2 7q-13 35 -50 35q-53 0 -53 -53t53 -53q17 0 29 9z" />
    <glyph glyph-name="quotedblleft" horiz-adv-x="275" 
d="M51 736q12 -9 29 -9q53 0 53 53t-53 53q-36 0 -50 -35q0 -2 -2 -7v-3q-1 -2 -1 -3v-7q-1 -5 -1 -7q0 -27 10 -54q11 -36 45 -49q-6 15 -17 31q-12 15 -13 37zM177 736q12 -9 29 -9q53 0 53 53t-53 53q-36 0 -50 -35q-2 -5 -2 -7q-2 -4 -2 -7l1 1v-8q-1 -5 -1 -9
q0 -25 9 -51q12 -36 46 -49q-6 15 -17 31q-12 15 -13 37z" />
    <glyph glyph-name="quotedblright" horiz-adv-x="275" 
d="M231 736q-2 -22 -13 -37q-12 -16 -17 -31q33 13 45 49q9 27 9 54v8q-1 5 -1 6q-1 3 -1 6q0 2 -2 7q-14 35 -49 35q-53 0 -53 -53t53 -53q16 0 29 9zM105 736q-2 -22 -13 -37q-12 -16 -17 -31q33 13 45 49q9 27 9 54v8q-1 5 -1 6v6q-1 2 -3 7q-13 35 -49 35q-53 0 -53 -53
t53 -53q16 0 29 9z" />
    <glyph glyph-name="sterling" unicode="&#xa3;" horiz-adv-x="1200" 
d="M152 408q-37 -2 -55 -3q8 -7 8 -13t-8 -15q13 3 30 5q14 2 30 5q6 -29 10 -62q1 -12 1 -36v-15q-1 -9 -1 -17q-4 -41 -10 -79q-6 -42 -10 -79q-9 -60 -34 -67q-2 -1 -4 -1h-4v-1h-1h1q-4 -4 -4 -14q0 -9 4 -15q25 2 37 2v1h12h13q10 1 26 1h13q5 -1 13 -1h13h13
q57 0 118 -3q61 -4 117 -4q29 0 50 20q20 19 21 47q-2 -17 -22 -29q-21 -13 -49 -13q-47 0 -100 7q-44 5 -82 5h-12q-10 -1 -12 -1q-24 8 -24 58q0 5 1 14q1 12 1 17q-4 -42 -7 -89q3 48 9 96l12 96q3 17 3 49q0 23 -3 44q-5 43 -14 80q30 3 68 6q33 2 67 4q-10 6 -10 13
q0 6 10 15q-38 -6 -70 -11q-33 -5 -69 -8q-11 38 -20 79q-10 39 -11 84h3q-1 5 -1 15q0 86 29 147t66 61q31 0 52 -26q11 -15 11 -31q0 -13 -6 -25q-19 -19 -19 -43q0 -27 21 -45q20 -19 49 -19t50 19q20 18 20 45q0 57 -64 107t-118 50q-81 0 -138 -70q-58 -71 -58 -170v-3
v-3q0 -47 13 -90q14 -46 25 -91z" />
    </font>
</defs>
</svg>
